solid CATIA STL
  facet normal  0.000000e+000  -0.000000e+000  1.000000e+000
    outer loop
      vertex -6.750000e+000  8.250000e+000  4.000000e+000
      vertex  8.881784e-016  4.907477e+000  4.000000e+000
      vertex  6.750000e+000  8.250000e+000  4.000000e+000
    endloop
  endfacet
  facet normal  0.000000e+000  -0.000000e+000  1.000000e+000
    outer loop
      vertex -6.750000e+000  8.250000e+000  4.000000e+000
      vertex -4.250000e+000  2.453739e+000  4.000000e+000
      vertex  8.881784e-016  4.907477e+000  4.000000e+000
    endloop
  endfacet
  facet normal  0.000000e+000  0.000000e+000  1.000000e+000
    outer loop
      vertex  4.250000e+000  2.453739e+000  4.000000e+000
      vertex  6.750000e+000  8.250000e+000  4.000000e+000
      vertex  8.881784e-016  4.907477e+000  4.000000e+000
    endloop
  endfacet
  facet normal  0.000000e+000  0.000000e+000  1.000000e+000
    outer loop
      vertex -6.750000e+000 -8.250000e+000  4.000000e+000
      vertex  6.750000e+000 -8.250000e+000  4.000000e+000
      vertex -2.976023e-014 -4.907477e+000  4.000000e+000
    endloop
  endfacet
  facet normal  0.000000e+000  0.000000e+000  1.000000e+000
    outer loop
      vertex -6.750000e+000 -8.250000e+000  4.000000e+000
      vertex -2.976023e-014 -4.907477e+000  4.000000e+000
      vertex -4.250000e+000 -2.453739e+000  4.000000e+000
    endloop
  endfacet
  facet normal  0.000000e+000  -0.000000e+000  1.000000e+000
    outer loop
      vertex -6.750000e+000 -8.250000e+000  4.000000e+000
      vertex -4.250000e+000 -2.453739e+000  4.000000e+000
      vertex -4.250000e+000  2.453739e+000  4.000000e+000
    endloop
  endfacet
  facet normal  0.000000e+000  0.000000e+000  9.999999e-001
    outer loop
      vertex -6.750000e+000 -8.250000e+000  4.000000e+000
      vertex -4.250000e+000  2.453739e+000  4.000000e+000
      vertex -6.750000e+000  8.250000e+000  4.000000e+000
    endloop
  endfacet
  facet normal  -0.000000e+000  0.000000e+000  9.999999e-001
    outer loop
      vertex  6.750000e+000  8.250000e+000  4.000000e+000
      vertex  4.250000e+000  2.453739e+000  4.000000e+000
      vertex  6.750000e+000 -8.250000e+000  4.000000e+000
    endloop
  endfacet
  facet normal  0.000000e+000  0.000000e+000  1.000000e+000
    outer loop
      vertex  6.750000e+000 -8.250000e+000  4.000000e+000
      vertex  4.250000e+000  2.453739e+000  4.000000e+000
      vertex  4.250000e+000 -2.453739e+000  4.000000e+000
    endloop
  endfacet
  facet normal  0.000000e+000  0.000000e+000  1.000000e+000
    outer loop
      vertex  6.750000e+000 -8.250000e+000  4.000000e+000
      vertex  4.250000e+000 -2.453739e+000  4.000000e+000
      vertex -2.976023e-014 -4.907477e+000  4.000000e+000
    endloop
  endfacet
  facet normal -1.000000e+000  -0.000000e+000  0.000000e+000
    outer loop
      vertex  3.950000e+000 -2.280534e+000  3.700000e+000
      vertex  3.950000e+000  2.280534e+000  3.700000e+000
      vertex  3.950000e+000 -2.280534e+000  0.000000e+000
    endloop
  endfacet
  facet normal -1.000000e+000  0.000000e+000  0.000000e+000
    outer loop
      vertex  3.950000e+000 -2.280534e+000  0.000000e+000
      vertex  3.950000e+000  2.280534e+000  3.700000e+000
      vertex  3.950000e+000  2.280534e+000  0.000000e+000
    endloop
  endfacet
  facet normal -4.999999e-001 -8.660254e-001  0.000000e+000
    outer loop
      vertex  3.950000e+000  2.280534e+000  3.700000e+000
      vertex  3.330669e-015  4.561067e+000  3.700000e+000
      vertex  3.950000e+000  2.280534e+000  0.000000e+000
    endloop
  endfacet
  facet normal -4.999999e-001 -8.660254e-001  0.000000e+000
    outer loop
      vertex  3.950000e+000  2.280534e+000  0.000000e+000
      vertex  3.330669e-015  4.561067e+000  3.700000e+000
      vertex  8.881784e-016  4.561067e+000  0.000000e+000
    endloop
  endfacet
  facet normal  4.999999e-001 -8.660254e-001  0.000000e+000
    outer loop
      vertex  3.330669e-015  4.561067e+000  3.700000e+000
      vertex -3.950000e+000  2.280534e+000  3.700000e+000
      vertex  8.881784e-016  4.561067e+000  0.000000e+000
    endloop
  endfacet
  facet normal  4.999999e-001 -8.660254e-001  0.000000e+000
    outer loop
      vertex  8.881784e-016  4.561067e+000  0.000000e+000
      vertex -3.950000e+000  2.280534e+000  3.700000e+000
      vertex -3.950000e+000  2.280534e+000  0.000000e+000
    endloop
  endfacet
  facet normal  1.000000e+000  -0.000000e+000  0.000000e+000
    outer loop
      vertex -3.950000e+000  2.280534e+000  3.700000e+000
      vertex -3.950000e+000 -2.280534e+000  3.700000e+000
      vertex -3.950000e+000  2.280534e+000  0.000000e+000
    endloop
  endfacet
  facet normal  1.000000e+000  0.000000e+000  0.000000e+000
    outer loop
      vertex -3.950000e+000  2.280534e+000  0.000000e+000
      vertex -3.950000e+000 -2.280534e+000  3.700000e+000
      vertex -3.950000e+000 -2.280534e+000  0.000000e+000
    endloop
  endfacet
  facet normal  4.999999e-001  8.660254e-001  0.000000e+000
    outer loop
      vertex -3.950000e+000 -2.280534e+000  3.700000e+000
      vertex -5.086416e-014 -4.561067e+000  3.700000e+000
      vertex -3.950000e+000 -2.280534e+000  0.000000e+000
    endloop
  endfacet
  facet normal  4.999999e-001  8.660254e-001  0.000000e+000
    outer loop
      vertex -3.950000e+000 -2.280534e+000  0.000000e+000
      vertex -5.086416e-014 -4.561067e+000  3.700000e+000
      vertex -3.907985e-014 -4.561067e+000  0.000000e+000
    endloop
  endfacet
  facet normal -4.999999e-001  8.660254e-001  0.000000e+000
    outer loop
      vertex -5.086416e-014 -4.561067e+000  3.700000e+000
      vertex  3.950000e+000 -2.280534e+000  3.700000e+000
      vertex -3.907985e-014 -4.561067e+000  0.000000e+000
    endloop
  endfacet
  facet normal -4.999999e-001  8.660254e-001  0.000000e+000
    outer loop
      vertex -3.907985e-014 -4.561067e+000  0.000000e+000
      vertex  3.950000e+000 -2.280534e+000  3.700000e+000
      vertex  3.950000e+000 -2.280534e+000  0.000000e+000
    endloop
  endfacet
  facet normal  7.071068e-001  0.000000e+000  7.071068e-001
    outer loop
      vertex -3.950000e+000  2.280534e+000  3.700000e+000
      vertex -4.250000e+000  2.453739e+000  4.000000e+000
      vertex -3.950000e+000 -2.280534e+000  3.700000e+000
    endloop
  endfacet
  facet normal  7.071068e-001  0.000000e+000  7.071068e-001
    outer loop
      vertex -3.950000e+000 -2.280534e+000  3.700000e+000
      vertex -4.250000e+000  2.453739e+000  4.000000e+000
      vertex -4.250000e+000 -2.453739e+000  4.000000e+000
    endloop
  endfacet
  facet normal  3.535533e-001 -6.123723e-001  7.071069e-001
    outer loop
      vertex  3.330669e-015  4.561067e+000  3.700000e+000
      vertex  8.881784e-016  4.907477e+000  4.000000e+000
      vertex -3.950000e+000  2.280534e+000  3.700000e+000
    endloop
  endfacet
  facet normal  3.535533e-001 -6.123724e-001  7.071068e-001
    outer loop
      vertex -3.950000e+000  2.280534e+000  3.700000e+000
      vertex  8.881784e-016  4.907477e+000  4.000000e+000
      vertex -4.250000e+000  2.453739e+000  4.000000e+000
    endloop
  endfacet
  facet normal -3.535534e-001 -6.123724e-001  7.071068e-001
    outer loop
      vertex  3.950000e+000  2.280534e+000  3.700000e+000
      vertex  4.250000e+000  2.453739e+000  4.000000e+000
      vertex  3.330669e-015  4.561067e+000  3.700000e+000
    endloop
  endfacet
  facet normal -3.535533e-001 -6.123723e-001  7.071069e-001
    outer loop
      vertex  3.330669e-015  4.561067e+000  3.700000e+000
      vertex  4.250000e+000  2.453739e+000  4.000000e+000
      vertex  8.881784e-016  4.907477e+000  4.000000e+000
    endloop
  endfacet
  facet normal -7.071068e-001  0.000000e+000  7.071068e-001
    outer loop
      vertex  3.950000e+000 -2.280534e+000  3.700000e+000
      vertex  4.250000e+000 -2.453739e+000  4.000000e+000
      vertex  3.950000e+000  2.280534e+000  3.700000e+000
    endloop
  endfacet
  facet normal -7.071068e-001  0.000000e+000  7.071068e-001
    outer loop
      vertex  3.950000e+000  2.280534e+000  3.700000e+000
      vertex  4.250000e+000 -2.453739e+000  4.000000e+000
      vertex  4.250000e+000  2.453739e+000  4.000000e+000
    endloop
  endfacet
  facet normal -3.535533e-001  6.123723e-001  7.071069e-001
    outer loop
      vertex -5.086416e-014 -4.561067e+000  3.700000e+000
      vertex -2.976023e-014 -4.907477e+000  4.000000e+000
      vertex  3.950000e+000 -2.280534e+000  3.700000e+000
    endloop
  endfacet
  facet normal -3.535533e-001  6.123724e-001  7.071068e-001
    outer loop
      vertex  3.950000e+000 -2.280534e+000  3.700000e+000
      vertex -2.976023e-014 -4.907477e+000  4.000000e+000
      vertex  4.250000e+000 -2.453739e+000  4.000000e+000
    endloop
  endfacet
  facet normal  3.535534e-001  6.123724e-001  7.071068e-001
    outer loop
      vertex -3.950000e+000 -2.280534e+000  3.700000e+000
      vertex -4.250000e+000 -2.453739e+000  4.000000e+000
      vertex -5.086416e-014 -4.561067e+000  3.700000e+000
    endloop
  endfacet
  facet normal  3.535533e-001  6.123723e-001  7.071069e-001
    outer loop
      vertex -5.086416e-014 -4.561067e+000  3.700000e+000
      vertex -4.250000e+000 -2.453739e+000  4.000000e+000
      vertex -2.976023e-014 -4.907477e+000  4.000000e+000
    endloop
  endfacet
  facet normal  0.000000e+000  -0.000000e+000 -1.000000e+000
    outer loop
      vertex -6.450000e+000 -7.950000e+000  0.000000e+000
      vertex -3.907985e-014 -4.561067e+000  0.000000e+000
      vertex  6.450000e+000 -7.950000e+000  0.000000e+000
    endloop
  endfacet
  facet normal  0.000000e+000  -0.000000e+000 -1.000000e+000
    outer loop
      vertex -3.907985e-014 -4.561067e+000  0.000000e+000
      vertex  3.950000e+000 -2.280534e+000  0.000000e+000
      vertex  6.450000e+000 -7.950000e+000  0.000000e+000
    endloop
  endfacet
  facet normal  0.000000e+000  0.000000e+000 -1.000000e+000
    outer loop
      vertex -3.907985e-014 -4.561067e+000  0.000000e+000
      vertex -6.450000e+000 -7.950000e+000  0.000000e+000
      vertex -3.950000e+000 -2.280534e+000  0.000000e+000
    endloop
  endfacet
  facet normal  0.000000e+000  0.000000e+000 -1.000000e+000
    outer loop
      vertex  6.450000e+000  7.950000e+000  0.000000e+000
      vertex  6.450000e+000 -7.950000e+000  0.000000e+000
      vertex  3.950000e+000 -2.280534e+000  0.000000e+000
    endloop
  endfacet
  facet normal  0.000000e+000  0.000000e+000 -1.000000e+000
    outer loop
      vertex  6.450000e+000  7.950000e+000  0.000000e+000
      vertex  3.950000e+000 -2.280534e+000  0.000000e+000
      vertex  3.950000e+000  2.280534e+000  0.000000e+000
    endloop
  endfacet
  facet normal  0.000000e+000  0.000000e+000 -1.000000e+000
    outer loop
      vertex  6.450000e+000  7.950000e+000  0.000000e+000
      vertex  3.950000e+000  2.280534e+000  0.000000e+000
      vertex  8.881784e-016  4.561067e+000  0.000000e+000
    endloop
  endfacet
  facet normal  0.000000e+000  0.000000e+000 -1.000000e+000
    outer loop
      vertex  6.450000e+000  7.950000e+000  0.000000e+000
      vertex  8.881784e-016  4.561067e+000  0.000000e+000
      vertex -6.450000e+000  7.950000e+000  0.000000e+000
    endloop
  endfacet
  facet normal  0.000000e+000  0.000000e+000 -1.000000e+000
    outer loop
      vertex  8.881784e-016  4.561067e+000  0.000000e+000
      vertex -3.950000e+000  2.280534e+000  0.000000e+000
      vertex -6.450000e+000  7.950000e+000  0.000000e+000
    endloop
  endfacet
  facet normal  0.000000e+000  0.000000e+000 -1.000000e+000
    outer loop
      vertex -6.450000e+000  7.950000e+000  0.000000e+000
      vertex -3.950000e+000  2.280534e+000  0.000000e+000
      vertex -3.950000e+000 -2.280534e+000  0.000000e+000
    endloop
  endfacet
  facet normal  -0.000000e+000  0.000000e+000 -1.000000e+000
    outer loop
      vertex -6.450000e+000  7.950000e+000  0.000000e+000
      vertex -3.950000e+000 -2.280534e+000  0.000000e+000
      vertex -6.450000e+000 -7.950000e+000  0.000000e+000
    endloop
  endfacet
  facet normal  9.999999e-001  -0.000000e+000  0.000000e+000
    outer loop
      vertex  6.750000e+000  8.250000e+000  4.000000e+000
      vertex  6.750000e+000 -8.250000e+000  4.000000e+000
      vertex  6.750000e+000  8.250000e+000  3.000000e-001
    endloop
  endfacet
  facet normal  9.999999e-001  0.000000e+000  0.000000e+000
    outer loop
      vertex  6.750000e+000  8.250000e+000  3.000000e-001
      vertex  6.750000e+000 -8.250000e+000  4.000000e+000
      vertex  6.750000e+000 -8.250000e+000  3.000000e-001
    endloop
  endfacet
  facet normal  0.000000e+000 -1.000000e+000  0.000000e+000
    outer loop
      vertex  6.750000e+000 -8.250000e+000  4.000000e+000
      vertex -6.750000e+000 -8.250000e+000  4.000000e+000
      vertex  6.750000e+000 -8.250000e+000  3.000000e-001
    endloop
  endfacet
  facet normal  0.000000e+000 -1.000000e+000  0.000000e+000
    outer loop
      vertex  6.750000e+000 -8.250000e+000  3.000000e-001
      vertex -6.750000e+000 -8.250000e+000  4.000000e+000
      vertex -6.750000e+000 -8.250000e+000  3.000000e-001
    endloop
  endfacet
  facet normal -9.999999e-001  -0.000000e+000  0.000000e+000
    outer loop
      vertex -6.750000e+000 -8.250000e+000  4.000000e+000
      vertex -6.750000e+000  8.250000e+000  4.000000e+000
      vertex -6.750000e+000 -8.250000e+000  3.000000e-001
    endloop
  endfacet
  facet normal -9.999999e-001  0.000000e+000  0.000000e+000
    outer loop
      vertex -6.750000e+000 -8.250000e+000  3.000000e-001
      vertex -6.750000e+000  8.250000e+000  4.000000e+000
      vertex -6.750000e+000  8.250000e+000  3.000000e-001
    endloop
  endfacet
  facet normal  0.000000e+000  1.000000e+000  0.000000e+000
    outer loop
      vertex -6.750000e+000  8.250000e+000  4.000000e+000
      vertex  6.750000e+000  8.250000e+000  4.000000e+000
      vertex -6.750000e+000  8.250000e+000  3.000000e-001
    endloop
  endfacet
  facet normal  0.000000e+000  1.000000e+000  0.000000e+000
    outer loop
      vertex -6.750000e+000  8.250000e+000  3.000000e-001
      vertex  6.750000e+000  8.250000e+000  4.000000e+000
      vertex  6.750000e+000  8.250000e+000  3.000000e-001
    endloop
  endfacet
  facet normal  0.000000e+000  7.071066e-001 -7.071070e-001
    outer loop
      vertex -6.750000e+000  8.250000e+000  3.000000e-001
      vertex  6.750000e+000  8.250000e+000  3.000000e-001
      vertex -6.450000e+000  7.950000e+000  0.000000e+000
    endloop
  endfacet
  facet normal  0.000000e+000  7.071066e-001 -7.071070e-001
    outer loop
      vertex -6.450000e+000  7.950000e+000  0.000000e+000
      vertex  6.750000e+000  8.250000e+000  3.000000e-001
      vertex  6.450000e+000  7.950000e+000  0.000000e+000
    endloop
  endfacet
  facet normal  7.071066e-001  0.000000e+000 -7.071069e-001
    outer loop
      vertex  6.750000e+000  8.250000e+000  3.000000e-001
      vertex  6.750000e+000 -8.250000e+000  3.000000e-001
      vertex  6.450000e+000  7.950000e+000  0.000000e+000
    endloop
  endfacet
  facet normal  7.071066e-001  0.000000e+000 -7.071070e-001
    outer loop
      vertex  6.450000e+000  7.950000e+000  0.000000e+000
      vertex  6.750000e+000 -8.250000e+000  3.000000e-001
      vertex  6.450000e+000 -7.950000e+000  0.000000e+000
    endloop
  endfacet
  facet normal  0.000000e+000 -7.071066e-001 -7.071070e-001
    outer loop
      vertex  6.750000e+000 -8.250000e+000  3.000000e-001
      vertex -6.750000e+000 -8.250000e+000  3.000000e-001
      vertex  6.450000e+000 -7.950000e+000  0.000000e+000
    endloop
  endfacet
  facet normal  -0.000000e+000 -7.071066e-001 -7.071070e-001
    outer loop
      vertex  6.450000e+000 -7.950000e+000  0.000000e+000
      vertex -6.750000e+000 -8.250000e+000  3.000000e-001
      vertex -6.450000e+000 -7.950000e+000  0.000000e+000
    endloop
  endfacet
  facet normal -7.071066e-001  -0.000000e+000 -7.071069e-001
    outer loop
      vertex -6.750000e+000 -8.250000e+000  3.000000e-001
      vertex -6.750000e+000  8.250000e+000  3.000000e-001
      vertex -6.450000e+000 -7.950000e+000  0.000000e+000
    endloop
  endfacet
  facet normal -7.071066e-001  0.000000e+000 -7.071070e-001
    outer loop
      vertex -6.450000e+000 -7.950000e+000  0.000000e+000
      vertex -6.750000e+000  8.250000e+000  3.000000e-001
      vertex -6.450000e+000  7.950000e+000  0.000000e+000
    endloop
  endfacet
endsolid CATIA STL
