solid CATIA STL
  facet normal  -0.000000e+000  0.000000e+000 -1.000000e+000
    outer loop
      vertex  2.799391e+001  9.097797e-001  7.700000e+001
      vertex  2.499951e+001 -1.376349e+000  7.700000e+001
      vertex  2.403530e+001 -1.684300e+000  7.700000e+001
    endloop
  endfacet
  facet normal  -0.000000e+000  0.000000e+000 -1.000000e+000
    outer loop
      vertex  2.799391e+001  9.097797e-001  7.700000e+001
      vertex  2.598462e+001 -1.143763e+000  7.700000e+001
      vertex  2.499951e+001 -1.376349e+000  7.700000e+001
    endloop
  endfacet
  facet normal  -0.000000e+000  0.000000e+000 -1.000000e+000
    outer loop
      vertex  2.799391e+001  9.097797e-001  7.700000e+001
      vertex  2.698474e+001 -9.879296e-001  7.700000e+001
      vertex  2.598462e+001 -1.143763e+000  7.700000e+001
    endloop
  endfacet
  facet normal  -0.000000e+000  0.000000e+000 -1.000000e+000
    outer loop
      vertex  2.799391e+001  9.097797e-001  7.700000e+001
      vertex  2.799391e+001 -9.097797e-001  7.700000e+001
      vertex  2.698474e+001 -9.879296e-001  7.700000e+001
    endloop
  endfacet
  facet normal  0.000000e+000  0.000000e+000 -1.000000e+000
    outer loop
      vertex  2.799391e+001  9.097797e-001  7.700000e+001
      vertex  2.900609e+001 -9.097797e-001  7.700000e+001
      vertex  2.799391e+001 -9.097797e-001  7.700000e+001
    endloop
  endfacet
  facet normal  0.000000e+000  0.000000e+000 -9.999999e-001
    outer loop
      vertex  2.050000e+001 -3.626476e+000  7.700000e+001
      vertex  2.050000e+001  3.626476e+000  7.700000e+001
      vertex  2.132481e+001  3.039772e+000  7.700000e+001
    endloop
  endfacet
  facet normal  0.000000e+000  -0.000000e+000 -1.000000e+000
    outer loop
      vertex  2.050000e+001 -3.626476e+000  7.700000e+001
      vertex  2.132481e+001  3.039772e+000  7.700000e+001
      vertex  2.219245e+001  2.518501e+000  7.700000e+001
    endloop
  endfacet
  facet normal  0.000000e+000  -0.000000e+000 -1.000000e+000
    outer loop
      vertex  2.050000e+001 -3.626476e+000  7.700000e+001
      vertex  2.219245e+001  2.518501e+000  7.700000e+001
      vertex  2.309775e+001  2.065776e+000  7.700000e+001
    endloop
  endfacet
  facet normal  0.000000e+000  -0.000000e+000 -9.999999e-001
    outer loop
      vertex  2.050000e+001 -3.626476e+000  7.700000e+001
      vertex  2.309775e+001  2.065776e+000  7.700000e+001
      vertex  2.403530e+001  1.684300e+000  7.700000e+001
    endloop
  endfacet
  facet normal  0.000000e+000  -0.000000e+000 -1.000000e+000
    outer loop
      vertex  2.050000e+001 -3.626476e+000  7.700000e+001
      vertex  2.403530e+001  1.684300e+000  7.700000e+001
      vertex  2.499951e+001  1.376349e+000  7.700000e+001
    endloop
  endfacet
  facet normal  0.000000e+000  -0.000000e+000 -1.000000e+000
    outer loop
      vertex  2.050000e+001 -3.626476e+000  7.700000e+001
      vertex  2.499951e+001  1.376349e+000  7.700000e+001
      vertex  2.598462e+001  1.143763e+000  7.700000e+001
    endloop
  endfacet
  facet normal  0.000000e+000  0.000000e+000 -1.000000e+000
    outer loop
      vertex  2.050000e+001 -3.626476e+000  7.700000e+001
      vertex  2.598462e+001  1.143763e+000  7.700000e+001
      vertex  2.132481e+001 -3.039772e+000  7.700000e+001
    endloop
  endfacet
  facet normal  -0.000000e+000  -0.000000e+000 -1.000000e+000
    outer loop
      vertex  2.799391e+001  9.097797e-001  7.700000e+001
      vertex  2.900609e+001  9.097797e-001  7.700000e+001
      vertex  2.900609e+001 -9.097797e-001  7.700000e+001
    endloop
  endfacet
  facet normal  0.000000e+000  0.000000e+000 -1.000000e+000
    outer loop
      vertex  2.900609e+001 -9.097797e-001  7.700000e+001
      vertex  2.900609e+001  9.097797e-001  7.700000e+001
      vertex  3.001526e+001  9.879296e-001  7.700000e+001
    endloop
  endfacet
  facet normal  0.000000e+000  -0.000000e+000 -1.000000e+000
    outer loop
      vertex  2.900609e+001 -9.097797e-001  7.700000e+001
      vertex  3.001526e+001  9.879296e-001  7.700000e+001
      vertex  3.001526e+001 -9.879296e-001  7.700000e+001
    endloop
  endfacet
  facet normal  0.000000e+000  0.000000e+000 -1.000000e+000
    outer loop
      vertex  3.001526e+001 -9.879296e-001  7.700000e+001
      vertex  3.001526e+001  9.879296e-001  7.700000e+001
      vertex  3.101538e+001  1.143763e+000  7.700000e+001
    endloop
  endfacet
  facet normal  0.000000e+000  -0.000000e+000 -1.000000e+000
    outer loop
      vertex  3.001526e+001 -9.879296e-001  7.700000e+001
      vertex  3.101538e+001  1.143763e+000  7.700000e+001
      vertex  3.101538e+001 -1.143763e+000  7.700000e+001
    endloop
  endfacet
  facet normal  0.000000e+000  0.000000e+000 -1.000000e+000
    outer loop
      vertex  3.101538e+001 -1.143763e+000  7.700000e+001
      vertex  3.101538e+001  1.143763e+000  7.700000e+001
      vertex  3.200049e+001  1.376349e+000  7.700000e+001
    endloop
  endfacet
  facet normal  0.000000e+000  -0.000000e+000 -1.000000e+000
    outer loop
      vertex  3.101538e+001 -1.143763e+000  7.700000e+001
      vertex  3.200049e+001  1.376349e+000  7.700000e+001
      vertex  3.200049e+001 -1.376349e+000  7.700000e+001
    endloop
  endfacet
  facet normal  0.000000e+000  0.000000e+000 -1.000000e+000
    outer loop
      vertex  3.200049e+001 -1.376349e+000  7.700000e+001
      vertex  3.200049e+001  1.376349e+000  7.700000e+001
      vertex  3.296470e+001  1.684300e+000  7.700000e+001
    endloop
  endfacet
  facet normal  0.000000e+000  -0.000000e+000 -1.000000e+000
    outer loop
      vertex  3.200049e+001 -1.376349e+000  7.700000e+001
      vertex  3.296470e+001  1.684300e+000  7.700000e+001
      vertex  3.296470e+001 -1.684300e+000  7.700000e+001
    endloop
  endfacet
  facet normal  0.000000e+000  0.000000e+000 -1.000000e+000
    outer loop
      vertex  3.296470e+001 -1.684300e+000  7.700000e+001
      vertex  3.296470e+001  1.684300e+000  7.700000e+001
      vertex  3.390225e+001  2.065776e+000  7.700000e+001
    endloop
  endfacet
  facet normal  0.000000e+000  -0.000000e+000 -1.000000e+000
    outer loop
      vertex  3.296470e+001 -1.684300e+000  7.700000e+001
      vertex  3.390225e+001  2.065776e+000  7.700000e+001
      vertex  3.390225e+001 -2.065776e+000  7.700000e+001
    endloop
  endfacet
  facet normal  0.000000e+000  0.000000e+000 -9.999999e-001
    outer loop
      vertex  3.390225e+001 -2.065776e+000  7.700000e+001
      vertex  3.390225e+001  2.065776e+000  7.700000e+001
      vertex  3.480755e+001  2.518501e+000  7.700000e+001
    endloop
  endfacet
  facet normal  0.000000e+000  -0.000000e+000 -1.000000e+000
    outer loop
      vertex  3.390225e+001 -2.065776e+000  7.700000e+001
      vertex  3.480755e+001  2.518501e+000  7.700000e+001
      vertex  3.480755e+001 -2.518501e+000  7.700000e+001
    endloop
  endfacet
  facet normal  0.000000e+000  0.000000e+000 -1.000000e+000
    outer loop
      vertex  3.480755e+001 -2.518501e+000  7.700000e+001
      vertex  3.480755e+001  2.518501e+000  7.700000e+001
      vertex  3.567519e+001  3.039772e+000  7.700000e+001
    endloop
  endfacet
  facet normal  0.000000e+000  -0.000000e+000 -1.000000e+000
    outer loop
      vertex  3.480755e+001 -2.518501e+000  7.700000e+001
      vertex  3.567519e+001  3.039772e+000  7.700000e+001
      vertex  3.567519e+001 -3.039772e+000  7.700000e+001
    endloop
  endfacet
  facet normal  0.000000e+000  0.000000e+000 -1.000000e+000
    outer loop
      vertex  3.567519e+001 -3.039772e+000  7.700000e+001
      vertex  3.567519e+001  3.039772e+000  7.700000e+001
      vertex  3.650000e+001  3.626476e+000  7.700000e+001
    endloop
  endfacet
  facet normal  0.000000e+000  -0.000000e+000 -9.999999e-001
    outer loop
      vertex  3.567519e+001 -3.039772e+000  7.700000e+001
      vertex  3.650000e+001  3.626476e+000  7.700000e+001
      vertex  3.650000e+001 -3.626476e+000  7.700000e+001
    endloop
  endfacet
  facet normal  0.000000e+000  0.000000e+000 -1.000000e+000
    outer loop
      vertex  2.403530e+001 -1.684300e+000  7.700000e+001
      vertex  2.309775e+001 -2.065776e+000  7.700000e+001
      vertex  2.799391e+001  9.097797e-001  7.700000e+001
    endloop
  endfacet
  facet normal  0.000000e+000  0.000000e+000 -1.000000e+000
    outer loop
      vertex  2.799391e+001  9.097797e-001  7.700000e+001
      vertex  2.309775e+001 -2.065776e+000  7.700000e+001
      vertex  2.219245e+001 -2.518501e+000  7.700000e+001
    endloop
  endfacet
  facet normal  0.000000e+000  0.000000e+000 -9.999999e-001
    outer loop
      vertex  2.799391e+001  9.097797e-001  7.700000e+001
      vertex  2.219245e+001 -2.518501e+000  7.700000e+001
      vertex  2.698474e+001  9.879296e-001  7.700000e+001
    endloop
  endfacet
  facet normal  0.000000e+000  0.000000e+000 -1.000000e+000
    outer loop
      vertex  2.698474e+001  9.879296e-001  7.700000e+001
      vertex  2.219245e+001 -2.518501e+000  7.700000e+001
      vertex  2.132481e+001 -3.039772e+000  7.700000e+001
    endloop
  endfacet
  facet normal  0.000000e+000  0.000000e+000 -1.000000e+000
    outer loop
      vertex  2.698474e+001  9.879296e-001  7.700000e+001
      vertex  2.132481e+001 -3.039772e+000  7.700000e+001
      vertex  2.598462e+001  1.143763e+000  7.700000e+001
    endloop
  endfacet
  facet normal -1.000000e+000  0.000000e+000  0.000000e+000
    outer loop
      vertex  2.050000e+001  3.626476e+000  3.415000e+002
      vertex  2.050000e+001  3.626476e+000  7.700000e+001
      vertex  2.050000e+001 -3.626476e+000  3.415000e+002
    endloop
  endfacet
  facet normal -1.000000e+000  0.000000e+000  0.000000e+000
    outer loop
      vertex  2.050000e+001 -3.626476e+000  3.415000e+002
      vertex  2.050000e+001  3.626476e+000  7.700000e+001
      vertex  2.050000e+001 -3.626476e+000  7.700000e+001
    endloop
  endfacet
  facet normal  7.720874e-002 -9.970149e-001  0.000000e+000
    outer loop
      vertex  2.799391e+001 -9.097797e-001  7.700000e+001
      vertex  2.698474e+001 -9.879296e-001  3.415000e+002
      vertex  2.698474e+001 -9.879296e-001  7.700000e+001
    endloop
  endfacet
  facet normal  1.539565e-001 -9.880777e-001  0.000000e+000
    outer loop
      vertex  2.698474e+001 -9.879296e-001  7.700000e+001
      vertex  2.698474e+001 -9.879296e-001  3.415000e+002
      vertex  2.598462e+001 -1.143763e+000  3.415000e+002
    endloop
  endfacet
  facet normal  1.539565e-001 -9.880777e-001  0.000000e+000
    outer loop
      vertex  2.698474e+001 -9.879296e-001  7.700000e+001
      vertex  2.598462e+001 -1.143763e+000  3.415000e+002
      vertex  2.598462e+001 -1.143763e+000  7.700000e+001
    endloop
  endfacet
  facet normal  2.297850e-001 -9.732414e-001  0.000000e+000
    outer loop
      vertex  2.598462e+001 -1.143763e+000  7.700000e+001
      vertex  2.598462e+001 -1.143763e+000  3.415000e+002
      vertex  2.499951e+001 -1.376349e+000  3.415000e+002
    endloop
  endfacet
  facet normal  2.297850e-001 -9.732414e-001  0.000000e+000
    outer loop
      vertex  2.598462e+001 -1.143763e+000  7.700000e+001
      vertex  2.499951e+001 -1.376349e+000  3.415000e+002
      vertex  2.499951e+001 -1.376349e+000  7.700000e+001
    endloop
  endfacet
  facet normal  3.042420e-001 -9.525948e-001  0.000000e+000
    outer loop
      vertex  2.499951e+001 -1.376349e+000  7.700000e+001
      vertex  2.499951e+001 -1.376349e+000  3.415000e+002
      vertex  2.403530e+001 -1.684300e+000  3.415000e+002
    endloop
  endfacet
  facet normal  3.042420e-001 -9.525948e-001  0.000000e+000
    outer loop
      vertex  2.499951e+001 -1.376349e+000  7.700000e+001
      vertex  2.403530e+001 -1.684300e+000  3.415000e+002
      vertex  2.403530e+001 -1.684300e+000  7.700000e+001
    endloop
  endfacet
  facet normal  3.768819e-001 -9.262612e-001  0.000000e+000
    outer loop
      vertex  2.403530e+001 -1.684300e+000  7.700000e+001
      vertex  2.403530e+001 -1.684300e+000  3.415000e+002
      vertex  2.309775e+001 -2.065776e+000  3.415000e+002
    endloop
  endfacet
  facet normal  3.768819e-001 -9.262612e-001  0.000000e+000
    outer loop
      vertex  2.403530e+001 -1.684300e+000  7.700000e+001
      vertex  2.309775e+001 -2.065776e+000  3.415000e+002
      vertex  2.309775e+001 -2.065776e+000  7.700000e+001
    endloop
  endfacet
  facet normal  4.472727e-001 -8.943976e-001  0.000000e+000
    outer loop
      vertex  2.309775e+001 -2.065776e+000  7.700000e+001
      vertex  2.309775e+001 -2.065776e+000  3.415000e+002
      vertex  2.219245e+001 -2.518501e+000  3.415000e+002
    endloop
  endfacet
  facet normal  4.472727e-001 -8.943976e-001  0.000000e+000
    outer loop
      vertex  2.309775e+001 -2.065776e+000  7.700000e+001
      vertex  2.219245e+001 -2.518501e+000  3.415000e+002
      vertex  2.219245e+001 -2.518501e+000  7.700000e+001
    endloop
  endfacet
  facet normal  5.149931e-001 -8.571943e-001  0.000000e+000
    outer loop
      vertex  2.219245e+001 -2.518501e+000  7.700000e+001
      vertex  2.219245e+001 -2.518501e+000  3.415000e+002
      vertex  2.132481e+001 -3.039772e+000  3.415000e+002
    endloop
  endfacet
  facet normal  5.149931e-001 -8.571943e-001  0.000000e+000
    outer loop
      vertex  2.219245e+001 -2.518501e+000  7.700000e+001
      vertex  2.132481e+001 -3.039772e+000  3.415000e+002
      vertex  2.132481e+001 -3.039772e+000  7.700000e+001
    endloop
  endfacet
  facet normal  5.796389e-001 -8.148735e-001  0.000000e+000
    outer loop
      vertex  2.132481e+001 -3.039772e+000  7.700000e+001
      vertex  2.132481e+001 -3.039772e+000  3.415000e+002
      vertex  2.050000e+001 -3.626476e+000  3.415000e+002
    endloop
  endfacet
  facet normal  5.796389e-001 -8.148735e-001  0.000000e+000
    outer loop
      vertex  2.132481e+001 -3.039772e+000  7.700000e+001
      vertex  2.050000e+001 -3.626476e+000  3.415000e+002
      vertex  2.050000e+001 -3.626476e+000  7.700000e+001
    endloop
  endfacet
  facet normal  7.720874e-002 -9.970149e-001  0.000000e+000
    outer loop
      vertex  2.698474e+001 -9.879296e-001  3.415000e+002
      vertex  2.799391e+001 -9.097797e-001  7.700000e+001
      vertex  2.799391e+001 -9.097797e-001  3.415000e+002
    endloop
  endfacet
  facet normal  0.000000e+000 -1.000000e+000  0.000000e+000
    outer loop
      vertex  2.799391e+001 -9.097797e-001  3.415000e+002
      vertex  2.799391e+001 -9.097797e-001  7.700000e+001
      vertex  2.900609e+001 -9.097797e-001  7.700000e+001
    endloop
  endfacet
  facet normal  0.000000e+000 -1.000000e+000  0.000000e+000
    outer loop
      vertex  2.799391e+001 -9.097797e-001  3.415000e+002
      vertex  2.900609e+001 -9.097797e-001  7.700000e+001
      vertex  2.900609e+001 -9.097797e-001  3.415000e+002
    endloop
  endfacet
  facet normal -7.720874e-002 -9.970149e-001  -0.000000e+000
    outer loop
      vertex  2.900609e+001 -9.097797e-001  3.415000e+002
      vertex  2.900609e+001 -9.097797e-001  7.700000e+001
      vertex  3.001526e+001 -9.879296e-001  7.700000e+001
    endloop
  endfacet
  facet normal -7.720874e-002 -9.970149e-001  0.000000e+000
    outer loop
      vertex  2.900609e+001 -9.097797e-001  3.415000e+002
      vertex  3.001526e+001 -9.879296e-001  7.700000e+001
      vertex  3.001526e+001 -9.879296e-001  3.415000e+002
    endloop
  endfacet
  facet normal -1.539565e-001 -9.880777e-001  -0.000000e+000
    outer loop
      vertex  3.001526e+001 -9.879296e-001  3.415000e+002
      vertex  3.001526e+001 -9.879296e-001  7.700000e+001
      vertex  3.101538e+001 -1.143763e+000  7.700000e+001
    endloop
  endfacet
  facet normal -1.539565e-001 -9.880777e-001  0.000000e+000
    outer loop
      vertex  3.001526e+001 -9.879296e-001  3.415000e+002
      vertex  3.101538e+001 -1.143763e+000  7.700000e+001
      vertex  3.101538e+001 -1.143763e+000  3.415000e+002
    endloop
  endfacet
  facet normal -2.297846e-001 -9.732415e-001  -0.000000e+000
    outer loop
      vertex  3.101538e+001 -1.143763e+000  3.415000e+002
      vertex  3.101538e+001 -1.143763e+000  7.700000e+001
      vertex  3.200049e+001 -1.376349e+000  7.700000e+001
    endloop
  endfacet
  facet normal -2.297846e-001 -9.732415e-001  0.000000e+000
    outer loop
      vertex  3.101538e+001 -1.143763e+000  3.415000e+002
      vertex  3.200049e+001 -1.376349e+000  7.700000e+001
      vertex  3.200049e+001 -1.376349e+000  3.415000e+002
    endloop
  endfacet
  facet normal -3.042420e-001 -9.525948e-001  -0.000000e+000
    outer loop
      vertex  3.200049e+001 -1.376349e+000  3.415000e+002
      vertex  3.200049e+001 -1.376349e+000  7.700000e+001
      vertex  3.296470e+001 -1.684300e+000  7.700000e+001
    endloop
  endfacet
  facet normal -3.042420e-001 -9.525948e-001  0.000000e+000
    outer loop
      vertex  3.200049e+001 -1.376349e+000  3.415000e+002
      vertex  3.296470e+001 -1.684300e+000  7.700000e+001
      vertex  3.296470e+001 -1.684300e+000  3.415000e+002
    endloop
  endfacet
  facet normal -3.768833e-001 -9.262608e-001  -0.000000e+000
    outer loop
      vertex  3.296470e+001 -1.684300e+000  3.415000e+002
      vertex  3.296470e+001 -1.684300e+000  7.700000e+001
      vertex  3.390225e+001 -2.065776e+000  7.700000e+001
    endloop
  endfacet
  facet normal -3.768833e-001 -9.262608e-001  0.000000e+000
    outer loop
      vertex  3.296470e+001 -1.684300e+000  3.415000e+002
      vertex  3.390225e+001 -2.065776e+000  7.700000e+001
      vertex  3.390225e+001 -2.065776e+000  3.415000e+002
    endloop
  endfacet
  facet normal -4.472727e-001 -8.943976e-001  -0.000000e+000
    outer loop
      vertex  3.390225e+001 -2.065776e+000  3.415000e+002
      vertex  3.390225e+001 -2.065776e+000  7.700000e+001
      vertex  3.480755e+001 -2.518501e+000  7.700000e+001
    endloop
  endfacet
  facet normal -4.472727e-001 -8.943976e-001  0.000000e+000
    outer loop
      vertex  3.390225e+001 -2.065776e+000  3.415000e+002
      vertex  3.480755e+001 -2.518501e+000  7.700000e+001
      vertex  3.480755e+001 -2.518501e+000  3.415000e+002
    endloop
  endfacet
  facet normal -5.149922e-001 -8.571948e-001  -0.000000e+000
    outer loop
      vertex  3.480755e+001 -2.518501e+000  3.415000e+002
      vertex  3.480755e+001 -2.518501e+000  7.700000e+001
      vertex  3.567519e+001 -3.039772e+000  7.700000e+001
    endloop
  endfacet
  facet normal -5.149922e-001 -8.571948e-001  0.000000e+000
    outer loop
      vertex  3.480755e+001 -2.518501e+000  3.415000e+002
      vertex  3.567519e+001 -3.039772e+000  7.700000e+001
      vertex  3.567519e+001 -3.039772e+000  3.415000e+002
    endloop
  endfacet
  facet normal -5.796389e-001 -8.148735e-001  -0.000000e+000
    outer loop
      vertex  3.567519e+001 -3.039772e+000  3.415000e+002
      vertex  3.567519e+001 -3.039772e+000  7.700000e+001
      vertex  3.650000e+001 -3.626476e+000  7.700000e+001
    endloop
  endfacet
  facet normal -5.796389e-001 -8.148735e-001  0.000000e+000
    outer loop
      vertex  3.567519e+001 -3.039772e+000  3.415000e+002
      vertex  3.650000e+001 -3.626476e+000  7.700000e+001
      vertex  3.650000e+001 -3.626476e+000  3.415000e+002
    endloop
  endfacet
  facet normal  1.000000e+000  -0.000000e+000  0.000000e+000
    outer loop
      vertex  3.650000e+001  3.626476e+000  3.415000e+002
      vertex  3.650000e+001 -3.626476e+000  3.415000e+002
      vertex  3.650000e+001  3.626476e+000  7.700000e+001
    endloop
  endfacet
  facet normal  1.000000e+000  0.000000e+000  0.000000e+000
    outer loop
      vertex  3.650000e+001  3.626476e+000  7.700000e+001
      vertex  3.650000e+001 -3.626476e+000  3.415000e+002
      vertex  3.650000e+001 -3.626476e+000  7.700000e+001
    endloop
  endfacet
  facet normal -7.720874e-002  9.970149e-001  0.000000e+000
    outer loop
      vertex  2.900609e+001  9.097797e-001  7.700000e+001
      vertex  3.001526e+001  9.879296e-001  3.415000e+002
      vertex  3.001526e+001  9.879296e-001  7.700000e+001
    endloop
  endfacet
  facet normal -1.539565e-001  9.880777e-001  0.000000e+000
    outer loop
      vertex  3.001526e+001  9.879296e-001  7.700000e+001
      vertex  3.001526e+001  9.879296e-001  3.415000e+002
      vertex  3.101538e+001  1.143763e+000  3.415000e+002
    endloop
  endfacet
  facet normal -1.539565e-001  9.880777e-001  0.000000e+000
    outer loop
      vertex  3.001526e+001  9.879296e-001  7.700000e+001
      vertex  3.101538e+001  1.143763e+000  3.415000e+002
      vertex  3.101538e+001  1.143763e+000  7.700000e+001
    endloop
  endfacet
  facet normal -2.297846e-001  9.732415e-001  0.000000e+000
    outer loop
      vertex  3.101538e+001  1.143763e+000  7.700000e+001
      vertex  3.101538e+001  1.143763e+000  3.415000e+002
      vertex  3.200049e+001  1.376349e+000  3.415000e+002
    endloop
  endfacet
  facet normal -2.297846e-001  9.732415e-001  0.000000e+000
    outer loop
      vertex  3.101538e+001  1.143763e+000  7.700000e+001
      vertex  3.200049e+001  1.376349e+000  3.415000e+002
      vertex  3.200049e+001  1.376349e+000  7.700000e+001
    endloop
  endfacet
  facet normal -3.042420e-001  9.525948e-001  0.000000e+000
    outer loop
      vertex  3.200049e+001  1.376349e+000  7.700000e+001
      vertex  3.200049e+001  1.376349e+000  3.415000e+002
      vertex  3.296470e+001  1.684300e+000  3.415000e+002
    endloop
  endfacet
  facet normal -3.042420e-001  9.525948e-001  0.000000e+000
    outer loop
      vertex  3.200049e+001  1.376349e+000  7.700000e+001
      vertex  3.296470e+001  1.684300e+000  3.415000e+002
      vertex  3.296470e+001  1.684300e+000  7.700000e+001
    endloop
  endfacet
  facet normal -3.768833e-001  9.262608e-001  0.000000e+000
    outer loop
      vertex  3.296470e+001  1.684300e+000  7.700000e+001
      vertex  3.296470e+001  1.684300e+000  3.415000e+002
      vertex  3.390225e+001  2.065776e+000  3.415000e+002
    endloop
  endfacet
  facet normal -3.768833e-001  9.262608e-001  0.000000e+000
    outer loop
      vertex  3.296470e+001  1.684300e+000  7.700000e+001
      vertex  3.390225e+001  2.065776e+000  3.415000e+002
      vertex  3.390225e+001  2.065776e+000  7.700000e+001
    endloop
  endfacet
  facet normal -4.472727e-001  8.943976e-001  0.000000e+000
    outer loop
      vertex  3.390225e+001  2.065776e+000  7.700000e+001
      vertex  3.390225e+001  2.065776e+000  3.415000e+002
      vertex  3.480755e+001  2.518501e+000  3.415000e+002
    endloop
  endfacet
  facet normal -4.472727e-001  8.943976e-001  0.000000e+000
    outer loop
      vertex  3.390225e+001  2.065776e+000  7.700000e+001
      vertex  3.480755e+001  2.518501e+000  3.415000e+002
      vertex  3.480755e+001  2.518501e+000  7.700000e+001
    endloop
  endfacet
  facet normal -5.149922e-001  8.571948e-001  0.000000e+000
    outer loop
      vertex  3.480755e+001  2.518501e+000  7.700000e+001
      vertex  3.480755e+001  2.518501e+000  3.415000e+002
      vertex  3.567519e+001  3.039772e+000  3.415000e+002
    endloop
  endfacet
  facet normal -5.149922e-001  8.571948e-001  0.000000e+000
    outer loop
      vertex  3.480755e+001  2.518501e+000  7.700000e+001
      vertex  3.567519e+001  3.039772e+000  3.415000e+002
      vertex  3.567519e+001  3.039772e+000  7.700000e+001
    endloop
  endfacet
  facet normal -5.796389e-001  8.148735e-001  0.000000e+000
    outer loop
      vertex  3.567519e+001  3.039772e+000  7.700000e+001
      vertex  3.567519e+001  3.039772e+000  3.415000e+002
      vertex  3.650000e+001  3.626476e+000  3.415000e+002
    endloop
  endfacet
  facet normal -5.796389e-001  8.148735e-001  0.000000e+000
    outer loop
      vertex  3.567519e+001  3.039772e+000  7.700000e+001
      vertex  3.650000e+001  3.626476e+000  3.415000e+002
      vertex  3.650000e+001  3.626476e+000  7.700000e+001
    endloop
  endfacet
  facet normal -7.720874e-002  9.970149e-001  0.000000e+000
    outer loop
      vertex  3.001526e+001  9.879296e-001  3.415000e+002
      vertex  2.900609e+001  9.097797e-001  7.700000e+001
      vertex  2.900609e+001  9.097797e-001  3.415000e+002
    endloop
  endfacet
  facet normal  0.000000e+000  1.000000e+000  0.000000e+000
    outer loop
      vertex  2.900609e+001  9.097797e-001  3.415000e+002
      vertex  2.900609e+001  9.097797e-001  7.700000e+001
      vertex  2.799391e+001  9.097797e-001  7.700000e+001
    endloop
  endfacet
  facet normal  0.000000e+000  1.000000e+000  0.000000e+000
    outer loop
      vertex  2.900609e+001  9.097797e-001  3.415000e+002
      vertex  2.799391e+001  9.097797e-001  7.700000e+001
      vertex  2.799391e+001  9.097797e-001  3.415000e+002
    endloop
  endfacet
  facet normal  7.720874e-002  9.970149e-001  0.000000e+000
    outer loop
      vertex  2.799391e+001  9.097797e-001  3.415000e+002
      vertex  2.799391e+001  9.097797e-001  7.700000e+001
      vertex  2.698474e+001  9.879296e-001  7.700000e+001
    endloop
  endfacet
  facet normal  7.720874e-002  9.970149e-001  -0.000000e+000
    outer loop
      vertex  2.799391e+001  9.097797e-001  3.415000e+002
      vertex  2.698474e+001  9.879296e-001  7.700000e+001
      vertex  2.698474e+001  9.879296e-001  3.415000e+002
    endloop
  endfacet
  facet normal  1.539565e-001  9.880777e-001  0.000000e+000
    outer loop
      vertex  2.698474e+001  9.879296e-001  3.415000e+002
      vertex  2.698474e+001  9.879296e-001  7.700000e+001
      vertex  2.598462e+001  1.143763e+000  7.700000e+001
    endloop
  endfacet
  facet normal  1.539565e-001  9.880777e-001  -0.000000e+000
    outer loop
      vertex  2.698474e+001  9.879296e-001  3.415000e+002
      vertex  2.598462e+001  1.143763e+000  7.700000e+001
      vertex  2.598462e+001  1.143763e+000  3.415000e+002
    endloop
  endfacet
  facet normal  2.297850e-001  9.732414e-001  0.000000e+000
    outer loop
      vertex  2.598462e+001  1.143763e+000  3.415000e+002
      vertex  2.598462e+001  1.143763e+000  7.700000e+001
      vertex  2.499951e+001  1.376349e+000  7.700000e+001
    endloop
  endfacet
  facet normal  2.297850e-001  9.732414e-001  -0.000000e+000
    outer loop
      vertex  2.598462e+001  1.143763e+000  3.415000e+002
      vertex  2.499951e+001  1.376349e+000  7.700000e+001
      vertex  2.499951e+001  1.376349e+000  3.415000e+002
    endloop
  endfacet
  facet normal  3.042420e-001  9.525948e-001  0.000000e+000
    outer loop
      vertex  2.499951e+001  1.376349e+000  3.415000e+002
      vertex  2.499951e+001  1.376349e+000  7.700000e+001
      vertex  2.403530e+001  1.684300e+000  7.700000e+001
    endloop
  endfacet
  facet normal  3.042420e-001  9.525948e-001  -0.000000e+000
    outer loop
      vertex  2.499951e+001  1.376349e+000  3.415000e+002
      vertex  2.403530e+001  1.684300e+000  7.700000e+001
      vertex  2.403530e+001  1.684300e+000  3.415000e+002
    endloop
  endfacet
  facet normal  3.768819e-001  9.262612e-001  0.000000e+000
    outer loop
      vertex  2.403530e+001  1.684300e+000  3.415000e+002
      vertex  2.403530e+001  1.684300e+000  7.700000e+001
      vertex  2.309775e+001  2.065776e+000  7.700000e+001
    endloop
  endfacet
  facet normal  3.768819e-001  9.262612e-001  -0.000000e+000
    outer loop
      vertex  2.403530e+001  1.684300e+000  3.415000e+002
      vertex  2.309775e+001  2.065776e+000  7.700000e+001
      vertex  2.309775e+001  2.065776e+000  3.415000e+002
    endloop
  endfacet
  facet normal  4.472727e-001  8.943976e-001  0.000000e+000
    outer loop
      vertex  2.309775e+001  2.065776e+000  3.415000e+002
      vertex  2.309775e+001  2.065776e+000  7.700000e+001
      vertex  2.219245e+001  2.518501e+000  7.700000e+001
    endloop
  endfacet
  facet normal  4.472727e-001  8.943976e-001  -0.000000e+000
    outer loop
      vertex  2.309775e+001  2.065776e+000  3.415000e+002
      vertex  2.219245e+001  2.518501e+000  7.700000e+001
      vertex  2.219245e+001  2.518501e+000  3.415000e+002
    endloop
  endfacet
  facet normal  5.149931e-001  8.571943e-001  0.000000e+000
    outer loop
      vertex  2.219245e+001  2.518501e+000  3.415000e+002
      vertex  2.219245e+001  2.518501e+000  7.700000e+001
      vertex  2.132481e+001  3.039772e+000  7.700000e+001
    endloop
  endfacet
  facet normal  5.149931e-001  8.571943e-001  -0.000000e+000
    outer loop
      vertex  2.219245e+001  2.518501e+000  3.415000e+002
      vertex  2.132481e+001  3.039772e+000  7.700000e+001
      vertex  2.132481e+001  3.039772e+000  3.415000e+002
    endloop
  endfacet
  facet normal  5.796389e-001  8.148735e-001  0.000000e+000
    outer loop
      vertex  2.132481e+001  3.039772e+000  3.415000e+002
      vertex  2.132481e+001  3.039772e+000  7.700000e+001
      vertex  2.050000e+001  3.626476e+000  7.700000e+001
    endloop
  endfacet
  facet normal  5.796389e-001  8.148735e-001  -0.000000e+000
    outer loop
      vertex  2.132481e+001  3.039772e+000  3.415000e+002
      vertex  2.050000e+001  3.626476e+000  7.700000e+001
      vertex  2.050000e+001  3.626476e+000  3.415000e+002
    endloop
  endfacet
  facet normal  0.000000e+000  -0.000000e+000  1.000000e+000
    outer loop
      vertex  2.499951e+001 -1.376349e+000  3.415000e+002
      vertex  2.598462e+001 -1.143763e+000  3.415000e+002
      vertex  2.900609e+001  9.097797e-001  3.415000e+002
    endloop
  endfacet
  facet normal  0.000000e+000  -0.000000e+000  1.000000e+000
    outer loop
      vertex  2.598462e+001 -1.143763e+000  3.415000e+002
      vertex  2.698474e+001 -9.879296e-001  3.415000e+002
      vertex  2.900609e+001  9.097797e-001  3.415000e+002
    endloop
  endfacet
  facet normal  0.000000e+000  -0.000000e+000  1.000000e+000
    outer loop
      vertex  2.698474e+001 -9.879296e-001  3.415000e+002
      vertex  2.799391e+001 -9.097797e-001  3.415000e+002
      vertex  2.900609e+001  9.097797e-001  3.415000e+002
    endloop
  endfacet
  facet normal  0.000000e+000  -0.000000e+000  1.000000e+000
    outer loop
      vertex  2.050000e+001 -3.626476e+000  3.415000e+002
      vertex  2.132481e+001 -3.039772e+000  3.415000e+002
      vertex  2.598462e+001  1.143763e+000  3.415000e+002
    endloop
  endfacet
  facet normal  0.000000e+000  0.000000e+000  1.000000e+000
    outer loop
      vertex  2.050000e+001 -3.626476e+000  3.415000e+002
      vertex  2.598462e+001  1.143763e+000  3.415000e+002
      vertex  2.499951e+001  1.376349e+000  3.415000e+002
    endloop
  endfacet
  facet normal  0.000000e+000  0.000000e+000  9.999999e-001
    outer loop
      vertex  2.050000e+001 -3.626476e+000  3.415000e+002
      vertex  2.499951e+001  1.376349e+000  3.415000e+002
      vertex  2.403530e+001  1.684300e+000  3.415000e+002
    endloop
  endfacet
  facet normal  0.000000e+000  0.000000e+000  9.999999e-001
    outer loop
      vertex  2.050000e+001 -3.626476e+000  3.415000e+002
      vertex  2.403530e+001  1.684300e+000  3.415000e+002
      vertex  2.309775e+001  2.065776e+000  3.415000e+002
    endloop
  endfacet
  facet normal  0.000000e+000  0.000000e+000  1.000000e+000
    outer loop
      vertex  2.050000e+001 -3.626476e+000  3.415000e+002
      vertex  2.309775e+001  2.065776e+000  3.415000e+002
      vertex  2.219245e+001  2.518501e+000  3.415000e+002
    endloop
  endfacet
  facet normal  0.000000e+000  0.000000e+000  1.000000e+000
    outer loop
      vertex  2.050000e+001 -3.626476e+000  3.415000e+002
      vertex  2.219245e+001  2.518501e+000  3.415000e+002
      vertex  2.132481e+001  3.039772e+000  3.415000e+002
    endloop
  endfacet
  facet normal  0.000000e+000  0.000000e+000  9.999999e-001
    outer loop
      vertex  2.050000e+001 -3.626476e+000  3.415000e+002
      vertex  2.132481e+001  3.039772e+000  3.415000e+002
      vertex  2.050000e+001  3.626476e+000  3.415000e+002
    endloop
  endfacet
  facet normal  0.000000e+000  0.000000e+000  9.999999e-001
    outer loop
      vertex  3.650000e+001 -3.626476e+000  3.415000e+002
      vertex  3.650000e+001  3.626476e+000  3.415000e+002
      vertex  3.567519e+001 -3.039772e+000  3.415000e+002
    endloop
  endfacet
  facet normal  0.000000e+000  0.000000e+000  1.000000e+000
    outer loop
      vertex  3.567519e+001 -3.039772e+000  3.415000e+002
      vertex  3.650000e+001  3.626476e+000  3.415000e+002
      vertex  3.567519e+001  3.039772e+000  3.415000e+002
    endloop
  endfacet
  facet normal  0.000000e+000  0.000000e+000  1.000000e+000
    outer loop
      vertex  3.567519e+001 -3.039772e+000  3.415000e+002
      vertex  3.567519e+001  3.039772e+000  3.415000e+002
      vertex  3.480755e+001 -2.518501e+000  3.415000e+002
    endloop
  endfacet
  facet normal  0.000000e+000  0.000000e+000  1.000000e+000
    outer loop
      vertex  3.480755e+001 -2.518501e+000  3.415000e+002
      vertex  3.567519e+001  3.039772e+000  3.415000e+002
      vertex  3.480755e+001  2.518501e+000  3.415000e+002
    endloop
  endfacet
  facet normal  0.000000e+000  0.000000e+000  1.000000e+000
    outer loop
      vertex  3.480755e+001 -2.518501e+000  3.415000e+002
      vertex  3.480755e+001  2.518501e+000  3.415000e+002
      vertex  3.390225e+001 -2.065776e+000  3.415000e+002
    endloop
  endfacet
  facet normal  0.000000e+000  0.000000e+000  9.999999e-001
    outer loop
      vertex  3.390225e+001 -2.065776e+000  3.415000e+002
      vertex  3.480755e+001  2.518501e+000  3.415000e+002
      vertex  3.390225e+001  2.065776e+000  3.415000e+002
    endloop
  endfacet
  facet normal  0.000000e+000  0.000000e+000  1.000000e+000
    outer loop
      vertex  3.390225e+001 -2.065776e+000  3.415000e+002
      vertex  3.390225e+001  2.065776e+000  3.415000e+002
      vertex  3.296470e+001 -1.684300e+000  3.415000e+002
    endloop
  endfacet
  facet normal  0.000000e+000  0.000000e+000  1.000000e+000
    outer loop
      vertex  3.296470e+001 -1.684300e+000  3.415000e+002
      vertex  3.390225e+001  2.065776e+000  3.415000e+002
      vertex  3.296470e+001  1.684300e+000  3.415000e+002
    endloop
  endfacet
  facet normal  0.000000e+000  0.000000e+000  1.000000e+000
    outer loop
      vertex  3.296470e+001 -1.684300e+000  3.415000e+002
      vertex  3.296470e+001  1.684300e+000  3.415000e+002
      vertex  3.200049e+001 -1.376349e+000  3.415000e+002
    endloop
  endfacet
  facet normal  0.000000e+000  0.000000e+000  1.000000e+000
    outer loop
      vertex  3.200049e+001 -1.376349e+000  3.415000e+002
      vertex  3.296470e+001  1.684300e+000  3.415000e+002
      vertex  3.200049e+001  1.376349e+000  3.415000e+002
    endloop
  endfacet
  facet normal  0.000000e+000  0.000000e+000  1.000000e+000
    outer loop
      vertex  3.200049e+001 -1.376349e+000  3.415000e+002
      vertex  3.200049e+001  1.376349e+000  3.415000e+002
      vertex  3.101538e+001 -1.143763e+000  3.415000e+002
    endloop
  endfacet
  facet normal  0.000000e+000  0.000000e+000  1.000000e+000
    outer loop
      vertex  3.101538e+001 -1.143763e+000  3.415000e+002
      vertex  3.200049e+001  1.376349e+000  3.415000e+002
      vertex  3.101538e+001  1.143763e+000  3.415000e+002
    endloop
  endfacet
  facet normal  0.000000e+000  0.000000e+000  1.000000e+000
    outer loop
      vertex  3.101538e+001 -1.143763e+000  3.415000e+002
      vertex  3.101538e+001  1.143763e+000  3.415000e+002
      vertex  3.001526e+001 -9.879296e-001  3.415000e+002
    endloop
  endfacet
  facet normal  0.000000e+000  0.000000e+000  1.000000e+000
    outer loop
      vertex  3.001526e+001 -9.879296e-001  3.415000e+002
      vertex  3.101538e+001  1.143763e+000  3.415000e+002
      vertex  3.001526e+001  9.879296e-001  3.415000e+002
    endloop
  endfacet
  facet normal  0.000000e+000  0.000000e+000  1.000000e+000
    outer loop
      vertex  3.001526e+001 -9.879296e-001  3.415000e+002
      vertex  3.001526e+001  9.879296e-001  3.415000e+002
      vertex  2.900609e+001 -9.097797e-001  3.415000e+002
    endloop
  endfacet
  facet normal  0.000000e+000  0.000000e+000  1.000000e+000
    outer loop
      vertex  2.900609e+001 -9.097797e-001  3.415000e+002
      vertex  3.001526e+001  9.879296e-001  3.415000e+002
      vertex  2.900609e+001  9.097797e-001  3.415000e+002
    endloop
  endfacet
  facet normal  0.000000e+000  0.000000e+000  1.000000e+000
    outer loop
      vertex  2.900609e+001 -9.097797e-001  3.415000e+002
      vertex  2.900609e+001  9.097797e-001  3.415000e+002
      vertex  2.799391e+001 -9.097797e-001  3.415000e+002
    endloop
  endfacet
  facet normal  0.000000e+000  0.000000e+000  1.000000e+000
    outer loop
      vertex  2.598462e+001  1.143763e+000  3.415000e+002
      vertex  2.132481e+001 -3.039772e+000  3.415000e+002
      vertex  2.698474e+001  9.879296e-001  3.415000e+002
    endloop
  endfacet
  facet normal  0.000000e+000  0.000000e+000  1.000000e+000
    outer loop
      vertex  2.698474e+001  9.879296e-001  3.415000e+002
      vertex  2.132481e+001 -3.039772e+000  3.415000e+002
      vertex  2.219245e+001 -2.518501e+000  3.415000e+002
    endloop
  endfacet
  facet normal  0.000000e+000  0.000000e+000  9.999999e-001
    outer loop
      vertex  2.698474e+001  9.879296e-001  3.415000e+002
      vertex  2.219245e+001 -2.518501e+000  3.415000e+002
      vertex  2.799391e+001  9.097797e-001  3.415000e+002
    endloop
  endfacet
  facet normal  0.000000e+000  0.000000e+000  1.000000e+000
    outer loop
      vertex  2.799391e+001  9.097797e-001  3.415000e+002
      vertex  2.219245e+001 -2.518501e+000  3.415000e+002
      vertex  2.309775e+001 -2.065776e+000  3.415000e+002
    endloop
  endfacet
  facet normal  0.000000e+000  0.000000e+000  1.000000e+000
    outer loop
      vertex  2.799391e+001  9.097797e-001  3.415000e+002
      vertex  2.309775e+001 -2.065776e+000  3.415000e+002
      vertex  2.900609e+001  9.097797e-001  3.415000e+002
    endloop
  endfacet
  facet normal  0.000000e+000  0.000000e+000  1.000000e+000
    outer loop
      vertex  2.900609e+001  9.097797e-001  3.415000e+002
      vertex  2.309775e+001 -2.065776e+000  3.415000e+002
      vertex  2.403530e+001 -1.684300e+000  3.415000e+002
    endloop
  endfacet
  facet normal  0.000000e+000  0.000000e+000  9.999999e-001
    outer loop
      vertex  2.900609e+001  9.097797e-001  3.415000e+002
      vertex  2.403530e+001 -1.684300e+000  3.415000e+002
      vertex  2.499951e+001 -1.376349e+000  3.415000e+002
    endloop
  endfacet
endsolid CATIA STL
