solid CATIA STL
  facet normal  -0.000000e+000  0.000000e+000 -1.000000e+000
    outer loop
      vertex  2.799456e+001  3.096803e-001  7.700000e+001
      vertex  2.698666e+001 -3.870371e-001  7.700000e+001
      vertex  2.598763e+001 -5.412970e-001  7.700000e+001
    endloop
  endfacet
  facet normal  -0.000000e+000  0.000000e+000 -9.999999e-001
    outer loop
      vertex  2.799456e+001  3.096803e-001  7.700000e+001
      vertex  2.799456e+001 -3.096803e-001  7.700000e+001
      vertex  2.698666e+001 -3.870371e-001  7.700000e+001
    endloop
  endfacet
  facet normal  0.000000e+000  0.000000e+000 -1.000000e+000
    outer loop
      vertex  2.799456e+001  3.096803e-001  7.700000e+001
      vertex  2.900544e+001 -3.096803e-001  7.700000e+001
      vertex  2.799456e+001 -3.096803e-001  7.700000e+001
    endloop
  endfacet
  facet normal  0.000000e+000  0.000000e+000 -1.000000e+000
    outer loop
      vertex  2.050000e+001 -3.000476e+000  7.700000e+001
      vertex  2.050000e+001  3.000476e+000  7.700000e+001
      vertex  2.132693e+001  2.419065e+000  7.700000e+001
    endloop
  endfacet
  facet normal  0.000000e+000  -0.000000e+000 -1.000000e+000
    outer loop
      vertex  2.050000e+001 -3.000476e+000  7.700000e+001
      vertex  2.132693e+001  2.419065e+000  7.700000e+001
      vertex  2.219594e+001  1.902639e+000  7.700000e+001
    endloop
  endfacet
  facet normal  0.000000e+000  -0.000000e+000 -1.000000e+000
    outer loop
      vertex  2.050000e+001 -3.000476e+000  7.700000e+001
      vertex  2.219594e+001  1.902639e+000  7.700000e+001
      vertex  2.310191e+001  1.454228e+000  7.700000e+001
    endloop
  endfacet
  facet normal  0.000000e+000  -0.000000e+000 -9.999999e-001
    outer loop
      vertex  2.050000e+001 -3.000476e+000  7.700000e+001
      vertex  2.310191e+001  1.454228e+000  7.700000e+001
      vertex  2.403954e+001  1.076462e+000  7.700000e+001
    endloop
  endfacet
  facet normal  0.000000e+000  -0.000000e+000 -1.000000e+000
    outer loop
      vertex  2.050000e+001 -3.000476e+000  7.700000e+001
      vertex  2.403954e+001  1.076462e+000  7.700000e+001
      vertex  2.500333e+001  7.715555e-001  7.700000e+001
    endloop
  endfacet
  facet normal  0.000000e+000  0.000000e+000 -1.000000e+000
    outer loop
      vertex  2.050000e+001 -3.000476e+000  7.700000e+001
      vertex  2.500333e+001  7.715555e-001  7.700000e+001
      vertex  2.132693e+001 -2.419065e+000  7.700000e+001
    endloop
  endfacet
  facet normal  -0.000000e+000  -0.000000e+000 -1.000000e+000
    outer loop
      vertex  2.799456e+001  3.096803e-001  7.700000e+001
      vertex  2.900544e+001  3.096803e-001  7.700000e+001
      vertex  2.900544e+001 -3.096803e-001  7.700000e+001
    endloop
  endfacet
  facet normal  0.000000e+000  0.000000e+000 -9.999999e-001
    outer loop
      vertex  2.900544e+001 -3.096803e-001  7.700000e+001
      vertex  2.900544e+001  3.096803e-001  7.700000e+001
      vertex  3.001334e+001  3.870371e-001  7.700000e+001
    endloop
  endfacet
  facet normal  0.000000e+000  -0.000000e+000 -9.999999e-001
    outer loop
      vertex  2.900544e+001 -3.096803e-001  7.700000e+001
      vertex  3.001334e+001  3.870371e-001  7.700000e+001
      vertex  3.001334e+001 -3.870371e-001  7.700000e+001
    endloop
  endfacet
  facet normal  0.000000e+000  0.000000e+000 -1.000000e+000
    outer loop
      vertex  3.001334e+001 -3.870371e-001  7.700000e+001
      vertex  3.001334e+001  3.870371e-001  7.700000e+001
      vertex  3.101237e+001  5.412970e-001  7.700000e+001
    endloop
  endfacet
  facet normal  0.000000e+000  -0.000000e+000 -1.000000e+000
    outer loop
      vertex  3.001334e+001 -3.870371e-001  7.700000e+001
      vertex  3.101237e+001  5.412970e-001  7.700000e+001
      vertex  3.101237e+001 -5.412970e-001  7.700000e+001
    endloop
  endfacet
  facet normal  0.000000e+000  0.000000e+000 -1.000000e+000
    outer loop
      vertex  3.101237e+001 -5.412970e-001  7.700000e+001
      vertex  3.101237e+001  5.412970e-001  7.700000e+001
      vertex  3.199667e+001  7.715555e-001  7.700000e+001
    endloop
  endfacet
  facet normal  0.000000e+000  -0.000000e+000 -1.000000e+000
    outer loop
      vertex  3.101237e+001 -5.412970e-001  7.700000e+001
      vertex  3.199667e+001  7.715555e-001  7.700000e+001
      vertex  3.199667e+001 -7.715555e-001  7.700000e+001
    endloop
  endfacet
  facet normal  0.000000e+000  0.000000e+000 -1.000000e+000
    outer loop
      vertex  3.199667e+001 -7.715555e-001  7.700000e+001
      vertex  3.199667e+001  7.715555e-001  7.700000e+001
      vertex  3.296046e+001  1.076462e+000  7.700000e+001
    endloop
  endfacet
  facet normal  0.000000e+000  -0.000000e+000 -9.999999e-001
    outer loop
      vertex  3.199667e+001 -7.715555e-001  7.700000e+001
      vertex  3.296046e+001  1.076462e+000  7.700000e+001
      vertex  3.296046e+001 -1.076462e+000  7.700000e+001
    endloop
  endfacet
  facet normal  0.000000e+000  0.000000e+000 -1.000000e+000
    outer loop
      vertex  3.296046e+001 -1.076462e+000  7.700000e+001
      vertex  3.296046e+001  1.076462e+000  7.700000e+001
      vertex  3.389809e+001  1.454228e+000  7.700000e+001
    endloop
  endfacet
  facet normal  0.000000e+000  -0.000000e+000 -1.000000e+000
    outer loop
      vertex  3.296046e+001 -1.076462e+000  7.700000e+001
      vertex  3.389809e+001  1.454228e+000  7.700000e+001
      vertex  3.389809e+001 -1.454228e+000  7.700000e+001
    endloop
  endfacet
  facet normal  0.000000e+000  0.000000e+000 -1.000000e+000
    outer loop
      vertex  3.389809e+001 -1.454228e+000  7.700000e+001
      vertex  3.389809e+001  1.454228e+000  7.700000e+001
      vertex  3.480407e+001  1.902639e+000  7.700000e+001
    endloop
  endfacet
  facet normal  0.000000e+000  -0.000000e+000 -1.000000e+000
    outer loop
      vertex  3.389809e+001 -1.454228e+000  7.700000e+001
      vertex  3.480407e+001  1.902639e+000  7.700000e+001
      vertex  3.480407e+001 -1.902639e+000  7.700000e+001
    endloop
  endfacet
  facet normal  0.000000e+000  0.000000e+000 -1.000000e+000
    outer loop
      vertex  3.480407e+001 -1.902639e+000  7.700000e+001
      vertex  3.480407e+001  1.902639e+000  7.700000e+001
      vertex  3.567307e+001  2.419065e+000  7.700000e+001
    endloop
  endfacet
  facet normal  0.000000e+000  -0.000000e+000 -1.000000e+000
    outer loop
      vertex  3.480407e+001 -1.902639e+000  7.700000e+001
      vertex  3.567307e+001  2.419065e+000  7.700000e+001
      vertex  3.567307e+001 -2.419065e+000  7.700000e+001
    endloop
  endfacet
  facet normal  0.000000e+000  0.000000e+000 -1.000000e+000
    outer loop
      vertex  3.567307e+001 -2.419065e+000  7.700000e+001
      vertex  3.567307e+001  2.419065e+000  7.700000e+001
      vertex  3.650000e+001  3.000476e+000  7.700000e+001
    endloop
  endfacet
  facet normal  0.000000e+000  -0.000000e+000 -1.000000e+000
    outer loop
      vertex  3.567307e+001 -2.419065e+000  7.700000e+001
      vertex  3.650000e+001  3.000476e+000  7.700000e+001
      vertex  3.650000e+001 -3.000476e+000  7.700000e+001
    endloop
  endfacet
  facet normal  0.000000e+000  0.000000e+000 -1.000000e+000
    outer loop
      vertex  2.598763e+001 -5.412970e-001  7.700000e+001
      vertex  2.500333e+001 -7.715555e-001  7.700000e+001
      vertex  2.799456e+001  3.096803e-001  7.700000e+001
    endloop
  endfacet
  facet normal  0.000000e+000  0.000000e+000 -1.000000e+000
    outer loop
      vertex  2.799456e+001  3.096803e-001  7.700000e+001
      vertex  2.500333e+001 -7.715555e-001  7.700000e+001
      vertex  2.403954e+001 -1.076462e+000  7.700000e+001
    endloop
  endfacet
  facet normal  0.000000e+000  0.000000e+000 -1.000000e+000
    outer loop
      vertex  2.799456e+001  3.096803e-001  7.700000e+001
      vertex  2.403954e+001 -1.076462e+000  7.700000e+001
      vertex  2.698666e+001  3.870371e-001  7.700000e+001
    endloop
  endfacet
  facet normal  0.000000e+000  0.000000e+000 -1.000000e+000
    outer loop
      vertex  2.698666e+001  3.870371e-001  7.700000e+001
      vertex  2.403954e+001 -1.076462e+000  7.700000e+001
      vertex  2.310191e+001 -1.454228e+000  7.700000e+001
    endloop
  endfacet
  facet normal  0.000000e+000  0.000000e+000 -1.000000e+000
    outer loop
      vertex  2.698666e+001  3.870371e-001  7.700000e+001
      vertex  2.310191e+001 -1.454228e+000  7.700000e+001
      vertex  2.598763e+001  5.412970e-001  7.700000e+001
    endloop
  endfacet
  facet normal  0.000000e+000  0.000000e+000 -1.000000e+000
    outer loop
      vertex  2.310191e+001 -1.454228e+000  7.700000e+001
      vertex  2.219594e+001 -1.902639e+000  7.700000e+001
      vertex  2.598763e+001  5.412970e-001  7.700000e+001
    endloop
  endfacet
  facet normal  0.000000e+000  0.000000e+000 -1.000000e+000
    outer loop
      vertex  2.598763e+001  5.412970e-001  7.700000e+001
      vertex  2.219594e+001 -1.902639e+000  7.700000e+001
      vertex  2.132693e+001 -2.419065e+000  7.700000e+001
    endloop
  endfacet
  facet normal  0.000000e+000  0.000000e+000 -9.999999e-001
    outer loop
      vertex  2.598763e+001  5.412970e-001  7.700000e+001
      vertex  2.132693e+001 -2.419065e+000  7.700000e+001
      vertex  2.500333e+001  7.715555e-001  7.700000e+001
    endloop
  endfacet
  facet normal -1.000000e+000  0.000000e+000  0.000000e+000
    outer loop
      vertex  2.050000e+001  3.000476e+000  3.415000e+002
      vertex  2.050000e+001  3.000476e+000  7.700000e+001
      vertex  2.050000e+001 -3.000476e+000  3.415000e+002
    endloop
  endfacet
  facet normal -1.000000e+000  0.000000e+000  0.000000e+000
    outer loop
      vertex  2.050000e+001 -3.000476e+000  3.415000e+002
      vertex  2.050000e+001  3.000476e+000  7.700000e+001
      vertex  2.050000e+001 -3.000476e+000  7.700000e+001
    endloop
  endfacet
  facet normal  7.652498e-002 -9.970677e-001  0.000000e+000
    outer loop
      vertex  2.799456e+001 -3.096803e-001  7.700000e+001
      vertex  2.698666e+001 -3.870371e-001  3.415000e+002
      vertex  2.698666e+001 -3.870371e-001  7.700000e+001
    endloop
  endfacet
  facet normal  1.526011e-001 -9.882879e-001  0.000000e+000
    outer loop
      vertex  2.698666e+001 -3.870371e-001  7.700000e+001
      vertex  2.698666e+001 -3.870371e-001  3.415000e+002
      vertex  2.598763e+001 -5.412970e-001  3.415000e+002
    endloop
  endfacet
  facet normal  1.526011e-001 -9.882879e-001  0.000000e+000
    outer loop
      vertex  2.698666e+001 -3.870371e-001  7.700000e+001
      vertex  2.598763e+001 -5.412970e-001  3.415000e+002
      vertex  2.598763e+001 -5.412970e-001  7.700000e+001
    endloop
  endfacet
  facet normal  2.277824e-001 -9.737120e-001  0.000000e+000
    outer loop
      vertex  2.598763e+001 -5.412970e-001  7.700000e+001
      vertex  2.598763e+001 -5.412970e-001  3.415000e+002
      vertex  2.500333e+001 -7.715555e-001  3.415000e+002
    endloop
  endfacet
  facet normal  2.277824e-001 -9.737120e-001  0.000000e+000
    outer loop
      vertex  2.598763e+001 -5.412970e-001  7.700000e+001
      vertex  2.500333e+001 -7.715555e-001  3.415000e+002
      vertex  2.500333e+001 -7.715555e-001  7.700000e+001
    endloop
  endfacet
  facet normal  3.016274e-001 -9.534258e-001  0.000000e+000
    outer loop
      vertex  2.500333e+001 -7.715555e-001  7.700000e+001
      vertex  2.500333e+001 -7.715555e-001  3.415000e+002
      vertex  2.403954e+001 -1.076462e+000  3.415000e+002
    endloop
  endfacet
  facet normal  3.016274e-001 -9.534258e-001  0.000000e+000
    outer loop
      vertex  2.500333e+001 -7.715555e-001  7.700000e+001
      vertex  2.403954e+001 -1.076462e+000  3.415000e+002
      vertex  2.403954e+001 -1.076462e+000  7.700000e+001
    endloop
  endfacet
  facet normal  3.737044e-001 -9.275478e-001  0.000000e+000
    outer loop
      vertex  2.403954e+001 -1.076462e+000  7.700000e+001
      vertex  2.403954e+001 -1.076462e+000  3.415000e+002
      vertex  2.310191e+001 -1.454228e+000  3.415000e+002
    endloop
  endfacet
  facet normal  3.737044e-001 -9.275478e-001  0.000000e+000
    outer loop
      vertex  2.403954e+001 -1.076462e+000  7.700000e+001
      vertex  2.310191e+001 -1.454228e+000  3.415000e+002
      vertex  2.310191e+001 -1.454228e+000  7.700000e+001
    endloop
  endfacet
  facet normal  4.435886e-001 -8.962306e-001  0.000000e+000
    outer loop
      vertex  2.310191e+001 -1.454228e+000  7.700000e+001
      vertex  2.310191e+001 -1.454228e+000  3.415000e+002
      vertex  2.219594e+001 -1.902639e+000  3.415000e+002
    endloop
  endfacet
  facet normal  4.435886e-001 -8.962306e-001  0.000000e+000
    outer loop
      vertex  2.310191e+001 -1.454228e+000  7.700000e+001
      vertex  2.219594e+001 -1.902639e+000  3.415000e+002
      vertex  2.219594e+001 -1.902639e+000  7.700000e+001
    endloop
  endfacet
  facet normal  5.108722e-001 -8.596567e-001  0.000000e+000
    outer loop
      vertex  2.219594e+001 -1.902639e+000  7.700000e+001
      vertex  2.219594e+001 -1.902639e+000  3.415000e+002
      vertex  2.132693e+001 -2.419065e+000  3.415000e+002
    endloop
  endfacet
  facet normal  5.108722e-001 -8.596567e-001  0.000000e+000
    outer loop
      vertex  2.219594e+001 -1.902639e+000  7.700000e+001
      vertex  2.132693e+001 -2.419065e+000  3.415000e+002
      vertex  2.132693e+001 -2.419065e+000  7.700000e+001
    endloop
  endfacet
  facet normal  5.751588e-001 -8.180418e-001  0.000000e+000
    outer loop
      vertex  2.132693e+001 -2.419065e+000  7.700000e+001
      vertex  2.132693e+001 -2.419065e+000  3.415000e+002
      vertex  2.050000e+001 -3.000476e+000  3.415000e+002
    endloop
  endfacet
  facet normal  5.751588e-001 -8.180418e-001  0.000000e+000
    outer loop
      vertex  2.132693e+001 -2.419065e+000  7.700000e+001
      vertex  2.050000e+001 -3.000476e+000  3.415000e+002
      vertex  2.050000e+001 -3.000476e+000  7.700000e+001
    endloop
  endfacet
  facet normal  7.652498e-002 -9.970677e-001  0.000000e+000
    outer loop
      vertex  2.698666e+001 -3.870371e-001  3.415000e+002
      vertex  2.799456e+001 -3.096803e-001  7.700000e+001
      vertex  2.799456e+001 -3.096803e-001  3.415000e+002
    endloop
  endfacet
  facet normal  0.000000e+000 -1.000000e+000  0.000000e+000
    outer loop
      vertex  2.799456e+001 -3.096803e-001  3.415000e+002
      vertex  2.799456e+001 -3.096803e-001  7.700000e+001
      vertex  2.900544e+001 -3.096803e-001  7.700000e+001
    endloop
  endfacet
  facet normal  0.000000e+000 -1.000000e+000  0.000000e+000
    outer loop
      vertex  2.799456e+001 -3.096803e-001  3.415000e+002
      vertex  2.900544e+001 -3.096803e-001  7.700000e+001
      vertex  2.900544e+001 -3.096803e-001  3.415000e+002
    endloop
  endfacet
  facet normal -7.652498e-002 -9.970677e-001  -0.000000e+000
    outer loop
      vertex  2.900544e+001 -3.096803e-001  3.415000e+002
      vertex  2.900544e+001 -3.096803e-001  7.700000e+001
      vertex  3.001334e+001 -3.870371e-001  7.700000e+001
    endloop
  endfacet
  facet normal -7.652498e-002 -9.970677e-001  0.000000e+000
    outer loop
      vertex  2.900544e+001 -3.096803e-001  3.415000e+002
      vertex  3.001334e+001 -3.870371e-001  7.700000e+001
      vertex  3.001334e+001 -3.870371e-001  3.415000e+002
    endloop
  endfacet
  facet normal -1.526011e-001 -9.882879e-001  -0.000000e+000
    outer loop
      vertex  3.001334e+001 -3.870371e-001  3.415000e+002
      vertex  3.001334e+001 -3.870371e-001  7.700000e+001
      vertex  3.101237e+001 -5.412970e-001  7.700000e+001
    endloop
  endfacet
  facet normal -1.526011e-001 -9.882879e-001  0.000000e+000
    outer loop
      vertex  3.001334e+001 -3.870371e-001  3.415000e+002
      vertex  3.101237e+001 -5.412970e-001  7.700000e+001
      vertex  3.101237e+001 -5.412970e-001  3.415000e+002
    endloop
  endfacet
  facet normal -2.277824e-001 -9.737120e-001  -0.000000e+000
    outer loop
      vertex  3.101237e+001 -5.412970e-001  3.415000e+002
      vertex  3.101237e+001 -5.412970e-001  7.700000e+001
      vertex  3.199667e+001 -7.715555e-001  7.700000e+001
    endloop
  endfacet
  facet normal -2.277824e-001 -9.737120e-001  0.000000e+000
    outer loop
      vertex  3.101237e+001 -5.412970e-001  3.415000e+002
      vertex  3.199667e+001 -7.715555e-001  7.700000e+001
      vertex  3.199667e+001 -7.715555e-001  3.415000e+002
    endloop
  endfacet
  facet normal -3.016274e-001 -9.534258e-001  -0.000000e+000
    outer loop
      vertex  3.199667e+001 -7.715555e-001  3.415000e+002
      vertex  3.199667e+001 -7.715555e-001  7.700000e+001
      vertex  3.296046e+001 -1.076462e+000  7.700000e+001
    endloop
  endfacet
  facet normal -3.016274e-001 -9.534258e-001  0.000000e+000
    outer loop
      vertex  3.199667e+001 -7.715555e-001  3.415000e+002
      vertex  3.296046e+001 -1.076462e+000  7.700000e+001
      vertex  3.296046e+001 -1.076462e+000  3.415000e+002
    endloop
  endfacet
  facet normal -3.737044e-001 -9.275478e-001  -0.000000e+000
    outer loop
      vertex  3.296046e+001 -1.076462e+000  3.415000e+002
      vertex  3.296046e+001 -1.076462e+000  7.700000e+001
      vertex  3.389809e+001 -1.454228e+000  7.700000e+001
    endloop
  endfacet
  facet normal -3.737044e-001 -9.275478e-001  0.000000e+000
    outer loop
      vertex  3.296046e+001 -1.076462e+000  3.415000e+002
      vertex  3.389809e+001 -1.454228e+000  7.700000e+001
      vertex  3.389809e+001 -1.454228e+000  3.415000e+002
    endloop
  endfacet
  facet normal -4.435879e-001 -8.962309e-001  -0.000000e+000
    outer loop
      vertex  3.389809e+001 -1.454228e+000  3.415000e+002
      vertex  3.389809e+001 -1.454228e+000  7.700000e+001
      vertex  3.480407e+001 -1.902639e+000  7.700000e+001
    endloop
  endfacet
  facet normal -4.435879e-001 -8.962309e-001  0.000000e+000
    outer loop
      vertex  3.389809e+001 -1.454228e+000  3.415000e+002
      vertex  3.480407e+001 -1.902639e+000  7.700000e+001
      vertex  3.480407e+001 -1.902639e+000  3.415000e+002
    endloop
  endfacet
  facet normal -5.108730e-001 -8.596562e-001  -0.000000e+000
    outer loop
      vertex  3.480407e+001 -1.902639e+000  3.415000e+002
      vertex  3.480407e+001 -1.902639e+000  7.700000e+001
      vertex  3.567307e+001 -2.419065e+000  7.700000e+001
    endloop
  endfacet
  facet normal -5.108730e-001 -8.596562e-001  0.000000e+000
    outer loop
      vertex  3.480407e+001 -1.902639e+000  3.415000e+002
      vertex  3.567307e+001 -2.419065e+000  7.700000e+001
      vertex  3.567307e+001 -2.419065e+000  3.415000e+002
    endloop
  endfacet
  facet normal -5.751588e-001 -8.180418e-001  -0.000000e+000
    outer loop
      vertex  3.567307e+001 -2.419065e+000  3.415000e+002
      vertex  3.567307e+001 -2.419065e+000  7.700000e+001
      vertex  3.650000e+001 -3.000476e+000  7.700000e+001
    endloop
  endfacet
  facet normal -5.751588e-001 -8.180418e-001  0.000000e+000
    outer loop
      vertex  3.567307e+001 -2.419065e+000  3.415000e+002
      vertex  3.650000e+001 -3.000476e+000  7.700000e+001
      vertex  3.650000e+001 -3.000476e+000  3.415000e+002
    endloop
  endfacet
  facet normal  1.000000e+000  -0.000000e+000  0.000000e+000
    outer loop
      vertex  3.650000e+001  3.000476e+000  3.415000e+002
      vertex  3.650000e+001 -3.000476e+000  3.415000e+002
      vertex  3.650000e+001  3.000476e+000  7.700000e+001
    endloop
  endfacet
  facet normal  1.000000e+000  0.000000e+000  0.000000e+000
    outer loop
      vertex  3.650000e+001  3.000476e+000  7.700000e+001
      vertex  3.650000e+001 -3.000476e+000  3.415000e+002
      vertex  3.650000e+001 -3.000476e+000  7.700000e+001
    endloop
  endfacet
  facet normal -7.652498e-002  9.970677e-001  0.000000e+000
    outer loop
      vertex  2.900544e+001  3.096803e-001  7.700000e+001
      vertex  3.001334e+001  3.870371e-001  3.415000e+002
      vertex  3.001334e+001  3.870371e-001  7.700000e+001
    endloop
  endfacet
  facet normal -1.526011e-001  9.882879e-001  0.000000e+000
    outer loop
      vertex  3.001334e+001  3.870371e-001  7.700000e+001
      vertex  3.001334e+001  3.870371e-001  3.415000e+002
      vertex  3.101237e+001  5.412970e-001  3.415000e+002
    endloop
  endfacet
  facet normal -1.526011e-001  9.882879e-001  0.000000e+000
    outer loop
      vertex  3.001334e+001  3.870371e-001  7.700000e+001
      vertex  3.101237e+001  5.412970e-001  3.415000e+002
      vertex  3.101237e+001  5.412970e-001  7.700000e+001
    endloop
  endfacet
  facet normal -2.277824e-001  9.737120e-001  0.000000e+000
    outer loop
      vertex  3.101237e+001  5.412970e-001  7.700000e+001
      vertex  3.101237e+001  5.412970e-001  3.415000e+002
      vertex  3.199667e+001  7.715555e-001  3.415000e+002
    endloop
  endfacet
  facet normal -2.277824e-001  9.737120e-001  0.000000e+000
    outer loop
      vertex  3.101237e+001  5.412970e-001  7.700000e+001
      vertex  3.199667e+001  7.715555e-001  3.415000e+002
      vertex  3.199667e+001  7.715555e-001  7.700000e+001
    endloop
  endfacet
  facet normal -3.016274e-001  9.534258e-001  0.000000e+000
    outer loop
      vertex  3.199667e+001  7.715555e-001  7.700000e+001
      vertex  3.199667e+001  7.715555e-001  3.415000e+002
      vertex  3.296046e+001  1.076462e+000  3.415000e+002
    endloop
  endfacet
  facet normal -3.016274e-001  9.534258e-001  0.000000e+000
    outer loop
      vertex  3.199667e+001  7.715555e-001  7.700000e+001
      vertex  3.296046e+001  1.076462e+000  3.415000e+002
      vertex  3.296046e+001  1.076462e+000  7.700000e+001
    endloop
  endfacet
  facet normal -3.737044e-001  9.275478e-001  0.000000e+000
    outer loop
      vertex  3.296046e+001  1.076462e+000  7.700000e+001
      vertex  3.296046e+001  1.076462e+000  3.415000e+002
      vertex  3.389809e+001  1.454228e+000  3.415000e+002
    endloop
  endfacet
  facet normal -3.737044e-001  9.275478e-001  0.000000e+000
    outer loop
      vertex  3.296046e+001  1.076462e+000  7.700000e+001
      vertex  3.389809e+001  1.454228e+000  3.415000e+002
      vertex  3.389809e+001  1.454228e+000  7.700000e+001
    endloop
  endfacet
  facet normal -4.435879e-001  8.962309e-001  0.000000e+000
    outer loop
      vertex  3.389809e+001  1.454228e+000  7.700000e+001
      vertex  3.389809e+001  1.454228e+000  3.415000e+002
      vertex  3.480407e+001  1.902639e+000  3.415000e+002
    endloop
  endfacet
  facet normal -4.435879e-001  8.962309e-001  0.000000e+000
    outer loop
      vertex  3.389809e+001  1.454228e+000  7.700000e+001
      vertex  3.480407e+001  1.902639e+000  3.415000e+002
      vertex  3.480407e+001  1.902639e+000  7.700000e+001
    endloop
  endfacet
  facet normal -5.108730e-001  8.596562e-001  0.000000e+000
    outer loop
      vertex  3.480407e+001  1.902639e+000  7.700000e+001
      vertex  3.480407e+001  1.902639e+000  3.415000e+002
      vertex  3.567307e+001  2.419065e+000  3.415000e+002
    endloop
  endfacet
  facet normal -5.108730e-001  8.596562e-001  0.000000e+000
    outer loop
      vertex  3.480407e+001  1.902639e+000  7.700000e+001
      vertex  3.567307e+001  2.419065e+000  3.415000e+002
      vertex  3.567307e+001  2.419065e+000  7.700000e+001
    endloop
  endfacet
  facet normal -5.751588e-001  8.180418e-001  0.000000e+000
    outer loop
      vertex  3.567307e+001  2.419065e+000  7.700000e+001
      vertex  3.567307e+001  2.419065e+000  3.415000e+002
      vertex  3.650000e+001  3.000476e+000  3.415000e+002
    endloop
  endfacet
  facet normal -5.751588e-001  8.180418e-001  0.000000e+000
    outer loop
      vertex  3.567307e+001  2.419065e+000  7.700000e+001
      vertex  3.650000e+001  3.000476e+000  3.415000e+002
      vertex  3.650000e+001  3.000476e+000  7.700000e+001
    endloop
  endfacet
  facet normal -7.652498e-002  9.970677e-001  0.000000e+000
    outer loop
      vertex  3.001334e+001  3.870371e-001  3.415000e+002
      vertex  2.900544e+001  3.096803e-001  7.700000e+001
      vertex  2.900544e+001  3.096803e-001  3.415000e+002
    endloop
  endfacet
  facet normal  0.000000e+000  1.000000e+000  0.000000e+000
    outer loop
      vertex  2.900544e+001  3.096803e-001  3.415000e+002
      vertex  2.900544e+001  3.096803e-001  7.700000e+001
      vertex  2.799456e+001  3.096803e-001  7.700000e+001
    endloop
  endfacet
  facet normal  0.000000e+000  1.000000e+000  0.000000e+000
    outer loop
      vertex  2.900544e+001  3.096803e-001  3.415000e+002
      vertex  2.799456e+001  3.096803e-001  7.700000e+001
      vertex  2.799456e+001  3.096803e-001  3.415000e+002
    endloop
  endfacet
  facet normal  7.652498e-002  9.970677e-001  0.000000e+000
    outer loop
      vertex  2.799456e+001  3.096803e-001  3.415000e+002
      vertex  2.799456e+001  3.096803e-001  7.700000e+001
      vertex  2.698666e+001  3.870371e-001  7.700000e+001
    endloop
  endfacet
  facet normal  7.652498e-002  9.970677e-001  -0.000000e+000
    outer loop
      vertex  2.799456e+001  3.096803e-001  3.415000e+002
      vertex  2.698666e+001  3.870371e-001  7.700000e+001
      vertex  2.698666e+001  3.870371e-001  3.415000e+002
    endloop
  endfacet
  facet normal  1.526011e-001  9.882879e-001  0.000000e+000
    outer loop
      vertex  2.698666e+001  3.870371e-001  3.415000e+002
      vertex  2.698666e+001  3.870371e-001  7.700000e+001
      vertex  2.598763e+001  5.412970e-001  7.700000e+001
    endloop
  endfacet
  facet normal  1.526011e-001  9.882879e-001  -0.000000e+000
    outer loop
      vertex  2.698666e+001  3.870371e-001  3.415000e+002
      vertex  2.598763e+001  5.412970e-001  7.700000e+001
      vertex  2.598763e+001  5.412970e-001  3.415000e+002
    endloop
  endfacet
  facet normal  2.277824e-001  9.737120e-001  0.000000e+000
    outer loop
      vertex  2.598763e+001  5.412970e-001  3.415000e+002
      vertex  2.598763e+001  5.412970e-001  7.700000e+001
      vertex  2.500333e+001  7.715555e-001  7.700000e+001
    endloop
  endfacet
  facet normal  2.277824e-001  9.737120e-001  -0.000000e+000
    outer loop
      vertex  2.598763e+001  5.412970e-001  3.415000e+002
      vertex  2.500333e+001  7.715555e-001  7.700000e+001
      vertex  2.500333e+001  7.715555e-001  3.415000e+002
    endloop
  endfacet
  facet normal  3.016274e-001  9.534258e-001  0.000000e+000
    outer loop
      vertex  2.500333e+001  7.715555e-001  3.415000e+002
      vertex  2.500333e+001  7.715555e-001  7.700000e+001
      vertex  2.403954e+001  1.076462e+000  7.700000e+001
    endloop
  endfacet
  facet normal  3.016274e-001  9.534258e-001  -0.000000e+000
    outer loop
      vertex  2.500333e+001  7.715555e-001  3.415000e+002
      vertex  2.403954e+001  1.076462e+000  7.700000e+001
      vertex  2.403954e+001  1.076462e+000  3.415000e+002
    endloop
  endfacet
  facet normal  3.737044e-001  9.275478e-001  0.000000e+000
    outer loop
      vertex  2.403954e+001  1.076462e+000  3.415000e+002
      vertex  2.403954e+001  1.076462e+000  7.700000e+001
      vertex  2.310191e+001  1.454228e+000  7.700000e+001
    endloop
  endfacet
  facet normal  3.737044e-001  9.275478e-001  -0.000000e+000
    outer loop
      vertex  2.403954e+001  1.076462e+000  3.415000e+002
      vertex  2.310191e+001  1.454228e+000  7.700000e+001
      vertex  2.310191e+001  1.454228e+000  3.415000e+002
    endloop
  endfacet
  facet normal  4.435886e-001  8.962306e-001  0.000000e+000
    outer loop
      vertex  2.310191e+001  1.454228e+000  3.415000e+002
      vertex  2.310191e+001  1.454228e+000  7.700000e+001
      vertex  2.219594e+001  1.902639e+000  7.700000e+001
    endloop
  endfacet
  facet normal  4.435886e-001  8.962306e-001  -0.000000e+000
    outer loop
      vertex  2.310191e+001  1.454228e+000  3.415000e+002
      vertex  2.219594e+001  1.902639e+000  7.700000e+001
      vertex  2.219594e+001  1.902639e+000  3.415000e+002
    endloop
  endfacet
  facet normal  5.108722e-001  8.596567e-001  0.000000e+000
    outer loop
      vertex  2.219594e+001  1.902639e+000  3.415000e+002
      vertex  2.219594e+001  1.902639e+000  7.700000e+001
      vertex  2.132693e+001  2.419065e+000  7.700000e+001
    endloop
  endfacet
  facet normal  5.108722e-001  8.596567e-001  -0.000000e+000
    outer loop
      vertex  2.219594e+001  1.902639e+000  3.415000e+002
      vertex  2.132693e+001  2.419065e+000  7.700000e+001
      vertex  2.132693e+001  2.419065e+000  3.415000e+002
    endloop
  endfacet
  facet normal  5.751588e-001  8.180418e-001  0.000000e+000
    outer loop
      vertex  2.132693e+001  2.419065e+000  3.415000e+002
      vertex  2.132693e+001  2.419065e+000  7.700000e+001
      vertex  2.050000e+001  3.000476e+000  7.700000e+001
    endloop
  endfacet
  facet normal  5.751588e-001  8.180418e-001  -0.000000e+000
    outer loop
      vertex  2.132693e+001  2.419065e+000  3.415000e+002
      vertex  2.050000e+001  3.000476e+000  7.700000e+001
      vertex  2.050000e+001  3.000476e+000  3.415000e+002
    endloop
  endfacet
  facet normal  0.000000e+000  -0.000000e+000  1.000000e+000
    outer loop
      vertex  2.698666e+001 -3.870371e-001  3.415000e+002
      vertex  2.799456e+001 -3.096803e-001  3.415000e+002
      vertex  2.900544e+001  3.096803e-001  3.415000e+002
    endloop
  endfacet
  facet normal  0.000000e+000  -0.000000e+000  1.000000e+000
    outer loop
      vertex  2.050000e+001 -3.000476e+000  3.415000e+002
      vertex  2.132693e+001 -2.419065e+000  3.415000e+002
      vertex  2.500333e+001  7.715555e-001  3.415000e+002
    endloop
  endfacet
  facet normal  0.000000e+000  0.000000e+000  1.000000e+000
    outer loop
      vertex  2.050000e+001 -3.000476e+000  3.415000e+002
      vertex  2.500333e+001  7.715555e-001  3.415000e+002
      vertex  2.403954e+001  1.076462e+000  3.415000e+002
    endloop
  endfacet
  facet normal  0.000000e+000  0.000000e+000  9.999999e-001
    outer loop
      vertex  2.050000e+001 -3.000476e+000  3.415000e+002
      vertex  2.403954e+001  1.076462e+000  3.415000e+002
      vertex  2.310191e+001  1.454228e+000  3.415000e+002
    endloop
  endfacet
  facet normal  0.000000e+000  0.000000e+000  1.000000e+000
    outer loop
      vertex  2.050000e+001 -3.000476e+000  3.415000e+002
      vertex  2.310191e+001  1.454228e+000  3.415000e+002
      vertex  2.219594e+001  1.902639e+000  3.415000e+002
    endloop
  endfacet
  facet normal  0.000000e+000  0.000000e+000  1.000000e+000
    outer loop
      vertex  2.050000e+001 -3.000476e+000  3.415000e+002
      vertex  2.219594e+001  1.902639e+000  3.415000e+002
      vertex  2.132693e+001  2.419065e+000  3.415000e+002
    endloop
  endfacet
  facet normal  0.000000e+000  0.000000e+000  1.000000e+000
    outer loop
      vertex  2.050000e+001 -3.000476e+000  3.415000e+002
      vertex  2.132693e+001  2.419065e+000  3.415000e+002
      vertex  2.050000e+001  3.000476e+000  3.415000e+002
    endloop
  endfacet
  facet normal  0.000000e+000  0.000000e+000  1.000000e+000
    outer loop
      vertex  3.650000e+001 -3.000476e+000  3.415000e+002
      vertex  3.650000e+001  3.000476e+000  3.415000e+002
      vertex  3.567307e+001 -2.419065e+000  3.415000e+002
    endloop
  endfacet
  facet normal  0.000000e+000  0.000000e+000  1.000000e+000
    outer loop
      vertex  3.567307e+001 -2.419065e+000  3.415000e+002
      vertex  3.650000e+001  3.000476e+000  3.415000e+002
      vertex  3.567307e+001  2.419065e+000  3.415000e+002
    endloop
  endfacet
  facet normal  0.000000e+000  0.000000e+000  1.000000e+000
    outer loop
      vertex  3.567307e+001 -2.419065e+000  3.415000e+002
      vertex  3.567307e+001  2.419065e+000  3.415000e+002
      vertex  3.480407e+001 -1.902639e+000  3.415000e+002
    endloop
  endfacet
  facet normal  0.000000e+000  0.000000e+000  1.000000e+000
    outer loop
      vertex  3.480407e+001 -1.902639e+000  3.415000e+002
      vertex  3.567307e+001  2.419065e+000  3.415000e+002
      vertex  3.480407e+001  1.902639e+000  3.415000e+002
    endloop
  endfacet
  facet normal  0.000000e+000  0.000000e+000  1.000000e+000
    outer loop
      vertex  3.480407e+001 -1.902639e+000  3.415000e+002
      vertex  3.480407e+001  1.902639e+000  3.415000e+002
      vertex  3.389809e+001 -1.454228e+000  3.415000e+002
    endloop
  endfacet
  facet normal  0.000000e+000  0.000000e+000  1.000000e+000
    outer loop
      vertex  3.389809e+001 -1.454228e+000  3.415000e+002
      vertex  3.480407e+001  1.902639e+000  3.415000e+002
      vertex  3.389809e+001  1.454228e+000  3.415000e+002
    endloop
  endfacet
  facet normal  0.000000e+000  0.000000e+000  1.000000e+000
    outer loop
      vertex  3.389809e+001 -1.454228e+000  3.415000e+002
      vertex  3.389809e+001  1.454228e+000  3.415000e+002
      vertex  3.296046e+001 -1.076462e+000  3.415000e+002
    endloop
  endfacet
  facet normal  0.000000e+000  0.000000e+000  1.000000e+000
    outer loop
      vertex  3.296046e+001 -1.076462e+000  3.415000e+002
      vertex  3.389809e+001  1.454228e+000  3.415000e+002
      vertex  3.296046e+001  1.076462e+000  3.415000e+002
    endloop
  endfacet
  facet normal  0.000000e+000  0.000000e+000  9.999999e-001
    outer loop
      vertex  3.296046e+001 -1.076462e+000  3.415000e+002
      vertex  3.296046e+001  1.076462e+000  3.415000e+002
      vertex  3.199667e+001 -7.715555e-001  3.415000e+002
    endloop
  endfacet
  facet normal  0.000000e+000  0.000000e+000  1.000000e+000
    outer loop
      vertex  3.199667e+001 -7.715555e-001  3.415000e+002
      vertex  3.296046e+001  1.076462e+000  3.415000e+002
      vertex  3.199667e+001  7.715555e-001  3.415000e+002
    endloop
  endfacet
  facet normal  0.000000e+000  0.000000e+000  1.000000e+000
    outer loop
      vertex  3.199667e+001 -7.715555e-001  3.415000e+002
      vertex  3.199667e+001  7.715555e-001  3.415000e+002
      vertex  3.101237e+001 -5.412970e-001  3.415000e+002
    endloop
  endfacet
  facet normal  0.000000e+000  0.000000e+000  1.000000e+000
    outer loop
      vertex  3.101237e+001 -5.412970e-001  3.415000e+002
      vertex  3.199667e+001  7.715555e-001  3.415000e+002
      vertex  3.101237e+001  5.412970e-001  3.415000e+002
    endloop
  endfacet
  facet normal  0.000000e+000  0.000000e+000  1.000000e+000
    outer loop
      vertex  3.101237e+001 -5.412970e-001  3.415000e+002
      vertex  3.101237e+001  5.412970e-001  3.415000e+002
      vertex  3.001334e+001 -3.870371e-001  3.415000e+002
    endloop
  endfacet
  facet normal  0.000000e+000  0.000000e+000  1.000000e+000
    outer loop
      vertex  3.001334e+001 -3.870371e-001  3.415000e+002
      vertex  3.101237e+001  5.412970e-001  3.415000e+002
      vertex  3.001334e+001  3.870371e-001  3.415000e+002
    endloop
  endfacet
  facet normal  0.000000e+000  0.000000e+000  9.999999e-001
    outer loop
      vertex  3.001334e+001 -3.870371e-001  3.415000e+002
      vertex  3.001334e+001  3.870371e-001  3.415000e+002
      vertex  2.900544e+001 -3.096803e-001  3.415000e+002
    endloop
  endfacet
  facet normal  0.000000e+000  0.000000e+000  9.999999e-001
    outer loop
      vertex  2.900544e+001 -3.096803e-001  3.415000e+002
      vertex  3.001334e+001  3.870371e-001  3.415000e+002
      vertex  2.900544e+001  3.096803e-001  3.415000e+002
    endloop
  endfacet
  facet normal  0.000000e+000  0.000000e+000  1.000000e+000
    outer loop
      vertex  2.900544e+001 -3.096803e-001  3.415000e+002
      vertex  2.900544e+001  3.096803e-001  3.415000e+002
      vertex  2.799456e+001 -3.096803e-001  3.415000e+002
    endloop
  endfacet
  facet normal  0.000000e+000  0.000000e+000  1.000000e+000
    outer loop
      vertex  2.598763e+001  5.412970e-001  3.415000e+002
      vertex  2.310191e+001 -1.454228e+000  3.415000e+002
      vertex  2.698666e+001  3.870371e-001  3.415000e+002
    endloop
  endfacet
  facet normal  0.000000e+000  0.000000e+000  1.000000e+000
    outer loop
      vertex  2.698666e+001  3.870371e-001  3.415000e+002
      vertex  2.310191e+001 -1.454228e+000  3.415000e+002
      vertex  2.403954e+001 -1.076462e+000  3.415000e+002
    endloop
  endfacet
  facet normal  0.000000e+000  0.000000e+000  1.000000e+000
    outer loop
      vertex  2.698666e+001  3.870371e-001  3.415000e+002
      vertex  2.403954e+001 -1.076462e+000  3.415000e+002
      vertex  2.799456e+001  3.096803e-001  3.415000e+002
    endloop
  endfacet
  facet normal  0.000000e+000  0.000000e+000  1.000000e+000
    outer loop
      vertex  2.799456e+001  3.096803e-001  3.415000e+002
      vertex  2.403954e+001 -1.076462e+000  3.415000e+002
      vertex  2.500333e+001 -7.715555e-001  3.415000e+002
    endloop
  endfacet
  facet normal  0.000000e+000  0.000000e+000  1.000000e+000
    outer loop
      vertex  2.799456e+001  3.096803e-001  3.415000e+002
      vertex  2.500333e+001 -7.715555e-001  3.415000e+002
      vertex  2.900544e+001  3.096803e-001  3.415000e+002
    endloop
  endfacet
  facet normal  0.000000e+000  0.000000e+000  1.000000e+000
    outer loop
      vertex  2.900544e+001  3.096803e-001  3.415000e+002
      vertex  2.500333e+001 -7.715555e-001  3.415000e+002
      vertex  2.598763e+001 -5.412970e-001  3.415000e+002
    endloop
  endfacet
  facet normal  0.000000e+000  0.000000e+000  1.000000e+000
    outer loop
      vertex  2.900544e+001  3.096803e-001  3.415000e+002
      vertex  2.598763e+001 -5.412970e-001  3.415000e+002
      vertex  2.698666e+001 -3.870371e-001  3.415000e+002
    endloop
  endfacet
  facet normal  0.000000e+000  0.000000e+000  9.999999e-001
    outer loop
      vertex  2.500333e+001  7.715555e-001  3.415000e+002
      vertex  2.132693e+001 -2.419065e+000  3.415000e+002
      vertex  2.598763e+001  5.412970e-001  3.415000e+002
    endloop
  endfacet
  facet normal  0.000000e+000  0.000000e+000  1.000000e+000
    outer loop
      vertex  2.598763e+001  5.412970e-001  3.415000e+002
      vertex  2.132693e+001 -2.419065e+000  3.415000e+002
      vertex  2.219594e+001 -1.902639e+000  3.415000e+002
    endloop
  endfacet
  facet normal  0.000000e+000  0.000000e+000  1.000000e+000
    outer loop
      vertex  2.598763e+001  5.412970e-001  3.415000e+002
      vertex  2.219594e+001 -1.902639e+000  3.415000e+002
      vertex  2.310191e+001 -1.454228e+000  3.415000e+002
    endloop
  endfacet
endsolid CATIA STL
