solid CATIA STL
  facet normal  1.000000e+000  0.000000e+000  0.000000e+000
    outer loop
      vertex  3.950000e+001  9.050000e+000  2.600000e+001
      vertex  3.950000e+001  1.280000e+001  2.225000e+001
      vertex  3.950000e+001  9.050000e+000  2.825000e+001
    endloop
  endfacet
  facet normal  1.000000e+000  -0.000000e+000  0.000000e+000
    outer loop
      vertex  3.950000e+001  9.050000e+000  2.825000e+001
      vertex  3.950000e+001  1.280000e+001  2.225000e+001
      vertex  3.950000e+001  1.280000e+001  2.825000e+001
    endloop
  endfacet
  facet normal  0.000000e+000 -1.000000e+000  0.000000e+000
    outer loop
      vertex  3.650000e+001  9.050000e+000  2.600000e+001
      vertex  3.950000e+001  9.050000e+000  2.600000e+001
      vertex  3.650000e+001  9.050000e+000  2.825000e+001
    endloop
  endfacet
  facet normal  0.000000e+000 -1.000000e+000  0.000000e+000
    outer loop
      vertex  3.650000e+001  9.050000e+000  2.825000e+001
      vertex  3.950000e+001  9.050000e+000  2.600000e+001
      vertex  3.950000e+001  9.050000e+000  2.825000e+001
    endloop
  endfacet
  facet normal -1.000000e+000  -0.000000e+000  0.000000e+000
    outer loop
      vertex  3.650000e+001  9.050000e+000  2.825000e+001
      vertex  3.650000e+001  1.280000e+001  2.825000e+001
      vertex  3.650000e+001  9.050000e+000  2.600000e+001
    endloop
  endfacet
  facet normal -1.000000e+000  0.000000e+000  0.000000e+000
    outer loop
      vertex  3.650000e+001  9.050000e+000  2.600000e+001
      vertex  3.650000e+001  1.280000e+001  2.825000e+001
      vertex  3.650000e+001  1.280000e+001  2.225000e+001
    endloop
  endfacet
  facet normal  -0.000000e+000 -7.071068e-001 -7.071068e-001
    outer loop
      vertex  3.650000e+001  1.280000e+001  2.225000e+001
      vertex  3.950000e+001  1.280000e+001  2.225000e+001
      vertex  3.650000e+001  9.050000e+000  2.600000e+001
    endloop
  endfacet
  facet normal  0.000000e+000 -7.071068e-001 -7.071068e-001
    outer loop
      vertex  3.650000e+001  9.050000e+000  2.600000e+001
      vertex  3.950000e+001  1.280000e+001  2.225000e+001
      vertex  3.950000e+001  9.050000e+000  2.600000e+001
    endloop
  endfacet
  facet normal  1.000000e+000  0.000000e+000  0.000000e+000
    outer loop
      vertex  3.500000e+001  9.050000e+000  2.825000e+001
      vertex  3.500000e+001  9.050000e+000  2.600000e+001
      vertex  3.500000e+001  1.280000e+001  2.825000e+001
    endloop
  endfacet
  facet normal  1.000000e+000  0.000000e+000  0.000000e+000
    outer loop
      vertex  3.500000e+001  1.280000e+001  2.825000e+001
      vertex  3.500000e+001  9.050000e+000  2.600000e+001
      vertex  3.500000e+001  1.280000e+001  2.225000e+001
    endloop
  endfacet
  facet normal -1.000000e+000  0.000000e+000  0.000000e+000
    outer loop
      vertex  3.200000e+001  9.050000e+000  2.600000e+001
      vertex  3.200000e+001  9.050000e+000  2.825000e+001
      vertex  3.200000e+001  1.280000e+001  2.225000e+001
    endloop
  endfacet
  facet normal -1.000000e+000  0.000000e+000  0.000000e+000
    outer loop
      vertex  3.200000e+001  1.280000e+001  2.225000e+001
      vertex  3.200000e+001  9.050000e+000  2.825000e+001
      vertex  3.200000e+001  1.280000e+001  2.825000e+001
    endloop
  endfacet
  facet normal  0.000000e+000 -1.000000e+000  0.000000e+000
    outer loop
      vertex  3.200000e+001  9.050000e+000  2.600000e+001
      vertex  3.500000e+001  9.050000e+000  2.600000e+001
      vertex  3.200000e+001  9.050000e+000  2.825000e+001
    endloop
  endfacet
  facet normal  0.000000e+000 -1.000000e+000  0.000000e+000
    outer loop
      vertex  3.200000e+001  9.050000e+000  2.825000e+001
      vertex  3.500000e+001  9.050000e+000  2.600000e+001
      vertex  3.500000e+001  9.050000e+000  2.825000e+001
    endloop
  endfacet
  facet normal  0.000000e+000 -1.000000e+000  -0.000000e+000
    outer loop
      vertex  4.480000e+001  1.280000e+001  2.090000e+001
      vertex  4.480000e+001  1.280000e+001  3.350000e+001
      vertex  3.950000e+001  1.280000e+001  2.825000e+001
    endloop
  endfacet
  facet normal  0.000000e+000 -1.000000e+000  0.000000e+000
    outer loop
      vertex  4.480000e+001  1.280000e+001  2.090000e+001
      vertex  3.950000e+001  1.280000e+001  2.825000e+001
      vertex  3.950000e+001  1.280000e+001  2.225000e+001
    endloop
  endfacet
  facet normal  -0.000000e+000 -1.000000e+000  -0.000000e+000
    outer loop
      vertex  4.480000e+001  1.280000e+001  2.090000e+001
      vertex  3.950000e+001  1.280000e+001  2.225000e+001
      vertex  3.650000e+001  1.280000e+001  2.225000e+001
    endloop
  endfacet
  facet normal  -0.000000e+000 -1.000000e+000  -0.000000e+000
    outer loop
      vertex  4.480000e+001  1.280000e+001  2.090000e+001
      vertex  3.650000e+001  1.280000e+001  2.225000e+001
      vertex  3.500000e+001  1.280000e+001  2.225000e+001
    endloop
  endfacet
  facet normal  -0.000000e+000 -1.000000e+000  -0.000000e+000
    outer loop
      vertex  4.480000e+001  1.280000e+001  2.090000e+001
      vertex  3.500000e+001  1.280000e+001  2.225000e+001
      vertex  3.200000e+001  1.280000e+001  2.225000e+001
    endloop
  endfacet
  facet normal  0.000000e+000 -1.000000e+000  -0.000000e+000
    outer loop
      vertex  4.480000e+001  1.280000e+001  2.090000e+001
      vertex  3.200000e+001  1.280000e+001  2.225000e+001
      vertex  2.670000e+001  1.280000e+001  2.090000e+001
    endloop
  endfacet
  facet normal  0.000000e+000 -1.000000e+000  0.000000e+000
    outer loop
      vertex  4.480000e+001  1.280000e+001  3.350000e+001
      vertex  2.670000e+001  1.280000e+001  3.350000e+001
      vertex  3.200000e+001  1.280000e+001  2.825000e+001
    endloop
  endfacet
  facet normal  0.000000e+000 -1.000000e+000  0.000000e+000
    outer loop
      vertex  4.480000e+001  1.280000e+001  3.350000e+001
      vertex  3.200000e+001  1.280000e+001  2.825000e+001
      vertex  3.500000e+001  1.280000e+001  2.825000e+001
    endloop
  endfacet
  facet normal  0.000000e+000 -1.000000e+000  0.000000e+000
    outer loop
      vertex  4.480000e+001  1.280000e+001  3.350000e+001
      vertex  3.500000e+001  1.280000e+001  2.825000e+001
      vertex  3.650000e+001  1.280000e+001  2.825000e+001
    endloop
  endfacet
  facet normal  0.000000e+000 -1.000000e+000  0.000000e+000
    outer loop
      vertex  4.480000e+001  1.280000e+001  3.350000e+001
      vertex  3.650000e+001  1.280000e+001  2.825000e+001
      vertex  3.950000e+001  1.280000e+001  2.825000e+001
    endloop
  endfacet
  facet normal  0.000000e+000 -1.000000e+000  -0.000000e+000
    outer loop
      vertex  3.650000e+001  1.280000e+001  2.225000e+001
      vertex  3.650000e+001  1.280000e+001  2.825000e+001
      vertex  3.500000e+001  1.280000e+001  2.225000e+001
    endloop
  endfacet
  facet normal  0.000000e+000 -1.000000e+000  0.000000e+000
    outer loop
      vertex  3.500000e+001  1.280000e+001  2.225000e+001
      vertex  3.650000e+001  1.280000e+001  2.825000e+001
      vertex  3.500000e+001  1.280000e+001  2.825000e+001
    endloop
  endfacet
  facet normal  0.000000e+000 -1.000000e+000  0.000000e+000
    outer loop
      vertex  3.200000e+001  1.280000e+001  2.825000e+001
      vertex  2.670000e+001  1.280000e+001  3.350000e+001
      vertex  3.200000e+001  1.280000e+001  2.225000e+001
    endloop
  endfacet
  facet normal  -0.000000e+000 -1.000000e+000  0.000000e+000
    outer loop
      vertex  3.200000e+001  1.280000e+001  2.225000e+001
      vertex  2.670000e+001  1.280000e+001  3.350000e+001
      vertex  2.670000e+001  1.280000e+001  2.090000e+001
    endloop
  endfacet
  facet normal  0.000000e+000 -7.071068e-001 -7.071068e-001
    outer loop
      vertex  3.500000e+001  1.280000e+001  2.225000e+001
      vertex  3.500000e+001  9.050000e+000  2.600000e+001
      vertex  3.200000e+001  1.280000e+001  2.225000e+001
    endloop
  endfacet
  facet normal  0.000000e+000 -7.071068e-001 -7.071068e-001
    outer loop
      vertex  3.200000e+001  1.280000e+001  2.225000e+001
      vertex  3.500000e+001  9.050000e+000  2.600000e+001
      vertex  3.200000e+001  9.050000e+000  2.600000e+001
    endloop
  endfacet
  facet normal  0.000000e+000  0.000000e+000  1.000000e+000
    outer loop
      vertex  3.650000e+001  9.050000e+000  2.825000e+001
      vertex  3.950000e+001  9.050000e+000  2.825000e+001
      vertex  3.650000e+001  1.280000e+001  2.825000e+001
    endloop
  endfacet
  facet normal  -0.000000e+000  0.000000e+000  1.000000e+000
    outer loop
      vertex  3.650000e+001  1.280000e+001  2.825000e+001
      vertex  3.950000e+001  9.050000e+000  2.825000e+001
      vertex  3.950000e+001  1.280000e+001  2.825000e+001
    endloop
  endfacet
  facet normal  0.000000e+000  0.000000e+000  1.000000e+000
    outer loop
      vertex  3.200000e+001  9.050000e+000  2.825000e+001
      vertex  3.500000e+001  9.050000e+000  2.825000e+001
      vertex  3.200000e+001  1.280000e+001  2.825000e+001
    endloop
  endfacet
  facet normal  -0.000000e+000  0.000000e+000  1.000000e+000
    outer loop
      vertex  3.200000e+001  1.280000e+001  2.825000e+001
      vertex  3.500000e+001  9.050000e+000  2.825000e+001
      vertex  3.500000e+001  1.280000e+001  2.825000e+001
    endloop
  endfacet
  facet normal  0.000000e+000  9.999999e-001  0.000000e+000
    outer loop
      vertex  2.670000e+001  2.280000e+001  1.000000e+001
      vertex  2.670000e+001  2.280000e+001  3.350000e+001
      vertex  4.480000e+001  2.280000e+001  1.000000e+001
    endloop
  endfacet
  facet normal  0.000000e+000  9.999999e-001  -0.000000e+000
    outer loop
      vertex  4.480000e+001  2.280000e+001  1.000000e+001
      vertex  2.670000e+001  2.280000e+001  3.350000e+001
      vertex  4.480000e+001  2.280000e+001  3.350000e+001
    endloop
  endfacet
  facet normal -1.000000e+000  0.000000e+000  0.000000e+000
    outer loop
      vertex  2.670000e+001  2.280000e+001  3.350000e+001
      vertex  2.670000e+001  2.280000e+001  1.000000e+001
      vertex  2.670000e+001  1.280000e+001  3.350000e+001
    endloop
  endfacet
  facet normal -1.000000e+000  0.000000e+000  0.000000e+000
    outer loop
      vertex  2.670000e+001  1.280000e+001  3.350000e+001
      vertex  2.670000e+001  2.280000e+001  1.000000e+001
      vertex  2.670000e+001  1.280000e+001  2.090000e+001
    endloop
  endfacet
  facet normal -1.000000e+000  0.000000e+000  0.000000e+000
    outer loop
      vertex  2.670000e+001  2.280000e+001  1.000000e+001
      vertex  2.670000e+001  8.700000e+000  1.000000e+001
      vertex  2.670000e+001  1.280000e+001  2.090000e+001
    endloop
  endfacet
  facet normal -1.000000e+000  -0.000000e+000  0.000000e+000
    outer loop
      vertex  2.670000e+001  1.280000e+001  2.090000e+001
      vertex  2.670000e+001  8.700000e+000  1.000000e+001
      vertex  2.670000e+001  8.700000e+000  2.090000e+001
    endloop
  endfacet
  facet normal  1.000000e+000  0.000000e+000  -0.000000e+000
    outer loop
      vertex  4.480000e+001 -3.680000e+001  9.000000e+000
      vertex  4.480000e+001  3.680000e+001  9.000000e+000
      vertex  4.480000e+001  3.680000e+001  1.000000e+001
    endloop
  endfacet
  facet normal  1.000000e+000  0.000000e+000  0.000000e+000
    outer loop
      vertex  4.480000e+001 -3.680000e+001  9.000000e+000
      vertex  4.480000e+001  3.680000e+001  1.000000e+001
      vertex  4.480000e+001  2.280000e+001  1.000000e+001
    endloop
  endfacet
  facet normal  1.000000e+000  0.000000e+000  0.000000e+000
    outer loop
      vertex  4.480000e+001 -3.680000e+001  9.000000e+000
      vertex  4.480000e+001  2.280000e+001  1.000000e+001
      vertex  4.480000e+001  8.700000e+000  1.000000e+001
    endloop
  endfacet
  facet normal  1.000000e+000  0.000000e+000  0.000000e+000
    outer loop
      vertex  4.480000e+001 -3.680000e+001  9.000000e+000
      vertex  4.480000e+001  8.700000e+000  1.000000e+001
      vertex  4.480000e+001 -3.680000e+001  1.000000e+001
    endloop
  endfacet
  facet normal  1.000000e+000  0.000000e+000  0.000000e+000
    outer loop
      vertex  4.480000e+001  2.280000e+001  1.000000e+001
      vertex  4.480000e+001  2.280000e+001  3.350000e+001
      vertex  4.480000e+001  1.280000e+001  3.350000e+001
    endloop
  endfacet
  facet normal  1.000000e+000  0.000000e+000  0.000000e+000
    outer loop
      vertex  4.480000e+001  2.280000e+001  1.000000e+001
      vertex  4.480000e+001  1.280000e+001  3.350000e+001
      vertex  4.480000e+001  1.280000e+001  2.090000e+001
    endloop
  endfacet
  facet normal  1.000000e+000  0.000000e+000  0.000000e+000
    outer loop
      vertex  4.480000e+001  2.280000e+001  1.000000e+001
      vertex  4.480000e+001  1.280000e+001  2.090000e+001
      vertex  4.480000e+001  8.700000e+000  2.090000e+001
    endloop
  endfacet
  facet normal  1.000000e+000  0.000000e+000  0.000000e+000
    outer loop
      vertex  4.480000e+001  2.280000e+001  1.000000e+001
      vertex  4.480000e+001  8.700000e+000  2.090000e+001
      vertex  4.480000e+001  8.700000e+000  1.000000e+001
    endloop
  endfacet
  facet normal  0.000000e+000  -0.000000e+000  1.000000e+000
    outer loop
      vertex  2.670000e+001  2.280000e+001  1.000000e+001
      vertex  4.480000e+001  2.280000e+001  1.000000e+001
      vertex  4.480000e+001  3.680000e+001  1.000000e+001
    endloop
  endfacet
  facet normal  0.000000e+000  0.000000e+000  1.000000e+000
    outer loop
      vertex  2.670000e+001  2.280000e+001  1.000000e+001
      vertex  4.480000e+001  3.680000e+001  1.000000e+001
      vertex -4.480000e+001  3.680000e+001  1.000000e+001
    endloop
  endfacet
  facet normal  0.000000e+000  0.000000e+000  1.000000e+000
    outer loop
      vertex  2.670000e+001  2.280000e+001  1.000000e+001
      vertex -4.480000e+001  3.680000e+001  1.000000e+001
      vertex -4.480000e+001 -3.680000e+001  1.000000e+001
    endloop
  endfacet
  facet normal  0.000000e+000  0.000000e+000  9.999999e-001
    outer loop
      vertex  2.670000e+001  2.280000e+001  1.000000e+001
      vertex -4.480000e+001 -3.680000e+001  1.000000e+001
      vertex  2.670000e+001  8.700000e+000  1.000000e+001
    endloop
  endfacet
  facet normal  0.000000e+000  0.000000e+000  1.000000e+000
    outer loop
      vertex -4.480000e+001  3.680000e+001  1.000000e+001
      vertex  4.480000e+001  3.680000e+001  1.000000e+001
      vertex -3.680000e+001  4.480000e+001  1.000000e+001
    endloop
  endfacet
  facet normal  -0.000000e+000  0.000000e+000  1.000000e+000
    outer loop
      vertex -3.680000e+001  4.480000e+001  1.000000e+001
      vertex  4.480000e+001  3.680000e+001  1.000000e+001
      vertex  3.680000e+001  4.480000e+001  1.000000e+001
    endloop
  endfacet
  facet normal  -0.000000e+000  0.000000e+000  1.000000e+000
    outer loop
      vertex  4.480000e+001  8.700000e+000  1.000000e+001
      vertex  2.670000e+001  8.700000e+000  1.000000e+001
      vertex  4.480000e+001 -3.680000e+001  1.000000e+001
    endloop
  endfacet
  facet normal  0.000000e+000  0.000000e+000  1.000000e+000
    outer loop
      vertex  4.480000e+001 -3.680000e+001  1.000000e+001
      vertex  2.670000e+001  8.700000e+000  1.000000e+001
      vertex -4.480000e+001 -3.680000e+001  1.000000e+001
    endloop
  endfacet
  facet normal  -0.000000e+000  0.000000e+000  1.000000e+000
    outer loop
      vertex  4.480000e+001 -3.680000e+001  1.000000e+001
      vertex -4.480000e+001 -3.680000e+001  1.000000e+001
      vertex  3.680000e+001 -4.480000e+001  1.000000e+001
    endloop
  endfacet
  facet normal  0.000000e+000  0.000000e+000  1.000000e+000
    outer loop
      vertex  3.680000e+001 -4.480000e+001  1.000000e+001
      vertex -4.480000e+001 -3.680000e+001  1.000000e+001
      vertex -3.680000e+001 -4.480000e+001  1.000000e+001
    endloop
  endfacet
  facet normal  0.000000e+000 -1.000000e+000  0.000000e+000
    outer loop
      vertex  4.480000e+001  8.700000e+000  2.090000e+001
      vertex  2.670000e+001  8.700000e+000  2.090000e+001
      vertex  4.480000e+001  8.700000e+000  1.000000e+001
    endloop
  endfacet
  facet normal  0.000000e+000 -1.000000e+000  0.000000e+000
    outer loop
      vertex  4.480000e+001  8.700000e+000  1.000000e+001
      vertex  2.670000e+001  8.700000e+000  2.090000e+001
      vertex  2.670000e+001  8.700000e+000  1.000000e+001
    endloop
  endfacet
  facet normal  0.000000e+000  0.000000e+000  1.000000e+000
    outer loop
      vertex  2.670000e+001  1.280000e+001  2.090000e+001
      vertex  2.670000e+001  8.700000e+000  2.090000e+001
      vertex  4.480000e+001  1.280000e+001  2.090000e+001
    endloop
  endfacet
  facet normal  0.000000e+000  0.000000e+000  1.000000e+000
    outer loop
      vertex  4.480000e+001  1.280000e+001  2.090000e+001
      vertex  2.670000e+001  8.700000e+000  2.090000e+001
      vertex  4.480000e+001  8.700000e+000  2.090000e+001
    endloop
  endfacet
  facet normal  0.000000e+000  0.000000e+000  1.000000e+000
    outer loop
      vertex  2.670000e+001  2.280000e+001  3.350000e+001
      vertex  2.670000e+001  1.280000e+001  3.350000e+001
      vertex  4.480000e+001  2.280000e+001  3.350000e+001
    endloop
  endfacet
  facet normal  0.000000e+000  0.000000e+000  1.000000e+000
    outer loop
      vertex  4.480000e+001  2.280000e+001  3.350000e+001
      vertex  2.670000e+001  1.280000e+001  3.350000e+001
      vertex  4.480000e+001  1.280000e+001  3.350000e+001
    endloop
  endfacet
  facet normal  0.000000e+000  0.000000e+000 -1.000000e+000
    outer loop
      vertex  4.480000e+001  3.680000e+001  9.000000e+000
      vertex -3.680000e+001  4.480000e+001  9.000000e+000
      vertex  3.680000e+001  4.480000e+001  9.000000e+000
    endloop
  endfacet
  facet normal  0.000000e+000  0.000000e+000 -1.000000e+000
    outer loop
      vertex -3.680000e+001  4.480000e+001  9.000000e+000
      vertex  4.480000e+001  3.680000e+001  9.000000e+000
      vertex -4.480000e+001  3.680000e+001  9.000000e+000
    endloop
  endfacet
  facet normal  0.000000e+000  0.000000e+000 -1.000000e+000
    outer loop
      vertex -4.480000e+001  3.680000e+001  9.000000e+000
      vertex  4.480000e+001  3.680000e+001  9.000000e+000
      vertex  4.480000e+001 -3.680000e+001  9.000000e+000
    endloop
  endfacet
  facet normal  0.000000e+000  0.000000e+000 -1.000000e+000
    outer loop
      vertex -4.480000e+001  3.680000e+001  9.000000e+000
      vertex  4.480000e+001 -3.680000e+001  9.000000e+000
      vertex -4.480000e+001 -3.680000e+001  9.000000e+000
    endloop
  endfacet
  facet normal  0.000000e+000  0.000000e+000 -1.000000e+000
    outer loop
      vertex -4.480000e+001 -3.680000e+001  9.000000e+000
      vertex  4.480000e+001 -3.680000e+001  9.000000e+000
      vertex  3.680000e+001 -4.480000e+001  9.000000e+000
    endloop
  endfacet
  facet normal  0.000000e+000  0.000000e+000 -1.000000e+000
    outer loop
      vertex -4.480000e+001 -3.680000e+001  9.000000e+000
      vertex  3.680000e+001 -4.480000e+001  9.000000e+000
      vertex -3.680000e+001 -4.480000e+001  9.000000e+000
    endloop
  endfacet
  facet normal  0.000000e+000  1.000000e+000  0.000000e+000
    outer loop
      vertex -3.680000e+001  4.480000e+001  1.000000e+001
      vertex  3.680000e+001  4.480000e+001  1.000000e+001
      vertex -3.680000e+001  4.480000e+001  9.000000e+000
    endloop
  endfacet
  facet normal  0.000000e+000  1.000000e+000  0.000000e+000
    outer loop
      vertex -3.680000e+001  4.480000e+001  9.000000e+000
      vertex  3.680000e+001  4.480000e+001  1.000000e+001
      vertex  3.680000e+001  4.480000e+001  9.000000e+000
    endloop
  endfacet
  facet normal  7.071068e-001  7.071068e-001  0.000000e+000
    outer loop
      vertex  4.480000e+001  3.680000e+001  9.000000e+000
      vertex  3.680000e+001  4.480000e+001  9.000000e+000
      vertex  4.480000e+001  3.680000e+001  1.000000e+001
    endloop
  endfacet
  facet normal  7.071068e-001  7.071068e-001  0.000000e+000
    outer loop
      vertex  4.480000e+001  3.680000e+001  1.000000e+001
      vertex  3.680000e+001  4.480000e+001  9.000000e+000
      vertex  3.680000e+001  4.480000e+001  1.000000e+001
    endloop
  endfacet
  facet normal  0.000000e+000 -1.000000e+000  0.000000e+000
    outer loop
      vertex  3.680000e+001 -4.480000e+001  1.000000e+001
      vertex -3.680000e+001 -4.480000e+001  1.000000e+001
      vertex  3.680000e+001 -4.480000e+001  9.000000e+000
    endloop
  endfacet
  facet normal  0.000000e+000 -1.000000e+000  0.000000e+000
    outer loop
      vertex  3.680000e+001 -4.480000e+001  9.000000e+000
      vertex -3.680000e+001 -4.480000e+001  1.000000e+001
      vertex -3.680000e+001 -4.480000e+001  9.000000e+000
    endloop
  endfacet
  facet normal  7.071068e-001 -7.071068e-001  0.000000e+000
    outer loop
      vertex  4.480000e+001 -3.680000e+001  9.000000e+000
      vertex  4.480000e+001 -3.680000e+001  1.000000e+001
      vertex  3.680000e+001 -4.480000e+001  9.000000e+000
    endloop
  endfacet
  facet normal  7.071068e-001 -7.071068e-001  0.000000e+000
    outer loop
      vertex  3.680000e+001 -4.480000e+001  9.000000e+000
      vertex  4.480000e+001 -3.680000e+001  1.000000e+001
      vertex  3.680000e+001 -4.480000e+001  1.000000e+001
    endloop
  endfacet
  facet normal -1.000000e+000  -0.000000e+000  0.000000e+000
    outer loop
      vertex -4.480000e+001 -3.680000e+001  1.000000e+001
      vertex -4.480000e+001  3.680000e+001  1.000000e+001
      vertex -4.480000e+001 -3.680000e+001  9.000000e+000
    endloop
  endfacet
  facet normal -1.000000e+000  0.000000e+000  0.000000e+000
    outer loop
      vertex -4.480000e+001 -3.680000e+001  9.000000e+000
      vertex -4.480000e+001  3.680000e+001  1.000000e+001
      vertex -4.480000e+001  3.680000e+001  9.000000e+000
    endloop
  endfacet
  facet normal -7.071068e-001 -7.071068e-001  0.000000e+000
    outer loop
      vertex -4.480000e+001 -3.680000e+001  9.000000e+000
      vertex -3.680000e+001 -4.480000e+001  9.000000e+000
      vertex -4.480000e+001 -3.680000e+001  1.000000e+001
    endloop
  endfacet
  facet normal -7.071068e-001 -7.071068e-001  0.000000e+000
    outer loop
      vertex -4.480000e+001 -3.680000e+001  1.000000e+001
      vertex -3.680000e+001 -4.480000e+001  9.000000e+000
      vertex -3.680000e+001 -4.480000e+001  1.000000e+001
    endloop
  endfacet
  facet normal -7.071068e-001  7.071068e-001  0.000000e+000
    outer loop
      vertex -4.480000e+001  3.680000e+001  9.000000e+000
      vertex -4.480000e+001  3.680000e+001  1.000000e+001
      vertex -3.680000e+001  4.480000e+001  9.000000e+000
    endloop
  endfacet
  facet normal -7.071068e-001  7.071068e-001  0.000000e+000
    outer loop
      vertex -3.680000e+001  4.480000e+001  9.000000e+000
      vertex -4.480000e+001  3.680000e+001  1.000000e+001
      vertex -3.680000e+001  4.480000e+001  1.000000e+001
    endloop
  endfacet
endsolid CATIA STL
