solid CATIA STL
  facet normal -1.000000e+000  0.000000e+000  0.000000e+000
    outer loop
      vertex  1.350000e+001  2.400000e+001  3.430000e+002
      vertex  1.350000e+001  2.400000e+001  5.700000e+001
      vertex  1.350000e+001 -2.400000e+001  3.430000e+002
    endloop
  endfacet
  facet normal -1.000000e+000  0.000000e+000  0.000000e+000
    outer loop
      vertex  1.350000e+001 -2.400000e+001  3.430000e+002
      vertex  1.350000e+001  2.400000e+001  5.700000e+001
      vertex  1.350000e+001 -2.400000e+001  5.700000e+001
    endloop
  endfacet
  facet normal  0.000000e+000  0.000000e+000 -1.000000e+000
    outer loop
      vertex  1.350000e+001  2.400000e+001  3.430000e+002
      vertex -1.350000e+001  2.700000e+001  3.430000e+002
      vertex  1.050000e+001  2.700000e+001  3.430000e+002
    endloop
  endfacet
  facet normal  -0.000000e+000  0.000000e+000 -1.000000e+000
    outer loop
      vertex -1.350000e+001  2.700000e+001  3.430000e+002
      vertex  1.350000e+001  2.400000e+001  3.430000e+002
      vertex -1.350000e+001 -2.700000e+001  3.430000e+002
    endloop
  endfacet
  facet normal  0.000000e+000  0.000000e+000 -1.000000e+000
    outer loop
      vertex -1.350000e+001 -2.700000e+001  3.430000e+002
      vertex  1.350000e+001  2.400000e+001  3.430000e+002
      vertex  1.350000e+001 -2.400000e+001  3.430000e+002
    endloop
  endfacet
  facet normal  0.000000e+000  0.000000e+000 -1.000000e+000
    outer loop
      vertex -1.350000e+001 -2.700000e+001  3.430000e+002
      vertex  1.350000e+001 -2.400000e+001  3.430000e+002
      vertex  1.050000e+001 -2.700000e+001  3.430000e+002
    endloop
  endfacet
  facet normal  0.000000e+000  1.000000e+000  -0.000000e+000
    outer loop
      vertex  1.050000e+001 -2.700000e+001  3.430000e+002
      vertex  1.050000e+001 -2.700000e+001  5.700000e+001
      vertex -1.350000e+001 -2.700000e+001  3.430000e+002
    endloop
  endfacet
  facet normal  0.000000e+000  1.000000e+000  0.000000e+000
    outer loop
      vertex -1.350000e+001 -2.700000e+001  3.430000e+002
      vertex  1.050000e+001 -2.700000e+001  5.700000e+001
      vertex -1.350000e+001 -2.700000e+001  5.700000e+001
    endloop
  endfacet
  facet normal  0.000000e+000  0.000000e+000 -1.000000e+000
    outer loop
      vertex  1.650000e+001  2.700000e+001  5.700000e+001
      vertex  1.650000e+001 -2.700000e+001  5.700000e+001
      vertex  1.350000e+001 -2.400000e+001  5.700000e+001
    endloop
  endfacet
  facet normal  0.000000e+000  0.000000e+000 -1.000000e+000
    outer loop
      vertex  1.650000e+001  2.700000e+001  5.700000e+001
      vertex  1.350000e+001 -2.400000e+001  5.700000e+001
      vertex  1.350000e+001  2.400000e+001  5.700000e+001
    endloop
  endfacet
  facet normal  0.000000e+000  0.000000e+000 -1.000000e+000
    outer loop
      vertex  1.650000e+001  2.700000e+001  5.700000e+001
      vertex  1.350000e+001  2.400000e+001  5.700000e+001
      vertex  1.050000e+001  2.700000e+001  5.700000e+001
    endloop
  endfacet
  facet normal  0.000000e+000  0.000000e+000 -1.000000e+000
    outer loop
      vertex  1.650000e+001  2.700000e+001  5.700000e+001
      vertex  1.050000e+001  2.700000e+001  5.700000e+001
      vertex  1.350000e+001  3.000000e+001  5.700000e+001
    endloop
  endfacet
  facet normal  0.000000e+000  0.000000e+000 -1.000000e+000
    outer loop
      vertex  1.350000e+001 -2.400000e+001  5.700000e+001
      vertex  1.650000e+001 -2.700000e+001  5.700000e+001
      vertex  1.050000e+001 -2.700000e+001  5.700000e+001
    endloop
  endfacet
  facet normal  0.000000e+000  0.000000e+000 -1.000000e+000
    outer loop
      vertex  1.050000e+001 -2.700000e+001  5.700000e+001
      vertex  1.650000e+001 -2.700000e+001  5.700000e+001
      vertex  1.350000e+001 -3.000000e+001  5.700000e+001
    endloop
  endfacet
  facet normal  0.000000e+000  0.000000e+000 -1.000000e+000
    outer loop
      vertex  1.050000e+001 -2.700000e+001  5.700000e+001
      vertex  1.350000e+001 -3.000000e+001  5.700000e+001
      vertex -1.650000e+001 -3.000000e+001  5.700000e+001
    endloop
  endfacet
  facet normal  0.000000e+000  0.000000e+000 -1.000000e+000
    outer loop
      vertex  1.050000e+001 -2.700000e+001  5.700000e+001
      vertex -1.650000e+001 -3.000000e+001  5.700000e+001
      vertex -1.350000e+001 -2.700000e+001  5.700000e+001
    endloop
  endfacet
  facet normal  -0.000000e+000  0.000000e+000 -1.000000e+000
    outer loop
      vertex -1.350000e+001 -2.700000e+001  5.700000e+001
      vertex -1.650000e+001 -3.000000e+001  5.700000e+001
      vertex -1.650000e+001  3.000000e+001  5.700000e+001
    endloop
  endfacet
  facet normal  0.000000e+000  0.000000e+000 -1.000000e+000
    outer loop
      vertex -1.350000e+001 -2.700000e+001  5.700000e+001
      vertex -1.650000e+001  3.000000e+001  5.700000e+001
      vertex -1.350000e+001  2.700000e+001  5.700000e+001
    endloop
  endfacet
  facet normal  0.000000e+000  0.000000e+000 -1.000000e+000
    outer loop
      vertex -1.350000e+001  2.700000e+001  5.700000e+001
      vertex -1.650000e+001  3.000000e+001  5.700000e+001
      vertex  1.350000e+001  3.000000e+001  5.700000e+001
    endloop
  endfacet
  facet normal  0.000000e+000  0.000000e+000 -1.000000e+000
    outer loop
      vertex -1.350000e+001  2.700000e+001  5.700000e+001
      vertex  1.350000e+001  3.000000e+001  5.700000e+001
      vertex  1.050000e+001  2.700000e+001  5.700000e+001
    endloop
  endfacet
  facet normal -7.071068e-001  7.071068e-001  0.000000e+000
    outer loop
      vertex  1.050000e+001 -2.700000e+001  3.430000e+002
      vertex  1.350000e+001 -2.400000e+001  3.430000e+002
      vertex  1.050000e+001 -2.700000e+001  5.700000e+001
    endloop
  endfacet
  facet normal -7.071068e-001  7.071068e-001  0.000000e+000
    outer loop
      vertex  1.050000e+001 -2.700000e+001  5.700000e+001
      vertex  1.350000e+001 -2.400000e+001  3.430000e+002
      vertex  1.350000e+001 -2.400000e+001  5.700000e+001
    endloop
  endfacet
  facet normal  0.000000e+000 -1.000000e+000  0.000000e+000
    outer loop
      vertex -1.350000e+001  2.700000e+001  3.430000e+002
      vertex -1.350000e+001  2.700000e+001  5.700000e+001
      vertex  1.050000e+001  2.700000e+001  3.430000e+002
    endloop
  endfacet
  facet normal  0.000000e+000 -1.000000e+000  -0.000000e+000
    outer loop
      vertex  1.050000e+001  2.700000e+001  3.430000e+002
      vertex -1.350000e+001  2.700000e+001  5.700000e+001
      vertex  1.050000e+001  2.700000e+001  5.700000e+001
    endloop
  endfacet
  facet normal -7.071068e-001 -7.071068e-001  0.000000e+000
    outer loop
      vertex  1.050000e+001  2.700000e+001  3.430000e+002
      vertex  1.050000e+001  2.700000e+001  5.700000e+001
      vertex  1.350000e+001  2.400000e+001  3.430000e+002
    endloop
  endfacet
  facet normal -7.071068e-001 -7.071068e-001  -0.000000e+000
    outer loop
      vertex  1.350000e+001  2.400000e+001  3.430000e+002
      vertex  1.050000e+001  2.700000e+001  5.700000e+001
      vertex  1.350000e+001  2.400000e+001  5.700000e+001
    endloop
  endfacet
  facet normal  1.000000e+000  -0.000000e+000  0.000000e+000
    outer loop
      vertex  1.650000e+001  2.700000e+001  3.470000e+002
      vertex  1.650000e+001 -2.700000e+001  3.470000e+002
      vertex  1.650000e+001  2.700000e+001  5.700000e+001
    endloop
  endfacet
  facet normal  1.000000e+000  0.000000e+000  0.000000e+000
    outer loop
      vertex  1.650000e+001  2.700000e+001  5.700000e+001
      vertex  1.650000e+001 -2.700000e+001  3.470000e+002
      vertex  1.650000e+001 -2.700000e+001  5.700000e+001
    endloop
  endfacet
  facet normal  0.000000e+000  0.000000e+000  1.000000e+000
    outer loop
      vertex  1.650000e+001 -2.700000e+001  3.470000e+002
      vertex -1.650000e+001 -3.000000e+001  3.470000e+002
      vertex  1.350000e+001 -3.000000e+001  3.470000e+002
    endloop
  endfacet
  facet normal  0.000000e+000  0.000000e+000  1.000000e+000
    outer loop
      vertex -1.650000e+001 -3.000000e+001  3.470000e+002
      vertex  1.650000e+001 -2.700000e+001  3.470000e+002
      vertex -1.650000e+001  3.000000e+001  3.470000e+002
    endloop
  endfacet
  facet normal  0.000000e+000  0.000000e+000  1.000000e+000
    outer loop
      vertex -1.650000e+001  3.000000e+001  3.470000e+002
      vertex  1.650000e+001 -2.700000e+001  3.470000e+002
      vertex  1.650000e+001  2.700000e+001  3.470000e+002
    endloop
  endfacet
  facet normal  0.000000e+000  0.000000e+000  1.000000e+000
    outer loop
      vertex -1.650000e+001  3.000000e+001  3.470000e+002
      vertex  1.650000e+001  2.700000e+001  3.470000e+002
      vertex  1.350000e+001  3.000000e+001  3.470000e+002
    endloop
  endfacet
  facet normal  0.000000e+000  1.000000e+000  0.000000e+000
    outer loop
      vertex -1.650000e+001  3.000000e+001  3.470000e+002
      vertex  1.350000e+001  3.000000e+001  3.470000e+002
      vertex -1.650000e+001  3.000000e+001  5.700000e+001
    endloop
  endfacet
  facet normal  0.000000e+000  1.000000e+000  0.000000e+000
    outer loop
      vertex -1.650000e+001  3.000000e+001  5.700000e+001
      vertex  1.350000e+001  3.000000e+001  3.470000e+002
      vertex  1.350000e+001  3.000000e+001  5.700000e+001
    endloop
  endfacet
  facet normal  7.071068e-001  7.071068e-001  0.000000e+000
    outer loop
      vertex  1.350000e+001  3.000000e+001  3.470000e+002
      vertex  1.650000e+001  2.700000e+001  3.470000e+002
      vertex  1.350000e+001  3.000000e+001  5.700000e+001
    endloop
  endfacet
  facet normal  7.071068e-001  7.071068e-001  0.000000e+000
    outer loop
      vertex  1.350000e+001  3.000000e+001  5.700000e+001
      vertex  1.650000e+001  2.700000e+001  3.470000e+002
      vertex  1.650000e+001  2.700000e+001  5.700000e+001
    endloop
  endfacet
  facet normal  0.000000e+000 -1.000000e+000  0.000000e+000
    outer loop
      vertex  1.350000e+001 -3.000000e+001  3.470000e+002
      vertex -1.650000e+001 -3.000000e+001  3.470000e+002
      vertex  1.350000e+001 -3.000000e+001  5.700000e+001
    endloop
  endfacet
  facet normal  0.000000e+000 -1.000000e+000  0.000000e+000
    outer loop
      vertex  1.350000e+001 -3.000000e+001  5.700000e+001
      vertex -1.650000e+001 -3.000000e+001  3.470000e+002
      vertex -1.650000e+001 -3.000000e+001  5.700000e+001
    endloop
  endfacet
  facet normal  7.071068e-001 -7.071068e-001  0.000000e+000
    outer loop
      vertex  1.350000e+001 -3.000000e+001  3.470000e+002
      vertex  1.350000e+001 -3.000000e+001  5.700000e+001
      vertex  1.650000e+001 -2.700000e+001  3.470000e+002
    endloop
  endfacet
  facet normal  7.071068e-001 -7.071068e-001  0.000000e+000
    outer loop
      vertex  1.650000e+001 -2.700000e+001  3.470000e+002
      vertex  1.350000e+001 -3.000000e+001  5.700000e+001
      vertex  1.650000e+001 -2.700000e+001  5.700000e+001
    endloop
  endfacet
  facet normal -1.000000e+000  -0.000000e+000  0.000000e+000
    outer loop
      vertex -1.650000e+001 -3.000000e+001  3.470000e+002
      vertex -1.650000e+001  3.000000e+001  3.470000e+002
      vertex -1.650000e+001 -3.000000e+001  5.700000e+001
    endloop
  endfacet
  facet normal -1.000000e+000  0.000000e+000  0.000000e+000
    outer loop
      vertex -1.650000e+001 -3.000000e+001  5.700000e+001
      vertex -1.650000e+001  3.000000e+001  3.470000e+002
      vertex -1.650000e+001  3.000000e+001  5.700000e+001
    endloop
  endfacet
  facet normal  1.000000e+000  0.000000e+000  0.000000e+000
    outer loop
      vertex -1.350000e+001 -2.700000e+001  3.430000e+002
      vertex -1.350000e+001 -2.700000e+001  5.700000e+001
      vertex -1.350000e+001  2.700000e+001  3.430000e+002
    endloop
  endfacet
  facet normal  1.000000e+000  0.000000e+000  0.000000e+000
    outer loop
      vertex -1.350000e+001  2.700000e+001  3.430000e+002
      vertex -1.350000e+001 -2.700000e+001  5.700000e+001
      vertex -1.350000e+001  2.700000e+001  5.700000e+001
    endloop
  endfacet
endsolid CATIA STL
