solid CATIA STL
  facet normal -1.000000e+000  0.000000e+000  -0.000000e+000
    outer loop
      vertex  5.600000e+001 -5.000000e+001  3.010000e+002
      vertex  5.600000e+001 -4.900000e+001  3.312679e+002
      vertex  5.600000e+001 -4.826795e+001  3.320000e+002
    endloop
  endfacet
  facet normal -1.000000e+000  0.000000e+000  0.000000e+000
    outer loop
      vertex  5.600000e+001 -5.000000e+001  3.010000e+002
      vertex  5.600000e+001 -5.000000e+001  3.310000e+002
      vertex  5.600000e+001 -4.900000e+001  3.312679e+002
    endloop
  endfacet
  facet normal -1.000000e+000  0.000000e+000  0.000000e+000
    outer loop
      vertex  5.600000e+001 -5.173205e+001  3.320000e+002
      vertex  5.600000e+001 -5.000000e+001  3.010000e+002
      vertex  5.600000e+001 -5.200000e+001  3.330000e+002
    endloop
  endfacet
  facet normal -1.000000e+000  0.000000e+000  0.000000e+000
    outer loop
      vertex  5.600000e+001 -5.100000e+001  3.312679e+002
      vertex  5.600000e+001 -5.000000e+001  3.010000e+002
      vertex  5.600000e+001 -5.173205e+001  3.320000e+002
    endloop
  endfacet
  facet normal -1.000000e+000  0.000000e+000  0.000000e+000
    outer loop
      vertex  5.600000e+001 -5.000000e+001  3.310000e+002
      vertex  5.600000e+001 -5.000000e+001  3.010000e+002
      vertex  5.600000e+001 -5.100000e+001  3.312679e+002
    endloop
  endfacet
  facet normal -1.000000e+000  0.000000e+000  0.000000e+000
    outer loop
      vertex  5.600000e+001 -4.300000e+001  2.890000e+002
      vertex  5.600000e+001 -5.600000e+001  2.890000e+002
      vertex  5.600000e+001 -5.000000e+001  2.970000e+002
    endloop
  endfacet
  facet normal -1.000000e+000  0.000000e+000  0.000000e+000
    outer loop
      vertex  5.600000e+001 -4.300000e+001  2.890000e+002
      vertex  5.600000e+001 -5.000000e+001  2.970000e+002
      vertex  5.600000e+001 -4.900000e+001  2.972679e+002
    endloop
  endfacet
  facet normal -1.000000e+000  0.000000e+000  0.000000e+000
    outer loop
      vertex  5.600000e+001 -4.300000e+001  2.890000e+002
      vertex  5.600000e+001 -4.900000e+001  2.972679e+002
      vertex  5.600000e+001 -4.826795e+001  2.980000e+002
    endloop
  endfacet
  facet normal -9.999999e-001  0.000000e+000  0.000000e+000
    outer loop
      vertex  5.600000e+001 -4.300000e+001  2.890000e+002
      vertex  5.600000e+001 -4.826795e+001  2.980000e+002
      vertex  5.600000e+001 -4.800000e+001  2.990000e+002
    endloop
  endfacet
  facet normal -1.000000e+000  0.000000e+000  0.000000e+000
    outer loop
      vertex  5.600000e+001 -4.300000e+001  2.890000e+002
      vertex  5.600000e+001 -4.800000e+001  2.990000e+002
      vertex  5.600000e+001 -4.300000e+001  3.440000e+002
    endloop
  endfacet
  facet normal -1.000000e+000  0.000000e+000  0.000000e+000
    outer loop
      vertex  5.600000e+001 -4.300000e+001  3.440000e+002
      vertex  5.600000e+001 -4.800000e+001  2.990000e+002
      vertex  5.600000e+001 -4.826795e+001  3.000000e+002
    endloop
  endfacet
  facet normal -1.000000e+000  0.000000e+000  0.000000e+000
    outer loop
      vertex  5.600000e+001 -4.300000e+001  3.440000e+002
      vertex  5.600000e+001 -4.826795e+001  3.000000e+002
      vertex  5.600000e+001 -4.900000e+001  3.007321e+002
    endloop
  endfacet
  facet normal -9.999999e-001  0.000000e+000  0.000000e+000
    outer loop
      vertex  5.600000e+001 -4.300000e+001  3.440000e+002
      vertex  5.600000e+001 -4.900000e+001  3.007321e+002
      vertex  5.600000e+001 -5.000000e+001  3.010000e+002
    endloop
  endfacet
  facet normal -1.000000e+000  0.000000e+000  0.000000e+000
    outer loop
      vertex  5.600000e+001 -4.300000e+001  3.440000e+002
      vertex  5.600000e+001 -5.000000e+001  3.010000e+002
      vertex  5.600000e+001 -4.826795e+001  3.320000e+002
    endloop
  endfacet
  facet normal -1.000000e+000  0.000000e+000  0.000000e+000
    outer loop
      vertex  5.600000e+001 -4.300000e+001  3.440000e+002
      vertex  5.600000e+001 -4.826795e+001  3.320000e+002
      vertex  5.600000e+001 -4.800000e+001  3.330000e+002
    endloop
  endfacet
  facet normal -1.000000e+000  0.000000e+000  0.000000e+000
    outer loop
      vertex  5.600000e+001 -4.300000e+001  3.440000e+002
      vertex  5.600000e+001 -4.800000e+001  3.330000e+002
      vertex  5.600000e+001 -4.826795e+001  3.340000e+002
    endloop
  endfacet
  facet normal -1.000000e+000  0.000000e+000  0.000000e+000
    outer loop
      vertex  5.600000e+001 -4.300000e+001  3.440000e+002
      vertex  5.600000e+001 -4.826795e+001  3.340000e+002
      vertex  5.600000e+001 -4.900000e+001  3.347321e+002
    endloop
  endfacet
  facet normal -9.999999e-001  0.000000e+000  0.000000e+000
    outer loop
      vertex  5.600000e+001 -4.300000e+001  3.440000e+002
      vertex  5.600000e+001 -4.900000e+001  3.347321e+002
      vertex  5.600000e+001 -5.000000e+001  3.350000e+002
    endloop
  endfacet
  facet normal -1.000000e+000  0.000000e+000  0.000000e+000
    outer loop
      vertex  5.600000e+001 -4.300000e+001  3.440000e+002
      vertex  5.600000e+001 -5.000000e+001  3.350000e+002
      vertex  5.600000e+001 -4.500000e+001  3.440000e+002
    endloop
  endfacet
  facet normal -9.999999e-001  -0.000000e+000  -0.000000e+000
    outer loop
      vertex  5.600000e+001 -5.600000e+001  3.490000e+002
      vertex  5.600000e+001 -4.500000e+001  3.490000e+002
      vertex  5.600000e+001 -4.500000e+001  3.440000e+002
    endloop
  endfacet
  facet normal -1.000000e+000  -0.000000e+000  0.000000e+000
    outer loop
      vertex  5.600000e+001 -5.600000e+001  3.490000e+002
      vertex  5.600000e+001 -4.500000e+001  3.440000e+002
      vertex  5.600000e+001 -5.000000e+001  3.350000e+002
    endloop
  endfacet
  facet normal -1.000000e+000  -0.000000e+000  0.000000e+000
    outer loop
      vertex  5.600000e+001 -5.600000e+001  3.490000e+002
      vertex  5.600000e+001 -5.000000e+001  3.350000e+002
      vertex  5.600000e+001 -5.100000e+001  3.347321e+002
    endloop
  endfacet
  facet normal -1.000000e+000  -0.000000e+000  0.000000e+000
    outer loop
      vertex  5.600000e+001 -5.600000e+001  3.490000e+002
      vertex  5.600000e+001 -5.100000e+001  3.347321e+002
      vertex  5.600000e+001 -5.173205e+001  3.340000e+002
    endloop
  endfacet
  facet normal -1.000000e+000  -0.000000e+000  0.000000e+000
    outer loop
      vertex  5.600000e+001 -5.600000e+001  3.490000e+002
      vertex  5.600000e+001 -5.173205e+001  3.340000e+002
      vertex  5.600000e+001 -5.200000e+001  3.330000e+002
    endloop
  endfacet
  facet normal -1.000000e+000  -0.000000e+000  -0.000000e+000
    outer loop
      vertex  5.600000e+001 -5.600000e+001  3.490000e+002
      vertex  5.600000e+001 -5.200000e+001  3.330000e+002
      vertex  5.600000e+001 -5.000000e+001  3.010000e+002
    endloop
  endfacet
  facet normal -1.000000e+000  -0.000000e+000  0.000000e+000
    outer loop
      vertex  5.600000e+001 -5.600000e+001  3.490000e+002
      vertex  5.600000e+001 -5.000000e+001  3.010000e+002
      vertex  5.600000e+001 -5.100000e+001  3.007321e+002
    endloop
  endfacet
  facet normal -1.000000e+000  -0.000000e+000  0.000000e+000
    outer loop
      vertex  5.600000e+001 -5.600000e+001  3.490000e+002
      vertex  5.600000e+001 -5.100000e+001  3.007321e+002
      vertex  5.600000e+001 -5.173205e+001  3.000000e+002
    endloop
  endfacet
  facet normal -1.000000e+000  -0.000000e+000  0.000000e+000
    outer loop
      vertex  5.600000e+001 -5.600000e+001  3.490000e+002
      vertex  5.600000e+001 -5.173205e+001  3.000000e+002
      vertex  5.600000e+001 -5.200000e+001  2.990000e+002
    endloop
  endfacet
  facet normal -1.000000e+000  0.000000e+000  0.000000e+000
    outer loop
      vertex  5.600000e+001 -5.600000e+001  2.890000e+002
      vertex  5.600000e+001 -5.600000e+001  3.490000e+002
      vertex  5.600000e+001 -5.200000e+001  2.990000e+002
    endloop
  endfacet
  facet normal -1.000000e+000  0.000000e+000  -0.000000e+000
    outer loop
      vertex  5.600000e+001 -5.600000e+001  2.890000e+002
      vertex  5.600000e+001 -5.200000e+001  2.990000e+002
      vertex  5.600000e+001 -5.173205e+001  2.980000e+002
    endloop
  endfacet
  facet normal -1.000000e+000  0.000000e+000  -0.000000e+000
    outer loop
      vertex  5.600000e+001 -5.600000e+001  2.890000e+002
      vertex  5.600000e+001 -5.173205e+001  2.980000e+002
      vertex  5.600000e+001 -5.100000e+001  2.972679e+002
    endloop
  endfacet
  facet normal -1.000000e+000  0.000000e+000  -0.000000e+000
    outer loop
      vertex  5.600000e+001 -5.600000e+001  2.890000e+002
      vertex  5.600000e+001 -5.100000e+001  2.972679e+002
      vertex  5.600000e+001 -5.000000e+001  2.970000e+002
    endloop
  endfacet
  facet normal  1.000000e+000  0.000000e+000  0.000000e+000
    outer loop
      vertex  5.800000e+001 -5.000000e+001  3.010000e+002
      vertex  5.800000e+001 -5.100000e+001  3.312679e+002
      vertex  5.800000e+001 -5.173205e+001  3.320000e+002
    endloop
  endfacet
  facet normal  1.000000e+000  0.000000e+000  0.000000e+000
    outer loop
      vertex  5.800000e+001 -5.000000e+001  3.010000e+002
      vertex  5.800000e+001 -5.000000e+001  3.310000e+002
      vertex  5.800000e+001 -5.100000e+001  3.312679e+002
    endloop
  endfacet
  facet normal  1.000000e+000  0.000000e+000  0.000000e+000
    outer loop
      vertex  5.800000e+001 -4.900000e+001  3.312679e+002
      vertex  5.800000e+001 -5.000000e+001  3.010000e+002
      vertex  5.800000e+001 -4.826795e+001  3.320000e+002
    endloop
  endfacet
  facet normal  1.000000e+000  0.000000e+000  0.000000e+000
    outer loop
      vertex  5.800000e+001 -5.000000e+001  3.310000e+002
      vertex  5.800000e+001 -5.000000e+001  3.010000e+002
      vertex  5.800000e+001 -4.900000e+001  3.312679e+002
    endloop
  endfacet
  facet normal  1.000000e+000  0.000000e+000  0.000000e+000
    outer loop
      vertex  5.800000e+001 -5.800000e+001  2.890000e+002
      vertex  5.800000e+001 -4.300000e+001  2.890000e+002
      vertex  5.800000e+001 -5.000000e+001  2.970000e+002
    endloop
  endfacet
  facet normal  1.000000e+000  0.000000e+000  0.000000e+000
    outer loop
      vertex  5.800000e+001 -5.800000e+001  2.890000e+002
      vertex  5.800000e+001 -5.000000e+001  2.970000e+002
      vertex  5.800000e+001 -5.100000e+001  2.972679e+002
    endloop
  endfacet
  facet normal  1.000000e+000  0.000000e+000  0.000000e+000
    outer loop
      vertex  5.800000e+001 -5.800000e+001  2.890000e+002
      vertex  5.800000e+001 -5.100000e+001  2.972679e+002
      vertex  5.800000e+001 -5.173205e+001  2.980000e+002
    endloop
  endfacet
  facet normal  1.000000e+000  0.000000e+000  0.000000e+000
    outer loop
      vertex  5.800000e+001 -5.800000e+001  2.890000e+002
      vertex  5.800000e+001 -5.173205e+001  2.980000e+002
      vertex  5.800000e+001 -5.200000e+001  2.990000e+002
    endloop
  endfacet
  facet normal  1.000000e+000  0.000000e+000  0.000000e+000
    outer loop
      vertex  5.800000e+001 -5.800000e+001  2.890000e+002
      vertex  5.800000e+001 -5.200000e+001  2.990000e+002
      vertex  5.800000e+001 -5.800000e+001  3.490000e+002
    endloop
  endfacet
  facet normal  9.999999e-001  0.000000e+000  -0.000000e+000
    outer loop
      vertex  5.800000e+001 -5.800000e+001  3.490000e+002
      vertex  5.800000e+001 -5.200000e+001  2.990000e+002
      vertex  5.800000e+001 -5.173205e+001  3.000000e+002
    endloop
  endfacet
  facet normal  1.000000e+000  0.000000e+000  -0.000000e+000
    outer loop
      vertex  5.800000e+001 -5.800000e+001  3.490000e+002
      vertex  5.800000e+001 -5.173205e+001  3.000000e+002
      vertex  5.800000e+001 -5.100000e+001  3.007321e+002
    endloop
  endfacet
  facet normal  9.999999e-001  0.000000e+000  -0.000000e+000
    outer loop
      vertex  5.800000e+001 -5.800000e+001  3.490000e+002
      vertex  5.800000e+001 -5.100000e+001  3.007321e+002
      vertex  5.800000e+001 -5.000000e+001  3.010000e+002
    endloop
  endfacet
  facet normal  9.999999e-001  0.000000e+000  0.000000e+000
    outer loop
      vertex  5.800000e+001 -5.800000e+001  3.490000e+002
      vertex  5.800000e+001 -5.000000e+001  3.010000e+002
      vertex  5.800000e+001 -5.173205e+001  3.320000e+002
    endloop
  endfacet
  facet normal  1.000000e+000  0.000000e+000  0.000000e+000
    outer loop
      vertex  5.800000e+001 -5.800000e+001  3.490000e+002
      vertex  5.800000e+001 -5.173205e+001  3.320000e+002
      vertex  5.800000e+001 -5.200000e+001  3.330000e+002
    endloop
  endfacet
  facet normal  1.000000e+000  0.000000e+000  -0.000000e+000
    outer loop
      vertex  5.800000e+001 -5.800000e+001  3.490000e+002
      vertex  5.800000e+001 -5.200000e+001  3.330000e+002
      vertex  5.800000e+001 -5.173205e+001  3.340000e+002
    endloop
  endfacet
  facet normal  1.000000e+000  0.000000e+000  -0.000000e+000
    outer loop
      vertex  5.800000e+001 -5.800000e+001  3.490000e+002
      vertex  5.800000e+001 -5.173205e+001  3.340000e+002
      vertex  5.800000e+001 -5.100000e+001  3.347321e+002
    endloop
  endfacet
  facet normal  1.000000e+000  0.000000e+000  -0.000000e+000
    outer loop
      vertex  5.800000e+001 -5.800000e+001  3.490000e+002
      vertex  5.800000e+001 -5.100000e+001  3.347321e+002
      vertex  5.800000e+001 -5.000000e+001  3.350000e+002
    endloop
  endfacet
  facet normal  1.000000e+000  0.000000e+000  -0.000000e+000
    outer loop
      vertex  5.800000e+001 -5.800000e+001  3.490000e+002
      vertex  5.800000e+001 -5.000000e+001  3.350000e+002
      vertex  5.800000e+001 -4.300000e+001  3.490000e+002
    endloop
  endfacet
  facet normal  1.000000e+000  -0.000000e+000  0.000000e+000
    outer loop
      vertex  5.800000e+001 -4.300000e+001  3.490000e+002
      vertex  5.800000e+001 -5.000000e+001  3.350000e+002
      vertex  5.800000e+001 -4.900000e+001  3.347321e+002
    endloop
  endfacet
  facet normal  1.000000e+000  -0.000000e+000  0.000000e+000
    outer loop
      vertex  5.800000e+001 -4.300000e+001  3.490000e+002
      vertex  5.800000e+001 -4.900000e+001  3.347321e+002
      vertex  5.800000e+001 -4.826795e+001  3.340000e+002
    endloop
  endfacet
  facet normal  1.000000e+000  -0.000000e+000  0.000000e+000
    outer loop
      vertex  5.800000e+001 -4.300000e+001  3.490000e+002
      vertex  5.800000e+001 -4.826795e+001  3.340000e+002
      vertex  5.800000e+001 -4.800000e+001  3.330000e+002
    endloop
  endfacet
  facet normal  1.000000e+000  -0.000000e+000  0.000000e+000
    outer loop
      vertex  5.800000e+001 -4.300000e+001  3.490000e+002
      vertex  5.800000e+001 -4.800000e+001  3.330000e+002
      vertex  5.800000e+001 -4.826795e+001  3.320000e+002
    endloop
  endfacet
  facet normal  1.000000e+000  -0.000000e+000  0.000000e+000
    outer loop
      vertex  5.800000e+001 -4.300000e+001  3.490000e+002
      vertex  5.800000e+001 -4.826795e+001  3.320000e+002
      vertex  5.800000e+001 -5.000000e+001  3.010000e+002
    endloop
  endfacet
  facet normal  9.999999e-001  -0.000000e+000  0.000000e+000
    outer loop
      vertex  5.800000e+001 -4.300000e+001  3.490000e+002
      vertex  5.800000e+001 -5.000000e+001  3.010000e+002
      vertex  5.800000e+001 -4.900000e+001  3.007321e+002
    endloop
  endfacet
  facet normal  1.000000e+000  -0.000000e+000  0.000000e+000
    outer loop
      vertex  5.800000e+001 -4.300000e+001  3.490000e+002
      vertex  5.800000e+001 -4.900000e+001  3.007321e+002
      vertex  5.800000e+001 -4.826795e+001  3.000000e+002
    endloop
  endfacet
  facet normal  1.000000e+000  -0.000000e+000  0.000000e+000
    outer loop
      vertex  5.800000e+001 -4.300000e+001  3.490000e+002
      vertex  5.800000e+001 -4.826795e+001  3.000000e+002
      vertex  5.800000e+001 -4.800000e+001  2.990000e+002
    endloop
  endfacet
  facet normal  1.000000e+000  0.000000e+000  0.000000e+000
    outer loop
      vertex  5.800000e+001 -4.300000e+001  2.890000e+002
      vertex  5.800000e+001 -4.300000e+001  3.490000e+002
      vertex  5.800000e+001 -4.800000e+001  2.990000e+002
    endloop
  endfacet
  facet normal  9.999999e-001  0.000000e+000  0.000000e+000
    outer loop
      vertex  5.800000e+001 -4.300000e+001  2.890000e+002
      vertex  5.800000e+001 -4.800000e+001  2.990000e+002
      vertex  5.800000e+001 -4.826795e+001  2.980000e+002
    endloop
  endfacet
  facet normal  1.000000e+000  0.000000e+000  0.000000e+000
    outer loop
      vertex  5.800000e+001 -4.300000e+001  2.890000e+002
      vertex  5.800000e+001 -4.826795e+001  2.980000e+002
      vertex  5.800000e+001 -4.900000e+001  2.972679e+002
    endloop
  endfacet
  facet normal  1.000000e+000  0.000000e+000  0.000000e+000
    outer loop
      vertex  5.800000e+001 -4.300000e+001  2.890000e+002
      vertex  5.800000e+001 -4.900000e+001  2.972679e+002
      vertex  5.800000e+001 -5.000000e+001  2.970000e+002
    endloop
  endfacet
  facet normal  -0.000000e+000  2.588147e-001  9.659271e-001
    outer loop
      vertex  5.800000e+001 -5.000000e+001  2.970000e+002
      vertex  5.600000e+001 -5.100000e+001  2.972679e+002
      vertex  5.800000e+001 -5.100000e+001  2.972679e+002
    endloop
  endfacet
  facet normal  0.000000e+000  7.071086e-001  7.071049e-001
    outer loop
      vertex  5.800000e+001 -5.100000e+001  2.972679e+002
      vertex  5.600000e+001 -5.100000e+001  2.972679e+002
      vertex  5.600000e+001 -5.173205e+001  2.980000e+002
    endloop
  endfacet
  facet normal  -0.000000e+000  7.071086e-001  7.071049e-001
    outer loop
      vertex  5.800000e+001 -5.100000e+001  2.972679e+002
      vertex  5.600000e+001 -5.173205e+001  2.980000e+002
      vertex  5.800000e+001 -5.173205e+001  2.980000e+002
    endloop
  endfacet
  facet normal  0.000000e+000  9.659261e-001  2.588181e-001
    outer loop
      vertex  5.800000e+001 -5.173205e+001  2.980000e+002
      vertex  5.600000e+001 -5.173205e+001  2.980000e+002
      vertex  5.600000e+001 -5.200000e+001  2.990000e+002
    endloop
  endfacet
  facet normal  -0.000000e+000  9.659261e-001  2.588181e-001
    outer loop
      vertex  5.800000e+001 -5.173205e+001  2.980000e+002
      vertex  5.600000e+001 -5.200000e+001  2.990000e+002
      vertex  5.800000e+001 -5.200000e+001  2.990000e+002
    endloop
  endfacet
  facet normal  0.000000e+000  2.588147e-001  9.659271e-001
    outer loop
      vertex  5.600000e+001 -5.100000e+001  2.972679e+002
      vertex  5.800000e+001 -5.000000e+001  2.970000e+002
      vertex  5.600000e+001 -5.000000e+001  2.970000e+002
    endloop
  endfacet
  facet normal  0.000000e+000 -2.588147e-001  9.659271e-001
    outer loop
      vertex  5.600000e+001 -5.000000e+001  2.970000e+002
      vertex  5.800000e+001 -5.000000e+001  2.970000e+002
      vertex  5.800000e+001 -4.900000e+001  2.972679e+002
    endloop
  endfacet
  facet normal  0.000000e+000 -2.588147e-001  9.659271e-001
    outer loop
      vertex  5.600000e+001 -5.000000e+001  2.970000e+002
      vertex  5.800000e+001 -4.900000e+001  2.972679e+002
      vertex  5.600000e+001 -4.900000e+001  2.972679e+002
    endloop
  endfacet
  facet normal  0.000000e+000 -7.071086e-001  7.071049e-001
    outer loop
      vertex  5.600000e+001 -4.900000e+001  2.972679e+002
      vertex  5.800000e+001 -4.900000e+001  2.972679e+002
      vertex  5.800000e+001 -4.826795e+001  2.980000e+002
    endloop
  endfacet
  facet normal  0.000000e+000 -7.071086e-001  7.071049e-001
    outer loop
      vertex  5.600000e+001 -4.900000e+001  2.972679e+002
      vertex  5.800000e+001 -4.826795e+001  2.980000e+002
      vertex  5.600000e+001 -4.826795e+001  2.980000e+002
    endloop
  endfacet
  facet normal  0.000000e+000 -9.659261e-001  2.588181e-001
    outer loop
      vertex  5.600000e+001 -4.826795e+001  2.980000e+002
      vertex  5.800000e+001 -4.826795e+001  2.980000e+002
      vertex  5.800000e+001 -4.800000e+001  2.990000e+002
    endloop
  endfacet
  facet normal  0.000000e+000 -9.659261e-001  2.588181e-001
    outer loop
      vertex  5.600000e+001 -4.826795e+001  2.980000e+002
      vertex  5.800000e+001 -4.800000e+001  2.990000e+002
      vertex  5.600000e+001 -4.800000e+001  2.990000e+002
    endloop
  endfacet
  facet normal  0.000000e+000 -2.588147e-001 -9.659271e-001
    outer loop
      vertex  5.800000e+001 -5.000000e+001  3.010000e+002
      vertex  5.600000e+001 -4.900000e+001  3.007321e+002
      vertex  5.800000e+001 -4.900000e+001  3.007321e+002
    endloop
  endfacet
  facet normal  -0.000000e+000 -7.071086e-001 -7.071049e-001
    outer loop
      vertex  5.800000e+001 -4.900000e+001  3.007321e+002
      vertex  5.600000e+001 -4.900000e+001  3.007321e+002
      vertex  5.600000e+001 -4.826795e+001  3.000000e+002
    endloop
  endfacet
  facet normal  0.000000e+000 -7.071086e-001 -7.071049e-001
    outer loop
      vertex  5.800000e+001 -4.900000e+001  3.007321e+002
      vertex  5.600000e+001 -4.826795e+001  3.000000e+002
      vertex  5.800000e+001 -4.826795e+001  3.000000e+002
    endloop
  endfacet
  facet normal  -0.000000e+000 -9.659261e-001 -2.588181e-001
    outer loop
      vertex  5.800000e+001 -4.826795e+001  3.000000e+002
      vertex  5.600000e+001 -4.826795e+001  3.000000e+002
      vertex  5.600000e+001 -4.800000e+001  2.990000e+002
    endloop
  endfacet
  facet normal  0.000000e+000 -9.659261e-001 -2.588181e-001
    outer loop
      vertex  5.800000e+001 -4.826795e+001  3.000000e+002
      vertex  5.600000e+001 -4.800000e+001  2.990000e+002
      vertex  5.800000e+001 -4.800000e+001  2.990000e+002
    endloop
  endfacet
  facet normal  -0.000000e+000 -2.588147e-001 -9.659271e-001
    outer loop
      vertex  5.600000e+001 -4.900000e+001  3.007321e+002
      vertex  5.800000e+001 -5.000000e+001  3.010000e+002
      vertex  5.600000e+001 -5.000000e+001  3.010000e+002
    endloop
  endfacet
  facet normal  0.000000e+000  2.588147e-001 -9.659271e-001
    outer loop
      vertex  5.600000e+001 -5.000000e+001  3.010000e+002
      vertex  5.800000e+001 -5.000000e+001  3.010000e+002
      vertex  5.800000e+001 -5.100000e+001  3.007321e+002
    endloop
  endfacet
  facet normal  0.000000e+000  2.588147e-001 -9.659271e-001
    outer loop
      vertex  5.600000e+001 -5.000000e+001  3.010000e+002
      vertex  5.800000e+001 -5.100000e+001  3.007321e+002
      vertex  5.600000e+001 -5.100000e+001  3.007321e+002
    endloop
  endfacet
  facet normal  0.000000e+000  7.071086e-001 -7.071049e-001
    outer loop
      vertex  5.600000e+001 -5.100000e+001  3.007321e+002
      vertex  5.800000e+001 -5.100000e+001  3.007321e+002
      vertex  5.800000e+001 -5.173205e+001  3.000000e+002
    endloop
  endfacet
  facet normal  0.000000e+000  7.071086e-001 -7.071049e-001
    outer loop
      vertex  5.600000e+001 -5.100000e+001  3.007321e+002
      vertex  5.800000e+001 -5.173205e+001  3.000000e+002
      vertex  5.600000e+001 -5.173205e+001  3.000000e+002
    endloop
  endfacet
  facet normal  0.000000e+000  9.659261e-001 -2.588181e-001
    outer loop
      vertex  5.600000e+001 -5.173205e+001  3.000000e+002
      vertex  5.800000e+001 -5.173205e+001  3.000000e+002
      vertex  5.800000e+001 -5.200000e+001  2.990000e+002
    endloop
  endfacet
  facet normal  0.000000e+000  9.659261e-001 -2.588181e-001
    outer loop
      vertex  5.600000e+001 -5.173205e+001  3.000000e+002
      vertex  5.800000e+001 -5.200000e+001  2.990000e+002
      vertex  5.600000e+001 -5.200000e+001  2.990000e+002
    endloop
  endfacet
  facet normal  -0.000000e+000  2.588147e-001  9.659271e-001
    outer loop
      vertex  5.800000e+001 -5.000000e+001  3.310000e+002
      vertex  5.600000e+001 -5.100000e+001  3.312679e+002
      vertex  5.800000e+001 -5.100000e+001  3.312679e+002
    endloop
  endfacet
  facet normal  0.000000e+000  7.071086e-001  7.071049e-001
    outer loop
      vertex  5.800000e+001 -5.100000e+001  3.312679e+002
      vertex  5.600000e+001 -5.100000e+001  3.312679e+002
      vertex  5.600000e+001 -5.173205e+001  3.320000e+002
    endloop
  endfacet
  facet normal  -0.000000e+000  7.071086e-001  7.071049e-001
    outer loop
      vertex  5.800000e+001 -5.100000e+001  3.312679e+002
      vertex  5.600000e+001 -5.173205e+001  3.320000e+002
      vertex  5.800000e+001 -5.173205e+001  3.320000e+002
    endloop
  endfacet
  facet normal  0.000000e+000  9.659261e-001  2.588181e-001
    outer loop
      vertex  5.800000e+001 -5.173205e+001  3.320000e+002
      vertex  5.600000e+001 -5.173205e+001  3.320000e+002
      vertex  5.600000e+001 -5.200000e+001  3.330000e+002
    endloop
  endfacet
  facet normal  -0.000000e+000  9.659261e-001  2.588181e-001
    outer loop
      vertex  5.800000e+001 -5.173205e+001  3.320000e+002
      vertex  5.600000e+001 -5.200000e+001  3.330000e+002
      vertex  5.800000e+001 -5.200000e+001  3.330000e+002
    endloop
  endfacet
  facet normal  0.000000e+000  2.588147e-001  9.659271e-001
    outer loop
      vertex  5.600000e+001 -5.100000e+001  3.312679e+002
      vertex  5.800000e+001 -5.000000e+001  3.310000e+002
      vertex  5.600000e+001 -5.000000e+001  3.310000e+002
    endloop
  endfacet
  facet normal  0.000000e+000 -2.588147e-001  9.659271e-001
    outer loop
      vertex  5.600000e+001 -5.000000e+001  3.310000e+002
      vertex  5.800000e+001 -5.000000e+001  3.310000e+002
      vertex  5.800000e+001 -4.900000e+001  3.312679e+002
    endloop
  endfacet
  facet normal  0.000000e+000 -2.588147e-001  9.659271e-001
    outer loop
      vertex  5.600000e+001 -5.000000e+001  3.310000e+002
      vertex  5.800000e+001 -4.900000e+001  3.312679e+002
      vertex  5.600000e+001 -4.900000e+001  3.312679e+002
    endloop
  endfacet
  facet normal  0.000000e+000 -7.071086e-001  7.071049e-001
    outer loop
      vertex  5.600000e+001 -4.900000e+001  3.312679e+002
      vertex  5.800000e+001 -4.900000e+001  3.312679e+002
      vertex  5.800000e+001 -4.826795e+001  3.320000e+002
    endloop
  endfacet
  facet normal  0.000000e+000 -7.071086e-001  7.071049e-001
    outer loop
      vertex  5.600000e+001 -4.900000e+001  3.312679e+002
      vertex  5.800000e+001 -4.826795e+001  3.320000e+002
      vertex  5.600000e+001 -4.826795e+001  3.320000e+002
    endloop
  endfacet
  facet normal  0.000000e+000 -9.659261e-001  2.588181e-001
    outer loop
      vertex  5.600000e+001 -4.826795e+001  3.320000e+002
      vertex  5.800000e+001 -4.826795e+001  3.320000e+002
      vertex  5.800000e+001 -4.800000e+001  3.330000e+002
    endloop
  endfacet
  facet normal  0.000000e+000 -9.659261e-001  2.588181e-001
    outer loop
      vertex  5.600000e+001 -4.826795e+001  3.320000e+002
      vertex  5.800000e+001 -4.800000e+001  3.330000e+002
      vertex  5.600000e+001 -4.800000e+001  3.330000e+002
    endloop
  endfacet
  facet normal  0.000000e+000 -2.588147e-001 -9.659271e-001
    outer loop
      vertex  5.800000e+001 -5.000000e+001  3.350000e+002
      vertex  5.600000e+001 -4.900000e+001  3.347321e+002
      vertex  5.800000e+001 -4.900000e+001  3.347321e+002
    endloop
  endfacet
  facet normal  -0.000000e+000 -7.071086e-001 -7.071049e-001
    outer loop
      vertex  5.800000e+001 -4.900000e+001  3.347321e+002
      vertex  5.600000e+001 -4.900000e+001  3.347321e+002
      vertex  5.600000e+001 -4.826795e+001  3.340000e+002
    endloop
  endfacet
  facet normal  0.000000e+000 -7.071086e-001 -7.071049e-001
    outer loop
      vertex  5.800000e+001 -4.900000e+001  3.347321e+002
      vertex  5.600000e+001 -4.826795e+001  3.340000e+002
      vertex  5.800000e+001 -4.826795e+001  3.340000e+002
    endloop
  endfacet
  facet normal  -0.000000e+000 -9.659261e-001 -2.588181e-001
    outer loop
      vertex  5.800000e+001 -4.826795e+001  3.340000e+002
      vertex  5.600000e+001 -4.826795e+001  3.340000e+002
      vertex  5.600000e+001 -4.800000e+001  3.330000e+002
    endloop
  endfacet
  facet normal  0.000000e+000 -9.659261e-001 -2.588181e-001
    outer loop
      vertex  5.800000e+001 -4.826795e+001  3.340000e+002
      vertex  5.600000e+001 -4.800000e+001  3.330000e+002
      vertex  5.800000e+001 -4.800000e+001  3.330000e+002
    endloop
  endfacet
  facet normal  -0.000000e+000 -2.588147e-001 -9.659271e-001
    outer loop
      vertex  5.600000e+001 -4.900000e+001  3.347321e+002
      vertex  5.800000e+001 -5.000000e+001  3.350000e+002
      vertex  5.600000e+001 -5.000000e+001  3.350000e+002
    endloop
  endfacet
  facet normal  0.000000e+000  2.588147e-001 -9.659271e-001
    outer loop
      vertex  5.600000e+001 -5.000000e+001  3.350000e+002
      vertex  5.800000e+001 -5.000000e+001  3.350000e+002
      vertex  5.800000e+001 -5.100000e+001  3.347321e+002
    endloop
  endfacet
  facet normal  0.000000e+000  2.588147e-001 -9.659271e-001
    outer loop
      vertex  5.600000e+001 -5.000000e+001  3.350000e+002
      vertex  5.800000e+001 -5.100000e+001  3.347321e+002
      vertex  5.600000e+001 -5.100000e+001  3.347321e+002
    endloop
  endfacet
  facet normal  0.000000e+000  7.071086e-001 -7.071049e-001
    outer loop
      vertex  5.600000e+001 -5.100000e+001  3.347321e+002
      vertex  5.800000e+001 -5.100000e+001  3.347321e+002
      vertex  5.800000e+001 -5.173205e+001  3.340000e+002
    endloop
  endfacet
  facet normal  0.000000e+000  7.071086e-001 -7.071049e-001
    outer loop
      vertex  5.600000e+001 -5.100000e+001  3.347321e+002
      vertex  5.800000e+001 -5.173205e+001  3.340000e+002
      vertex  5.600000e+001 -5.173205e+001  3.340000e+002
    endloop
  endfacet
  facet normal  0.000000e+000  9.659261e-001 -2.588181e-001
    outer loop
      vertex  5.600000e+001 -5.173205e+001  3.340000e+002
      vertex  5.800000e+001 -5.173205e+001  3.340000e+002
      vertex  5.800000e+001 -5.200000e+001  3.330000e+002
    endloop
  endfacet
  facet normal  0.000000e+000  9.659261e-001 -2.588181e-001
    outer loop
      vertex  5.600000e+001 -5.173205e+001  3.340000e+002
      vertex  5.800000e+001 -5.200000e+001  3.330000e+002
      vertex  5.600000e+001 -5.200000e+001  3.330000e+002
    endloop
  endfacet
  facet normal  -0.000000e+000  1.000000e+000  0.000000e+000
    outer loop
      vertex  5.000000e+001 -5.600000e+001  3.070000e+002
      vertex  5.100000e+001 -5.600000e+001  3.372679e+002
      vertex  5.173205e+001 -5.600000e+001  3.380000e+002
    endloop
  endfacet
  facet normal  -0.000000e+000  1.000000e+000  0.000000e+000
    outer loop
      vertex  5.000000e+001 -5.600000e+001  3.070000e+002
      vertex  5.000000e+001 -5.600000e+001  3.370000e+002
      vertex  5.100000e+001 -5.600000e+001  3.372679e+002
    endloop
  endfacet
  facet normal  0.000000e+000  1.000000e+000  0.000000e+000
    outer loop
      vertex  4.900000e+001 -5.600000e+001  3.372679e+002
      vertex  5.000000e+001 -5.600000e+001  3.070000e+002
      vertex  4.826795e+001 -5.600000e+001  3.380000e+002
    endloop
  endfacet
  facet normal  0.000000e+000  1.000000e+000  -0.000000e+000
    outer loop
      vertex  5.000000e+001 -5.600000e+001  3.370000e+002
      vertex  5.000000e+001 -5.600000e+001  3.070000e+002
      vertex  4.900000e+001 -5.600000e+001  3.372679e+002
    endloop
  endfacet
  facet normal  0.000000e+000  1.000000e+000  0.000000e+000
    outer loop
      vertex  5.600000e+001 -5.600000e+001  2.890000e+002
      vertex  4.300000e+001 -5.600000e+001  2.890000e+002
      vertex  5.000000e+001 -5.600000e+001  3.030000e+002
    endloop
  endfacet
  facet normal  -0.000000e+000  1.000000e+000  0.000000e+000
    outer loop
      vertex  5.600000e+001 -5.600000e+001  2.890000e+002
      vertex  5.000000e+001 -5.600000e+001  3.030000e+002
      vertex  5.100000e+001 -5.600000e+001  3.032679e+002
    endloop
  endfacet
  facet normal  -0.000000e+000  1.000000e+000  0.000000e+000
    outer loop
      vertex  5.600000e+001 -5.600000e+001  2.890000e+002
      vertex  5.100000e+001 -5.600000e+001  3.032679e+002
      vertex  5.173205e+001 -5.600000e+001  3.040000e+002
    endloop
  endfacet
  facet normal  -0.000000e+000  1.000000e+000  0.000000e+000
    outer loop
      vertex  5.600000e+001 -5.600000e+001  2.890000e+002
      vertex  5.173205e+001 -5.600000e+001  3.040000e+002
      vertex  5.200000e+001 -5.600000e+001  3.050000e+002
    endloop
  endfacet
  facet normal  -0.000000e+000  1.000000e+000  0.000000e+000
    outer loop
      vertex  5.600000e+001 -5.600000e+001  2.890000e+002
      vertex  5.200000e+001 -5.600000e+001  3.050000e+002
      vertex  5.600000e+001 -5.600000e+001  3.490000e+002
    endloop
  endfacet
  facet normal  0.000000e+000  1.000000e+000  -0.000000e+000
    outer loop
      vertex  5.600000e+001 -5.600000e+001  3.490000e+002
      vertex  5.200000e+001 -5.600000e+001  3.050000e+002
      vertex  5.173205e+001 -5.600000e+001  3.060000e+002
    endloop
  endfacet
  facet normal  0.000000e+000  1.000000e+000  -0.000000e+000
    outer loop
      vertex  5.600000e+001 -5.600000e+001  3.490000e+002
      vertex  5.173205e+001 -5.600000e+001  3.060000e+002
      vertex  5.100000e+001 -5.600000e+001  3.067321e+002
    endloop
  endfacet
  facet normal  0.000000e+000  1.000000e+000  -0.000000e+000
    outer loop
      vertex  5.600000e+001 -5.600000e+001  3.490000e+002
      vertex  5.100000e+001 -5.600000e+001  3.067321e+002
      vertex  5.000000e+001 -5.600000e+001  3.070000e+002
    endloop
  endfacet
  facet normal  0.000000e+000  1.000000e+000  0.000000e+000
    outer loop
      vertex  5.600000e+001 -5.600000e+001  3.490000e+002
      vertex  5.000000e+001 -5.600000e+001  3.070000e+002
      vertex  5.173205e+001 -5.600000e+001  3.380000e+002
    endloop
  endfacet
  facet normal  0.000000e+000  1.000000e+000  0.000000e+000
    outer loop
      vertex  5.600000e+001 -5.600000e+001  3.490000e+002
      vertex  5.173205e+001 -5.600000e+001  3.380000e+002
      vertex  5.200000e+001 -5.600000e+001  3.390000e+002
    endloop
  endfacet
  facet normal  0.000000e+000  1.000000e+000  -0.000000e+000
    outer loop
      vertex  5.600000e+001 -5.600000e+001  3.490000e+002
      vertex  5.200000e+001 -5.600000e+001  3.390000e+002
      vertex  5.173205e+001 -5.600000e+001  3.400000e+002
    endloop
  endfacet
  facet normal  0.000000e+000  1.000000e+000  -0.000000e+000
    outer loop
      vertex  5.600000e+001 -5.600000e+001  3.490000e+002
      vertex  5.173205e+001 -5.600000e+001  3.400000e+002
      vertex  5.100000e+001 -5.600000e+001  3.407321e+002
    endloop
  endfacet
  facet normal  0.000000e+000  1.000000e+000  -0.000000e+000
    outer loop
      vertex  5.600000e+001 -5.600000e+001  3.490000e+002
      vertex  5.100000e+001 -5.600000e+001  3.407321e+002
      vertex  5.000000e+001 -5.600000e+001  3.410000e+002
    endloop
  endfacet
  facet normal  0.000000e+000  1.000000e+000  -0.000000e+000
    outer loop
      vertex  5.600000e+001 -5.600000e+001  3.490000e+002
      vertex  5.000000e+001 -5.600000e+001  3.410000e+002
      vertex  4.500000e+001 -5.600000e+001  3.440000e+002
    endloop
  endfacet
  facet normal  0.000000e+000  9.999999e-001  0.000000e+000
    outer loop
      vertex  5.600000e+001 -5.600000e+001  3.490000e+002
      vertex  4.500000e+001 -5.600000e+001  3.440000e+002
      vertex  4.500000e+001 -5.600000e+001  3.490000e+002
    endloop
  endfacet
  facet normal  0.000000e+000  1.000000e+000  0.000000e+000
    outer loop
      vertex  4.300000e+001 -5.600000e+001  3.440000e+002
      vertex  4.500000e+001 -5.600000e+001  3.440000e+002
      vertex  5.000000e+001 -5.600000e+001  3.410000e+002
    endloop
  endfacet
  facet normal  0.000000e+000  1.000000e+000  0.000000e+000
    outer loop
      vertex  4.300000e+001 -5.600000e+001  3.440000e+002
      vertex  5.000000e+001 -5.600000e+001  3.410000e+002
      vertex  4.900000e+001 -5.600000e+001  3.407321e+002
    endloop
  endfacet
  facet normal  0.000000e+000  1.000000e+000  0.000000e+000
    outer loop
      vertex  4.300000e+001 -5.600000e+001  3.440000e+002
      vertex  4.900000e+001 -5.600000e+001  3.407321e+002
      vertex  4.826795e+001 -5.600000e+001  3.400000e+002
    endloop
  endfacet
  facet normal  0.000000e+000  1.000000e+000  0.000000e+000
    outer loop
      vertex  4.300000e+001 -5.600000e+001  3.440000e+002
      vertex  4.826795e+001 -5.600000e+001  3.400000e+002
      vertex  4.800000e+001 -5.600000e+001  3.390000e+002
    endloop
  endfacet
  facet normal  0.000000e+000  1.000000e+000  0.000000e+000
    outer loop
      vertex  4.300000e+001 -5.600000e+001  3.440000e+002
      vertex  4.800000e+001 -5.600000e+001  3.390000e+002
      vertex  4.826795e+001 -5.600000e+001  3.380000e+002
    endloop
  endfacet
  facet normal  0.000000e+000  1.000000e+000  0.000000e+000
    outer loop
      vertex  4.300000e+001 -5.600000e+001  3.440000e+002
      vertex  4.826795e+001 -5.600000e+001  3.380000e+002
      vertex  5.000000e+001 -5.600000e+001  3.070000e+002
    endloop
  endfacet
  facet normal  0.000000e+000  1.000000e+000  0.000000e+000
    outer loop
      vertex  4.300000e+001 -5.600000e+001  3.440000e+002
      vertex  5.000000e+001 -5.600000e+001  3.070000e+002
      vertex  4.900000e+001 -5.600000e+001  3.067321e+002
    endloop
  endfacet
  facet normal  0.000000e+000  1.000000e+000  0.000000e+000
    outer loop
      vertex  4.300000e+001 -5.600000e+001  3.440000e+002
      vertex  4.900000e+001 -5.600000e+001  3.067321e+002
      vertex  4.826795e+001 -5.600000e+001  3.060000e+002
    endloop
  endfacet
  facet normal  0.000000e+000  1.000000e+000  0.000000e+000
    outer loop
      vertex  4.300000e+001 -5.600000e+001  3.440000e+002
      vertex  4.826795e+001 -5.600000e+001  3.060000e+002
      vertex  4.800000e+001 -5.600000e+001  3.050000e+002
    endloop
  endfacet
  facet normal  0.000000e+000  1.000000e+000  0.000000e+000
    outer loop
      vertex  4.300000e+001 -5.600000e+001  2.890000e+002
      vertex  4.300000e+001 -5.600000e+001  3.440000e+002
      vertex  4.800000e+001 -5.600000e+001  3.050000e+002
    endloop
  endfacet
  facet normal  0.000000e+000  1.000000e+000  0.000000e+000
    outer loop
      vertex  4.300000e+001 -5.600000e+001  2.890000e+002
      vertex  4.800000e+001 -5.600000e+001  3.050000e+002
      vertex  4.826795e+001 -5.600000e+001  3.040000e+002
    endloop
  endfacet
  facet normal  0.000000e+000  1.000000e+000  0.000000e+000
    outer loop
      vertex  4.300000e+001 -5.600000e+001  2.890000e+002
      vertex  4.826795e+001 -5.600000e+001  3.040000e+002
      vertex  4.900000e+001 -5.600000e+001  3.032679e+002
    endloop
  endfacet
  facet normal  0.000000e+000  1.000000e+000  0.000000e+000
    outer loop
      vertex  4.300000e+001 -5.600000e+001  2.890000e+002
      vertex  4.900000e+001 -5.600000e+001  3.032679e+002
      vertex  5.000000e+001 -5.600000e+001  3.030000e+002
    endloop
  endfacet
  facet normal  -0.000000e+000 -1.000000e+000  -0.000000e+000
    outer loop
      vertex  5.000000e+001 -5.800000e+001  3.070000e+002
      vertex  4.900000e+001 -5.800000e+001  3.372679e+002
      vertex  4.826795e+001 -5.800000e+001  3.380000e+002
    endloop
  endfacet
  facet normal  -0.000000e+000 -1.000000e+000  -0.000000e+000
    outer loop
      vertex  5.000000e+001 -5.800000e+001  3.070000e+002
      vertex  5.000000e+001 -5.800000e+001  3.370000e+002
      vertex  4.900000e+001 -5.800000e+001  3.372679e+002
    endloop
  endfacet
  facet normal  0.000000e+000 -1.000000e+000  0.000000e+000
    outer loop
      vertex  5.100000e+001 -5.800000e+001  3.372679e+002
      vertex  5.000000e+001 -5.800000e+001  3.070000e+002
      vertex  5.173205e+001 -5.800000e+001  3.380000e+002
    endloop
  endfacet
  facet normal  0.000000e+000 -1.000000e+000  0.000000e+000
    outer loop
      vertex  5.000000e+001 -5.800000e+001  3.370000e+002
      vertex  5.000000e+001 -5.800000e+001  3.070000e+002
      vertex  5.100000e+001 -5.800000e+001  3.372679e+002
    endloop
  endfacet
  facet normal  0.000000e+000 -1.000000e+000  0.000000e+000
    outer loop
      vertex  4.300000e+001 -5.800000e+001  2.890000e+002
      vertex  5.800000e+001 -5.800000e+001  2.890000e+002
      vertex  5.000000e+001 -5.800000e+001  3.030000e+002
    endloop
  endfacet
  facet normal  -0.000000e+000 -1.000000e+000  0.000000e+000
    outer loop
      vertex  4.300000e+001 -5.800000e+001  2.890000e+002
      vertex  5.000000e+001 -5.800000e+001  3.030000e+002
      vertex  4.900000e+001 -5.800000e+001  3.032679e+002
    endloop
  endfacet
  facet normal  -0.000000e+000 -1.000000e+000  0.000000e+000
    outer loop
      vertex  4.300000e+001 -5.800000e+001  2.890000e+002
      vertex  4.900000e+001 -5.800000e+001  3.032679e+002
      vertex  4.826795e+001 -5.800000e+001  3.040000e+002
    endloop
  endfacet
  facet normal  -0.000000e+000 -1.000000e+000  0.000000e+000
    outer loop
      vertex  4.300000e+001 -5.800000e+001  2.890000e+002
      vertex  4.826795e+001 -5.800000e+001  3.040000e+002
      vertex  4.800000e+001 -5.800000e+001  3.050000e+002
    endloop
  endfacet
  facet normal  -0.000000e+000 -1.000000e+000  0.000000e+000
    outer loop
      vertex  4.300000e+001 -5.800000e+001  2.890000e+002
      vertex  4.800000e+001 -5.800000e+001  3.050000e+002
      vertex  4.300000e+001 -5.800000e+001  3.490000e+002
    endloop
  endfacet
  facet normal  0.000000e+000 -1.000000e+000  0.000000e+000
    outer loop
      vertex  4.300000e+001 -5.800000e+001  3.490000e+002
      vertex  4.800000e+001 -5.800000e+001  3.050000e+002
      vertex  4.826795e+001 -5.800000e+001  3.060000e+002
    endloop
  endfacet
  facet normal  0.000000e+000 -9.999999e-001  0.000000e+000
    outer loop
      vertex  4.300000e+001 -5.800000e+001  3.490000e+002
      vertex  4.826795e+001 -5.800000e+001  3.060000e+002
      vertex  4.900000e+001 -5.800000e+001  3.067321e+002
    endloop
  endfacet
  facet normal  0.000000e+000 -1.000000e+000  0.000000e+000
    outer loop
      vertex  4.300000e+001 -5.800000e+001  3.490000e+002
      vertex  4.900000e+001 -5.800000e+001  3.067321e+002
      vertex  5.000000e+001 -5.800000e+001  3.070000e+002
    endloop
  endfacet
  facet normal  0.000000e+000 -1.000000e+000  0.000000e+000
    outer loop
      vertex  4.300000e+001 -5.800000e+001  3.490000e+002
      vertex  5.000000e+001 -5.800000e+001  3.070000e+002
      vertex  4.826795e+001 -5.800000e+001  3.380000e+002
    endloop
  endfacet
  facet normal  0.000000e+000 -1.000000e+000  0.000000e+000
    outer loop
      vertex  4.300000e+001 -5.800000e+001  3.490000e+002
      vertex  4.826795e+001 -5.800000e+001  3.380000e+002
      vertex  4.800000e+001 -5.800000e+001  3.390000e+002
    endloop
  endfacet
  facet normal  0.000000e+000 -9.999999e-001  0.000000e+000
    outer loop
      vertex  4.300000e+001 -5.800000e+001  3.490000e+002
      vertex  4.800000e+001 -5.800000e+001  3.390000e+002
      vertex  4.826795e+001 -5.800000e+001  3.400000e+002
    endloop
  endfacet
  facet normal  0.000000e+000 -1.000000e+000  0.000000e+000
    outer loop
      vertex  4.300000e+001 -5.800000e+001  3.490000e+002
      vertex  4.826795e+001 -5.800000e+001  3.400000e+002
      vertex  4.900000e+001 -5.800000e+001  3.407321e+002
    endloop
  endfacet
  facet normal  0.000000e+000 -1.000000e+000  0.000000e+000
    outer loop
      vertex  4.300000e+001 -5.800000e+001  3.490000e+002
      vertex  4.900000e+001 -5.800000e+001  3.407321e+002
      vertex  5.000000e+001 -5.800000e+001  3.410000e+002
    endloop
  endfacet
  facet normal  0.000000e+000 -1.000000e+000  0.000000e+000
    outer loop
      vertex  4.300000e+001 -5.800000e+001  3.490000e+002
      vertex  5.000000e+001 -5.800000e+001  3.410000e+002
      vertex  5.800000e+001 -5.800000e+001  3.490000e+002
    endloop
  endfacet
  facet normal  0.000000e+000 -1.000000e+000  0.000000e+000
    outer loop
      vertex  5.800000e+001 -5.800000e+001  3.490000e+002
      vertex  5.000000e+001 -5.800000e+001  3.410000e+002
      vertex  5.100000e+001 -5.800000e+001  3.407321e+002
    endloop
  endfacet
  facet normal  0.000000e+000 -1.000000e+000  0.000000e+000
    outer loop
      vertex  5.800000e+001 -5.800000e+001  3.490000e+002
      vertex  5.100000e+001 -5.800000e+001  3.407321e+002
      vertex  5.173205e+001 -5.800000e+001  3.400000e+002
    endloop
  endfacet
  facet normal  0.000000e+000 -1.000000e+000  0.000000e+000
    outer loop
      vertex  5.800000e+001 -5.800000e+001  3.490000e+002
      vertex  5.173205e+001 -5.800000e+001  3.400000e+002
      vertex  5.200000e+001 -5.800000e+001  3.390000e+002
    endloop
  endfacet
  facet normal  0.000000e+000 -9.999999e-001  -0.000000e+000
    outer loop
      vertex  5.800000e+001 -5.800000e+001  3.490000e+002
      vertex  5.200000e+001 -5.800000e+001  3.390000e+002
      vertex  5.173205e+001 -5.800000e+001  3.380000e+002
    endloop
  endfacet
  facet normal  0.000000e+000 -1.000000e+000  -0.000000e+000
    outer loop
      vertex  5.800000e+001 -5.800000e+001  3.490000e+002
      vertex  5.173205e+001 -5.800000e+001  3.380000e+002
      vertex  5.000000e+001 -5.800000e+001  3.070000e+002
    endloop
  endfacet
  facet normal  0.000000e+000 -1.000000e+000  0.000000e+000
    outer loop
      vertex  5.800000e+001 -5.800000e+001  3.490000e+002
      vertex  5.000000e+001 -5.800000e+001  3.070000e+002
      vertex  5.100000e+001 -5.800000e+001  3.067321e+002
    endloop
  endfacet
  facet normal  0.000000e+000 -9.999999e-001  0.000000e+000
    outer loop
      vertex  5.800000e+001 -5.800000e+001  3.490000e+002
      vertex  5.100000e+001 -5.800000e+001  3.067321e+002
      vertex  5.173205e+001 -5.800000e+001  3.060000e+002
    endloop
  endfacet
  facet normal  0.000000e+000 -1.000000e+000  0.000000e+000
    outer loop
      vertex  5.800000e+001 -5.800000e+001  3.490000e+002
      vertex  5.173205e+001 -5.800000e+001  3.060000e+002
      vertex  5.200000e+001 -5.800000e+001  3.050000e+002
    endloop
  endfacet
  facet normal  0.000000e+000 -1.000000e+000  -0.000000e+000
    outer loop
      vertex  5.800000e+001 -5.800000e+001  2.890000e+002
      vertex  5.800000e+001 -5.800000e+001  3.490000e+002
      vertex  5.200000e+001 -5.800000e+001  3.050000e+002
    endloop
  endfacet
  facet normal  0.000000e+000 -1.000000e+000  -0.000000e+000
    outer loop
      vertex  5.800000e+001 -5.800000e+001  2.890000e+002
      vertex  5.200000e+001 -5.800000e+001  3.050000e+002
      vertex  5.173205e+001 -5.800000e+001  3.040000e+002
    endloop
  endfacet
  facet normal  0.000000e+000 -1.000000e+000  -0.000000e+000
    outer loop
      vertex  5.800000e+001 -5.800000e+001  2.890000e+002
      vertex  5.173205e+001 -5.800000e+001  3.040000e+002
      vertex  5.100000e+001 -5.800000e+001  3.032679e+002
    endloop
  endfacet
  facet normal  0.000000e+000 -1.000000e+000  -0.000000e+000
    outer loop
      vertex  5.800000e+001 -5.800000e+001  2.890000e+002
      vertex  5.100000e+001 -5.800000e+001  3.032679e+002
      vertex  5.000000e+001 -5.800000e+001  3.030000e+002
    endloop
  endfacet
  facet normal  2.588147e-001  0.000000e+000  9.659271e-001
    outer loop
      vertex  5.000000e+001 -5.800000e+001  3.030000e+002
      vertex  4.900000e+001 -5.600000e+001  3.032679e+002
      vertex  4.900000e+001 -5.800000e+001  3.032679e+002
    endloop
  endfacet
  facet normal  7.071086e-001  -0.000000e+000  7.071049e-001
    outer loop
      vertex  4.900000e+001 -5.800000e+001  3.032679e+002
      vertex  4.900000e+001 -5.600000e+001  3.032679e+002
      vertex  4.826795e+001 -5.600000e+001  3.040000e+002
    endloop
  endfacet
  facet normal  7.071086e-001  0.000000e+000  7.071049e-001
    outer loop
      vertex  4.900000e+001 -5.800000e+001  3.032679e+002
      vertex  4.826795e+001 -5.600000e+001  3.040000e+002
      vertex  4.826795e+001 -5.800000e+001  3.040000e+002
    endloop
  endfacet
  facet normal  9.659261e-001  -0.000000e+000  2.588181e-001
    outer loop
      vertex  4.826795e+001 -5.800000e+001  3.040000e+002
      vertex  4.826795e+001 -5.600000e+001  3.040000e+002
      vertex  4.800000e+001 -5.600000e+001  3.050000e+002
    endloop
  endfacet
  facet normal  9.659261e-001  0.000000e+000  2.588181e-001
    outer loop
      vertex  4.826795e+001 -5.800000e+001  3.040000e+002
      vertex  4.800000e+001 -5.600000e+001  3.050000e+002
      vertex  4.800000e+001 -5.800000e+001  3.050000e+002
    endloop
  endfacet
  facet normal  2.588147e-001  -0.000000e+000  9.659271e-001
    outer loop
      vertex  4.900000e+001 -5.600000e+001  3.032679e+002
      vertex  5.000000e+001 -5.800000e+001  3.030000e+002
      vertex  5.000000e+001 -5.600000e+001  3.030000e+002
    endloop
  endfacet
  facet normal -2.588147e-001  0.000000e+000  9.659271e-001
    outer loop
      vertex  5.000000e+001 -5.600000e+001  3.030000e+002
      vertex  5.000000e+001 -5.800000e+001  3.030000e+002
      vertex  5.100000e+001 -5.800000e+001  3.032679e+002
    endloop
  endfacet
  facet normal -2.588147e-001  0.000000e+000  9.659271e-001
    outer loop
      vertex  5.000000e+001 -5.600000e+001  3.030000e+002
      vertex  5.100000e+001 -5.800000e+001  3.032679e+002
      vertex  5.100000e+001 -5.600000e+001  3.032679e+002
    endloop
  endfacet
  facet normal -7.071086e-001  0.000000e+000  7.071049e-001
    outer loop
      vertex  5.100000e+001 -5.600000e+001  3.032679e+002
      vertex  5.100000e+001 -5.800000e+001  3.032679e+002
      vertex  5.173205e+001 -5.800000e+001  3.040000e+002
    endloop
  endfacet
  facet normal -7.071086e-001  0.000000e+000  7.071049e-001
    outer loop
      vertex  5.100000e+001 -5.600000e+001  3.032679e+002
      vertex  5.173205e+001 -5.800000e+001  3.040000e+002
      vertex  5.173205e+001 -5.600000e+001  3.040000e+002
    endloop
  endfacet
  facet normal -9.659261e-001  0.000000e+000  2.588181e-001
    outer loop
      vertex  5.173205e+001 -5.600000e+001  3.040000e+002
      vertex  5.173205e+001 -5.800000e+001  3.040000e+002
      vertex  5.200000e+001 -5.800000e+001  3.050000e+002
    endloop
  endfacet
  facet normal -9.659261e-001  0.000000e+000  2.588181e-001
    outer loop
      vertex  5.173205e+001 -5.600000e+001  3.040000e+002
      vertex  5.200000e+001 -5.800000e+001  3.050000e+002
      vertex  5.200000e+001 -5.600000e+001  3.050000e+002
    endloop
  endfacet
  facet normal -2.588147e-001  -0.000000e+000 -9.659271e-001
    outer loop
      vertex  5.000000e+001 -5.800000e+001  3.070000e+002
      vertex  5.100000e+001 -5.600000e+001  3.067321e+002
      vertex  5.100000e+001 -5.800000e+001  3.067321e+002
    endloop
  endfacet
  facet normal -7.071086e-001  0.000000e+000 -7.071049e-001
    outer loop
      vertex  5.100000e+001 -5.800000e+001  3.067321e+002
      vertex  5.100000e+001 -5.600000e+001  3.067321e+002
      vertex  5.173205e+001 -5.600000e+001  3.060000e+002
    endloop
  endfacet
  facet normal -7.071086e-001  -0.000000e+000 -7.071049e-001
    outer loop
      vertex  5.100000e+001 -5.800000e+001  3.067321e+002
      vertex  5.173205e+001 -5.600000e+001  3.060000e+002
      vertex  5.173205e+001 -5.800000e+001  3.060000e+002
    endloop
  endfacet
  facet normal -9.659261e-001  0.000000e+000 -2.588181e-001
    outer loop
      vertex  5.173205e+001 -5.800000e+001  3.060000e+002
      vertex  5.173205e+001 -5.600000e+001  3.060000e+002
      vertex  5.200000e+001 -5.600000e+001  3.050000e+002
    endloop
  endfacet
  facet normal -9.659261e-001  -0.000000e+000 -2.588181e-001
    outer loop
      vertex  5.173205e+001 -5.800000e+001  3.060000e+002
      vertex  5.200000e+001 -5.600000e+001  3.050000e+002
      vertex  5.200000e+001 -5.800000e+001  3.050000e+002
    endloop
  endfacet
  facet normal -2.588147e-001  0.000000e+000 -9.659271e-001
    outer loop
      vertex  5.100000e+001 -5.600000e+001  3.067321e+002
      vertex  5.000000e+001 -5.800000e+001  3.070000e+002
      vertex  5.000000e+001 -5.600000e+001  3.070000e+002
    endloop
  endfacet
  facet normal  2.588147e-001  0.000000e+000 -9.659271e-001
    outer loop
      vertex  5.000000e+001 -5.600000e+001  3.070000e+002
      vertex  5.000000e+001 -5.800000e+001  3.070000e+002
      vertex  4.900000e+001 -5.800000e+001  3.067321e+002
    endloop
  endfacet
  facet normal  2.588147e-001  0.000000e+000 -9.659271e-001
    outer loop
      vertex  5.000000e+001 -5.600000e+001  3.070000e+002
      vertex  4.900000e+001 -5.800000e+001  3.067321e+002
      vertex  4.900000e+001 -5.600000e+001  3.067321e+002
    endloop
  endfacet
  facet normal  7.071086e-001  0.000000e+000 -7.071049e-001
    outer loop
      vertex  4.900000e+001 -5.600000e+001  3.067321e+002
      vertex  4.900000e+001 -5.800000e+001  3.067321e+002
      vertex  4.826795e+001 -5.800000e+001  3.060000e+002
    endloop
  endfacet
  facet normal  7.071086e-001  0.000000e+000 -7.071049e-001
    outer loop
      vertex  4.900000e+001 -5.600000e+001  3.067321e+002
      vertex  4.826795e+001 -5.800000e+001  3.060000e+002
      vertex  4.826795e+001 -5.600000e+001  3.060000e+002
    endloop
  endfacet
  facet normal  9.659261e-001  0.000000e+000 -2.588181e-001
    outer loop
      vertex  4.826795e+001 -5.600000e+001  3.060000e+002
      vertex  4.826795e+001 -5.800000e+001  3.060000e+002
      vertex  4.800000e+001 -5.800000e+001  3.050000e+002
    endloop
  endfacet
  facet normal  9.659261e-001  0.000000e+000 -2.588181e-001
    outer loop
      vertex  4.826795e+001 -5.600000e+001  3.060000e+002
      vertex  4.800000e+001 -5.800000e+001  3.050000e+002
      vertex  4.800000e+001 -5.600000e+001  3.050000e+002
    endloop
  endfacet
  facet normal  2.588147e-001  0.000000e+000  9.659271e-001
    outer loop
      vertex  5.000000e+001 -5.800000e+001  3.370000e+002
      vertex  4.900000e+001 -5.600000e+001  3.372679e+002
      vertex  4.900000e+001 -5.800000e+001  3.372679e+002
    endloop
  endfacet
  facet normal  7.071086e-001  -0.000000e+000  7.071049e-001
    outer loop
      vertex  4.900000e+001 -5.800000e+001  3.372679e+002
      vertex  4.900000e+001 -5.600000e+001  3.372679e+002
      vertex  4.826795e+001 -5.600000e+001  3.380000e+002
    endloop
  endfacet
  facet normal  7.071086e-001  0.000000e+000  7.071049e-001
    outer loop
      vertex  4.900000e+001 -5.800000e+001  3.372679e+002
      vertex  4.826795e+001 -5.600000e+001  3.380000e+002
      vertex  4.826795e+001 -5.800000e+001  3.380000e+002
    endloop
  endfacet
  facet normal  9.659261e-001  -0.000000e+000  2.588181e-001
    outer loop
      vertex  4.826795e+001 -5.800000e+001  3.380000e+002
      vertex  4.826795e+001 -5.600000e+001  3.380000e+002
      vertex  4.800000e+001 -5.600000e+001  3.390000e+002
    endloop
  endfacet
  facet normal  9.659261e-001  0.000000e+000  2.588181e-001
    outer loop
      vertex  4.826795e+001 -5.800000e+001  3.380000e+002
      vertex  4.800000e+001 -5.600000e+001  3.390000e+002
      vertex  4.800000e+001 -5.800000e+001  3.390000e+002
    endloop
  endfacet
  facet normal  2.588147e-001  -0.000000e+000  9.659271e-001
    outer loop
      vertex  4.900000e+001 -5.600000e+001  3.372679e+002
      vertex  5.000000e+001 -5.800000e+001  3.370000e+002
      vertex  5.000000e+001 -5.600000e+001  3.370000e+002
    endloop
  endfacet
  facet normal -2.588147e-001  0.000000e+000  9.659271e-001
    outer loop
      vertex  5.000000e+001 -5.600000e+001  3.370000e+002
      vertex  5.000000e+001 -5.800000e+001  3.370000e+002
      vertex  5.100000e+001 -5.800000e+001  3.372679e+002
    endloop
  endfacet
  facet normal -2.588147e-001  0.000000e+000  9.659271e-001
    outer loop
      vertex  5.000000e+001 -5.600000e+001  3.370000e+002
      vertex  5.100000e+001 -5.800000e+001  3.372679e+002
      vertex  5.100000e+001 -5.600000e+001  3.372679e+002
    endloop
  endfacet
  facet normal -7.071086e-001  0.000000e+000  7.071049e-001
    outer loop
      vertex  5.100000e+001 -5.600000e+001  3.372679e+002
      vertex  5.100000e+001 -5.800000e+001  3.372679e+002
      vertex  5.173205e+001 -5.800000e+001  3.380000e+002
    endloop
  endfacet
  facet normal -7.071086e-001  0.000000e+000  7.071049e-001
    outer loop
      vertex  5.100000e+001 -5.600000e+001  3.372679e+002
      vertex  5.173205e+001 -5.800000e+001  3.380000e+002
      vertex  5.173205e+001 -5.600000e+001  3.380000e+002
    endloop
  endfacet
  facet normal -9.659261e-001  0.000000e+000  2.588181e-001
    outer loop
      vertex  5.173205e+001 -5.600000e+001  3.380000e+002
      vertex  5.173205e+001 -5.800000e+001  3.380000e+002
      vertex  5.200000e+001 -5.800000e+001  3.390000e+002
    endloop
  endfacet
  facet normal -9.659261e-001  0.000000e+000  2.588181e-001
    outer loop
      vertex  5.173205e+001 -5.600000e+001  3.380000e+002
      vertex  5.200000e+001 -5.800000e+001  3.390000e+002
      vertex  5.200000e+001 -5.600000e+001  3.390000e+002
    endloop
  endfacet
  facet normal -2.588147e-001  -0.000000e+000 -9.659271e-001
    outer loop
      vertex  5.000000e+001 -5.800000e+001  3.410000e+002
      vertex  5.100000e+001 -5.600000e+001  3.407321e+002
      vertex  5.100000e+001 -5.800000e+001  3.407321e+002
    endloop
  endfacet
  facet normal -7.071086e-001  0.000000e+000 -7.071049e-001
    outer loop
      vertex  5.100000e+001 -5.800000e+001  3.407321e+002
      vertex  5.100000e+001 -5.600000e+001  3.407321e+002
      vertex  5.173205e+001 -5.600000e+001  3.400000e+002
    endloop
  endfacet
  facet normal -7.071086e-001  -0.000000e+000 -7.071049e-001
    outer loop
      vertex  5.100000e+001 -5.800000e+001  3.407321e+002
      vertex  5.173205e+001 -5.600000e+001  3.400000e+002
      vertex  5.173205e+001 -5.800000e+001  3.400000e+002
    endloop
  endfacet
  facet normal -9.659261e-001  0.000000e+000 -2.588181e-001
    outer loop
      vertex  5.173205e+001 -5.800000e+001  3.400000e+002
      vertex  5.173205e+001 -5.600000e+001  3.400000e+002
      vertex  5.200000e+001 -5.600000e+001  3.390000e+002
    endloop
  endfacet
  facet normal -9.659261e-001  -0.000000e+000 -2.588181e-001
    outer loop
      vertex  5.173205e+001 -5.800000e+001  3.400000e+002
      vertex  5.200000e+001 -5.600000e+001  3.390000e+002
      vertex  5.200000e+001 -5.800000e+001  3.390000e+002
    endloop
  endfacet
  facet normal -2.588147e-001  0.000000e+000 -9.659271e-001
    outer loop
      vertex  5.100000e+001 -5.600000e+001  3.407321e+002
      vertex  5.000000e+001 -5.800000e+001  3.410000e+002
      vertex  5.000000e+001 -5.600000e+001  3.410000e+002
    endloop
  endfacet
  facet normal  2.588147e-001  0.000000e+000 -9.659271e-001
    outer loop
      vertex  5.000000e+001 -5.600000e+001  3.410000e+002
      vertex  5.000000e+001 -5.800000e+001  3.410000e+002
      vertex  4.900000e+001 -5.800000e+001  3.407321e+002
    endloop
  endfacet
  facet normal  2.588147e-001  0.000000e+000 -9.659271e-001
    outer loop
      vertex  5.000000e+001 -5.600000e+001  3.410000e+002
      vertex  4.900000e+001 -5.800000e+001  3.407321e+002
      vertex  4.900000e+001 -5.600000e+001  3.407321e+002
    endloop
  endfacet
  facet normal  7.071086e-001  0.000000e+000 -7.071049e-001
    outer loop
      vertex  4.900000e+001 -5.600000e+001  3.407321e+002
      vertex  4.900000e+001 -5.800000e+001  3.407321e+002
      vertex  4.826795e+001 -5.800000e+001  3.400000e+002
    endloop
  endfacet
  facet normal  7.071086e-001  0.000000e+000 -7.071049e-001
    outer loop
      vertex  4.900000e+001 -5.600000e+001  3.407321e+002
      vertex  4.826795e+001 -5.800000e+001  3.400000e+002
      vertex  4.826795e+001 -5.600000e+001  3.400000e+002
    endloop
  endfacet
  facet normal  9.659261e-001  0.000000e+000 -2.588181e-001
    outer loop
      vertex  4.826795e+001 -5.600000e+001  3.400000e+002
      vertex  4.826795e+001 -5.800000e+001  3.400000e+002
      vertex  4.800000e+001 -5.800000e+001  3.390000e+002
    endloop
  endfacet
  facet normal  9.659261e-001  0.000000e+000 -2.588181e-001
    outer loop
      vertex  4.826795e+001 -5.600000e+001  3.400000e+002
      vertex  4.800000e+001 -5.800000e+001  3.390000e+002
      vertex  4.800000e+001 -5.600000e+001  3.390000e+002
    endloop
  endfacet
  facet normal  0.000000e+000  0.000000e+000 -1.000000e+000
    outer loop
      vertex  5.600000e+001 -4.500000e+001  3.490000e+002
      vertex  5.600000e+001 -5.600000e+001  3.490000e+002
      vertex  5.500000e+001 -4.500000e+001  3.490000e+002
    endloop
  endfacet
  facet normal  0.000000e+000  0.000000e+000 -1.000000e+000
    outer loop
      vertex  5.500000e+001 -4.500000e+001  3.490000e+002
      vertex  5.600000e+001 -5.600000e+001  3.490000e+002
      vertex  5.500000e+001 -5.500000e+001  3.490000e+002
    endloop
  endfacet
  facet normal  0.000000e+000  0.000000e+000 -1.000000e+000
    outer loop
      vertex  5.600000e+001 -5.600000e+001  3.490000e+002
      vertex  4.500000e+001 -5.600000e+001  3.490000e+002
      vertex  5.500000e+001 -5.500000e+001  3.490000e+002
    endloop
  endfacet
  facet normal  -0.000000e+000  0.000000e+000 -1.000000e+000
    outer loop
      vertex  5.500000e+001 -5.500000e+001  3.490000e+002
      vertex  4.500000e+001 -5.600000e+001  3.490000e+002
      vertex  4.500000e+001 -5.500000e+001  3.490000e+002
    endloop
  endfacet
  facet normal  0.000000e+000  0.000000e+000 -1.000000e+000
    outer loop
      vertex  6.000000e+001 -4.000000e+001  3.490000e+002
      vertex  6.000000e+001 -6.000000e+001  3.490000e+002
      vertex  5.800000e+001 -5.800000e+001  3.490000e+002
    endloop
  endfacet
  facet normal  0.000000e+000  0.000000e+000 -1.000000e+000
    outer loop
      vertex  6.000000e+001 -4.000000e+001  3.490000e+002
      vertex  5.800000e+001 -5.800000e+001  3.490000e+002
      vertex  5.800000e+001 -4.300000e+001  3.490000e+002
    endloop
  endfacet
  facet normal  0.000000e+000  0.000000e+000 -1.000000e+000
    outer loop
      vertex  6.000000e+001 -4.000000e+001  3.490000e+002
      vertex  5.800000e+001 -4.300000e+001  3.490000e+002
      vertex  5.300000e+001 -4.300000e+001  3.490000e+002
    endloop
  endfacet
  facet normal  0.000000e+000  0.000000e+000 -1.000000e+000
    outer loop
      vertex  6.000000e+001 -4.000000e+001  3.490000e+002
      vertex  5.300000e+001 -4.300000e+001  3.490000e+002
      vertex  4.000000e+001 -4.000000e+001  3.490000e+002
    endloop
  endfacet
  facet normal  0.000000e+000  -0.000000e+000 -1.000000e+000
    outer loop
      vertex  4.000000e+001 -6.000000e+001  3.490000e+002
      vertex  5.800000e+001 -5.800000e+001  3.490000e+002
      vertex  6.000000e+001 -6.000000e+001  3.490000e+002
    endloop
  endfacet
  facet normal  0.000000e+000  0.000000e+000 -1.000000e+000
    outer loop
      vertex  5.800000e+001 -5.800000e+001  3.490000e+002
      vertex  4.000000e+001 -6.000000e+001  3.490000e+002
      vertex  4.300000e+001 -5.800000e+001  3.490000e+002
    endloop
  endfacet
  facet normal  -0.000000e+000  0.000000e+000 -1.000000e+000
    outer loop
      vertex  4.300000e+001 -5.800000e+001  3.490000e+002
      vertex  4.000000e+001 -6.000000e+001  3.490000e+002
      vertex  4.000000e+001 -4.000000e+001  3.490000e+002
    endloop
  endfacet
  facet normal  0.000000e+000  0.000000e+000 -1.000000e+000
    outer loop
      vertex  4.300000e+001 -5.800000e+001  3.490000e+002
      vertex  4.000000e+001 -4.000000e+001  3.490000e+002
      vertex  4.300000e+001 -5.300000e+001  3.490000e+002
    endloop
  endfacet
  facet normal  0.000000e+000  0.000000e+000 -1.000000e+000
    outer loop
      vertex  4.300000e+001 -5.300000e+001  3.490000e+002
      vertex  4.000000e+001 -4.000000e+001  3.490000e+002
      vertex  5.300000e+001 -4.300000e+001  3.490000e+002
    endloop
  endfacet
  facet normal  0.000000e+000  -0.000000e+000 -1.000000e+000
    outer loop
      vertex  4.300000e+001 -5.300000e+001  3.490000e+002
      vertex  5.300000e+001 -4.300000e+001  3.490000e+002
      vertex  5.300000e+001 -5.300000e+001  3.490000e+002
    endloop
  endfacet
  facet normal  0.000000e+000  0.000000e+000 -1.000000e+000
    outer loop
      vertex  5.800000e+001 -4.300000e+001  2.890000e+002
      vertex  5.800000e+001 -5.800000e+001  2.890000e+002
      vertex  5.600000e+001 -4.300000e+001  2.890000e+002
    endloop
  endfacet
  facet normal  0.000000e+000  0.000000e+000 -1.000000e+000
    outer loop
      vertex  5.600000e+001 -4.300000e+001  2.890000e+002
      vertex  5.800000e+001 -5.800000e+001  2.890000e+002
      vertex  5.600000e+001 -5.600000e+001  2.890000e+002
    endloop
  endfacet
  facet normal  0.000000e+000  0.000000e+000 -1.000000e+000
    outer loop
      vertex  5.800000e+001 -5.800000e+001  2.890000e+002
      vertex  4.300000e+001 -5.800000e+001  2.890000e+002
      vertex  5.600000e+001 -5.600000e+001  2.890000e+002
    endloop
  endfacet
  facet normal  -0.000000e+000  0.000000e+000 -1.000000e+000
    outer loop
      vertex  5.600000e+001 -5.600000e+001  2.890000e+002
      vertex  4.300000e+001 -5.800000e+001  2.890000e+002
      vertex  4.300000e+001 -5.600000e+001  2.890000e+002
    endloop
  endfacet
  facet normal -1.000000e+000  0.000000e+000  0.000000e+000
    outer loop
      vertex  4.300000e+001 -5.800000e+001  2.890000e+002
      vertex  4.300000e+001 -5.800000e+001  3.490000e+002
      vertex  4.300000e+001 -5.600000e+001  2.890000e+002
    endloop
  endfacet
  facet normal -9.999999e-001  0.000000e+000  0.000000e+000
    outer loop
      vertex  4.300000e+001 -5.600000e+001  2.890000e+002
      vertex  4.300000e+001 -5.800000e+001  3.490000e+002
      vertex  4.300000e+001 -5.600000e+001  3.440000e+002
    endloop
  endfacet
  facet normal -1.000000e+000  -0.000000e+000  0.000000e+000
    outer loop
      vertex  4.300000e+001 -5.800000e+001  3.490000e+002
      vertex  4.300000e+001 -5.300000e+001  3.490000e+002
      vertex  4.300000e+001 -5.600000e+001  3.440000e+002
    endloop
  endfacet
  facet normal -1.000000e+000  0.000000e+000  0.000000e+000
    outer loop
      vertex  4.300000e+001 -5.600000e+001  3.440000e+002
      vertex  4.300000e+001 -5.300000e+001  3.490000e+002
      vertex  4.300000e+001 -5.300000e+001  3.440000e+002
    endloop
  endfacet
  facet normal  0.000000e+000  9.999999e-001  0.000000e+000
    outer loop
      vertex  5.600000e+001 -4.300000e+001  2.890000e+002
      vertex  5.600000e+001 -4.300000e+001  3.440000e+002
      vertex  5.800000e+001 -4.300000e+001  2.890000e+002
    endloop
  endfacet
  facet normal  0.000000e+000  1.000000e+000  -0.000000e+000
    outer loop
      vertex  5.800000e+001 -4.300000e+001  2.890000e+002
      vertex  5.600000e+001 -4.300000e+001  3.440000e+002
      vertex  5.800000e+001 -4.300000e+001  3.490000e+002
    endloop
  endfacet
  facet normal  0.000000e+000  1.000000e+000  0.000000e+000
    outer loop
      vertex  5.600000e+001 -4.300000e+001  3.440000e+002
      vertex  5.300000e+001 -4.300000e+001  3.440000e+002
      vertex  5.800000e+001 -4.300000e+001  3.490000e+002
    endloop
  endfacet
  facet normal  0.000000e+000  1.000000e+000  0.000000e+000
    outer loop
      vertex  5.800000e+001 -4.300000e+001  3.490000e+002
      vertex  5.300000e+001 -4.300000e+001  3.440000e+002
      vertex  5.300000e+001 -4.300000e+001  3.490000e+002
    endloop
  endfacet
  facet normal  0.000000e+000  0.000000e+000 -1.000000e+000
    outer loop
      vertex  4.500000e+001 -5.600000e+001  3.440000e+002
      vertex  4.300000e+001 -5.600000e+001  3.440000e+002
      vertex  4.500000e+001 -5.500000e+001  3.440000e+002
    endloop
  endfacet
  facet normal  -0.000000e+000  0.000000e+000 -1.000000e+000
    outer loop
      vertex  4.500000e+001 -5.500000e+001  3.440000e+002
      vertex  4.300000e+001 -5.600000e+001  3.440000e+002
      vertex  4.300000e+001 -5.300000e+001  3.440000e+002
    endloop
  endfacet
  facet normal  0.000000e+000  0.000000e+000 -1.000000e+000
    outer loop
      vertex  4.500000e+001 -5.500000e+001  3.440000e+002
      vertex  4.300000e+001 -5.300000e+001  3.440000e+002
      vertex  5.500000e+001 -5.500000e+001  3.440000e+002
    endloop
  endfacet
  facet normal  0.000000e+000  0.000000e+000 -1.000000e+000
    outer loop
      vertex  5.500000e+001 -5.500000e+001  3.440000e+002
      vertex  4.300000e+001 -5.300000e+001  3.440000e+002
      vertex  5.300000e+001 -5.300000e+001  3.440000e+002
    endloop
  endfacet
  facet normal  0.000000e+000  0.000000e+000 -1.000000e+000
    outer loop
      vertex  5.500000e+001 -5.500000e+001  3.440000e+002
      vertex  5.300000e+001 -5.300000e+001  3.440000e+002
      vertex  5.500000e+001 -4.500000e+001  3.440000e+002
    endloop
  endfacet
  facet normal  -0.000000e+000  0.000000e+000 -1.000000e+000
    outer loop
      vertex  5.500000e+001 -4.500000e+001  3.440000e+002
      vertex  5.300000e+001 -5.300000e+001  3.440000e+002
      vertex  5.300000e+001 -4.300000e+001  3.440000e+002
    endloop
  endfacet
  facet normal  0.000000e+000  0.000000e+000 -1.000000e+000
    outer loop
      vertex  5.500000e+001 -4.500000e+001  3.440000e+002
      vertex  5.300000e+001 -4.300000e+001  3.440000e+002
      vertex  5.600000e+001 -4.500000e+001  3.440000e+002
    endloop
  endfacet
  facet normal  0.000000e+000  0.000000e+000 -1.000000e+000
    outer loop
      vertex  5.600000e+001 -4.500000e+001  3.440000e+002
      vertex  5.300000e+001 -4.300000e+001  3.440000e+002
      vertex  5.600000e+001 -4.300000e+001  3.440000e+002
    endloop
  endfacet
  facet normal  0.000000e+000 -1.000000e+000  0.000000e+000
    outer loop
      vertex  5.500000e+001 -4.500000e+001  3.490000e+002
      vertex  5.500000e+001 -4.500000e+001  3.440000e+002
      vertex  5.600000e+001 -4.500000e+001  3.490000e+002
    endloop
  endfacet
  facet normal  0.000000e+000 -1.000000e+000  -0.000000e+000
    outer loop
      vertex  5.600000e+001 -4.500000e+001  3.490000e+002
      vertex  5.500000e+001 -4.500000e+001  3.440000e+002
      vertex  5.600000e+001 -4.500000e+001  3.440000e+002
    endloop
  endfacet
  facet normal  1.000000e+000  -0.000000e+000  0.000000e+000
    outer loop
      vertex  4.500000e+001 -5.500000e+001  3.490000e+002
      vertex  4.500000e+001 -5.600000e+001  3.490000e+002
      vertex  4.500000e+001 -5.500000e+001  3.440000e+002
    endloop
  endfacet
  facet normal  1.000000e+000  0.000000e+000  0.000000e+000
    outer loop
      vertex  4.500000e+001 -5.500000e+001  3.440000e+002
      vertex  4.500000e+001 -5.600000e+001  3.490000e+002
      vertex  4.500000e+001 -5.600000e+001  3.440000e+002
    endloop
  endfacet
  facet normal  0.000000e+000 -1.000000e+000  0.000000e+000
    outer loop
      vertex  4.500000e+001 -5.500000e+001  3.490000e+002
      vertex  4.500000e+001 -5.500000e+001  3.440000e+002
      vertex  5.500000e+001 -5.500000e+001  3.490000e+002
    endloop
  endfacet
  facet normal  0.000000e+000 -1.000000e+000  -0.000000e+000
    outer loop
      vertex  5.500000e+001 -5.500000e+001  3.490000e+002
      vertex  4.500000e+001 -5.500000e+001  3.440000e+002
      vertex  5.500000e+001 -5.500000e+001  3.440000e+002
    endloop
  endfacet
  facet normal  1.000000e+000  0.000000e+000  0.000000e+000
    outer loop
      vertex  5.500000e+001 -5.500000e+001  3.490000e+002
      vertex  5.500000e+001 -5.500000e+001  3.440000e+002
      vertex  5.500000e+001 -4.500000e+001  3.490000e+002
    endloop
  endfacet
  facet normal  1.000000e+000  0.000000e+000  0.000000e+000
    outer loop
      vertex  5.500000e+001 -4.500000e+001  3.490000e+002
      vertex  5.500000e+001 -5.500000e+001  3.440000e+002
      vertex  5.500000e+001 -4.500000e+001  3.440000e+002
    endloop
  endfacet
  facet normal -1.000000e+000  0.000000e+000  0.000000e+000
    outer loop
      vertex  5.300000e+001 -4.300000e+001  3.490000e+002
      vertex  5.300000e+001 -4.300000e+001  3.440000e+002
      vertex  5.300000e+001 -5.300000e+001  3.490000e+002
    endloop
  endfacet
  facet normal -1.000000e+000  0.000000e+000  0.000000e+000
    outer loop
      vertex  5.300000e+001 -5.300000e+001  3.490000e+002
      vertex  5.300000e+001 -4.300000e+001  3.440000e+002
      vertex  5.300000e+001 -5.300000e+001  3.440000e+002
    endloop
  endfacet
  facet normal  0.000000e+000  1.000000e+000  -0.000000e+000
    outer loop
      vertex  5.300000e+001 -5.300000e+001  3.490000e+002
      vertex  5.300000e+001 -5.300000e+001  3.440000e+002
      vertex  4.300000e+001 -5.300000e+001  3.490000e+002
    endloop
  endfacet
  facet normal  0.000000e+000  1.000000e+000  0.000000e+000
    outer loop
      vertex  4.300000e+001 -5.300000e+001  3.490000e+002
      vertex  5.300000e+001 -5.300000e+001  3.440000e+002
      vertex  4.300000e+001 -5.300000e+001  3.440000e+002
    endloop
  endfacet
  facet normal  0.000000e+000  0.000000e+000  1.000000e+000
    outer loop
      vertex  4.000000e+001 -6.000000e+001  3.540000e+002
      vertex  6.000000e+001 -6.000000e+001  3.540000e+002
      vertex  4.000000e+001 -4.000000e+001  3.540000e+002
    endloop
  endfacet
  facet normal  -0.000000e+000  0.000000e+000  1.000000e+000
    outer loop
      vertex  4.000000e+001 -4.000000e+001  3.540000e+002
      vertex  6.000000e+001 -6.000000e+001  3.540000e+002
      vertex  6.000000e+001 -4.000000e+001  3.540000e+002
    endloop
  endfacet
  facet normal  0.000000e+000  1.000000e+000  0.000000e+000
    outer loop
      vertex  4.000000e+001 -4.000000e+001  3.540000e+002
      vertex  6.000000e+001 -4.000000e+001  3.540000e+002
      vertex  4.000000e+001 -4.000000e+001  3.490000e+002
    endloop
  endfacet
  facet normal  0.000000e+000  1.000000e+000  0.000000e+000
    outer loop
      vertex  4.000000e+001 -4.000000e+001  3.490000e+002
      vertex  6.000000e+001 -4.000000e+001  3.540000e+002
      vertex  6.000000e+001 -4.000000e+001  3.490000e+002
    endloop
  endfacet
  facet normal  1.000000e+000  0.000000e+000  0.000000e+000
    outer loop
      vertex  6.000000e+001 -6.000000e+001  3.540000e+002
      vertex  6.000000e+001 -6.000000e+001  3.490000e+002
      vertex  6.000000e+001 -4.000000e+001  3.540000e+002
    endloop
  endfacet
  facet normal  1.000000e+000  0.000000e+000  0.000000e+000
    outer loop
      vertex  6.000000e+001 -4.000000e+001  3.540000e+002
      vertex  6.000000e+001 -6.000000e+001  3.490000e+002
      vertex  6.000000e+001 -4.000000e+001  3.490000e+002
    endloop
  endfacet
  facet normal  0.000000e+000 -1.000000e+000  0.000000e+000
    outer loop
      vertex  6.000000e+001 -6.000000e+001  3.540000e+002
      vertex  4.000000e+001 -6.000000e+001  3.540000e+002
      vertex  6.000000e+001 -6.000000e+001  3.490000e+002
    endloop
  endfacet
  facet normal  0.000000e+000 -1.000000e+000  0.000000e+000
    outer loop
      vertex  6.000000e+001 -6.000000e+001  3.490000e+002
      vertex  4.000000e+001 -6.000000e+001  3.540000e+002
      vertex  4.000000e+001 -6.000000e+001  3.490000e+002
    endloop
  endfacet
  facet normal -1.000000e+000  0.000000e+000  0.000000e+000
    outer loop
      vertex  4.000000e+001 -4.000000e+001  3.540000e+002
      vertex  4.000000e+001 -4.000000e+001  3.490000e+002
      vertex  4.000000e+001 -6.000000e+001  3.540000e+002
    endloop
  endfacet
  facet normal -1.000000e+000  0.000000e+000  0.000000e+000
    outer loop
      vertex  4.000000e+001 -6.000000e+001  3.540000e+002
      vertex  4.000000e+001 -4.000000e+001  3.490000e+002
      vertex  4.000000e+001 -6.000000e+001  3.490000e+002
    endloop
  endfacet
endsolid CATIA STL
