solid CATIA STL
  facet normal  1.000000e+000  0.000000e+000  -0.000000e+000
    outer loop
      vertex  6.000000e+001 -5.129904e+001  2.997500e+002
      vertex  6.000000e+001 -5.075000e+001  3.002990e+002
      vertex  6.000000e+001 -5.000000e+001  3.315000e+002
    endloop
  endfacet
  facet normal  1.000000e+000  0.000000e+000  -0.000000e+000
    outer loop
      vertex  6.000000e+001 -5.075000e+001  3.002990e+002
      vertex  6.000000e+001 -5.000000e+001  3.005000e+002
      vertex  6.000000e+001 -5.000000e+001  3.315000e+002
    endloop
  endfacet
  facet normal  1.000000e+000  0.000000e+000  0.000000e+000
    outer loop
      vertex  6.000000e+001 -4.000000e+001  3.540000e+002
      vertex  6.000000e+001 -4.300000e+001  3.490000e+002
      vertex  6.000000e+001 -4.000000e+001  3.490000e+002
    endloop
  endfacet
  facet normal  9.999999e-001  0.000000e+000  0.000000e+000
    outer loop
      vertex  6.000000e+001 -4.870096e+001  2.997500e+002
      vertex  6.000000e+001 -5.000000e+001  3.315000e+002
      vertex  6.000000e+001 -4.925000e+001  3.002990e+002
    endloop
  endfacet
  facet normal  1.000000e+000  0.000000e+000  0.000000e+000
    outer loop
      vertex  6.000000e+001 -4.925000e+001  3.002990e+002
      vertex  6.000000e+001 -5.000000e+001  3.315000e+002
      vertex  6.000000e+001 -5.000000e+001  3.005000e+002
    endloop
  endfacet
  facet normal  1.000000e+000  0.000000e+000  0.000000e+000
    outer loop
      vertex  6.000000e+001 -6.000000e+001  3.540000e+002
      vertex  6.000000e+001 -6.000000e+001  2.890000e+002
      vertex  6.000000e+001 -5.150000e+001  3.330000e+002
    endloop
  endfacet
  facet normal  1.000000e+000  0.000000e+000  -0.000000e+000
    outer loop
      vertex  6.000000e+001 -6.000000e+001  3.540000e+002
      vertex  6.000000e+001 -5.150000e+001  3.330000e+002
      vertex  6.000000e+001 -5.129904e+001  3.337500e+002
    endloop
  endfacet
  facet normal  1.000000e+000  0.000000e+000  -0.000000e+000
    outer loop
      vertex  6.000000e+001 -6.000000e+001  3.540000e+002
      vertex  6.000000e+001 -5.129904e+001  3.337500e+002
      vertex  6.000000e+001 -5.075000e+001  3.342990e+002
    endloop
  endfacet
  facet normal  1.000000e+000  0.000000e+000  -0.000000e+000
    outer loop
      vertex  6.000000e+001 -6.000000e+001  3.540000e+002
      vertex  6.000000e+001 -5.075000e+001  3.342990e+002
      vertex  6.000000e+001 -5.000000e+001  3.345000e+002
    endloop
  endfacet
  facet normal  1.000000e+000  0.000000e+000  -0.000000e+000
    outer loop
      vertex  6.000000e+001 -6.000000e+001  3.540000e+002
      vertex  6.000000e+001 -5.000000e+001  3.345000e+002
      vertex  6.000000e+001 -4.300000e+001  3.490000e+002
    endloop
  endfacet
  facet normal  1.000000e+000  0.000000e+000  -0.000000e+000
    outer loop
      vertex  6.000000e+001 -6.000000e+001  3.540000e+002
      vertex  6.000000e+001 -4.300000e+001  3.490000e+002
      vertex  6.000000e+001 -4.000000e+001  3.540000e+002
    endloop
  endfacet
  facet normal  1.000000e+000  0.000000e+000  0.000000e+000
    outer loop
      vertex  6.000000e+001 -6.000000e+001  2.890000e+002
      vertex  6.000000e+001 -4.300000e+001  2.890000e+002
      vertex  6.000000e+001 -5.000000e+001  2.975000e+002
    endloop
  endfacet
  facet normal  1.000000e+000  0.000000e+000  0.000000e+000
    outer loop
      vertex  6.000000e+001 -6.000000e+001  2.890000e+002
      vertex  6.000000e+001 -5.000000e+001  2.975000e+002
      vertex  6.000000e+001 -5.075000e+001  2.977010e+002
    endloop
  endfacet
  facet normal  1.000000e+000  0.000000e+000  0.000000e+000
    outer loop
      vertex  6.000000e+001 -6.000000e+001  2.890000e+002
      vertex  6.000000e+001 -5.075000e+001  2.977010e+002
      vertex  6.000000e+001 -5.129904e+001  2.982500e+002
    endloop
  endfacet
  facet normal  1.000000e+000  0.000000e+000  0.000000e+000
    outer loop
      vertex  6.000000e+001 -6.000000e+001  2.890000e+002
      vertex  6.000000e+001 -5.129904e+001  2.982500e+002
      vertex  6.000000e+001 -5.150000e+001  2.990000e+002
    endloop
  endfacet
  facet normal  1.000000e+000  0.000000e+000  -0.000000e+000
    outer loop
      vertex  6.000000e+001 -6.000000e+001  2.890000e+002
      vertex  6.000000e+001 -5.150000e+001  2.990000e+002
      vertex  6.000000e+001 -5.129904e+001  2.997500e+002
    endloop
  endfacet
  facet normal  1.000000e+000  0.000000e+000  -0.000000e+000
    outer loop
      vertex  6.000000e+001 -6.000000e+001  2.890000e+002
      vertex  6.000000e+001 -5.129904e+001  2.997500e+002
      vertex  6.000000e+001 -5.000000e+001  3.315000e+002
    endloop
  endfacet
  facet normal  1.000000e+000  0.000000e+000  0.000000e+000
    outer loop
      vertex  6.000000e+001 -6.000000e+001  2.890000e+002
      vertex  6.000000e+001 -5.000000e+001  3.315000e+002
      vertex  6.000000e+001 -5.075000e+001  3.317010e+002
    endloop
  endfacet
  facet normal  1.000000e+000  0.000000e+000  0.000000e+000
    outer loop
      vertex  6.000000e+001 -6.000000e+001  2.890000e+002
      vertex  6.000000e+001 -5.075000e+001  3.317010e+002
      vertex  6.000000e+001 -5.129904e+001  3.322500e+002
    endloop
  endfacet
  facet normal  1.000000e+000  0.000000e+000  0.000000e+000
    outer loop
      vertex  6.000000e+001 -6.000000e+001  2.890000e+002
      vertex  6.000000e+001 -5.129904e+001  3.322500e+002
      vertex  6.000000e+001 -5.150000e+001  3.330000e+002
    endloop
  endfacet
  facet normal  9.999999e-001  0.000000e+000  0.000000e+000
    outer loop
      vertex  6.000000e+001 -4.300000e+001  2.890000e+002
      vertex  6.000000e+001 -4.850000e+001  3.330000e+002
      vertex  6.000000e+001 -4.870096e+001  3.322500e+002
    endloop
  endfacet
  facet normal  1.000000e+000  0.000000e+000  0.000000e+000
    outer loop
      vertex  6.000000e+001 -4.300000e+001  2.890000e+002
      vertex  6.000000e+001 -4.870096e+001  3.322500e+002
      vertex  6.000000e+001 -4.925000e+001  3.317010e+002
    endloop
  endfacet
  facet normal  1.000000e+000  0.000000e+000  0.000000e+000
    outer loop
      vertex  6.000000e+001 -4.300000e+001  2.890000e+002
      vertex  6.000000e+001 -4.925000e+001  3.317010e+002
      vertex  6.000000e+001 -5.000000e+001  3.315000e+002
    endloop
  endfacet
  facet normal  9.999999e-001  0.000000e+000  0.000000e+000
    outer loop
      vertex  6.000000e+001 -4.300000e+001  2.890000e+002
      vertex  6.000000e+001 -5.000000e+001  3.315000e+002
      vertex  6.000000e+001 -4.870096e+001  2.997500e+002
    endloop
  endfacet
  facet normal  1.000000e+000  0.000000e+000  0.000000e+000
    outer loop
      vertex  6.000000e+001 -4.300000e+001  2.890000e+002
      vertex  6.000000e+001 -4.870096e+001  2.997500e+002
      vertex  6.000000e+001 -4.850000e+001  2.990000e+002
    endloop
  endfacet
  facet normal  1.000000e+000  0.000000e+000  0.000000e+000
    outer loop
      vertex  6.000000e+001 -4.300000e+001  2.890000e+002
      vertex  6.000000e+001 -4.850000e+001  2.990000e+002
      vertex  6.000000e+001 -4.870096e+001  2.982500e+002
    endloop
  endfacet
  facet normal  1.000000e+000  0.000000e+000  0.000000e+000
    outer loop
      vertex  6.000000e+001 -4.300000e+001  2.890000e+002
      vertex  6.000000e+001 -4.870096e+001  2.982500e+002
      vertex  6.000000e+001 -4.925000e+001  2.977010e+002
    endloop
  endfacet
  facet normal  1.000000e+000  0.000000e+000  0.000000e+000
    outer loop
      vertex  6.000000e+001 -4.300000e+001  2.890000e+002
      vertex  6.000000e+001 -4.925000e+001  2.977010e+002
      vertex  6.000000e+001 -5.000000e+001  2.975000e+002
    endloop
  endfacet
  facet normal  1.000000e+000  -0.000000e+000  0.000000e+000
    outer loop
      vertex  6.000000e+001 -4.300000e+001  3.490000e+002
      vertex  6.000000e+001 -5.000000e+001  3.345000e+002
      vertex  6.000000e+001 -4.925000e+001  3.342990e+002
    endloop
  endfacet
  facet normal  1.000000e+000  -0.000000e+000  0.000000e+000
    outer loop
      vertex  6.000000e+001 -4.300000e+001  3.490000e+002
      vertex  6.000000e+001 -4.925000e+001  3.342990e+002
      vertex  6.000000e+001 -4.870096e+001  3.337500e+002
    endloop
  endfacet
  facet normal  9.999999e-001  -0.000000e+000  0.000000e+000
    outer loop
      vertex  6.000000e+001 -4.300000e+001  3.490000e+002
      vertex  6.000000e+001 -4.870096e+001  3.337500e+002
      vertex  6.000000e+001 -4.850000e+001  3.330000e+002
    endloop
  endfacet
  facet normal  9.999999e-001  -0.000000e+000  0.000000e+000
    outer loop
      vertex  6.000000e+001 -4.300000e+001  3.490000e+002
      vertex  6.000000e+001 -4.850000e+001  3.330000e+002
      vertex  6.000000e+001 -4.300000e+001  2.890000e+002
    endloop
  endfacet
  facet normal -1.000000e+000  -0.000000e+000  -0.000000e+000
    outer loop
      vertex  5.615000e+001 -5.129904e+001  3.322500e+002
      vertex  5.615000e+001 -5.075000e+001  3.317010e+002
      vertex  5.615000e+001 -5.000000e+001  3.005000e+002
    endloop
  endfacet
  facet normal -1.000000e+000  -0.000000e+000  -0.000000e+000
    outer loop
      vertex  5.615000e+001 -5.075000e+001  3.317010e+002
      vertex  5.615000e+001 -5.000000e+001  3.315000e+002
      vertex  5.615000e+001 -5.000000e+001  3.005000e+002
    endloop
  endfacet
  facet normal -9.999999e-001  0.000000e+000  0.000000e+000
    outer loop
      vertex  5.615000e+001 -4.870096e+001  3.322500e+002
      vertex  5.615000e+001 -5.000000e+001  3.005000e+002
      vertex  5.615000e+001 -4.925000e+001  3.317010e+002
    endloop
  endfacet
  facet normal -1.000000e+000  0.000000e+000  0.000000e+000
    outer loop
      vertex  5.615000e+001 -4.925000e+001  3.317010e+002
      vertex  5.615000e+001 -5.000000e+001  3.005000e+002
      vertex  5.615000e+001 -5.000000e+001  3.315000e+002
    endloop
  endfacet
  facet normal -1.000000e+000  0.000000e+000  0.000000e+000
    outer loop
      vertex  5.615000e+001 -5.615000e+001  2.890000e+002
      vertex  5.615000e+001 -5.615000e+001  3.490000e+002
      vertex  5.615000e+001 -5.150000e+001  2.990000e+002
    endloop
  endfacet
  facet normal -1.000000e+000  0.000000e+000  -0.000000e+000
    outer loop
      vertex  5.615000e+001 -5.615000e+001  2.890000e+002
      vertex  5.615000e+001 -5.150000e+001  2.990000e+002
      vertex  5.615000e+001 -5.129904e+001  2.982500e+002
    endloop
  endfacet
  facet normal -1.000000e+000  0.000000e+000  -0.000000e+000
    outer loop
      vertex  5.615000e+001 -5.615000e+001  2.890000e+002
      vertex  5.615000e+001 -5.129904e+001  2.982500e+002
      vertex  5.615000e+001 -5.075000e+001  2.977010e+002
    endloop
  endfacet
  facet normal -1.000000e+000  0.000000e+000  -0.000000e+000
    outer loop
      vertex  5.615000e+001 -5.615000e+001  2.890000e+002
      vertex  5.615000e+001 -5.075000e+001  2.977010e+002
      vertex  5.615000e+001 -5.000000e+001  2.975000e+002
    endloop
  endfacet
  facet normal -1.000000e+000  0.000000e+000  -0.000000e+000
    outer loop
      vertex  5.615000e+001 -5.615000e+001  2.890000e+002
      vertex  5.615000e+001 -5.000000e+001  2.975000e+002
      vertex  5.615000e+001 -4.300000e+001  2.890000e+002
    endloop
  endfacet
  facet normal -9.999999e-001  -0.000000e+000  -0.000000e+000
    outer loop
      vertex  5.615000e+001 -5.615000e+001  3.490000e+002
      vertex  5.615000e+001 -4.485000e+001  3.490000e+002
      vertex  5.615000e+001 -4.485000e+001  3.440000e+002
    endloop
  endfacet
  facet normal -1.000000e+000  -0.000000e+000  0.000000e+000
    outer loop
      vertex  5.615000e+001 -5.615000e+001  3.490000e+002
      vertex  5.615000e+001 -4.485000e+001  3.440000e+002
      vertex  5.615000e+001 -5.000000e+001  3.345000e+002
    endloop
  endfacet
  facet normal -1.000000e+000  -0.000000e+000  0.000000e+000
    outer loop
      vertex  5.615000e+001 -5.615000e+001  3.490000e+002
      vertex  5.615000e+001 -5.000000e+001  3.345000e+002
      vertex  5.615000e+001 -5.075000e+001  3.342990e+002
    endloop
  endfacet
  facet normal -1.000000e+000  -0.000000e+000  0.000000e+000
    outer loop
      vertex  5.615000e+001 -5.615000e+001  3.490000e+002
      vertex  5.615000e+001 -5.075000e+001  3.342990e+002
      vertex  5.615000e+001 -5.129904e+001  3.337500e+002
    endloop
  endfacet
  facet normal -9.999999e-001  -0.000000e+000  0.000000e+000
    outer loop
      vertex  5.615000e+001 -5.615000e+001  3.490000e+002
      vertex  5.615000e+001 -5.129904e+001  3.337500e+002
      vertex  5.615000e+001 -5.150000e+001  3.330000e+002
    endloop
  endfacet
  facet normal -1.000000e+000  -0.000000e+000  -0.000000e+000
    outer loop
      vertex  5.615000e+001 -5.615000e+001  3.490000e+002
      vertex  5.615000e+001 -5.150000e+001  3.330000e+002
      vertex  5.615000e+001 -5.129904e+001  3.322500e+002
    endloop
  endfacet
  facet normal -1.000000e+000  -0.000000e+000  -0.000000e+000
    outer loop
      vertex  5.615000e+001 -5.615000e+001  3.490000e+002
      vertex  5.615000e+001 -5.129904e+001  3.322500e+002
      vertex  5.615000e+001 -5.000000e+001  3.005000e+002
    endloop
  endfacet
  facet normal -1.000000e+000  -0.000000e+000  0.000000e+000
    outer loop
      vertex  5.615000e+001 -5.615000e+001  3.490000e+002
      vertex  5.615000e+001 -5.000000e+001  3.005000e+002
      vertex  5.615000e+001 -5.075000e+001  3.002990e+002
    endloop
  endfacet
  facet normal -1.000000e+000  -0.000000e+000  0.000000e+000
    outer loop
      vertex  5.615000e+001 -5.615000e+001  3.490000e+002
      vertex  5.615000e+001 -5.075000e+001  3.002990e+002
      vertex  5.615000e+001 -5.129904e+001  2.997500e+002
    endloop
  endfacet
  facet normal -1.000000e+000  -0.000000e+000  0.000000e+000
    outer loop
      vertex  5.615000e+001 -5.615000e+001  3.490000e+002
      vertex  5.615000e+001 -5.129904e+001  2.997500e+002
      vertex  5.615000e+001 -5.150000e+001  2.990000e+002
    endloop
  endfacet
  facet normal -1.000000e+000  0.000000e+000  0.000000e+000
    outer loop
      vertex  5.615000e+001 -4.300000e+001  3.440000e+002
      vertex  5.615000e+001 -4.850000e+001  2.990000e+002
      vertex  5.615000e+001 -4.870096e+001  2.997500e+002
    endloop
  endfacet
  facet normal -9.999999e-001  0.000000e+000  0.000000e+000
    outer loop
      vertex  5.615000e+001 -4.300000e+001  3.440000e+002
      vertex  5.615000e+001 -4.870096e+001  2.997500e+002
      vertex  5.615000e+001 -4.925000e+001  3.002990e+002
    endloop
  endfacet
  facet normal -1.000000e+000  0.000000e+000  0.000000e+000
    outer loop
      vertex  5.615000e+001 -4.300000e+001  3.440000e+002
      vertex  5.615000e+001 -4.925000e+001  3.002990e+002
      vertex  5.615000e+001 -5.000000e+001  3.005000e+002
    endloop
  endfacet
  facet normal -1.000000e+000  0.000000e+000  0.000000e+000
    outer loop
      vertex  5.615000e+001 -4.300000e+001  3.440000e+002
      vertex  5.615000e+001 -5.000000e+001  3.005000e+002
      vertex  5.615000e+001 -4.870096e+001  3.322500e+002
    endloop
  endfacet
  facet normal -1.000000e+000  0.000000e+000  0.000000e+000
    outer loop
      vertex  5.615000e+001 -4.300000e+001  3.440000e+002
      vertex  5.615000e+001 -4.870096e+001  3.322500e+002
      vertex  5.615000e+001 -4.850000e+001  3.330000e+002
    endloop
  endfacet
  facet normal -9.999999e-001  0.000000e+000  0.000000e+000
    outer loop
      vertex  5.615000e+001 -4.300000e+001  3.440000e+002
      vertex  5.615000e+001 -4.850000e+001  3.330000e+002
      vertex  5.615000e+001 -4.870096e+001  3.337500e+002
    endloop
  endfacet
  facet normal -1.000000e+000  0.000000e+000  0.000000e+000
    outer loop
      vertex  5.615000e+001 -4.300000e+001  3.440000e+002
      vertex  5.615000e+001 -4.870096e+001  3.337500e+002
      vertex  5.615000e+001 -4.925000e+001  3.342990e+002
    endloop
  endfacet
  facet normal -1.000000e+000  0.000000e+000  0.000000e+000
    outer loop
      vertex  5.615000e+001 -4.300000e+001  3.440000e+002
      vertex  5.615000e+001 -4.925000e+001  3.342990e+002
      vertex  5.615000e+001 -5.000000e+001  3.345000e+002
    endloop
  endfacet
  facet normal -1.000000e+000  0.000000e+000  0.000000e+000
    outer loop
      vertex  5.615000e+001 -4.300000e+001  3.440000e+002
      vertex  5.615000e+001 -5.000000e+001  3.345000e+002
      vertex  5.615000e+001 -4.485000e+001  3.440000e+002
    endloop
  endfacet
  facet normal -1.000000e+000  0.000000e+000  0.000000e+000
    outer loop
      vertex  5.615000e+001 -4.300000e+001  2.890000e+002
      vertex  5.615000e+001 -5.000000e+001  2.975000e+002
      vertex  5.615000e+001 -4.925000e+001  2.977010e+002
    endloop
  endfacet
  facet normal -1.000000e+000  0.000000e+000  0.000000e+000
    outer loop
      vertex  5.615000e+001 -4.300000e+001  2.890000e+002
      vertex  5.615000e+001 -4.925000e+001  2.977010e+002
      vertex  5.615000e+001 -4.870096e+001  2.982500e+002
    endloop
  endfacet
  facet normal -1.000000e+000  0.000000e+000  0.000000e+000
    outer loop
      vertex  5.615000e+001 -4.300000e+001  2.890000e+002
      vertex  5.615000e+001 -4.870096e+001  2.982500e+002
      vertex  5.615000e+001 -4.850000e+001  2.990000e+002
    endloop
  endfacet
  facet normal -1.000000e+000  0.000000e+000  0.000000e+000
    outer loop
      vertex  5.615000e+001 -4.300000e+001  2.890000e+002
      vertex  5.615000e+001 -4.850000e+001  2.990000e+002
      vertex  5.615000e+001 -4.300000e+001  3.440000e+002
    endloop
  endfacet
  facet normal  -0.000000e+000  2.588147e-001  9.659270e-001
    outer loop
      vertex  6.000000e+001 -5.000000e+001  2.975000e+002
      vertex  5.615000e+001 -5.075000e+001  2.977010e+002
      vertex  6.000000e+001 -5.075000e+001  2.977010e+002
    endloop
  endfacet
  facet normal  0.000000e+000  7.071092e-001  7.071043e-001
    outer loop
      vertex  6.000000e+001 -5.075000e+001  2.977010e+002
      vertex  5.615000e+001 -5.075000e+001  2.977010e+002
      vertex  5.615000e+001 -5.129904e+001  2.982500e+002
    endloop
  endfacet
  facet normal  -0.000000e+000  7.071092e-001  7.071043e-001
    outer loop
      vertex  6.000000e+001 -5.075000e+001  2.977010e+002
      vertex  5.615000e+001 -5.129904e+001  2.982500e+002
      vertex  6.000000e+001 -5.129904e+001  2.982500e+002
    endloop
  endfacet
  facet normal  0.000000e+000  9.659258e-001  2.588193e-001
    outer loop
      vertex  6.000000e+001 -5.129904e+001  2.982500e+002
      vertex  5.615000e+001 -5.129904e+001  2.982500e+002
      vertex  5.615000e+001 -5.150000e+001  2.990000e+002
    endloop
  endfacet
  facet normal  -0.000000e+000  9.659258e-001  2.588193e-001
    outer loop
      vertex  6.000000e+001 -5.129904e+001  2.982500e+002
      vertex  5.615000e+001 -5.150000e+001  2.990000e+002
      vertex  6.000000e+001 -5.150000e+001  2.990000e+002
    endloop
  endfacet
  facet normal  0.000000e+000  2.588147e-001  9.659270e-001
    outer loop
      vertex  5.615000e+001 -5.075000e+001  2.977010e+002
      vertex  6.000000e+001 -5.000000e+001  2.975000e+002
      vertex  5.615000e+001 -5.000000e+001  2.975000e+002
    endloop
  endfacet
  facet normal  0.000000e+000 -2.588147e-001  9.659270e-001
    outer loop
      vertex  5.615000e+001 -5.000000e+001  2.975000e+002
      vertex  6.000000e+001 -5.000000e+001  2.975000e+002
      vertex  6.000000e+001 -4.925000e+001  2.977010e+002
    endloop
  endfacet
  facet normal  0.000000e+000 -2.588147e-001  9.659270e-001
    outer loop
      vertex  5.615000e+001 -5.000000e+001  2.975000e+002
      vertex  6.000000e+001 -4.925000e+001  2.977010e+002
      vertex  5.615000e+001 -4.925000e+001  2.977010e+002
    endloop
  endfacet
  facet normal  0.000000e+000 -7.071092e-001  7.071043e-001
    outer loop
      vertex  5.615000e+001 -4.925000e+001  2.977010e+002
      vertex  6.000000e+001 -4.925000e+001  2.977010e+002
      vertex  6.000000e+001 -4.870096e+001  2.982500e+002
    endloop
  endfacet
  facet normal  0.000000e+000 -7.071092e-001  7.071043e-001
    outer loop
      vertex  5.615000e+001 -4.925000e+001  2.977010e+002
      vertex  6.000000e+001 -4.870096e+001  2.982500e+002
      vertex  5.615000e+001 -4.870096e+001  2.982500e+002
    endloop
  endfacet
  facet normal  0.000000e+000 -9.659258e-001  2.588193e-001
    outer loop
      vertex  5.615000e+001 -4.870096e+001  2.982500e+002
      vertex  6.000000e+001 -4.870096e+001  2.982500e+002
      vertex  6.000000e+001 -4.850000e+001  2.990000e+002
    endloop
  endfacet
  facet normal  0.000000e+000 -9.659258e-001  2.588193e-001
    outer loop
      vertex  5.615000e+001 -4.870096e+001  2.982500e+002
      vertex  6.000000e+001 -4.850000e+001  2.990000e+002
      vertex  5.615000e+001 -4.850000e+001  2.990000e+002
    endloop
  endfacet
  facet normal  0.000000e+000 -2.588147e-001 -9.659270e-001
    outer loop
      vertex  6.000000e+001 -5.000000e+001  3.005000e+002
      vertex  5.615000e+001 -4.925000e+001  3.002990e+002
      vertex  6.000000e+001 -4.925000e+001  3.002990e+002
    endloop
  endfacet
  facet normal  -0.000000e+000 -7.071092e-001 -7.071043e-001
    outer loop
      vertex  6.000000e+001 -4.925000e+001  3.002990e+002
      vertex  5.615000e+001 -4.925000e+001  3.002990e+002
      vertex  5.615000e+001 -4.870096e+001  2.997500e+002
    endloop
  endfacet
  facet normal  0.000000e+000 -7.071092e-001 -7.071043e-001
    outer loop
      vertex  6.000000e+001 -4.925000e+001  3.002990e+002
      vertex  5.615000e+001 -4.870096e+001  2.997500e+002
      vertex  6.000000e+001 -4.870096e+001  2.997500e+002
    endloop
  endfacet
  facet normal  -0.000000e+000 -9.659258e-001 -2.588193e-001
    outer loop
      vertex  6.000000e+001 -4.870096e+001  2.997500e+002
      vertex  5.615000e+001 -4.870096e+001  2.997500e+002
      vertex  5.615000e+001 -4.850000e+001  2.990000e+002
    endloop
  endfacet
  facet normal  0.000000e+000 -9.659258e-001 -2.588193e-001
    outer loop
      vertex  6.000000e+001 -4.870096e+001  2.997500e+002
      vertex  5.615000e+001 -4.850000e+001  2.990000e+002
      vertex  6.000000e+001 -4.850000e+001  2.990000e+002
    endloop
  endfacet
  facet normal  -0.000000e+000 -2.588147e-001 -9.659270e-001
    outer loop
      vertex  5.615000e+001 -4.925000e+001  3.002990e+002
      vertex  6.000000e+001 -5.000000e+001  3.005000e+002
      vertex  5.615000e+001 -5.000000e+001  3.005000e+002
    endloop
  endfacet
  facet normal  0.000000e+000  2.588147e-001 -9.659270e-001
    outer loop
      vertex  5.615000e+001 -5.000000e+001  3.005000e+002
      vertex  6.000000e+001 -5.000000e+001  3.005000e+002
      vertex  6.000000e+001 -5.075000e+001  3.002990e+002
    endloop
  endfacet
  facet normal  0.000000e+000  2.588147e-001 -9.659270e-001
    outer loop
      vertex  5.615000e+001 -5.000000e+001  3.005000e+002
      vertex  6.000000e+001 -5.075000e+001  3.002990e+002
      vertex  5.615000e+001 -5.075000e+001  3.002990e+002
    endloop
  endfacet
  facet normal  0.000000e+000  7.071092e-001 -7.071043e-001
    outer loop
      vertex  5.615000e+001 -5.075000e+001  3.002990e+002
      vertex  6.000000e+001 -5.075000e+001  3.002990e+002
      vertex  6.000000e+001 -5.129904e+001  2.997500e+002
    endloop
  endfacet
  facet normal  0.000000e+000  7.071092e-001 -7.071043e-001
    outer loop
      vertex  5.615000e+001 -5.075000e+001  3.002990e+002
      vertex  6.000000e+001 -5.129904e+001  2.997500e+002
      vertex  5.615000e+001 -5.129904e+001  2.997500e+002
    endloop
  endfacet
  facet normal  0.000000e+000  9.659258e-001 -2.588193e-001
    outer loop
      vertex  5.615000e+001 -5.129904e+001  2.997500e+002
      vertex  6.000000e+001 -5.129904e+001  2.997500e+002
      vertex  6.000000e+001 -5.150000e+001  2.990000e+002
    endloop
  endfacet
  facet normal  0.000000e+000  9.659258e-001 -2.588193e-001
    outer loop
      vertex  5.615000e+001 -5.129904e+001  2.997500e+002
      vertex  6.000000e+001 -5.150000e+001  2.990000e+002
      vertex  5.615000e+001 -5.150000e+001  2.990000e+002
    endloop
  endfacet
  facet normal  -0.000000e+000  2.588147e-001  9.659270e-001
    outer loop
      vertex  6.000000e+001 -5.000000e+001  3.315000e+002
      vertex  5.615000e+001 -5.075000e+001  3.317010e+002
      vertex  6.000000e+001 -5.075000e+001  3.317010e+002
    endloop
  endfacet
  facet normal  0.000000e+000  7.071092e-001  7.071043e-001
    outer loop
      vertex  6.000000e+001 -5.075000e+001  3.317010e+002
      vertex  5.615000e+001 -5.075000e+001  3.317010e+002
      vertex  5.615000e+001 -5.129904e+001  3.322500e+002
    endloop
  endfacet
  facet normal  -0.000000e+000  7.071092e-001  7.071043e-001
    outer loop
      vertex  6.000000e+001 -5.075000e+001  3.317010e+002
      vertex  5.615000e+001 -5.129904e+001  3.322500e+002
      vertex  6.000000e+001 -5.129904e+001  3.322500e+002
    endloop
  endfacet
  facet normal  0.000000e+000  9.659258e-001  2.588193e-001
    outer loop
      vertex  6.000000e+001 -5.129904e+001  3.322500e+002
      vertex  5.615000e+001 -5.129904e+001  3.322500e+002
      vertex  5.615000e+001 -5.150000e+001  3.330000e+002
    endloop
  endfacet
  facet normal  -0.000000e+000  9.659258e-001  2.588193e-001
    outer loop
      vertex  6.000000e+001 -5.129904e+001  3.322500e+002
      vertex  5.615000e+001 -5.150000e+001  3.330000e+002
      vertex  6.000000e+001 -5.150000e+001  3.330000e+002
    endloop
  endfacet
  facet normal  0.000000e+000  2.588147e-001  9.659270e-001
    outer loop
      vertex  5.615000e+001 -5.075000e+001  3.317010e+002
      vertex  6.000000e+001 -5.000000e+001  3.315000e+002
      vertex  5.615000e+001 -5.000000e+001  3.315000e+002
    endloop
  endfacet
  facet normal  0.000000e+000 -2.588147e-001  9.659270e-001
    outer loop
      vertex  5.615000e+001 -5.000000e+001  3.315000e+002
      vertex  6.000000e+001 -5.000000e+001  3.315000e+002
      vertex  6.000000e+001 -4.925000e+001  3.317010e+002
    endloop
  endfacet
  facet normal  0.000000e+000 -2.588147e-001  9.659270e-001
    outer loop
      vertex  5.615000e+001 -5.000000e+001  3.315000e+002
      vertex  6.000000e+001 -4.925000e+001  3.317010e+002
      vertex  5.615000e+001 -4.925000e+001  3.317010e+002
    endloop
  endfacet
  facet normal  0.000000e+000 -7.071092e-001  7.071043e-001
    outer loop
      vertex  5.615000e+001 -4.925000e+001  3.317010e+002
      vertex  6.000000e+001 -4.925000e+001  3.317010e+002
      vertex  6.000000e+001 -4.870096e+001  3.322500e+002
    endloop
  endfacet
  facet normal  0.000000e+000 -7.071092e-001  7.071043e-001
    outer loop
      vertex  5.615000e+001 -4.925000e+001  3.317010e+002
      vertex  6.000000e+001 -4.870096e+001  3.322500e+002
      vertex  5.615000e+001 -4.870096e+001  3.322500e+002
    endloop
  endfacet
  facet normal  0.000000e+000 -9.659258e-001  2.588193e-001
    outer loop
      vertex  5.615000e+001 -4.870096e+001  3.322500e+002
      vertex  6.000000e+001 -4.870096e+001  3.322500e+002
      vertex  6.000000e+001 -4.850000e+001  3.330000e+002
    endloop
  endfacet
  facet normal  0.000000e+000 -9.659258e-001  2.588193e-001
    outer loop
      vertex  5.615000e+001 -4.870096e+001  3.322500e+002
      vertex  6.000000e+001 -4.850000e+001  3.330000e+002
      vertex  5.615000e+001 -4.850000e+001  3.330000e+002
    endloop
  endfacet
  facet normal  0.000000e+000 -2.588147e-001 -9.659270e-001
    outer loop
      vertex  6.000000e+001 -5.000000e+001  3.345000e+002
      vertex  5.615000e+001 -4.925000e+001  3.342990e+002
      vertex  6.000000e+001 -4.925000e+001  3.342990e+002
    endloop
  endfacet
  facet normal  -0.000000e+000 -7.071092e-001 -7.071043e-001
    outer loop
      vertex  6.000000e+001 -4.925000e+001  3.342990e+002
      vertex  5.615000e+001 -4.925000e+001  3.342990e+002
      vertex  5.615000e+001 -4.870096e+001  3.337500e+002
    endloop
  endfacet
  facet normal  0.000000e+000 -7.071092e-001 -7.071043e-001
    outer loop
      vertex  6.000000e+001 -4.925000e+001  3.342990e+002
      vertex  5.615000e+001 -4.870096e+001  3.337500e+002
      vertex  6.000000e+001 -4.870096e+001  3.337500e+002
    endloop
  endfacet
  facet normal  -0.000000e+000 -9.659258e-001 -2.588193e-001
    outer loop
      vertex  6.000000e+001 -4.870096e+001  3.337500e+002
      vertex  5.615000e+001 -4.870096e+001  3.337500e+002
      vertex  5.615000e+001 -4.850000e+001  3.330000e+002
    endloop
  endfacet
  facet normal  0.000000e+000 -9.659258e-001 -2.588193e-001
    outer loop
      vertex  6.000000e+001 -4.870096e+001  3.337500e+002
      vertex  5.615000e+001 -4.850000e+001  3.330000e+002
      vertex  6.000000e+001 -4.850000e+001  3.330000e+002
    endloop
  endfacet
  facet normal  -0.000000e+000 -2.588147e-001 -9.659270e-001
    outer loop
      vertex  5.615000e+001 -4.925000e+001  3.342990e+002
      vertex  6.000000e+001 -5.000000e+001  3.345000e+002
      vertex  5.615000e+001 -5.000000e+001  3.345000e+002
    endloop
  endfacet
  facet normal  0.000000e+000  2.588147e-001 -9.659270e-001
    outer loop
      vertex  5.615000e+001 -5.000000e+001  3.345000e+002
      vertex  6.000000e+001 -5.000000e+001  3.345000e+002
      vertex  6.000000e+001 -5.075000e+001  3.342990e+002
    endloop
  endfacet
  facet normal  0.000000e+000  2.588147e-001 -9.659270e-001
    outer loop
      vertex  5.615000e+001 -5.000000e+001  3.345000e+002
      vertex  6.000000e+001 -5.075000e+001  3.342990e+002
      vertex  5.615000e+001 -5.075000e+001  3.342990e+002
    endloop
  endfacet
  facet normal  0.000000e+000  7.071092e-001 -7.071043e-001
    outer loop
      vertex  5.615000e+001 -5.075000e+001  3.342990e+002
      vertex  6.000000e+001 -5.075000e+001  3.342990e+002
      vertex  6.000000e+001 -5.129904e+001  3.337500e+002
    endloop
  endfacet
  facet normal  0.000000e+000  7.071092e-001 -7.071043e-001
    outer loop
      vertex  5.615000e+001 -5.075000e+001  3.342990e+002
      vertex  6.000000e+001 -5.129904e+001  3.337500e+002
      vertex  5.615000e+001 -5.129904e+001  3.337500e+002
    endloop
  endfacet
  facet normal  0.000000e+000  9.659258e-001 -2.588193e-001
    outer loop
      vertex  5.615000e+001 -5.129904e+001  3.337500e+002
      vertex  6.000000e+001 -5.129904e+001  3.337500e+002
      vertex  6.000000e+001 -5.150000e+001  3.330000e+002
    endloop
  endfacet
  facet normal  0.000000e+000  9.659258e-001 -2.588193e-001
    outer loop
      vertex  5.615000e+001 -5.129904e+001  3.337500e+002
      vertex  6.000000e+001 -5.150000e+001  3.330000e+002
      vertex  5.615000e+001 -5.150000e+001  3.330000e+002
    endloop
  endfacet
  facet normal  0.000000e+000  1.000000e+000  0.000000e+000
    outer loop
      vertex  4.870096e+001 -5.615000e+001  3.382500e+002
      vertex  4.925000e+001 -5.615000e+001  3.377010e+002
      vertex  5.000000e+001 -5.615000e+001  3.065000e+002
    endloop
  endfacet
  facet normal  0.000000e+000  1.000000e+000  0.000000e+000
    outer loop
      vertex  4.925000e+001 -5.615000e+001  3.377010e+002
      vertex  5.000000e+001 -5.615000e+001  3.375000e+002
      vertex  5.000000e+001 -5.615000e+001  3.065000e+002
    endloop
  endfacet
  facet normal  0.000000e+000  9.999999e-001  0.000000e+000
    outer loop
      vertex  5.129904e+001 -5.615000e+001  3.382500e+002
      vertex  5.000000e+001 -5.615000e+001  3.065000e+002
      vertex  5.075000e+001 -5.615000e+001  3.377010e+002
    endloop
  endfacet
  facet normal  0.000000e+000  1.000000e+000  0.000000e+000
    outer loop
      vertex  5.075000e+001 -5.615000e+001  3.377010e+002
      vertex  5.000000e+001 -5.615000e+001  3.065000e+002
      vertex  5.000000e+001 -5.615000e+001  3.375000e+002
    endloop
  endfacet
  facet normal  0.000000e+000  1.000000e+000  0.000000e+000
    outer loop
      vertex  4.300000e+001 -5.615000e+001  2.890000e+002
      vertex  4.300000e+001 -5.615000e+001  3.440000e+002
      vertex  4.850000e+001 -5.615000e+001  3.050000e+002
    endloop
  endfacet
  facet normal  0.000000e+000  9.999999e-001  0.000000e+000
    outer loop
      vertex  4.300000e+001 -5.615000e+001  2.890000e+002
      vertex  4.850000e+001 -5.615000e+001  3.050000e+002
      vertex  4.870096e+001 -5.615000e+001  3.042500e+002
    endloop
  endfacet
  facet normal  0.000000e+000  1.000000e+000  0.000000e+000
    outer loop
      vertex  4.300000e+001 -5.615000e+001  2.890000e+002
      vertex  4.870096e+001 -5.615000e+001  3.042500e+002
      vertex  4.925000e+001 -5.615000e+001  3.037010e+002
    endloop
  endfacet
  facet normal  0.000000e+000  1.000000e+000  0.000000e+000
    outer loop
      vertex  4.300000e+001 -5.615000e+001  2.890000e+002
      vertex  4.925000e+001 -5.615000e+001  3.037010e+002
      vertex  5.000000e+001 -5.615000e+001  3.035000e+002
    endloop
  endfacet
  facet normal  0.000000e+000  1.000000e+000  0.000000e+000
    outer loop
      vertex  4.300000e+001 -5.615000e+001  2.890000e+002
      vertex  5.000000e+001 -5.615000e+001  3.035000e+002
      vertex  5.615000e+001 -5.615000e+001  2.890000e+002
    endloop
  endfacet
  facet normal  0.000000e+000  1.000000e+000  0.000000e+000
    outer loop
      vertex  4.300000e+001 -5.615000e+001  3.440000e+002
      vertex  4.485000e+001 -5.615000e+001  3.440000e+002
      vertex  5.000000e+001 -5.615000e+001  3.405000e+002
    endloop
  endfacet
  facet normal  0.000000e+000  1.000000e+000  0.000000e+000
    outer loop
      vertex  4.300000e+001 -5.615000e+001  3.440000e+002
      vertex  5.000000e+001 -5.615000e+001  3.405000e+002
      vertex  4.925000e+001 -5.615000e+001  3.402990e+002
    endloop
  endfacet
  facet normal  0.000000e+000  1.000000e+000  0.000000e+000
    outer loop
      vertex  4.300000e+001 -5.615000e+001  3.440000e+002
      vertex  4.925000e+001 -5.615000e+001  3.402990e+002
      vertex  4.870096e+001 -5.615000e+001  3.397500e+002
    endloop
  endfacet
  facet normal  0.000000e+000  1.000000e+000  0.000000e+000
    outer loop
      vertex  4.300000e+001 -5.615000e+001  3.440000e+002
      vertex  4.870096e+001 -5.615000e+001  3.397500e+002
      vertex  4.850000e+001 -5.615000e+001  3.390000e+002
    endloop
  endfacet
  facet normal  0.000000e+000  1.000000e+000  0.000000e+000
    outer loop
      vertex  4.300000e+001 -5.615000e+001  3.440000e+002
      vertex  4.850000e+001 -5.615000e+001  3.390000e+002
      vertex  4.870096e+001 -5.615000e+001  3.382500e+002
    endloop
  endfacet
  facet normal  0.000000e+000  1.000000e+000  0.000000e+000
    outer loop
      vertex  4.300000e+001 -5.615000e+001  3.440000e+002
      vertex  4.870096e+001 -5.615000e+001  3.382500e+002
      vertex  5.000000e+001 -5.615000e+001  3.065000e+002
    endloop
  endfacet
  facet normal  0.000000e+000  1.000000e+000  0.000000e+000
    outer loop
      vertex  4.300000e+001 -5.615000e+001  3.440000e+002
      vertex  5.000000e+001 -5.615000e+001  3.065000e+002
      vertex  4.925000e+001 -5.615000e+001  3.062990e+002
    endloop
  endfacet
  facet normal  0.000000e+000  1.000000e+000  0.000000e+000
    outer loop
      vertex  4.300000e+001 -5.615000e+001  3.440000e+002
      vertex  4.925000e+001 -5.615000e+001  3.062990e+002
      vertex  4.870096e+001 -5.615000e+001  3.057500e+002
    endloop
  endfacet
  facet normal  0.000000e+000  9.999999e-001  0.000000e+000
    outer loop
      vertex  4.300000e+001 -5.615000e+001  3.440000e+002
      vertex  4.870096e+001 -5.615000e+001  3.057500e+002
      vertex  4.850000e+001 -5.615000e+001  3.050000e+002
    endloop
  endfacet
  facet normal  0.000000e+000  1.000000e+000  -0.000000e+000
    outer loop
      vertex  5.615000e+001 -5.615000e+001  3.490000e+002
      vertex  5.150000e+001 -5.615000e+001  3.050000e+002
      vertex  5.129904e+001 -5.615000e+001  3.057500e+002
    endloop
  endfacet
  facet normal  0.000000e+000  9.999999e-001  -0.000000e+000
    outer loop
      vertex  5.615000e+001 -5.615000e+001  3.490000e+002
      vertex  5.129904e+001 -5.615000e+001  3.057500e+002
      vertex  5.075000e+001 -5.615000e+001  3.062990e+002
    endloop
  endfacet
  facet normal  0.000000e+000  1.000000e+000  -0.000000e+000
    outer loop
      vertex  5.615000e+001 -5.615000e+001  3.490000e+002
      vertex  5.075000e+001 -5.615000e+001  3.062990e+002
      vertex  5.000000e+001 -5.615000e+001  3.065000e+002
    endloop
  endfacet
  facet normal  0.000000e+000  1.000000e+000  0.000000e+000
    outer loop
      vertex  5.615000e+001 -5.615000e+001  3.490000e+002
      vertex  5.000000e+001 -5.615000e+001  3.065000e+002
      vertex  5.129904e+001 -5.615000e+001  3.382500e+002
    endloop
  endfacet
  facet normal  0.000000e+000  9.999999e-001  0.000000e+000
    outer loop
      vertex  5.615000e+001 -5.615000e+001  3.490000e+002
      vertex  5.129904e+001 -5.615000e+001  3.382500e+002
      vertex  5.150000e+001 -5.615000e+001  3.390000e+002
    endloop
  endfacet
  facet normal  0.000000e+000  1.000000e+000  -0.000000e+000
    outer loop
      vertex  5.615000e+001 -5.615000e+001  3.490000e+002
      vertex  5.150000e+001 -5.615000e+001  3.390000e+002
      vertex  5.129904e+001 -5.615000e+001  3.397500e+002
    endloop
  endfacet
  facet normal  0.000000e+000  1.000000e+000  -0.000000e+000
    outer loop
      vertex  5.615000e+001 -5.615000e+001  3.490000e+002
      vertex  5.129904e+001 -5.615000e+001  3.397500e+002
      vertex  5.075000e+001 -5.615000e+001  3.402990e+002
    endloop
  endfacet
  facet normal  0.000000e+000  1.000000e+000  -0.000000e+000
    outer loop
      vertex  5.615000e+001 -5.615000e+001  3.490000e+002
      vertex  5.075000e+001 -5.615000e+001  3.402990e+002
      vertex  5.000000e+001 -5.615000e+001  3.405000e+002
    endloop
  endfacet
  facet normal  0.000000e+000  1.000000e+000  -0.000000e+000
    outer loop
      vertex  5.615000e+001 -5.615000e+001  3.490000e+002
      vertex  5.000000e+001 -5.615000e+001  3.405000e+002
      vertex  4.485000e+001 -5.615000e+001  3.440000e+002
    endloop
  endfacet
  facet normal  0.000000e+000  9.999999e-001  0.000000e+000
    outer loop
      vertex  5.615000e+001 -5.615000e+001  3.490000e+002
      vertex  4.485000e+001 -5.615000e+001  3.440000e+002
      vertex  4.485000e+001 -5.615000e+001  3.490000e+002
    endloop
  endfacet
  facet normal  -0.000000e+000  1.000000e+000  0.000000e+000
    outer loop
      vertex  5.615000e+001 -5.615000e+001  2.890000e+002
      vertex  5.000000e+001 -5.615000e+001  3.035000e+002
      vertex  5.075000e+001 -5.615000e+001  3.037010e+002
    endloop
  endfacet
  facet normal  -0.000000e+000  1.000000e+000  0.000000e+000
    outer loop
      vertex  5.615000e+001 -5.615000e+001  2.890000e+002
      vertex  5.075000e+001 -5.615000e+001  3.037010e+002
      vertex  5.129904e+001 -5.615000e+001  3.042500e+002
    endloop
  endfacet
  facet normal  -0.000000e+000  9.999999e-001  0.000000e+000
    outer loop
      vertex  5.615000e+001 -5.615000e+001  2.890000e+002
      vertex  5.129904e+001 -5.615000e+001  3.042500e+002
      vertex  5.150000e+001 -5.615000e+001  3.050000e+002
    endloop
  endfacet
  facet normal  -0.000000e+000  1.000000e+000  0.000000e+000
    outer loop
      vertex  5.615000e+001 -5.615000e+001  2.890000e+002
      vertex  5.150000e+001 -5.615000e+001  3.050000e+002
      vertex  5.615000e+001 -5.615000e+001  3.490000e+002
    endloop
  endfacet
  facet normal  0.000000e+000 -1.000000e+000  0.000000e+000
    outer loop
      vertex  5.000000e+001 -6.000000e+001  3.375000e+002
      vertex  5.075000e+001 -6.000000e+001  3.062990e+002
      vertex  5.129904e+001 -6.000000e+001  3.057500e+002
    endloop
  endfacet
  facet normal  0.000000e+000 -1.000000e+000  0.000000e+000
    outer loop
      vertex  5.000000e+001 -6.000000e+001  3.375000e+002
      vertex  5.000000e+001 -6.000000e+001  3.065000e+002
      vertex  5.075000e+001 -6.000000e+001  3.062990e+002
    endloop
  endfacet
  facet normal  0.000000e+000 -9.999999e-001  0.000000e+000
    outer loop
      vertex  4.925000e+001 -6.000000e+001  3.062990e+002
      vertex  5.000000e+001 -6.000000e+001  3.375000e+002
      vertex  4.870096e+001 -6.000000e+001  3.057500e+002
    endloop
  endfacet
  facet normal  0.000000e+000 -1.000000e+000  -0.000000e+000
    outer loop
      vertex  5.000000e+001 -6.000000e+001  3.065000e+002
      vertex  5.000000e+001 -6.000000e+001  3.375000e+002
      vertex  4.925000e+001 -6.000000e+001  3.062990e+002
    endloop
  endfacet
  facet normal  0.000000e+000 -9.999999e-001  0.000000e+000
    outer loop
      vertex  4.300000e+001 -6.000000e+001  3.490000e+002
      vertex  4.300000e+001 -6.000000e+001  2.890000e+002
      vertex  4.850000e+001 -6.000000e+001  3.390000e+002
    endloop
  endfacet
  facet normal  0.000000e+000 -1.000000e+000  0.000000e+000
    outer loop
      vertex  4.300000e+001 -6.000000e+001  3.490000e+002
      vertex  4.850000e+001 -6.000000e+001  3.390000e+002
      vertex  4.870096e+001 -6.000000e+001  3.397500e+002
    endloop
  endfacet
  facet normal  0.000000e+000 -1.000000e+000  0.000000e+000
    outer loop
      vertex  4.300000e+001 -6.000000e+001  3.490000e+002
      vertex  4.870096e+001 -6.000000e+001  3.397500e+002
      vertex  4.925000e+001 -6.000000e+001  3.402990e+002
    endloop
  endfacet
  facet normal  0.000000e+000 -1.000000e+000  0.000000e+000
    outer loop
      vertex  4.300000e+001 -6.000000e+001  3.490000e+002
      vertex  4.925000e+001 -6.000000e+001  3.402990e+002
      vertex  5.000000e+001 -6.000000e+001  3.405000e+002
    endloop
  endfacet
  facet normal  0.000000e+000 -1.000000e+000  0.000000e+000
    outer loop
      vertex  4.300000e+001 -6.000000e+001  3.490000e+002
      vertex  5.000000e+001 -6.000000e+001  3.405000e+002
      vertex  4.000000e+001 -6.000000e+001  3.540000e+002
    endloop
  endfacet
  facet normal  0.000000e+000 -1.000000e+000  0.000000e+000
    outer loop
      vertex  4.300000e+001 -6.000000e+001  3.490000e+002
      vertex  4.000000e+001 -6.000000e+001  3.540000e+002
      vertex  4.000000e+001 -6.000000e+001  3.490000e+002
    endloop
  endfacet
  facet normal  0.000000e+000 -1.000000e+000  0.000000e+000
    outer loop
      vertex  6.000000e+001 -6.000000e+001  3.540000e+002
      vertex  4.000000e+001 -6.000000e+001  3.540000e+002
      vertex  5.000000e+001 -6.000000e+001  3.405000e+002
    endloop
  endfacet
  facet normal  0.000000e+000 -1.000000e+000  0.000000e+000
    outer loop
      vertex  6.000000e+001 -6.000000e+001  3.540000e+002
      vertex  5.000000e+001 -6.000000e+001  3.405000e+002
      vertex  5.075000e+001 -6.000000e+001  3.402990e+002
    endloop
  endfacet
  facet normal  0.000000e+000 -1.000000e+000  0.000000e+000
    outer loop
      vertex  6.000000e+001 -6.000000e+001  3.540000e+002
      vertex  5.075000e+001 -6.000000e+001  3.402990e+002
      vertex  5.129904e+001 -6.000000e+001  3.397500e+002
    endloop
  endfacet
  facet normal  0.000000e+000 -1.000000e+000  0.000000e+000
    outer loop
      vertex  6.000000e+001 -6.000000e+001  3.540000e+002
      vertex  5.129904e+001 -6.000000e+001  3.397500e+002
      vertex  5.150000e+001 -6.000000e+001  3.390000e+002
    endloop
  endfacet
  facet normal  0.000000e+000 -1.000000e+000  0.000000e+000
    outer loop
      vertex  6.000000e+001 -6.000000e+001  3.540000e+002
      vertex  5.150000e+001 -6.000000e+001  3.390000e+002
      vertex  6.000000e+001 -6.000000e+001  2.890000e+002
    endloop
  endfacet
  facet normal  0.000000e+000 -1.000000e+000  -0.000000e+000
    outer loop
      vertex  6.000000e+001 -6.000000e+001  2.890000e+002
      vertex  5.150000e+001 -6.000000e+001  3.390000e+002
      vertex  5.129904e+001 -6.000000e+001  3.382500e+002
    endloop
  endfacet
  facet normal  0.000000e+000 -1.000000e+000  -0.000000e+000
    outer loop
      vertex  6.000000e+001 -6.000000e+001  2.890000e+002
      vertex  5.129904e+001 -6.000000e+001  3.382500e+002
      vertex  5.075000e+001 -6.000000e+001  3.377010e+002
    endloop
  endfacet
  facet normal  0.000000e+000 -1.000000e+000  -0.000000e+000
    outer loop
      vertex  6.000000e+001 -6.000000e+001  2.890000e+002
      vertex  5.075000e+001 -6.000000e+001  3.377010e+002
      vertex  5.000000e+001 -6.000000e+001  3.375000e+002
    endloop
  endfacet
  facet normal  0.000000e+000 -9.999999e-001  0.000000e+000
    outer loop
      vertex  6.000000e+001 -6.000000e+001  2.890000e+002
      vertex  5.000000e+001 -6.000000e+001  3.375000e+002
      vertex  5.129904e+001 -6.000000e+001  3.057500e+002
    endloop
  endfacet
  facet normal  0.000000e+000 -1.000000e+000  0.000000e+000
    outer loop
      vertex  6.000000e+001 -6.000000e+001  2.890000e+002
      vertex  5.129904e+001 -6.000000e+001  3.057500e+002
      vertex  5.150000e+001 -6.000000e+001  3.050000e+002
    endloop
  endfacet
  facet normal  0.000000e+000 -9.999999e-001  -0.000000e+000
    outer loop
      vertex  6.000000e+001 -6.000000e+001  2.890000e+002
      vertex  5.150000e+001 -6.000000e+001  3.050000e+002
      vertex  5.129904e+001 -6.000000e+001  3.042500e+002
    endloop
  endfacet
  facet normal  0.000000e+000 -9.999999e-001  -0.000000e+000
    outer loop
      vertex  6.000000e+001 -6.000000e+001  2.890000e+002
      vertex  5.129904e+001 -6.000000e+001  3.042500e+002
      vertex  5.075000e+001 -6.000000e+001  3.037010e+002
    endloop
  endfacet
  facet normal  0.000000e+000 -1.000000e+000  -0.000000e+000
    outer loop
      vertex  6.000000e+001 -6.000000e+001  2.890000e+002
      vertex  5.075000e+001 -6.000000e+001  3.037010e+002
      vertex  5.000000e+001 -6.000000e+001  3.035000e+002
    endloop
  endfacet
  facet normal  0.000000e+000 -1.000000e+000  -0.000000e+000
    outer loop
      vertex  6.000000e+001 -6.000000e+001  2.890000e+002
      vertex  5.000000e+001 -6.000000e+001  3.035000e+002
      vertex  4.300000e+001 -6.000000e+001  2.890000e+002
    endloop
  endfacet
  facet normal  -0.000000e+000 -1.000000e+000  0.000000e+000
    outer loop
      vertex  4.300000e+001 -6.000000e+001  2.890000e+002
      vertex  5.000000e+001 -6.000000e+001  3.035000e+002
      vertex  4.925000e+001 -6.000000e+001  3.037010e+002
    endloop
  endfacet
  facet normal  -0.000000e+000 -1.000000e+000  0.000000e+000
    outer loop
      vertex  4.300000e+001 -6.000000e+001  2.890000e+002
      vertex  4.925000e+001 -6.000000e+001  3.037010e+002
      vertex  4.870096e+001 -6.000000e+001  3.042500e+002
    endloop
  endfacet
  facet normal  -0.000000e+000 -9.999999e-001  0.000000e+000
    outer loop
      vertex  4.300000e+001 -6.000000e+001  2.890000e+002
      vertex  4.870096e+001 -6.000000e+001  3.042500e+002
      vertex  4.850000e+001 -6.000000e+001  3.050000e+002
    endloop
  endfacet
  facet normal  -0.000000e+000 -1.000000e+000  0.000000e+000
    outer loop
      vertex  4.300000e+001 -6.000000e+001  2.890000e+002
      vertex  4.850000e+001 -6.000000e+001  3.050000e+002
      vertex  4.870096e+001 -6.000000e+001  3.057500e+002
    endloop
  endfacet
  facet normal  -0.000000e+000 -1.000000e+000  0.000000e+000
    outer loop
      vertex  4.300000e+001 -6.000000e+001  2.890000e+002
      vertex  4.870096e+001 -6.000000e+001  3.057500e+002
      vertex  5.000000e+001 -6.000000e+001  3.375000e+002
    endloop
  endfacet
  facet normal  -0.000000e+000 -1.000000e+000  0.000000e+000
    outer loop
      vertex  4.300000e+001 -6.000000e+001  2.890000e+002
      vertex  5.000000e+001 -6.000000e+001  3.375000e+002
      vertex  4.925000e+001 -6.000000e+001  3.377010e+002
    endloop
  endfacet
  facet normal  -0.000000e+000 -1.000000e+000  0.000000e+000
    outer loop
      vertex  4.300000e+001 -6.000000e+001  2.890000e+002
      vertex  4.925000e+001 -6.000000e+001  3.377010e+002
      vertex  4.870096e+001 -6.000000e+001  3.382500e+002
    endloop
  endfacet
  facet normal  -0.000000e+000 -1.000000e+000  0.000000e+000
    outer loop
      vertex  4.300000e+001 -6.000000e+001  2.890000e+002
      vertex  4.870096e+001 -6.000000e+001  3.382500e+002
      vertex  4.850000e+001 -6.000000e+001  3.390000e+002
    endloop
  endfacet
  facet normal  2.588147e-001  0.000000e+000  9.659270e-001
    outer loop
      vertex  5.000000e+001 -6.000000e+001  3.035000e+002
      vertex  4.925000e+001 -5.615000e+001  3.037010e+002
      vertex  4.925000e+001 -6.000000e+001  3.037010e+002
    endloop
  endfacet
  facet normal  7.071092e-001  -0.000000e+000  7.071043e-001
    outer loop
      vertex  4.925000e+001 -6.000000e+001  3.037010e+002
      vertex  4.925000e+001 -5.615000e+001  3.037010e+002
      vertex  4.870096e+001 -5.615000e+001  3.042500e+002
    endloop
  endfacet
  facet normal  7.071092e-001  0.000000e+000  7.071043e-001
    outer loop
      vertex  4.925000e+001 -6.000000e+001  3.037010e+002
      vertex  4.870096e+001 -5.615000e+001  3.042500e+002
      vertex  4.870096e+001 -6.000000e+001  3.042500e+002
    endloop
  endfacet
  facet normal  9.659258e-001  -0.000000e+000  2.588193e-001
    outer loop
      vertex  4.870096e+001 -6.000000e+001  3.042500e+002
      vertex  4.870096e+001 -5.615000e+001  3.042500e+002
      vertex  4.850000e+001 -5.615000e+001  3.050000e+002
    endloop
  endfacet
  facet normal  9.659258e-001  0.000000e+000  2.588193e-001
    outer loop
      vertex  4.870096e+001 -6.000000e+001  3.042500e+002
      vertex  4.850000e+001 -5.615000e+001  3.050000e+002
      vertex  4.850000e+001 -6.000000e+001  3.050000e+002
    endloop
  endfacet
  facet normal  2.588147e-001  -0.000000e+000  9.659270e-001
    outer loop
      vertex  4.925000e+001 -5.615000e+001  3.037010e+002
      vertex  5.000000e+001 -6.000000e+001  3.035000e+002
      vertex  5.000000e+001 -5.615000e+001  3.035000e+002
    endloop
  endfacet
  facet normal -2.588147e-001  0.000000e+000  9.659270e-001
    outer loop
      vertex  5.000000e+001 -5.615000e+001  3.035000e+002
      vertex  5.000000e+001 -6.000000e+001  3.035000e+002
      vertex  5.075000e+001 -6.000000e+001  3.037010e+002
    endloop
  endfacet
  facet normal -2.588147e-001  0.000000e+000  9.659270e-001
    outer loop
      vertex  5.000000e+001 -5.615000e+001  3.035000e+002
      vertex  5.075000e+001 -6.000000e+001  3.037010e+002
      vertex  5.075000e+001 -5.615000e+001  3.037010e+002
    endloop
  endfacet
  facet normal -7.071092e-001  0.000000e+000  7.071043e-001
    outer loop
      vertex  5.075000e+001 -5.615000e+001  3.037010e+002
      vertex  5.075000e+001 -6.000000e+001  3.037010e+002
      vertex  5.129904e+001 -6.000000e+001  3.042500e+002
    endloop
  endfacet
  facet normal -7.071092e-001  0.000000e+000  7.071043e-001
    outer loop
      vertex  5.075000e+001 -5.615000e+001  3.037010e+002
      vertex  5.129904e+001 -6.000000e+001  3.042500e+002
      vertex  5.129904e+001 -5.615000e+001  3.042500e+002
    endloop
  endfacet
  facet normal -9.659258e-001  0.000000e+000  2.588193e-001
    outer loop
      vertex  5.129904e+001 -5.615000e+001  3.042500e+002
      vertex  5.129904e+001 -6.000000e+001  3.042500e+002
      vertex  5.150000e+001 -6.000000e+001  3.050000e+002
    endloop
  endfacet
  facet normal -9.659258e-001  0.000000e+000  2.588193e-001
    outer loop
      vertex  5.129904e+001 -5.615000e+001  3.042500e+002
      vertex  5.150000e+001 -6.000000e+001  3.050000e+002
      vertex  5.150000e+001 -5.615000e+001  3.050000e+002
    endloop
  endfacet
  facet normal -2.588147e-001  -0.000000e+000 -9.659270e-001
    outer loop
      vertex  5.000000e+001 -6.000000e+001  3.065000e+002
      vertex  5.075000e+001 -5.615000e+001  3.062990e+002
      vertex  5.075000e+001 -6.000000e+001  3.062990e+002
    endloop
  endfacet
  facet normal -7.071092e-001  0.000000e+000 -7.071043e-001
    outer loop
      vertex  5.075000e+001 -6.000000e+001  3.062990e+002
      vertex  5.075000e+001 -5.615000e+001  3.062990e+002
      vertex  5.129904e+001 -5.615000e+001  3.057500e+002
    endloop
  endfacet
  facet normal -7.071092e-001  -0.000000e+000 -7.071043e-001
    outer loop
      vertex  5.075000e+001 -6.000000e+001  3.062990e+002
      vertex  5.129904e+001 -5.615000e+001  3.057500e+002
      vertex  5.129904e+001 -6.000000e+001  3.057500e+002
    endloop
  endfacet
  facet normal -9.659258e-001  0.000000e+000 -2.588193e-001
    outer loop
      vertex  5.129904e+001 -6.000000e+001  3.057500e+002
      vertex  5.129904e+001 -5.615000e+001  3.057500e+002
      vertex  5.150000e+001 -5.615000e+001  3.050000e+002
    endloop
  endfacet
  facet normal -9.659258e-001  -0.000000e+000 -2.588193e-001
    outer loop
      vertex  5.129904e+001 -6.000000e+001  3.057500e+002
      vertex  5.150000e+001 -5.615000e+001  3.050000e+002
      vertex  5.150000e+001 -6.000000e+001  3.050000e+002
    endloop
  endfacet
  facet normal -2.588147e-001  0.000000e+000 -9.659270e-001
    outer loop
      vertex  5.075000e+001 -5.615000e+001  3.062990e+002
      vertex  5.000000e+001 -6.000000e+001  3.065000e+002
      vertex  5.000000e+001 -5.615000e+001  3.065000e+002
    endloop
  endfacet
  facet normal  2.588147e-001  0.000000e+000 -9.659270e-001
    outer loop
      vertex  5.000000e+001 -5.615000e+001  3.065000e+002
      vertex  5.000000e+001 -6.000000e+001  3.065000e+002
      vertex  4.925000e+001 -6.000000e+001  3.062990e+002
    endloop
  endfacet
  facet normal  2.588147e-001  0.000000e+000 -9.659270e-001
    outer loop
      vertex  5.000000e+001 -5.615000e+001  3.065000e+002
      vertex  4.925000e+001 -6.000000e+001  3.062990e+002
      vertex  4.925000e+001 -5.615000e+001  3.062990e+002
    endloop
  endfacet
  facet normal  7.071092e-001  0.000000e+000 -7.071043e-001
    outer loop
      vertex  4.925000e+001 -5.615000e+001  3.062990e+002
      vertex  4.925000e+001 -6.000000e+001  3.062990e+002
      vertex  4.870096e+001 -6.000000e+001  3.057500e+002
    endloop
  endfacet
  facet normal  7.071092e-001  0.000000e+000 -7.071043e-001
    outer loop
      vertex  4.925000e+001 -5.615000e+001  3.062990e+002
      vertex  4.870096e+001 -6.000000e+001  3.057500e+002
      vertex  4.870096e+001 -5.615000e+001  3.057500e+002
    endloop
  endfacet
  facet normal  9.659258e-001  0.000000e+000 -2.588193e-001
    outer loop
      vertex  4.870096e+001 -5.615000e+001  3.057500e+002
      vertex  4.870096e+001 -6.000000e+001  3.057500e+002
      vertex  4.850000e+001 -6.000000e+001  3.050000e+002
    endloop
  endfacet
  facet normal  9.659258e-001  0.000000e+000 -2.588193e-001
    outer loop
      vertex  4.870096e+001 -5.615000e+001  3.057500e+002
      vertex  4.850000e+001 -6.000000e+001  3.050000e+002
      vertex  4.850000e+001 -5.615000e+001  3.050000e+002
    endloop
  endfacet
  facet normal  2.588147e-001  0.000000e+000  9.659270e-001
    outer loop
      vertex  5.000000e+001 -6.000000e+001  3.375000e+002
      vertex  4.925000e+001 -5.615000e+001  3.377010e+002
      vertex  4.925000e+001 -6.000000e+001  3.377010e+002
    endloop
  endfacet
  facet normal  7.071092e-001  -0.000000e+000  7.071043e-001
    outer loop
      vertex  4.925000e+001 -6.000000e+001  3.377010e+002
      vertex  4.925000e+001 -5.615000e+001  3.377010e+002
      vertex  4.870096e+001 -5.615000e+001  3.382500e+002
    endloop
  endfacet
  facet normal  7.071092e-001  0.000000e+000  7.071043e-001
    outer loop
      vertex  4.925000e+001 -6.000000e+001  3.377010e+002
      vertex  4.870096e+001 -5.615000e+001  3.382500e+002
      vertex  4.870096e+001 -6.000000e+001  3.382500e+002
    endloop
  endfacet
  facet normal  9.659258e-001  -0.000000e+000  2.588193e-001
    outer loop
      vertex  4.870096e+001 -6.000000e+001  3.382500e+002
      vertex  4.870096e+001 -5.615000e+001  3.382500e+002
      vertex  4.850000e+001 -5.615000e+001  3.390000e+002
    endloop
  endfacet
  facet normal  9.659258e-001  0.000000e+000  2.588193e-001
    outer loop
      vertex  4.870096e+001 -6.000000e+001  3.382500e+002
      vertex  4.850000e+001 -5.615000e+001  3.390000e+002
      vertex  4.850000e+001 -6.000000e+001  3.390000e+002
    endloop
  endfacet
  facet normal  2.588147e-001  -0.000000e+000  9.659270e-001
    outer loop
      vertex  4.925000e+001 -5.615000e+001  3.377010e+002
      vertex  5.000000e+001 -6.000000e+001  3.375000e+002
      vertex  5.000000e+001 -5.615000e+001  3.375000e+002
    endloop
  endfacet
  facet normal -2.588147e-001  0.000000e+000  9.659270e-001
    outer loop
      vertex  5.000000e+001 -5.615000e+001  3.375000e+002
      vertex  5.000000e+001 -6.000000e+001  3.375000e+002
      vertex  5.075000e+001 -6.000000e+001  3.377010e+002
    endloop
  endfacet
  facet normal -2.588147e-001  0.000000e+000  9.659270e-001
    outer loop
      vertex  5.000000e+001 -5.615000e+001  3.375000e+002
      vertex  5.075000e+001 -6.000000e+001  3.377010e+002
      vertex  5.075000e+001 -5.615000e+001  3.377010e+002
    endloop
  endfacet
  facet normal -7.071092e-001  0.000000e+000  7.071043e-001
    outer loop
      vertex  5.075000e+001 -5.615000e+001  3.377010e+002
      vertex  5.075000e+001 -6.000000e+001  3.377010e+002
      vertex  5.129904e+001 -6.000000e+001  3.382500e+002
    endloop
  endfacet
  facet normal -7.071092e-001  0.000000e+000  7.071043e-001
    outer loop
      vertex  5.075000e+001 -5.615000e+001  3.377010e+002
      vertex  5.129904e+001 -6.000000e+001  3.382500e+002
      vertex  5.129904e+001 -5.615000e+001  3.382500e+002
    endloop
  endfacet
  facet normal -9.659258e-001  0.000000e+000  2.588193e-001
    outer loop
      vertex  5.129904e+001 -5.615000e+001  3.382500e+002
      vertex  5.129904e+001 -6.000000e+001  3.382500e+002
      vertex  5.150000e+001 -6.000000e+001  3.390000e+002
    endloop
  endfacet
  facet normal -9.659258e-001  0.000000e+000  2.588193e-001
    outer loop
      vertex  5.129904e+001 -5.615000e+001  3.382500e+002
      vertex  5.150000e+001 -6.000000e+001  3.390000e+002
      vertex  5.150000e+001 -5.615000e+001  3.390000e+002
    endloop
  endfacet
  facet normal -2.588147e-001  -0.000000e+000 -9.659270e-001
    outer loop
      vertex  5.000000e+001 -6.000000e+001  3.405000e+002
      vertex  5.075000e+001 -5.615000e+001  3.402990e+002
      vertex  5.075000e+001 -6.000000e+001  3.402990e+002
    endloop
  endfacet
  facet normal -7.071092e-001  0.000000e+000 -7.071043e-001
    outer loop
      vertex  5.075000e+001 -6.000000e+001  3.402990e+002
      vertex  5.075000e+001 -5.615000e+001  3.402990e+002
      vertex  5.129904e+001 -5.615000e+001  3.397500e+002
    endloop
  endfacet
  facet normal -7.071092e-001  -0.000000e+000 -7.071043e-001
    outer loop
      vertex  5.075000e+001 -6.000000e+001  3.402990e+002
      vertex  5.129904e+001 -5.615000e+001  3.397500e+002
      vertex  5.129904e+001 -6.000000e+001  3.397500e+002
    endloop
  endfacet
  facet normal -9.659258e-001  0.000000e+000 -2.588193e-001
    outer loop
      vertex  5.129904e+001 -6.000000e+001  3.397500e+002
      vertex  5.129904e+001 -5.615000e+001  3.397500e+002
      vertex  5.150000e+001 -5.615000e+001  3.390000e+002
    endloop
  endfacet
  facet normal -9.659258e-001  -0.000000e+000 -2.588193e-001
    outer loop
      vertex  5.129904e+001 -6.000000e+001  3.397500e+002
      vertex  5.150000e+001 -5.615000e+001  3.390000e+002
      vertex  5.150000e+001 -6.000000e+001  3.390000e+002
    endloop
  endfacet
  facet normal -2.588147e-001  0.000000e+000 -9.659270e-001
    outer loop
      vertex  5.075000e+001 -5.615000e+001  3.402990e+002
      vertex  5.000000e+001 -6.000000e+001  3.405000e+002
      vertex  5.000000e+001 -5.615000e+001  3.405000e+002
    endloop
  endfacet
  facet normal  2.588147e-001  0.000000e+000 -9.659270e-001
    outer loop
      vertex  5.000000e+001 -5.615000e+001  3.405000e+002
      vertex  5.000000e+001 -6.000000e+001  3.405000e+002
      vertex  4.925000e+001 -6.000000e+001  3.402990e+002
    endloop
  endfacet
  facet normal  2.588147e-001  0.000000e+000 -9.659270e-001
    outer loop
      vertex  5.000000e+001 -5.615000e+001  3.405000e+002
      vertex  4.925000e+001 -6.000000e+001  3.402990e+002
      vertex  4.925000e+001 -5.615000e+001  3.402990e+002
    endloop
  endfacet
  facet normal  7.071092e-001  0.000000e+000 -7.071043e-001
    outer loop
      vertex  4.925000e+001 -5.615000e+001  3.402990e+002
      vertex  4.925000e+001 -6.000000e+001  3.402990e+002
      vertex  4.870096e+001 -6.000000e+001  3.397500e+002
    endloop
  endfacet
  facet normal  7.071092e-001  0.000000e+000 -7.071043e-001
    outer loop
      vertex  4.925000e+001 -5.615000e+001  3.402990e+002
      vertex  4.870096e+001 -6.000000e+001  3.397500e+002
      vertex  4.870096e+001 -5.615000e+001  3.397500e+002
    endloop
  endfacet
  facet normal  9.659258e-001  0.000000e+000 -2.588193e-001
    outer loop
      vertex  4.870096e+001 -5.615000e+001  3.397500e+002
      vertex  4.870096e+001 -6.000000e+001  3.397500e+002
      vertex  4.850000e+001 -6.000000e+001  3.390000e+002
    endloop
  endfacet
  facet normal  9.659258e-001  0.000000e+000 -2.588193e-001
    outer loop
      vertex  4.870096e+001 -5.615000e+001  3.397500e+002
      vertex  4.850000e+001 -6.000000e+001  3.390000e+002
      vertex  4.850000e+001 -5.615000e+001  3.390000e+002
    endloop
  endfacet
  facet normal  0.000000e+000  0.000000e+000  1.000000e+000
    outer loop
      vertex  4.000000e+001 -6.000000e+001  3.540000e+002
      vertex  6.000000e+001 -6.000000e+001  3.540000e+002
      vertex  4.000000e+001 -4.000000e+001  3.540000e+002
    endloop
  endfacet
  facet normal  -0.000000e+000  0.000000e+000  1.000000e+000
    outer loop
      vertex  4.000000e+001 -4.000000e+001  3.540000e+002
      vertex  6.000000e+001 -6.000000e+001  3.540000e+002
      vertex  6.000000e+001 -4.000000e+001  3.540000e+002
    endloop
  endfacet
  facet normal  0.000000e+000  0.000000e+000 -1.000000e+000
    outer loop
      vertex  5.615000e+001 -4.485000e+001  3.490000e+002
      vertex  5.615000e+001 -5.615000e+001  3.490000e+002
      vertex  5.485000e+001 -4.485000e+001  3.490000e+002
    endloop
  endfacet
  facet normal  0.000000e+000  0.000000e+000 -9.999999e-001
    outer loop
      vertex  5.485000e+001 -4.485000e+001  3.490000e+002
      vertex  5.615000e+001 -5.615000e+001  3.490000e+002
      vertex  5.485000e+001 -5.485000e+001  3.490000e+002
    endloop
  endfacet
  facet normal  0.000000e+000  0.000000e+000 -1.000000e+000
    outer loop
      vertex  5.615000e+001 -5.615000e+001  3.490000e+002
      vertex  4.485000e+001 -5.615000e+001  3.490000e+002
      vertex  5.485000e+001 -5.485000e+001  3.490000e+002
    endloop
  endfacet
  facet normal  -0.000000e+000  0.000000e+000 -9.999999e-001
    outer loop
      vertex  5.485000e+001 -5.485000e+001  3.490000e+002
      vertex  4.485000e+001 -5.615000e+001  3.490000e+002
      vertex  4.485000e+001 -5.485000e+001  3.490000e+002
    endloop
  endfacet
  facet normal  0.000000e+000  0.000000e+000 -1.000000e+000
    outer loop
      vertex  4.300000e+001 -5.300000e+001  3.490000e+002
      vertex  4.300000e+001 -6.000000e+001  3.490000e+002
      vertex  4.000000e+001 -6.000000e+001  3.490000e+002
    endloop
  endfacet
  facet normal  0.000000e+000  0.000000e+000 -1.000000e+000
    outer loop
      vertex  4.300000e+001 -5.300000e+001  3.490000e+002
      vertex  4.000000e+001 -6.000000e+001  3.490000e+002
      vertex  4.000000e+001 -4.000000e+001  3.490000e+002
    endloop
  endfacet
  facet normal  0.000000e+000  0.000000e+000 -1.000000e+000
    outer loop
      vertex  4.300000e+001 -5.300000e+001  3.490000e+002
      vertex  4.000000e+001 -4.000000e+001  3.490000e+002
      vertex  5.300000e+001 -4.300000e+001  3.490000e+002
    endloop
  endfacet
  facet normal  0.000000e+000  -0.000000e+000 -1.000000e+000
    outer loop
      vertex  4.300000e+001 -5.300000e+001  3.490000e+002
      vertex  5.300000e+001 -4.300000e+001  3.490000e+002
      vertex  5.300000e+001 -5.300000e+001  3.490000e+002
    endloop
  endfacet
  facet normal  0.000000e+000  0.000000e+000 -1.000000e+000
    outer loop
      vertex  6.000000e+001 -4.300000e+001  3.490000e+002
      vertex  5.300000e+001 -4.300000e+001  3.490000e+002
      vertex  6.000000e+001 -4.000000e+001  3.490000e+002
    endloop
  endfacet
  facet normal  -0.000000e+000  0.000000e+000 -1.000000e+000
    outer loop
      vertex  6.000000e+001 -4.000000e+001  3.490000e+002
      vertex  5.300000e+001 -4.300000e+001  3.490000e+002
      vertex  4.000000e+001 -4.000000e+001  3.490000e+002
    endloop
  endfacet
  facet normal  0.000000e+000  0.000000e+000 -1.000000e+000
    outer loop
      vertex  6.000000e+001 -4.300000e+001  2.890000e+002
      vertex  6.000000e+001 -6.000000e+001  2.890000e+002
      vertex  5.615000e+001 -4.300000e+001  2.890000e+002
    endloop
  endfacet
  facet normal  0.000000e+000  0.000000e+000 -1.000000e+000
    outer loop
      vertex  5.615000e+001 -4.300000e+001  2.890000e+002
      vertex  6.000000e+001 -6.000000e+001  2.890000e+002
      vertex  5.615000e+001 -5.615000e+001  2.890000e+002
    endloop
  endfacet
  facet normal  0.000000e+000  0.000000e+000 -1.000000e+000
    outer loop
      vertex  6.000000e+001 -6.000000e+001  2.890000e+002
      vertex  4.300000e+001 -6.000000e+001  2.890000e+002
      vertex  5.615000e+001 -5.615000e+001  2.890000e+002
    endloop
  endfacet
  facet normal  -0.000000e+000  0.000000e+000 -1.000000e+000
    outer loop
      vertex  5.615000e+001 -5.615000e+001  2.890000e+002
      vertex  4.300000e+001 -6.000000e+001  2.890000e+002
      vertex  4.300000e+001 -5.615000e+001  2.890000e+002
    endloop
  endfacet
  facet normal -1.000000e+000  0.000000e+000  0.000000e+000
    outer loop
      vertex  4.300000e+001 -6.000000e+001  2.890000e+002
      vertex  4.300000e+001 -6.000000e+001  3.490000e+002
      vertex  4.300000e+001 -5.615000e+001  2.890000e+002
    endloop
  endfacet
  facet normal -1.000000e+000  0.000000e+000  0.000000e+000
    outer loop
      vertex  4.300000e+001 -5.615000e+001  2.890000e+002
      vertex  4.300000e+001 -6.000000e+001  3.490000e+002
      vertex  4.300000e+001 -5.615000e+001  3.440000e+002
    endloop
  endfacet
  facet normal -1.000000e+000  -0.000000e+000  0.000000e+000
    outer loop
      vertex  4.300000e+001 -6.000000e+001  3.490000e+002
      vertex  4.300000e+001 -5.300000e+001  3.490000e+002
      vertex  4.300000e+001 -5.615000e+001  3.440000e+002
    endloop
  endfacet
  facet normal -9.999999e-001  0.000000e+000  0.000000e+000
    outer loop
      vertex  4.300000e+001 -5.615000e+001  3.440000e+002
      vertex  4.300000e+001 -5.300000e+001  3.490000e+002
      vertex  4.300000e+001 -5.300000e+001  3.440000e+002
    endloop
  endfacet
  facet normal  0.000000e+000  1.000000e+000  0.000000e+000
    outer loop
      vertex  5.615000e+001 -4.300000e+001  2.890000e+002
      vertex  5.615000e+001 -4.300000e+001  3.440000e+002
      vertex  6.000000e+001 -4.300000e+001  2.890000e+002
    endloop
  endfacet
  facet normal  0.000000e+000  1.000000e+000  -0.000000e+000
    outer loop
      vertex  6.000000e+001 -4.300000e+001  2.890000e+002
      vertex  5.615000e+001 -4.300000e+001  3.440000e+002
      vertex  6.000000e+001 -4.300000e+001  3.490000e+002
    endloop
  endfacet
  facet normal  0.000000e+000  9.999999e-001  0.000000e+000
    outer loop
      vertex  5.615000e+001 -4.300000e+001  3.440000e+002
      vertex  5.300000e+001 -4.300000e+001  3.440000e+002
      vertex  6.000000e+001 -4.300000e+001  3.490000e+002
    endloop
  endfacet
  facet normal  0.000000e+000  1.000000e+000  0.000000e+000
    outer loop
      vertex  6.000000e+001 -4.300000e+001  3.490000e+002
      vertex  5.300000e+001 -4.300000e+001  3.440000e+002
      vertex  5.300000e+001 -4.300000e+001  3.490000e+002
    endloop
  endfacet
  facet normal  -0.000000e+000  -0.000000e+000 -1.000000e+000
    outer loop
      vertex  4.300000e+001 -5.300000e+001  3.440000e+002
      vertex  5.300000e+001 -5.300000e+001  3.440000e+002
      vertex  5.485000e+001 -5.485000e+001  3.440000e+002
    endloop
  endfacet
  facet normal  0.000000e+000  0.000000e+000 -1.000000e+000
    outer loop
      vertex  4.300000e+001 -5.300000e+001  3.440000e+002
      vertex  5.485000e+001 -5.485000e+001  3.440000e+002
      vertex  4.485000e+001 -5.485000e+001  3.440000e+002
    endloop
  endfacet
  facet normal  -0.000000e+000  -0.000000e+000 -1.000000e+000
    outer loop
      vertex  4.300000e+001 -5.300000e+001  3.440000e+002
      vertex  4.485000e+001 -5.485000e+001  3.440000e+002
      vertex  4.485000e+001 -5.615000e+001  3.440000e+002
    endloop
  endfacet
  facet normal  0.000000e+000  0.000000e+000 -1.000000e+000
    outer loop
      vertex  4.300000e+001 -5.300000e+001  3.440000e+002
      vertex  4.485000e+001 -5.615000e+001  3.440000e+002
      vertex  4.300000e+001 -5.615000e+001  3.440000e+002
    endloop
  endfacet
  facet normal  0.000000e+000  0.000000e+000 -1.000000e+000
    outer loop
      vertex  5.485000e+001 -5.485000e+001  3.440000e+002
      vertex  5.300000e+001 -5.300000e+001  3.440000e+002
      vertex  5.485000e+001 -4.485000e+001  3.440000e+002
    endloop
  endfacet
  facet normal  -0.000000e+000  0.000000e+000 -1.000000e+000
    outer loop
      vertex  5.485000e+001 -4.485000e+001  3.440000e+002
      vertex  5.300000e+001 -5.300000e+001  3.440000e+002
      vertex  5.300000e+001 -4.300000e+001  3.440000e+002
    endloop
  endfacet
  facet normal  0.000000e+000  0.000000e+000 -1.000000e+000
    outer loop
      vertex  5.485000e+001 -4.485000e+001  3.440000e+002
      vertex  5.300000e+001 -4.300000e+001  3.440000e+002
      vertex  5.615000e+001 -4.485000e+001  3.440000e+002
    endloop
  endfacet
  facet normal  0.000000e+000  0.000000e+000 -1.000000e+000
    outer loop
      vertex  5.615000e+001 -4.485000e+001  3.440000e+002
      vertex  5.300000e+001 -4.300000e+001  3.440000e+002
      vertex  5.615000e+001 -4.300000e+001  3.440000e+002
    endloop
  endfacet
  facet normal  9.999999e-001  -0.000000e+000  0.000000e+000
    outer loop
      vertex  4.485000e+001 -5.485000e+001  3.490000e+002
      vertex  4.485000e+001 -5.615000e+001  3.490000e+002
      vertex  4.485000e+001 -5.485000e+001  3.440000e+002
    endloop
  endfacet
  facet normal  9.999999e-001  0.000000e+000  0.000000e+000
    outer loop
      vertex  4.485000e+001 -5.485000e+001  3.440000e+002
      vertex  4.485000e+001 -5.615000e+001  3.490000e+002
      vertex  4.485000e+001 -5.615000e+001  3.440000e+002
    endloop
  endfacet
  facet normal  0.000000e+000 -9.999999e-001  0.000000e+000
    outer loop
      vertex  5.615000e+001 -4.485000e+001  3.490000e+002
      vertex  5.485000e+001 -4.485000e+001  3.490000e+002
      vertex  5.615000e+001 -4.485000e+001  3.440000e+002
    endloop
  endfacet
  facet normal  0.000000e+000 -9.999999e-001  0.000000e+000
    outer loop
      vertex  5.615000e+001 -4.485000e+001  3.440000e+002
      vertex  5.485000e+001 -4.485000e+001  3.490000e+002
      vertex  5.485000e+001 -4.485000e+001  3.440000e+002
    endloop
  endfacet
  facet normal  0.000000e+000 -1.000000e+000  -0.000000e+000
    outer loop
      vertex  5.485000e+001 -5.485000e+001  3.440000e+002
      vertex  5.485000e+001 -5.485000e+001  3.490000e+002
      vertex  4.485000e+001 -5.485000e+001  3.440000e+002
    endloop
  endfacet
  facet normal  0.000000e+000 -1.000000e+000  0.000000e+000
    outer loop
      vertex  4.485000e+001 -5.485000e+001  3.440000e+002
      vertex  5.485000e+001 -5.485000e+001  3.490000e+002
      vertex  4.485000e+001 -5.485000e+001  3.490000e+002
    endloop
  endfacet
  facet normal  1.000000e+000  0.000000e+000  0.000000e+000
    outer loop
      vertex  5.485000e+001 -4.485000e+001  3.440000e+002
      vertex  5.485000e+001 -4.485000e+001  3.490000e+002
      vertex  5.485000e+001 -5.485000e+001  3.440000e+002
    endloop
  endfacet
  facet normal  1.000000e+000  0.000000e+000  0.000000e+000
    outer loop
      vertex  5.485000e+001 -5.485000e+001  3.440000e+002
      vertex  5.485000e+001 -4.485000e+001  3.490000e+002
      vertex  5.485000e+001 -5.485000e+001  3.490000e+002
    endloop
  endfacet
  facet normal -1.000000e+000  0.000000e+000  0.000000e+000
    outer loop
      vertex  5.300000e+001 -4.300000e+001  3.440000e+002
      vertex  5.300000e+001 -5.300000e+001  3.440000e+002
      vertex  5.300000e+001 -4.300000e+001  3.490000e+002
    endloop
  endfacet
  facet normal -1.000000e+000  -0.000000e+000  0.000000e+000
    outer loop
      vertex  5.300000e+001 -4.300000e+001  3.490000e+002
      vertex  5.300000e+001 -5.300000e+001  3.440000e+002
      vertex  5.300000e+001 -5.300000e+001  3.490000e+002
    endloop
  endfacet
  facet normal  0.000000e+000  1.000000e+000  0.000000e+000
    outer loop
      vertex  5.300000e+001 -5.300000e+001  3.440000e+002
      vertex  4.300000e+001 -5.300000e+001  3.440000e+002
      vertex  5.300000e+001 -5.300000e+001  3.490000e+002
    endloop
  endfacet
  facet normal  0.000000e+000  1.000000e+000  0.000000e+000
    outer loop
      vertex  5.300000e+001 -5.300000e+001  3.490000e+002
      vertex  4.300000e+001 -5.300000e+001  3.440000e+002
      vertex  4.300000e+001 -5.300000e+001  3.490000e+002
    endloop
  endfacet
  facet normal  0.000000e+000  1.000000e+000  0.000000e+000
    outer loop
      vertex  4.000000e+001 -4.000000e+001  3.540000e+002
      vertex  6.000000e+001 -4.000000e+001  3.540000e+002
      vertex  4.000000e+001 -4.000000e+001  3.490000e+002
    endloop
  endfacet
  facet normal  0.000000e+000  1.000000e+000  0.000000e+000
    outer loop
      vertex  4.000000e+001 -4.000000e+001  3.490000e+002
      vertex  6.000000e+001 -4.000000e+001  3.540000e+002
      vertex  6.000000e+001 -4.000000e+001  3.490000e+002
    endloop
  endfacet
  facet normal -1.000000e+000  0.000000e+000  0.000000e+000
    outer loop
      vertex  4.000000e+001 -4.000000e+001  3.540000e+002
      vertex  4.000000e+001 -4.000000e+001  3.490000e+002
      vertex  4.000000e+001 -6.000000e+001  3.540000e+002
    endloop
  endfacet
  facet normal -1.000000e+000  0.000000e+000  0.000000e+000
    outer loop
      vertex  4.000000e+001 -6.000000e+001  3.540000e+002
      vertex  4.000000e+001 -4.000000e+001  3.490000e+002
      vertex  4.000000e+001 -6.000000e+001  3.490000e+002
    endloop
  endfacet
endsolid CATIA STL
