solid CATIA STL
  facet normal  0.000000e+000  0.000000e+000  1.000000e+000
    outer loop
      vertex -1.140000e+002  0.000000e+000  3.380000e+002
      vertex -1.140000e+002 -7.250000e+000  3.380000e+002
      vertex -1.103719e+002 -3.083309e+000  3.380000e+002
    endloop
  endfacet
  facet normal  0.000000e+000  -0.000000e+000  9.999999e-001
    outer loop
      vertex -1.140000e+002  0.000000e+000  3.380000e+002
      vertex -1.103719e+002 -3.083309e+000  3.380000e+002
      vertex -1.101667e+002 -2.833274e+000  3.380000e+002
    endloop
  endfacet
  facet normal  0.000000e+000  -0.000000e+000  1.000000e+000
    outer loop
      vertex -1.140000e+002  0.000000e+000  3.380000e+002
      vertex -1.101667e+002 -2.833274e+000  3.380000e+002
      vertex -1.099167e+002 -2.628075e+000  3.380000e+002
    endloop
  endfacet
  facet normal  0.000000e+000  -0.000000e+000  1.000000e+000
    outer loop
      vertex -1.140000e+002  0.000000e+000  3.380000e+002
      vertex -1.099167e+002 -2.628075e+000  3.380000e+002
      vertex -1.096314e+002 -2.475599e+000  3.380000e+002
    endloop
  endfacet
  facet normal  0.000000e+000  -0.000000e+000  1.000000e+000
    outer loop
      vertex -1.140000e+002  0.000000e+000  3.380000e+002
      vertex -1.096314e+002 -2.475599e+000  3.380000e+002
      vertex -1.093219e+002 -2.381704e+000  3.380000e+002
    endloop
  endfacet
  facet normal  0.000000e+000  -0.000000e+000  1.000000e+000
    outer loop
      vertex -1.140000e+002  0.000000e+000  3.380000e+002
      vertex -1.093219e+002 -2.381704e+000  3.380000e+002
      vertex -1.090000e+002 -2.350000e+000  3.380000e+002
    endloop
  endfacet
  facet normal  0.000000e+000  -0.000000e+000  9.999999e-001
    outer loop
      vertex -1.140000e+002  0.000000e+000  3.380000e+002
      vertex -1.090000e+002 -2.350000e+000  3.380000e+002
      vertex -1.040000e+002  0.000000e+000  3.380000e+002
    endloop
  endfacet
  facet normal  0.000000e+000  0.000000e+000  1.000000e+000
    outer loop
      vertex -1.140000e+002 -7.250000e+000  3.380000e+002
      vertex -1.040000e+002 -7.250000e+000  3.380000e+002
      vertex -1.090000e+002 -5.650000e+000  3.380000e+002
    endloop
  endfacet
  facet normal  0.000000e+000  0.000000e+000  1.000000e+000
    outer loop
      vertex -1.140000e+002 -7.250000e+000  3.380000e+002
      vertex -1.090000e+002 -5.650000e+000  3.380000e+002
      vertex -1.093219e+002 -5.618296e+000  3.380000e+002
    endloop
  endfacet
  facet normal  0.000000e+000  0.000000e+000  9.999999e-001
    outer loop
      vertex -1.140000e+002 -7.250000e+000  3.380000e+002
      vertex -1.093219e+002 -5.618296e+000  3.380000e+002
      vertex -1.096314e+002 -5.524401e+000  3.380000e+002
    endloop
  endfacet
  facet normal  0.000000e+000  0.000000e+000  1.000000e+000
    outer loop
      vertex -1.140000e+002 -7.250000e+000  3.380000e+002
      vertex -1.096314e+002 -5.524401e+000  3.380000e+002
      vertex -1.099167e+002 -5.371925e+000  3.380000e+002
    endloop
  endfacet
  facet normal  0.000000e+000  0.000000e+000  1.000000e+000
    outer loop
      vertex -1.140000e+002 -7.250000e+000  3.380000e+002
      vertex -1.099167e+002 -5.371925e+000  3.380000e+002
      vertex -1.101667e+002 -5.166726e+000  3.380000e+002
    endloop
  endfacet
  facet normal  0.000000e+000  0.000000e+000  1.000000e+000
    outer loop
      vertex -1.140000e+002 -7.250000e+000  3.380000e+002
      vertex -1.101667e+002 -5.166726e+000  3.380000e+002
      vertex -1.103719e+002 -4.916691e+000  3.380000e+002
    endloop
  endfacet
  facet normal  0.000000e+000  0.000000e+000  1.000000e+000
    outer loop
      vertex -1.140000e+002 -7.250000e+000  3.380000e+002
      vertex -1.103719e+002 -4.916691e+000  3.380000e+002
      vertex -1.105244e+002 -4.631428e+000  3.380000e+002
    endloop
  endfacet
  facet normal  0.000000e+000  0.000000e+000  1.000000e+000
    outer loop
      vertex -1.140000e+002 -7.250000e+000  3.380000e+002
      vertex -1.105244e+002 -4.631428e+000  3.380000e+002
      vertex -1.106183e+002 -4.321899e+000  3.380000e+002
    endloop
  endfacet
  facet normal  0.000000e+000  0.000000e+000  1.000000e+000
    outer loop
      vertex -1.140000e+002 -7.250000e+000  3.380000e+002
      vertex -1.106183e+002 -4.321899e+000  3.380000e+002
      vertex -1.106500e+002 -4.000000e+000  3.380000e+002
    endloop
  endfacet
  facet normal  0.000000e+000  -0.000000e+000  1.000000e+000
    outer loop
      vertex -1.140000e+002 -7.250000e+000  3.380000e+002
      vertex -1.106500e+002 -4.000000e+000  3.380000e+002
      vertex -1.106183e+002 -3.678101e+000  3.380000e+002
    endloop
  endfacet
  facet normal  0.000000e+000  -0.000000e+000  9.999999e-001
    outer loop
      vertex -1.140000e+002 -7.250000e+000  3.380000e+002
      vertex -1.106183e+002 -3.678101e+000  3.380000e+002
      vertex -1.105244e+002 -3.368572e+000  3.380000e+002
    endloop
  endfacet
  facet normal  0.000000e+000  -0.000000e+000  1.000000e+000
    outer loop
      vertex -1.140000e+002 -7.250000e+000  3.380000e+002
      vertex -1.105244e+002 -3.368572e+000  3.380000e+002
      vertex -1.103719e+002 -3.083309e+000  3.380000e+002
    endloop
  endfacet
  facet normal  0.000000e+000  0.000000e+000  1.000000e+000
    outer loop
      vertex -1.040000e+002 -7.250000e+000  3.380000e+002
      vertex -1.076281e+002 -3.083309e+000  3.380000e+002
      vertex -1.074756e+002 -3.368572e+000  3.380000e+002
    endloop
  endfacet
  facet normal  0.000000e+000  0.000000e+000  9.999999e-001
    outer loop
      vertex -1.040000e+002 -7.250000e+000  3.380000e+002
      vertex -1.074756e+002 -3.368572e+000  3.380000e+002
      vertex -1.073817e+002 -3.678101e+000  3.380000e+002
    endloop
  endfacet
  facet normal  0.000000e+000  0.000000e+000  1.000000e+000
    outer loop
      vertex -1.040000e+002 -7.250000e+000  3.380000e+002
      vertex -1.073817e+002 -3.678101e+000  3.380000e+002
      vertex -1.073500e+002 -4.000000e+000  3.380000e+002
    endloop
  endfacet
  facet normal  0.000000e+000  0.000000e+000  1.000000e+000
    outer loop
      vertex -1.040000e+002 -7.250000e+000  3.380000e+002
      vertex -1.073500e+002 -4.000000e+000  3.380000e+002
      vertex -1.073817e+002 -4.321899e+000  3.380000e+002
    endloop
  endfacet
  facet normal  0.000000e+000  0.000000e+000  1.000000e+000
    outer loop
      vertex -1.040000e+002 -7.250000e+000  3.380000e+002
      vertex -1.073817e+002 -4.321899e+000  3.380000e+002
      vertex -1.074756e+002 -4.631428e+000  3.380000e+002
    endloop
  endfacet
  facet normal  0.000000e+000  0.000000e+000  1.000000e+000
    outer loop
      vertex -1.040000e+002 -7.250000e+000  3.380000e+002
      vertex -1.074756e+002 -4.631428e+000  3.380000e+002
      vertex -1.076281e+002 -4.916691e+000  3.380000e+002
    endloop
  endfacet
  facet normal  0.000000e+000  0.000000e+000  1.000000e+000
    outer loop
      vertex -1.040000e+002 -7.250000e+000  3.380000e+002
      vertex -1.076281e+002 -4.916691e+000  3.380000e+002
      vertex -1.078333e+002 -5.166726e+000  3.380000e+002
    endloop
  endfacet
  facet normal  0.000000e+000  0.000000e+000  1.000000e+000
    outer loop
      vertex -1.040000e+002 -7.250000e+000  3.380000e+002
      vertex -1.078333e+002 -5.166726e+000  3.380000e+002
      vertex -1.080833e+002 -5.371925e+000  3.380000e+002
    endloop
  endfacet
  facet normal  0.000000e+000  0.000000e+000  1.000000e+000
    outer loop
      vertex -1.040000e+002 -7.250000e+000  3.380000e+002
      vertex -1.080833e+002 -5.371925e+000  3.380000e+002
      vertex -1.083686e+002 -5.524401e+000  3.380000e+002
    endloop
  endfacet
  facet normal  0.000000e+000  0.000000e+000  9.999999e-001
    outer loop
      vertex -1.040000e+002 -7.250000e+000  3.380000e+002
      vertex -1.083686e+002 -5.524401e+000  3.380000e+002
      vertex -1.086781e+002 -5.618296e+000  3.380000e+002
    endloop
  endfacet
  facet normal  0.000000e+000  0.000000e+000  1.000000e+000
    outer loop
      vertex -1.040000e+002 -7.250000e+000  3.380000e+002
      vertex -1.086781e+002 -5.618296e+000  3.380000e+002
      vertex -1.090000e+002 -5.650000e+000  3.380000e+002
    endloop
  endfacet
  facet normal  -0.000000e+000  0.000000e+000  1.000000e+000
    outer loop
      vertex -1.040000e+002  0.000000e+000  3.380000e+002
      vertex -1.090000e+002 -2.350000e+000  3.380000e+002
      vertex -1.086781e+002 -2.381704e+000  3.380000e+002
    endloop
  endfacet
  facet normal  -0.000000e+000  0.000000e+000  1.000000e+000
    outer loop
      vertex -1.040000e+002  0.000000e+000  3.380000e+002
      vertex -1.086781e+002 -2.381704e+000  3.380000e+002
      vertex -1.083686e+002 -2.475599e+000  3.380000e+002
    endloop
  endfacet
  facet normal  -0.000000e+000  0.000000e+000  1.000000e+000
    outer loop
      vertex -1.040000e+002  0.000000e+000  3.380000e+002
      vertex -1.083686e+002 -2.475599e+000  3.380000e+002
      vertex -1.080833e+002 -2.628075e+000  3.380000e+002
    endloop
  endfacet
  facet normal  -0.000000e+000  0.000000e+000  1.000000e+000
    outer loop
      vertex -1.040000e+002  0.000000e+000  3.380000e+002
      vertex -1.080833e+002 -2.628075e+000  3.380000e+002
      vertex -1.078333e+002 -2.833274e+000  3.380000e+002
    endloop
  endfacet
  facet normal  -0.000000e+000  0.000000e+000  9.999999e-001
    outer loop
      vertex -1.040000e+002  0.000000e+000  3.380000e+002
      vertex -1.078333e+002 -2.833274e+000  3.380000e+002
      vertex -1.076281e+002 -3.083309e+000  3.380000e+002
    endloop
  endfacet
  facet normal  -0.000000e+000  0.000000e+000  1.000000e+000
    outer loop
      vertex -1.040000e+002  0.000000e+000  3.380000e+002
      vertex -1.076281e+002 -3.083309e+000  3.380000e+002
      vertex -1.040000e+002 -7.250000e+000  3.380000e+002
    endloop
  endfacet
  facet normal  -0.000000e+000  0.000000e+000 -1.000000e+000
    outer loop
      vertex -1.127000e+002 -1.275000e+001  3.230000e+002
      vertex -1.127000e+002 -2.725000e+001  3.230000e+002
      vertex -1.140000e+002 -4.000000e+001  3.230000e+002
    endloop
  endfacet
  facet normal  -0.000000e+000  0.000000e+000 -1.000000e+000
    outer loop
      vertex -1.127000e+002 -2.725000e+001  3.230000e+002
      vertex -1.040000e+002 -2.725000e+001  3.230000e+002
      vertex -1.090000e+002 -3.435000e+001  3.230000e+002
    endloop
  endfacet
  facet normal  -0.000000e+000  0.000000e+000 -1.000000e+000
    outer loop
      vertex -1.127000e+002 -2.725000e+001  3.230000e+002
      vertex -1.090000e+002 -3.435000e+001  3.230000e+002
      vertex -1.093219e+002 -3.438170e+001  3.230000e+002
    endloop
  endfacet
  facet normal  -0.000000e+000  0.000000e+000 -1.000000e+000
    outer loop
      vertex -1.127000e+002 -2.725000e+001  3.230000e+002
      vertex -1.093219e+002 -3.438170e+001  3.230000e+002
      vertex -1.096314e+002 -3.447560e+001  3.230000e+002
    endloop
  endfacet
  facet normal  -0.000000e+000  0.000000e+000 -9.999999e-001
    outer loop
      vertex -1.127000e+002 -2.725000e+001  3.230000e+002
      vertex -1.096314e+002 -3.447560e+001  3.230000e+002
      vertex -1.099167e+002 -3.462807e+001  3.230000e+002
    endloop
  endfacet
  facet normal  -0.000000e+000  0.000000e+000 -1.000000e+000
    outer loop
      vertex -1.127000e+002 -2.725000e+001  3.230000e+002
      vertex -1.099167e+002 -3.462807e+001  3.230000e+002
      vertex -1.101667e+002 -3.483327e+001  3.230000e+002
    endloop
  endfacet
  facet normal  -0.000000e+000  0.000000e+000 -1.000000e+000
    outer loop
      vertex -1.127000e+002 -2.725000e+001  3.230000e+002
      vertex -1.101667e+002 -3.483327e+001  3.230000e+002
      vertex -1.103719e+002 -3.508331e+001  3.230000e+002
    endloop
  endfacet
  facet normal  -0.000000e+000  0.000000e+000 -1.000000e+000
    outer loop
      vertex -1.127000e+002 -2.725000e+001  3.230000e+002
      vertex -1.103719e+002 -3.508331e+001  3.230000e+002
      vertex -1.140000e+002 -4.000000e+001  3.230000e+002
    endloop
  endfacet
  facet normal  -0.000000e+000  0.000000e+000 -9.999999e-001
    outer loop
      vertex -1.140000e+002  0.000000e+000  3.230000e+002
      vertex -1.040000e+002  0.000000e+000  3.230000e+002
      vertex -1.090000e+002 -2.350000e+000  3.230000e+002
    endloop
  endfacet
  facet normal  -0.000000e+000  0.000000e+000 -1.000000e+000
    outer loop
      vertex -1.140000e+002  0.000000e+000  3.230000e+002
      vertex -1.090000e+002 -2.350000e+000  3.230000e+002
      vertex -1.093219e+002 -2.381704e+000  3.230000e+002
    endloop
  endfacet
  facet normal  -0.000000e+000  0.000000e+000 -1.000000e+000
    outer loop
      vertex -1.140000e+002  0.000000e+000  3.230000e+002
      vertex -1.093219e+002 -2.381704e+000  3.230000e+002
      vertex -1.096314e+002 -2.475599e+000  3.230000e+002
    endloop
  endfacet
  facet normal  -0.000000e+000  0.000000e+000 -1.000000e+000
    outer loop
      vertex -1.140000e+002  0.000000e+000  3.230000e+002
      vertex -1.096314e+002 -2.475599e+000  3.230000e+002
      vertex -1.099167e+002 -2.628075e+000  3.230000e+002
    endloop
  endfacet
  facet normal  -0.000000e+000  0.000000e+000 -1.000000e+000
    outer loop
      vertex -1.140000e+002  0.000000e+000  3.230000e+002
      vertex -1.099167e+002 -2.628075e+000  3.230000e+002
      vertex -1.101667e+002 -2.833274e+000  3.230000e+002
    endloop
  endfacet
  facet normal  -0.000000e+000  0.000000e+000 -9.999999e-001
    outer loop
      vertex -1.140000e+002  0.000000e+000  3.230000e+002
      vertex -1.101667e+002 -2.833274e+000  3.230000e+002
      vertex -1.103719e+002 -3.083309e+000  3.230000e+002
    endloop
  endfacet
  facet normal  -0.000000e+000  0.000000e+000 -1.000000e+000
    outer loop
      vertex -1.140000e+002  0.000000e+000  3.230000e+002
      vertex -1.103719e+002 -3.083309e+000  3.230000e+002
      vertex -1.105244e+002 -3.368572e+000  3.230000e+002
    endloop
  endfacet
  facet normal  -0.000000e+000  0.000000e+000 -1.000000e+000
    outer loop
      vertex -1.140000e+002  0.000000e+000  3.230000e+002
      vertex -1.105244e+002 -3.368572e+000  3.230000e+002
      vertex -1.106183e+002 -3.678101e+000  3.230000e+002
    endloop
  endfacet
  facet normal  -0.000000e+000  0.000000e+000 -1.000000e+000
    outer loop
      vertex -1.140000e+002  0.000000e+000  3.230000e+002
      vertex -1.106183e+002 -3.678101e+000  3.230000e+002
      vertex -1.127000e+002 -1.275000e+001  3.230000e+002
    endloop
  endfacet
  facet normal  -0.000000e+000  0.000000e+000 -9.999999e-001
    outer loop
      vertex -1.140000e+002  0.000000e+000  3.230000e+002
      vertex -1.127000e+002 -1.275000e+001  3.230000e+002
      vertex -1.140000e+002 -4.000000e+001  3.230000e+002
    endloop
  endfacet
  facet normal  0.000000e+000  0.000000e+000 -1.000000e+000
    outer loop
      vertex -1.040000e+002 -4.000000e+001  3.230000e+002
      vertex -1.140000e+002 -4.000000e+001  3.230000e+002
      vertex -1.090000e+002 -3.765000e+001  3.230000e+002
    endloop
  endfacet
  facet normal  0.000000e+000  0.000000e+000 -9.999999e-001
    outer loop
      vertex -1.040000e+002 -4.000000e+001  3.230000e+002
      vertex -1.090000e+002 -3.765000e+001  3.230000e+002
      vertex -1.086781e+002 -3.761830e+001  3.230000e+002
    endloop
  endfacet
  facet normal  0.000000e+000  0.000000e+000 -1.000000e+000
    outer loop
      vertex -1.040000e+002 -4.000000e+001  3.230000e+002
      vertex -1.086781e+002 -3.761830e+001  3.230000e+002
      vertex -1.083686e+002 -3.752440e+001  3.230000e+002
    endloop
  endfacet
  facet normal  0.000000e+000  0.000000e+000 -1.000000e+000
    outer loop
      vertex -1.040000e+002 -4.000000e+001  3.230000e+002
      vertex -1.083686e+002 -3.752440e+001  3.230000e+002
      vertex -1.080833e+002 -3.737193e+001  3.230000e+002
    endloop
  endfacet
  facet normal  0.000000e+000  0.000000e+000 -1.000000e+000
    outer loop
      vertex -1.040000e+002 -4.000000e+001  3.230000e+002
      vertex -1.080833e+002 -3.737193e+001  3.230000e+002
      vertex -1.078333e+002 -3.716673e+001  3.230000e+002
    endloop
  endfacet
  facet normal  0.000000e+000  0.000000e+000 -1.000000e+000
    outer loop
      vertex -1.040000e+002 -4.000000e+001  3.230000e+002
      vertex -1.078333e+002 -3.716673e+001  3.230000e+002
      vertex -1.076281e+002 -3.691669e+001  3.230000e+002
    endloop
  endfacet
  facet normal  0.000000e+000  0.000000e+000 -1.000000e+000
    outer loop
      vertex -1.040000e+002 -4.000000e+001  3.230000e+002
      vertex -1.076281e+002 -3.691669e+001  3.230000e+002
      vertex -1.074756e+002 -3.663143e+001  3.230000e+002
    endloop
  endfacet
  facet normal  0.000000e+000  0.000000e+000 -1.000000e+000
    outer loop
      vertex -1.040000e+002 -4.000000e+001  3.230000e+002
      vertex -1.074756e+002 -3.663143e+001  3.230000e+002
      vertex -1.073817e+002 -3.632190e+001  3.230000e+002
    endloop
  endfacet
  facet normal  0.000000e+000  0.000000e+000 -1.000000e+000
    outer loop
      vertex -1.040000e+002 -4.000000e+001  3.230000e+002
      vertex -1.073817e+002 -3.632190e+001  3.230000e+002
      vertex -1.073500e+002 -3.600000e+001  3.230000e+002
    endloop
  endfacet
  facet normal  0.000000e+000  0.000000e+000 -1.000000e+000
    outer loop
      vertex -1.040000e+002 -4.000000e+001  3.230000e+002
      vertex -1.073500e+002 -3.600000e+001  3.230000e+002
      vertex -1.073817e+002 -3.567810e+001  3.230000e+002
    endloop
  endfacet
  facet normal  0.000000e+000  0.000000e+000 -9.999999e-001
    outer loop
      vertex -1.040000e+002 -4.000000e+001  3.230000e+002
      vertex -1.073817e+002 -3.567810e+001  3.230000e+002
      vertex -1.074756e+002 -3.536857e+001  3.230000e+002
    endloop
  endfacet
  facet normal  0.000000e+000  0.000000e+000 -1.000000e+000
    outer loop
      vertex -1.040000e+002 -4.000000e+001  3.230000e+002
      vertex -1.074756e+002 -3.536857e+001  3.230000e+002
      vertex -1.076281e+002 -3.508331e+001  3.230000e+002
    endloop
  endfacet
  facet normal  0.000000e+000  0.000000e+000 -1.000000e+000
    outer loop
      vertex -1.040000e+002 -2.725000e+001  3.230000e+002
      vertex -1.040000e+002 -4.000000e+001  3.230000e+002
      vertex -1.076281e+002 -3.508331e+001  3.230000e+002
    endloop
  endfacet
  facet normal  0.000000e+000  0.000000e+000 -1.000000e+000
    outer loop
      vertex -1.040000e+002 -2.725000e+001  3.230000e+002
      vertex -1.076281e+002 -3.508331e+001  3.230000e+002
      vertex -1.078333e+002 -3.483327e+001  3.230000e+002
    endloop
  endfacet
  facet normal  0.000000e+000  0.000000e+000 -1.000000e+000
    outer loop
      vertex -1.040000e+002 -2.725000e+001  3.230000e+002
      vertex -1.078333e+002 -3.483327e+001  3.230000e+002
      vertex -1.080833e+002 -3.462807e+001  3.230000e+002
    endloop
  endfacet
  facet normal  0.000000e+000  0.000000e+000 -1.000000e+000
    outer loop
      vertex -1.040000e+002 -2.725000e+001  3.230000e+002
      vertex -1.080833e+002 -3.462807e+001  3.230000e+002
      vertex -1.083686e+002 -3.447560e+001  3.230000e+002
    endloop
  endfacet
  facet normal  0.000000e+000  0.000000e+000 -9.999999e-001
    outer loop
      vertex -1.040000e+002 -2.725000e+001  3.230000e+002
      vertex -1.083686e+002 -3.447560e+001  3.230000e+002
      vertex -1.086781e+002 -3.438170e+001  3.230000e+002
    endloop
  endfacet
  facet normal  0.000000e+000  0.000000e+000 -1.000000e+000
    outer loop
      vertex -1.040000e+002 -2.725000e+001  3.230000e+002
      vertex -1.086781e+002 -3.438170e+001  3.230000e+002
      vertex -1.090000e+002 -3.435000e+001  3.230000e+002
    endloop
  endfacet
  facet normal  0.000000e+000  0.000000e+000 -1.000000e+000
    outer loop
      vertex -1.140000e+002 -4.000000e+001  3.230000e+002
      vertex -1.103719e+002 -3.508331e+001  3.230000e+002
      vertex -1.105244e+002 -3.536857e+001  3.230000e+002
    endloop
  endfacet
  facet normal  0.000000e+000  0.000000e+000 -1.000000e+000
    outer loop
      vertex -1.140000e+002 -4.000000e+001  3.230000e+002
      vertex -1.105244e+002 -3.536857e+001  3.230000e+002
      vertex -1.106183e+002 -3.567810e+001  3.230000e+002
    endloop
  endfacet
  facet normal  0.000000e+000  0.000000e+000 -1.000000e+000
    outer loop
      vertex -1.140000e+002 -4.000000e+001  3.230000e+002
      vertex -1.106183e+002 -3.567810e+001  3.230000e+002
      vertex -1.106500e+002 -3.600000e+001  3.230000e+002
    endloop
  endfacet
  facet normal  0.000000e+000  -0.000000e+000 -1.000000e+000
    outer loop
      vertex -1.140000e+002 -4.000000e+001  3.230000e+002
      vertex -1.106500e+002 -3.600000e+001  3.230000e+002
      vertex -1.106183e+002 -3.632190e+001  3.230000e+002
    endloop
  endfacet
  facet normal  0.000000e+000  -0.000000e+000 -1.000000e+000
    outer loop
      vertex -1.140000e+002 -4.000000e+001  3.230000e+002
      vertex -1.106183e+002 -3.632190e+001  3.230000e+002
      vertex -1.105244e+002 -3.663143e+001  3.230000e+002
    endloop
  endfacet
  facet normal  0.000000e+000  -0.000000e+000 -1.000000e+000
    outer loop
      vertex -1.140000e+002 -4.000000e+001  3.230000e+002
      vertex -1.105244e+002 -3.663143e+001  3.230000e+002
      vertex -1.103719e+002 -3.691669e+001  3.230000e+002
    endloop
  endfacet
  facet normal  0.000000e+000  -0.000000e+000 -1.000000e+000
    outer loop
      vertex -1.140000e+002 -4.000000e+001  3.230000e+002
      vertex -1.103719e+002 -3.691669e+001  3.230000e+002
      vertex -1.101667e+002 -3.716673e+001  3.230000e+002
    endloop
  endfacet
  facet normal  0.000000e+000  -0.000000e+000 -1.000000e+000
    outer loop
      vertex -1.140000e+002 -4.000000e+001  3.230000e+002
      vertex -1.101667e+002 -3.716673e+001  3.230000e+002
      vertex -1.099167e+002 -3.737193e+001  3.230000e+002
    endloop
  endfacet
  facet normal  0.000000e+000  -0.000000e+000 -1.000000e+000
    outer loop
      vertex -1.140000e+002 -4.000000e+001  3.230000e+002
      vertex -1.099167e+002 -3.737193e+001  3.230000e+002
      vertex -1.096314e+002 -3.752440e+001  3.230000e+002
    endloop
  endfacet
  facet normal  0.000000e+000  -0.000000e+000 -1.000000e+000
    outer loop
      vertex -1.140000e+002 -4.000000e+001  3.230000e+002
      vertex -1.096314e+002 -3.752440e+001  3.230000e+002
      vertex -1.093219e+002 -3.761830e+001  3.230000e+002
    endloop
  endfacet
  facet normal  0.000000e+000  -0.000000e+000 -1.000000e+000
    outer loop
      vertex -1.140000e+002 -4.000000e+001  3.230000e+002
      vertex -1.093219e+002 -3.761830e+001  3.230000e+002
      vertex -1.090000e+002 -3.765000e+001  3.230000e+002
    endloop
  endfacet
  facet normal  0.000000e+000  0.000000e+000 -1.000000e+000
    outer loop
      vertex -1.127000e+002 -1.275000e+001  3.230000e+002
      vertex -1.106183e+002 -3.678101e+000  3.230000e+002
      vertex -1.106500e+002 -4.000000e+000  3.230000e+002
    endloop
  endfacet
  facet normal  0.000000e+000  -0.000000e+000 -9.999999e-001
    outer loop
      vertex -1.127000e+002 -1.275000e+001  3.230000e+002
      vertex -1.106500e+002 -4.000000e+000  3.230000e+002
      vertex -1.106183e+002 -4.321899e+000  3.230000e+002
    endloop
  endfacet
  facet normal  0.000000e+000  -0.000000e+000 -1.000000e+000
    outer loop
      vertex -1.127000e+002 -1.275000e+001  3.230000e+002
      vertex -1.106183e+002 -4.321899e+000  3.230000e+002
      vertex -1.105244e+002 -4.631428e+000  3.230000e+002
    endloop
  endfacet
  facet normal  0.000000e+000  -0.000000e+000 -1.000000e+000
    outer loop
      vertex -1.127000e+002 -1.275000e+001  3.230000e+002
      vertex -1.105244e+002 -4.631428e+000  3.230000e+002
      vertex -1.103719e+002 -4.916691e+000  3.230000e+002
    endloop
  endfacet
  facet normal  0.000000e+000  -0.000000e+000 -1.000000e+000
    outer loop
      vertex -1.127000e+002 -1.275000e+001  3.230000e+002
      vertex -1.103719e+002 -4.916691e+000  3.230000e+002
      vertex -1.101667e+002 -5.166726e+000  3.230000e+002
    endloop
  endfacet
  facet normal  0.000000e+000  -0.000000e+000 -1.000000e+000
    outer loop
      vertex -1.127000e+002 -1.275000e+001  3.230000e+002
      vertex -1.101667e+002 -5.166726e+000  3.230000e+002
      vertex -1.099167e+002 -5.371925e+000  3.230000e+002
    endloop
  endfacet
  facet normal  0.000000e+000  -0.000000e+000 -1.000000e+000
    outer loop
      vertex -1.127000e+002 -1.275000e+001  3.230000e+002
      vertex -1.099167e+002 -5.371925e+000  3.230000e+002
      vertex -1.096314e+002 -5.524401e+000  3.230000e+002
    endloop
  endfacet
  facet normal  0.000000e+000  -0.000000e+000 -1.000000e+000
    outer loop
      vertex -1.127000e+002 -1.275000e+001  3.230000e+002
      vertex -1.096314e+002 -5.524401e+000  3.230000e+002
      vertex -1.093219e+002 -5.618296e+000  3.230000e+002
    endloop
  endfacet
  facet normal  0.000000e+000  -0.000000e+000 -1.000000e+000
    outer loop
      vertex -1.127000e+002 -1.275000e+001  3.230000e+002
      vertex -1.093219e+002 -5.618296e+000  3.230000e+002
      vertex -1.090000e+002 -5.650000e+000  3.230000e+002
    endloop
  endfacet
  facet normal  0.000000e+000  -0.000000e+000 -1.000000e+000
    outer loop
      vertex -1.127000e+002 -1.275000e+001  3.230000e+002
      vertex -1.090000e+002 -5.650000e+000  3.230000e+002
      vertex -1.040000e+002 -1.275000e+001  3.230000e+002
    endloop
  endfacet
  facet normal  0.000000e+000  0.000000e+000 -1.000000e+000
    outer loop
      vertex -1.040000e+002 -1.275000e+001  3.230000e+002
      vertex -1.090000e+002 -5.650000e+000  3.230000e+002
      vertex -1.086781e+002 -5.618296e+000  3.230000e+002
    endloop
  endfacet
  facet normal  0.000000e+000  0.000000e+000 -9.999999e-001
    outer loop
      vertex -1.040000e+002 -1.275000e+001  3.230000e+002
      vertex -1.086781e+002 -5.618296e+000  3.230000e+002
      vertex -1.083686e+002 -5.524401e+000  3.230000e+002
    endloop
  endfacet
  facet normal  0.000000e+000  0.000000e+000 -1.000000e+000
    outer loop
      vertex -1.040000e+002 -1.275000e+001  3.230000e+002
      vertex -1.083686e+002 -5.524401e+000  3.230000e+002
      vertex -1.080833e+002 -5.371925e+000  3.230000e+002
    endloop
  endfacet
  facet normal  0.000000e+000  0.000000e+000 -1.000000e+000
    outer loop
      vertex -1.040000e+002 -1.275000e+001  3.230000e+002
      vertex -1.080833e+002 -5.371925e+000  3.230000e+002
      vertex -1.078333e+002 -5.166726e+000  3.230000e+002
    endloop
  endfacet
  facet normal  0.000000e+000  0.000000e+000 -1.000000e+000
    outer loop
      vertex -1.040000e+002 -1.275000e+001  3.230000e+002
      vertex -1.078333e+002 -5.166726e+000  3.230000e+002
      vertex -1.076281e+002 -4.916691e+000  3.230000e+002
    endloop
  endfacet
  facet normal  0.000000e+000  0.000000e+000 -1.000000e+000
    outer loop
      vertex -1.040000e+002 -1.275000e+001  3.230000e+002
      vertex -1.076281e+002 -4.916691e+000  3.230000e+002
      vertex -1.074756e+002 -4.631428e+000  3.230000e+002
    endloop
  endfacet
  facet normal  0.000000e+000  0.000000e+000 -9.999999e-001
    outer loop
      vertex -1.040000e+002 -1.275000e+001  3.230000e+002
      vertex -1.074756e+002 -4.631428e+000  3.230000e+002
      vertex -1.073817e+002 -4.321899e+000  3.230000e+002
    endloop
  endfacet
  facet normal  0.000000e+000  0.000000e+000 -1.000000e+000
    outer loop
      vertex -1.040000e+002 -1.275000e+001  3.230000e+002
      vertex -1.073817e+002 -4.321899e+000  3.230000e+002
      vertex -1.073500e+002 -4.000000e+000  3.230000e+002
    endloop
  endfacet
  facet normal  0.000000e+000  0.000000e+000 -1.000000e+000
    outer loop
      vertex -1.040000e+002 -1.275000e+001  3.230000e+002
      vertex -1.073500e+002 -4.000000e+000  3.230000e+002
      vertex -1.073817e+002 -3.678101e+000  3.230000e+002
    endloop
  endfacet
  facet normal  0.000000e+000  0.000000e+000 -1.000000e+000
    outer loop
      vertex -1.040000e+002 -1.275000e+001  3.230000e+002
      vertex -1.073817e+002 -3.678101e+000  3.230000e+002
      vertex -1.074756e+002 -3.368572e+000  3.230000e+002
    endloop
  endfacet
  facet normal  0.000000e+000  0.000000e+000 -1.000000e+000
    outer loop
      vertex -1.040000e+002  0.000000e+000  3.230000e+002
      vertex -1.040000e+002 -1.275000e+001  3.230000e+002
      vertex -1.074756e+002 -3.368572e+000  3.230000e+002
    endloop
  endfacet
  facet normal  0.000000e+000  0.000000e+000 -1.000000e+000
    outer loop
      vertex -1.040000e+002  0.000000e+000  3.230000e+002
      vertex -1.074756e+002 -3.368572e+000  3.230000e+002
      vertex -1.076281e+002 -3.083309e+000  3.230000e+002
    endloop
  endfacet
  facet normal  0.000000e+000  0.000000e+000 -9.999999e-001
    outer loop
      vertex -1.040000e+002  0.000000e+000  3.230000e+002
      vertex -1.076281e+002 -3.083309e+000  3.230000e+002
      vertex -1.078333e+002 -2.833274e+000  3.230000e+002
    endloop
  endfacet
  facet normal  0.000000e+000  0.000000e+000 -1.000000e+000
    outer loop
      vertex -1.040000e+002  0.000000e+000  3.230000e+002
      vertex -1.078333e+002 -2.833274e+000  3.230000e+002
      vertex -1.080833e+002 -2.628075e+000  3.230000e+002
    endloop
  endfacet
  facet normal  0.000000e+000  0.000000e+000 -1.000000e+000
    outer loop
      vertex -1.040000e+002  0.000000e+000  3.230000e+002
      vertex -1.080833e+002 -2.628075e+000  3.230000e+002
      vertex -1.083686e+002 -2.475599e+000  3.230000e+002
    endloop
  endfacet
  facet normal  0.000000e+000  0.000000e+000 -1.000000e+000
    outer loop
      vertex -1.040000e+002  0.000000e+000  3.230000e+002
      vertex -1.083686e+002 -2.475599e+000  3.230000e+002
      vertex -1.086781e+002 -2.381704e+000  3.230000e+002
    endloop
  endfacet
  facet normal  0.000000e+000  0.000000e+000 -1.000000e+000
    outer loop
      vertex -1.040000e+002  0.000000e+000  3.230000e+002
      vertex -1.086781e+002 -2.381704e+000  3.230000e+002
      vertex -1.090000e+002 -2.350000e+000  3.230000e+002
    endloop
  endfacet
  facet normal  0.000000e+000  0.000000e+000  1.000000e+000
    outer loop
      vertex -1.140000e+002 -3.275000e+001  3.380000e+002
      vertex -1.140000e+002 -4.000000e+001  3.380000e+002
      vertex -1.103719e+002 -3.508331e+001  3.380000e+002
    endloop
  endfacet
  facet normal  0.000000e+000  -0.000000e+000  1.000000e+000
    outer loop
      vertex -1.140000e+002 -3.275000e+001  3.380000e+002
      vertex -1.103719e+002 -3.508331e+001  3.380000e+002
      vertex -1.101667e+002 -3.483327e+001  3.380000e+002
    endloop
  endfacet
  facet normal  0.000000e+000  -0.000000e+000  1.000000e+000
    outer loop
      vertex -1.140000e+002 -3.275000e+001  3.380000e+002
      vertex -1.101667e+002 -3.483327e+001  3.380000e+002
      vertex -1.099167e+002 -3.462807e+001  3.380000e+002
    endloop
  endfacet
  facet normal  0.000000e+000  -0.000000e+000  1.000000e+000
    outer loop
      vertex -1.140000e+002 -3.275000e+001  3.380000e+002
      vertex -1.099167e+002 -3.462807e+001  3.380000e+002
      vertex -1.096314e+002 -3.447560e+001  3.380000e+002
    endloop
  endfacet
  facet normal  0.000000e+000  -0.000000e+000  1.000000e+000
    outer loop
      vertex -1.140000e+002 -3.275000e+001  3.380000e+002
      vertex -1.096314e+002 -3.447560e+001  3.380000e+002
      vertex -1.093219e+002 -3.438170e+001  3.380000e+002
    endloop
  endfacet
  facet normal  0.000000e+000  -0.000000e+000  1.000000e+000
    outer loop
      vertex -1.140000e+002 -3.275000e+001  3.380000e+002
      vertex -1.093219e+002 -3.438170e+001  3.380000e+002
      vertex -1.090000e+002 -3.435000e+001  3.380000e+002
    endloop
  endfacet
  facet normal  0.000000e+000  -0.000000e+000  1.000000e+000
    outer loop
      vertex -1.140000e+002 -3.275000e+001  3.380000e+002
      vertex -1.090000e+002 -3.435000e+001  3.380000e+002
      vertex -1.040000e+002 -3.275000e+001  3.380000e+002
    endloop
  endfacet
  facet normal  0.000000e+000  0.000000e+000  1.000000e+000
    outer loop
      vertex -1.140000e+002 -4.000000e+001  3.380000e+002
      vertex -1.040000e+002 -4.000000e+001  3.380000e+002
      vertex -1.090000e+002 -3.765000e+001  3.380000e+002
    endloop
  endfacet
  facet normal  0.000000e+000  0.000000e+000  9.999999e-001
    outer loop
      vertex -1.140000e+002 -4.000000e+001  3.380000e+002
      vertex -1.090000e+002 -3.765000e+001  3.380000e+002
      vertex -1.093219e+002 -3.761830e+001  3.380000e+002
    endloop
  endfacet
  facet normal  0.000000e+000  0.000000e+000  1.000000e+000
    outer loop
      vertex -1.140000e+002 -4.000000e+001  3.380000e+002
      vertex -1.093219e+002 -3.761830e+001  3.380000e+002
      vertex -1.096314e+002 -3.752440e+001  3.380000e+002
    endloop
  endfacet
  facet normal  0.000000e+000  0.000000e+000  1.000000e+000
    outer loop
      vertex -1.140000e+002 -4.000000e+001  3.380000e+002
      vertex -1.096314e+002 -3.752440e+001  3.380000e+002
      vertex -1.099167e+002 -3.737193e+001  3.380000e+002
    endloop
  endfacet
  facet normal  0.000000e+000  0.000000e+000  1.000000e+000
    outer loop
      vertex -1.140000e+002 -4.000000e+001  3.380000e+002
      vertex -1.099167e+002 -3.737193e+001  3.380000e+002
      vertex -1.101667e+002 -3.716673e+001  3.380000e+002
    endloop
  endfacet
  facet normal  0.000000e+000  0.000000e+000  1.000000e+000
    outer loop
      vertex -1.140000e+002 -4.000000e+001  3.380000e+002
      vertex -1.101667e+002 -3.716673e+001  3.380000e+002
      vertex -1.103719e+002 -3.691669e+001  3.380000e+002
    endloop
  endfacet
  facet normal  0.000000e+000  0.000000e+000  1.000000e+000
    outer loop
      vertex -1.140000e+002 -4.000000e+001  3.380000e+002
      vertex -1.103719e+002 -3.691669e+001  3.380000e+002
      vertex -1.105244e+002 -3.663143e+001  3.380000e+002
    endloop
  endfacet
  facet normal  0.000000e+000  0.000000e+000  1.000000e+000
    outer loop
      vertex -1.140000e+002 -4.000000e+001  3.380000e+002
      vertex -1.105244e+002 -3.663143e+001  3.380000e+002
      vertex -1.106183e+002 -3.632190e+001  3.380000e+002
    endloop
  endfacet
  facet normal  0.000000e+000  0.000000e+000  1.000000e+000
    outer loop
      vertex -1.140000e+002 -4.000000e+001  3.380000e+002
      vertex -1.106183e+002 -3.632190e+001  3.380000e+002
      vertex -1.106500e+002 -3.600000e+001  3.380000e+002
    endloop
  endfacet
  facet normal  0.000000e+000  -0.000000e+000  1.000000e+000
    outer loop
      vertex -1.140000e+002 -4.000000e+001  3.380000e+002
      vertex -1.106500e+002 -3.600000e+001  3.380000e+002
      vertex -1.106183e+002 -3.567810e+001  3.380000e+002
    endloop
  endfacet
  facet normal  0.000000e+000  -0.000000e+000  9.999999e-001
    outer loop
      vertex -1.140000e+002 -4.000000e+001  3.380000e+002
      vertex -1.106183e+002 -3.567810e+001  3.380000e+002
      vertex -1.105244e+002 -3.536857e+001  3.380000e+002
    endloop
  endfacet
  facet normal  0.000000e+000  -0.000000e+000  1.000000e+000
    outer loop
      vertex -1.140000e+002 -4.000000e+001  3.380000e+002
      vertex -1.105244e+002 -3.536857e+001  3.380000e+002
      vertex -1.103719e+002 -3.508331e+001  3.380000e+002
    endloop
  endfacet
  facet normal  0.000000e+000  0.000000e+000  1.000000e+000
    outer loop
      vertex -1.040000e+002 -4.000000e+001  3.380000e+002
      vertex -1.076281e+002 -3.508331e+001  3.380000e+002
      vertex -1.074756e+002 -3.536857e+001  3.380000e+002
    endloop
  endfacet
  facet normal  0.000000e+000  0.000000e+000  1.000000e+000
    outer loop
      vertex -1.040000e+002 -4.000000e+001  3.380000e+002
      vertex -1.074756e+002 -3.536857e+001  3.380000e+002
      vertex -1.073817e+002 -3.567810e+001  3.380000e+002
    endloop
  endfacet
  facet normal  0.000000e+000  0.000000e+000  1.000000e+000
    outer loop
      vertex -1.040000e+002 -4.000000e+001  3.380000e+002
      vertex -1.073817e+002 -3.567810e+001  3.380000e+002
      vertex -1.073500e+002 -3.600000e+001  3.380000e+002
    endloop
  endfacet
  facet normal  0.000000e+000  0.000000e+000  1.000000e+000
    outer loop
      vertex -1.040000e+002 -4.000000e+001  3.380000e+002
      vertex -1.073500e+002 -3.600000e+001  3.380000e+002
      vertex -1.073817e+002 -3.632190e+001  3.380000e+002
    endloop
  endfacet
  facet normal  0.000000e+000  0.000000e+000  1.000000e+000
    outer loop
      vertex -1.040000e+002 -4.000000e+001  3.380000e+002
      vertex -1.073817e+002 -3.632190e+001  3.380000e+002
      vertex -1.074756e+002 -3.663143e+001  3.380000e+002
    endloop
  endfacet
  facet normal  0.000000e+000  0.000000e+000  1.000000e+000
    outer loop
      vertex -1.040000e+002 -4.000000e+001  3.380000e+002
      vertex -1.074756e+002 -3.663143e+001  3.380000e+002
      vertex -1.076281e+002 -3.691669e+001  3.380000e+002
    endloop
  endfacet
  facet normal  0.000000e+000  0.000000e+000  1.000000e+000
    outer loop
      vertex -1.040000e+002 -4.000000e+001  3.380000e+002
      vertex -1.076281e+002 -3.691669e+001  3.380000e+002
      vertex -1.078333e+002 -3.716673e+001  3.380000e+002
    endloop
  endfacet
  facet normal  0.000000e+000  0.000000e+000  1.000000e+000
    outer loop
      vertex -1.040000e+002 -4.000000e+001  3.380000e+002
      vertex -1.078333e+002 -3.716673e+001  3.380000e+002
      vertex -1.080833e+002 -3.737193e+001  3.380000e+002
    endloop
  endfacet
  facet normal  0.000000e+000  0.000000e+000  1.000000e+000
    outer loop
      vertex -1.040000e+002 -4.000000e+001  3.380000e+002
      vertex -1.080833e+002 -3.737193e+001  3.380000e+002
      vertex -1.083686e+002 -3.752440e+001  3.380000e+002
    endloop
  endfacet
  facet normal  0.000000e+000  0.000000e+000  1.000000e+000
    outer loop
      vertex -1.040000e+002 -4.000000e+001  3.380000e+002
      vertex -1.083686e+002 -3.752440e+001  3.380000e+002
      vertex -1.086781e+002 -3.761830e+001  3.380000e+002
    endloop
  endfacet
  facet normal  0.000000e+000  0.000000e+000  1.000000e+000
    outer loop
      vertex -1.040000e+002 -4.000000e+001  3.380000e+002
      vertex -1.086781e+002 -3.761830e+001  3.380000e+002
      vertex -1.090000e+002 -3.765000e+001  3.380000e+002
    endloop
  endfacet
  facet normal  -0.000000e+000  0.000000e+000  1.000000e+000
    outer loop
      vertex -1.040000e+002 -3.275000e+001  3.380000e+002
      vertex -1.090000e+002 -3.435000e+001  3.380000e+002
      vertex -1.086781e+002 -3.438170e+001  3.380000e+002
    endloop
  endfacet
  facet normal  -0.000000e+000  0.000000e+000  1.000000e+000
    outer loop
      vertex -1.040000e+002 -3.275000e+001  3.380000e+002
      vertex -1.086781e+002 -3.438170e+001  3.380000e+002
      vertex -1.083686e+002 -3.447560e+001  3.380000e+002
    endloop
  endfacet
  facet normal  -0.000000e+000  0.000000e+000  1.000000e+000
    outer loop
      vertex -1.040000e+002 -3.275000e+001  3.380000e+002
      vertex -1.083686e+002 -3.447560e+001  3.380000e+002
      vertex -1.080833e+002 -3.462807e+001  3.380000e+002
    endloop
  endfacet
  facet normal  -0.000000e+000  0.000000e+000  1.000000e+000
    outer loop
      vertex -1.040000e+002 -3.275000e+001  3.380000e+002
      vertex -1.080833e+002 -3.462807e+001  3.380000e+002
      vertex -1.078333e+002 -3.483327e+001  3.380000e+002
    endloop
  endfacet
  facet normal  -0.000000e+000  0.000000e+000  1.000000e+000
    outer loop
      vertex -1.040000e+002 -3.275000e+001  3.380000e+002
      vertex -1.078333e+002 -3.483327e+001  3.380000e+002
      vertex -1.076281e+002 -3.508331e+001  3.380000e+002
    endloop
  endfacet
  facet normal  -0.000000e+000  0.000000e+000  1.000000e+000
    outer loop
      vertex -1.040000e+002 -3.275000e+001  3.380000e+002
      vertex -1.076281e+002 -3.508331e+001  3.380000e+002
      vertex -1.040000e+002 -4.000000e+001  3.380000e+002
    endloop
  endfacet
  facet normal  9.801599e-002 -9.951848e-001  0.000000e+000
    outer loop
      vertex -1.090000e+002 -3.435000e+001  3.230000e+002
      vertex -1.093219e+002 -3.438170e+001  3.380000e+002
      vertex -1.093219e+002 -3.438170e+001  3.230000e+002
    endloop
  endfacet
  facet normal  2.902895e-001 -9.569389e-001  0.000000e+000
    outer loop
      vertex -1.093219e+002 -3.438170e+001  3.230000e+002
      vertex -1.093219e+002 -3.438170e+001  3.380000e+002
      vertex -1.096314e+002 -3.447560e+001  3.380000e+002
    endloop
  endfacet
  facet normal  2.902895e-001 -9.569389e-001  0.000000e+000
    outer loop
      vertex -1.093219e+002 -3.438170e+001  3.230000e+002
      vertex -1.096314e+002 -3.447560e+001  3.380000e+002
      vertex -1.096314e+002 -3.447560e+001  3.230000e+002
    endloop
  endfacet
  facet normal  4.713893e-001 -8.819252e-001  0.000000e+000
    outer loop
      vertex -1.096314e+002 -3.447560e+001  3.230000e+002
      vertex -1.096314e+002 -3.447560e+001  3.380000e+002
      vertex -1.099167e+002 -3.462807e+001  3.380000e+002
    endloop
  endfacet
  facet normal  4.713893e-001 -8.819252e-001  0.000000e+000
    outer loop
      vertex -1.096314e+002 -3.447560e+001  3.230000e+002
      vertex -1.099167e+002 -3.462807e+001  3.380000e+002
      vertex -1.099167e+002 -3.462807e+001  3.230000e+002
    endloop
  endfacet
  facet normal  6.344033e-001 -7.730021e-001  0.000000e+000
    outer loop
      vertex -1.099167e+002 -3.462807e+001  3.230000e+002
      vertex -1.099167e+002 -3.462807e+001  3.380000e+002
      vertex -1.101667e+002 -3.483327e+001  3.380000e+002
    endloop
  endfacet
  facet normal  6.344033e-001 -7.730021e-001  0.000000e+000
    outer loop
      vertex -1.099167e+002 -3.462807e+001  3.230000e+002
      vertex -1.101667e+002 -3.483327e+001  3.380000e+002
      vertex -1.101667e+002 -3.483327e+001  3.230000e+002
    endloop
  endfacet
  facet normal  7.730070e-001 -6.343976e-001  0.000000e+000
    outer loop
      vertex -1.101667e+002 -3.483327e+001  3.230000e+002
      vertex -1.101667e+002 -3.483327e+001  3.380000e+002
      vertex -1.103719e+002 -3.508331e+001  3.380000e+002
    endloop
  endfacet
  facet normal  7.730070e-001 -6.343976e-001  0.000000e+000
    outer loop
      vertex -1.101667e+002 -3.483327e+001  3.230000e+002
      vertex -1.103719e+002 -3.508331e+001  3.380000e+002
      vertex -1.103719e+002 -3.508331e+001  3.230000e+002
    endloop
  endfacet
  facet normal  8.819249e-001 -4.713899e-001  0.000000e+000
    outer loop
      vertex -1.103719e+002 -3.508331e+001  3.230000e+002
      vertex -1.103719e+002 -3.508331e+001  3.380000e+002
      vertex -1.105244e+002 -3.536857e+001  3.380000e+002
    endloop
  endfacet
  facet normal  8.819249e-001 -4.713899e-001  0.000000e+000
    outer loop
      vertex -1.103719e+002 -3.508331e+001  3.230000e+002
      vertex -1.105244e+002 -3.536857e+001  3.380000e+002
      vertex -1.105244e+002 -3.536857e+001  3.230000e+002
    endloop
  endfacet
  facet normal  9.569398e-001 -2.902862e-001  0.000000e+000
    outer loop
      vertex -1.105244e+002 -3.536857e+001  3.230000e+002
      vertex -1.105244e+002 -3.536857e+001  3.380000e+002
      vertex -1.106183e+002 -3.567810e+001  3.380000e+002
    endloop
  endfacet
  facet normal  9.569398e-001 -2.902862e-001  0.000000e+000
    outer loop
      vertex -1.105244e+002 -3.536857e+001  3.230000e+002
      vertex -1.106183e+002 -3.567810e+001  3.380000e+002
      vertex -1.106183e+002 -3.567810e+001  3.230000e+002
    endloop
  endfacet
  facet normal  9.951837e-001 -9.802767e-002  0.000000e+000
    outer loop
      vertex -1.106183e+002 -3.567810e+001  3.230000e+002
      vertex -1.106183e+002 -3.567810e+001  3.380000e+002
      vertex -1.106500e+002 -3.600000e+001  3.380000e+002
    endloop
  endfacet
  facet normal  9.951837e-001 -9.802767e-002  0.000000e+000
    outer loop
      vertex -1.106183e+002 -3.567810e+001  3.230000e+002
      vertex -1.106500e+002 -3.600000e+001  3.380000e+002
      vertex -1.106500e+002 -3.600000e+001  3.230000e+002
    endloop
  endfacet
  facet normal  9.801599e-002 -9.951848e-001  0.000000e+000
    outer loop
      vertex -1.093219e+002 -3.438170e+001  3.380000e+002
      vertex -1.090000e+002 -3.435000e+001  3.230000e+002
      vertex -1.090000e+002 -3.435000e+001  3.380000e+002
    endloop
  endfacet
  facet normal -9.801599e-002 -9.951848e-001  -0.000000e+000
    outer loop
      vertex -1.090000e+002 -3.435000e+001  3.380000e+002
      vertex -1.090000e+002 -3.435000e+001  3.230000e+002
      vertex -1.086781e+002 -3.438170e+001  3.230000e+002
    endloop
  endfacet
  facet normal -9.801599e-002 -9.951848e-001  0.000000e+000
    outer loop
      vertex -1.090000e+002 -3.435000e+001  3.380000e+002
      vertex -1.086781e+002 -3.438170e+001  3.230000e+002
      vertex -1.086781e+002 -3.438170e+001  3.380000e+002
    endloop
  endfacet
  facet normal -2.902895e-001 -9.569389e-001  -0.000000e+000
    outer loop
      vertex -1.086781e+002 -3.438170e+001  3.380000e+002
      vertex -1.086781e+002 -3.438170e+001  3.230000e+002
      vertex -1.083686e+002 -3.447560e+001  3.230000e+002
    endloop
  endfacet
  facet normal -2.902895e-001 -9.569389e-001  0.000000e+000
    outer loop
      vertex -1.086781e+002 -3.438170e+001  3.380000e+002
      vertex -1.083686e+002 -3.447560e+001  3.230000e+002
      vertex -1.083686e+002 -3.447560e+001  3.380000e+002
    endloop
  endfacet
  facet normal -4.713893e-001 -8.819252e-001  -0.000000e+000
    outer loop
      vertex -1.083686e+002 -3.447560e+001  3.380000e+002
      vertex -1.083686e+002 -3.447560e+001  3.230000e+002
      vertex -1.080833e+002 -3.462807e+001  3.230000e+002
    endloop
  endfacet
  facet normal -4.713893e-001 -8.819252e-001  0.000000e+000
    outer loop
      vertex -1.083686e+002 -3.447560e+001  3.380000e+002
      vertex -1.080833e+002 -3.462807e+001  3.230000e+002
      vertex -1.080833e+002 -3.462807e+001  3.380000e+002
    endloop
  endfacet
  facet normal -6.344033e-001 -7.730021e-001  -0.000000e+000
    outer loop
      vertex -1.080833e+002 -3.462807e+001  3.380000e+002
      vertex -1.080833e+002 -3.462807e+001  3.230000e+002
      vertex -1.078333e+002 -3.483327e+001  3.230000e+002
    endloop
  endfacet
  facet normal -6.344033e-001 -7.730021e-001  0.000000e+000
    outer loop
      vertex -1.080833e+002 -3.462807e+001  3.380000e+002
      vertex -1.078333e+002 -3.483327e+001  3.230000e+002
      vertex -1.078333e+002 -3.483327e+001  3.380000e+002
    endloop
  endfacet
  facet normal -7.730070e-001 -6.343976e-001  -0.000000e+000
    outer loop
      vertex -1.078333e+002 -3.483327e+001  3.380000e+002
      vertex -1.078333e+002 -3.483327e+001  3.230000e+002
      vertex -1.076281e+002 -3.508331e+001  3.230000e+002
    endloop
  endfacet
  facet normal -7.730070e-001 -6.343976e-001  0.000000e+000
    outer loop
      vertex -1.078333e+002 -3.483327e+001  3.380000e+002
      vertex -1.076281e+002 -3.508331e+001  3.230000e+002
      vertex -1.076281e+002 -3.508331e+001  3.380000e+002
    endloop
  endfacet
  facet normal -8.819249e-001 -4.713899e-001  -0.000000e+000
    outer loop
      vertex -1.076281e+002 -3.508331e+001  3.380000e+002
      vertex -1.076281e+002 -3.508331e+001  3.230000e+002
      vertex -1.074756e+002 -3.536857e+001  3.230000e+002
    endloop
  endfacet
  facet normal -8.819249e-001 -4.713899e-001  0.000000e+000
    outer loop
      vertex -1.076281e+002 -3.508331e+001  3.380000e+002
      vertex -1.074756e+002 -3.536857e+001  3.230000e+002
      vertex -1.074756e+002 -3.536857e+001  3.380000e+002
    endloop
  endfacet
  facet normal -9.569398e-001 -2.902862e-001  -0.000000e+000
    outer loop
      vertex -1.074756e+002 -3.536857e+001  3.380000e+002
      vertex -1.074756e+002 -3.536857e+001  3.230000e+002
      vertex -1.073817e+002 -3.567810e+001  3.230000e+002
    endloop
  endfacet
  facet normal -9.569398e-001 -2.902862e-001  0.000000e+000
    outer loop
      vertex -1.074756e+002 -3.536857e+001  3.380000e+002
      vertex -1.073817e+002 -3.567810e+001  3.230000e+002
      vertex -1.073817e+002 -3.567810e+001  3.380000e+002
    endloop
  endfacet
  facet normal -9.951837e-001 -9.802767e-002  -0.000000e+000
    outer loop
      vertex -1.073817e+002 -3.567810e+001  3.380000e+002
      vertex -1.073817e+002 -3.567810e+001  3.230000e+002
      vertex -1.073500e+002 -3.600000e+001  3.230000e+002
    endloop
  endfacet
  facet normal -9.951837e-001 -9.802767e-002  0.000000e+000
    outer loop
      vertex -1.073817e+002 -3.567810e+001  3.380000e+002
      vertex -1.073500e+002 -3.600000e+001  3.230000e+002
      vertex -1.073500e+002 -3.600000e+001  3.380000e+002
    endloop
  endfacet
  facet normal -9.801599e-002  9.951848e-001  0.000000e+000
    outer loop
      vertex -1.090000e+002 -3.765000e+001  3.230000e+002
      vertex -1.086781e+002 -3.761830e+001  3.380000e+002
      vertex -1.086781e+002 -3.761830e+001  3.230000e+002
    endloop
  endfacet
  facet normal -2.902895e-001  9.569389e-001  0.000000e+000
    outer loop
      vertex -1.086781e+002 -3.761830e+001  3.230000e+002
      vertex -1.086781e+002 -3.761830e+001  3.380000e+002
      vertex -1.083686e+002 -3.752440e+001  3.380000e+002
    endloop
  endfacet
  facet normal -2.902895e-001  9.569389e-001  0.000000e+000
    outer loop
      vertex -1.086781e+002 -3.761830e+001  3.230000e+002
      vertex -1.083686e+002 -3.752440e+001  3.380000e+002
      vertex -1.083686e+002 -3.752440e+001  3.230000e+002
    endloop
  endfacet
  facet normal -4.713893e-001  8.819252e-001  0.000000e+000
    outer loop
      vertex -1.083686e+002 -3.752440e+001  3.230000e+002
      vertex -1.083686e+002 -3.752440e+001  3.380000e+002
      vertex -1.080833e+002 -3.737193e+001  3.380000e+002
    endloop
  endfacet
  facet normal -4.713893e-001  8.819252e-001  0.000000e+000
    outer loop
      vertex -1.083686e+002 -3.752440e+001  3.230000e+002
      vertex -1.080833e+002 -3.737193e+001  3.380000e+002
      vertex -1.080833e+002 -3.737193e+001  3.230000e+002
    endloop
  endfacet
  facet normal -6.344033e-001  7.730021e-001  0.000000e+000
    outer loop
      vertex -1.080833e+002 -3.737193e+001  3.230000e+002
      vertex -1.080833e+002 -3.737193e+001  3.380000e+002
      vertex -1.078333e+002 -3.716673e+001  3.380000e+002
    endloop
  endfacet
  facet normal -6.344033e-001  7.730021e-001  0.000000e+000
    outer loop
      vertex -1.080833e+002 -3.737193e+001  3.230000e+002
      vertex -1.078333e+002 -3.716673e+001  3.380000e+002
      vertex -1.078333e+002 -3.716673e+001  3.230000e+002
    endloop
  endfacet
  facet normal -7.730070e-001  6.343976e-001  0.000000e+000
    outer loop
      vertex -1.078333e+002 -3.716673e+001  3.230000e+002
      vertex -1.078333e+002 -3.716673e+001  3.380000e+002
      vertex -1.076281e+002 -3.691669e+001  3.380000e+002
    endloop
  endfacet
  facet normal -7.730070e-001  6.343976e-001  0.000000e+000
    outer loop
      vertex -1.078333e+002 -3.716673e+001  3.230000e+002
      vertex -1.076281e+002 -3.691669e+001  3.380000e+002
      vertex -1.076281e+002 -3.691669e+001  3.230000e+002
    endloop
  endfacet
  facet normal -8.819249e-001  4.713899e-001  0.000000e+000
    outer loop
      vertex -1.076281e+002 -3.691669e+001  3.230000e+002
      vertex -1.076281e+002 -3.691669e+001  3.380000e+002
      vertex -1.074756e+002 -3.663143e+001  3.380000e+002
    endloop
  endfacet
  facet normal -8.819249e-001  4.713899e-001  0.000000e+000
    outer loop
      vertex -1.076281e+002 -3.691669e+001  3.230000e+002
      vertex -1.074756e+002 -3.663143e+001  3.380000e+002
      vertex -1.074756e+002 -3.663143e+001  3.230000e+002
    endloop
  endfacet
  facet normal -9.569398e-001  2.902862e-001  0.000000e+000
    outer loop
      vertex -1.074756e+002 -3.663143e+001  3.230000e+002
      vertex -1.074756e+002 -3.663143e+001  3.380000e+002
      vertex -1.073817e+002 -3.632190e+001  3.380000e+002
    endloop
  endfacet
  facet normal -9.569398e-001  2.902862e-001  0.000000e+000
    outer loop
      vertex -1.074756e+002 -3.663143e+001  3.230000e+002
      vertex -1.073817e+002 -3.632190e+001  3.380000e+002
      vertex -1.073817e+002 -3.632190e+001  3.230000e+002
    endloop
  endfacet
  facet normal -9.951837e-001  9.802767e-002  0.000000e+000
    outer loop
      vertex -1.073817e+002 -3.632190e+001  3.230000e+002
      vertex -1.073817e+002 -3.632190e+001  3.380000e+002
      vertex -1.073500e+002 -3.600000e+001  3.380000e+002
    endloop
  endfacet
  facet normal -9.951837e-001  9.802767e-002  0.000000e+000
    outer loop
      vertex -1.073817e+002 -3.632190e+001  3.230000e+002
      vertex -1.073500e+002 -3.600000e+001  3.380000e+002
      vertex -1.073500e+002 -3.600000e+001  3.230000e+002
    endloop
  endfacet
  facet normal -9.801599e-002  9.951848e-001  0.000000e+000
    outer loop
      vertex -1.086781e+002 -3.761830e+001  3.380000e+002
      vertex -1.090000e+002 -3.765000e+001  3.230000e+002
      vertex -1.090000e+002 -3.765000e+001  3.380000e+002
    endloop
  endfacet
  facet normal  9.801599e-002  9.951848e-001  0.000000e+000
    outer loop
      vertex -1.090000e+002 -3.765000e+001  3.380000e+002
      vertex -1.090000e+002 -3.765000e+001  3.230000e+002
      vertex -1.093219e+002 -3.761830e+001  3.230000e+002
    endloop
  endfacet
  facet normal  9.801599e-002  9.951848e-001  -0.000000e+000
    outer loop
      vertex -1.090000e+002 -3.765000e+001  3.380000e+002
      vertex -1.093219e+002 -3.761830e+001  3.230000e+002
      vertex -1.093219e+002 -3.761830e+001  3.380000e+002
    endloop
  endfacet
  facet normal  2.902895e-001  9.569389e-001  0.000000e+000
    outer loop
      vertex -1.093219e+002 -3.761830e+001  3.380000e+002
      vertex -1.093219e+002 -3.761830e+001  3.230000e+002
      vertex -1.096314e+002 -3.752440e+001  3.230000e+002
    endloop
  endfacet
  facet normal  2.902895e-001  9.569389e-001  -0.000000e+000
    outer loop
      vertex -1.093219e+002 -3.761830e+001  3.380000e+002
      vertex -1.096314e+002 -3.752440e+001  3.230000e+002
      vertex -1.096314e+002 -3.752440e+001  3.380000e+002
    endloop
  endfacet
  facet normal  4.713893e-001  8.819252e-001  0.000000e+000
    outer loop
      vertex -1.096314e+002 -3.752440e+001  3.380000e+002
      vertex -1.096314e+002 -3.752440e+001  3.230000e+002
      vertex -1.099167e+002 -3.737193e+001  3.230000e+002
    endloop
  endfacet
  facet normal  4.713893e-001  8.819252e-001  -0.000000e+000
    outer loop
      vertex -1.096314e+002 -3.752440e+001  3.380000e+002
      vertex -1.099167e+002 -3.737193e+001  3.230000e+002
      vertex -1.099167e+002 -3.737193e+001  3.380000e+002
    endloop
  endfacet
  facet normal  6.344033e-001  7.730021e-001  0.000000e+000
    outer loop
      vertex -1.099167e+002 -3.737193e+001  3.380000e+002
      vertex -1.099167e+002 -3.737193e+001  3.230000e+002
      vertex -1.101667e+002 -3.716673e+001  3.230000e+002
    endloop
  endfacet
  facet normal  6.344033e-001  7.730021e-001  -0.000000e+000
    outer loop
      vertex -1.099167e+002 -3.737193e+001  3.380000e+002
      vertex -1.101667e+002 -3.716673e+001  3.230000e+002
      vertex -1.101667e+002 -3.716673e+001  3.380000e+002
    endloop
  endfacet
  facet normal  7.730070e-001  6.343976e-001  0.000000e+000
    outer loop
      vertex -1.101667e+002 -3.716673e+001  3.380000e+002
      vertex -1.101667e+002 -3.716673e+001  3.230000e+002
      vertex -1.103719e+002 -3.691669e+001  3.230000e+002
    endloop
  endfacet
  facet normal  7.730070e-001  6.343976e-001  -0.000000e+000
    outer loop
      vertex -1.101667e+002 -3.716673e+001  3.380000e+002
      vertex -1.103719e+002 -3.691669e+001  3.230000e+002
      vertex -1.103719e+002 -3.691669e+001  3.380000e+002
    endloop
  endfacet
  facet normal  8.819249e-001  4.713899e-001  0.000000e+000
    outer loop
      vertex -1.103719e+002 -3.691669e+001  3.380000e+002
      vertex -1.103719e+002 -3.691669e+001  3.230000e+002
      vertex -1.105244e+002 -3.663143e+001  3.230000e+002
    endloop
  endfacet
  facet normal  8.819249e-001  4.713899e-001  -0.000000e+000
    outer loop
      vertex -1.103719e+002 -3.691669e+001  3.380000e+002
      vertex -1.105244e+002 -3.663143e+001  3.230000e+002
      vertex -1.105244e+002 -3.663143e+001  3.380000e+002
    endloop
  endfacet
  facet normal  9.569398e-001  2.902862e-001  0.000000e+000
    outer loop
      vertex -1.105244e+002 -3.663143e+001  3.380000e+002
      vertex -1.105244e+002 -3.663143e+001  3.230000e+002
      vertex -1.106183e+002 -3.632190e+001  3.230000e+002
    endloop
  endfacet
  facet normal  9.569398e-001  2.902862e-001  -0.000000e+000
    outer loop
      vertex -1.105244e+002 -3.663143e+001  3.380000e+002
      vertex -1.106183e+002 -3.632190e+001  3.230000e+002
      vertex -1.106183e+002 -3.632190e+001  3.380000e+002
    endloop
  endfacet
  facet normal  9.951837e-001  9.802767e-002  0.000000e+000
    outer loop
      vertex -1.106183e+002 -3.632190e+001  3.380000e+002
      vertex -1.106183e+002 -3.632190e+001  3.230000e+002
      vertex -1.106500e+002 -3.600000e+001  3.230000e+002
    endloop
  endfacet
  facet normal  9.951837e-001  9.802767e-002  -0.000000e+000
    outer loop
      vertex -1.106183e+002 -3.632190e+001  3.380000e+002
      vertex -1.106500e+002 -3.600000e+001  3.230000e+002
      vertex -1.106500e+002 -3.600000e+001  3.380000e+002
    endloop
  endfacet
  facet normal  9.801745e-002 -9.951847e-001  0.000000e+000
    outer loop
      vertex -1.090000e+002 -2.350000e+000  3.230000e+002
      vertex -1.093219e+002 -2.381704e+000  3.380000e+002
      vertex -1.093219e+002 -2.381704e+000  3.230000e+002
    endloop
  endfacet
  facet normal  2.902882e-001 -9.569393e-001  0.000000e+000
    outer loop
      vertex -1.093219e+002 -2.381704e+000  3.230000e+002
      vertex -1.093219e+002 -2.381704e+000  3.380000e+002
      vertex -1.096314e+002 -2.475599e+000  3.380000e+002
    endloop
  endfacet
  facet normal  2.902882e-001 -9.569393e-001  0.000000e+000
    outer loop
      vertex -1.093219e+002 -2.381704e+000  3.230000e+002
      vertex -1.096314e+002 -2.475599e+000  3.380000e+002
      vertex -1.096314e+002 -2.475599e+000  3.230000e+002
    endloop
  endfacet
  facet normal  4.713870e-001 -8.819265e-001  0.000000e+000
    outer loop
      vertex -1.096314e+002 -2.475599e+000  3.230000e+002
      vertex -1.096314e+002 -2.475599e+000  3.380000e+002
      vertex -1.099167e+002 -2.628075e+000  3.380000e+002
    endloop
  endfacet
  facet normal  4.713870e-001 -8.819265e-001  0.000000e+000
    outer loop
      vertex -1.096314e+002 -2.475599e+000  3.230000e+002
      vertex -1.099167e+002 -2.628075e+000  3.380000e+002
      vertex -1.099167e+002 -2.628075e+000  3.230000e+002
    endloop
  endfacet
  facet normal  6.344007e-001 -7.730044e-001  0.000000e+000
    outer loop
      vertex -1.099167e+002 -2.628075e+000  3.230000e+002
      vertex -1.099167e+002 -2.628075e+000  3.380000e+002
      vertex -1.101667e+002 -2.833274e+000  3.380000e+002
    endloop
  endfacet
  facet normal  6.344007e-001 -7.730044e-001  0.000000e+000
    outer loop
      vertex -1.099167e+002 -2.628075e+000  3.230000e+002
      vertex -1.101667e+002 -2.833274e+000  3.380000e+002
      vertex -1.101667e+002 -2.833274e+000  3.230000e+002
    endloop
  endfacet
  facet normal  7.730080e-001 -6.343961e-001  0.000000e+000
    outer loop
      vertex -1.101667e+002 -2.833274e+000  3.230000e+002
      vertex -1.101667e+002 -2.833274e+000  3.380000e+002
      vertex -1.103719e+002 -3.083309e+000  3.380000e+002
    endloop
  endfacet
  facet normal  7.730080e-001 -6.343961e-001  0.000000e+000
    outer loop
      vertex -1.101667e+002 -2.833274e+000  3.230000e+002
      vertex -1.103719e+002 -3.083309e+000  3.380000e+002
      vertex -1.103719e+002 -3.083309e+000  3.230000e+002
    endloop
  endfacet
  facet normal  8.819249e-001 -4.713899e-001  0.000000e+000
    outer loop
      vertex -1.103719e+002 -3.083309e+000  3.230000e+002
      vertex -1.103719e+002 -3.083309e+000  3.380000e+002
      vertex -1.105244e+002 -3.368572e+000  3.380000e+002
    endloop
  endfacet
  facet normal  8.819249e-001 -4.713899e-001  0.000000e+000
    outer loop
      vertex -1.103719e+002 -3.083309e+000  3.230000e+002
      vertex -1.105244e+002 -3.368572e+000  3.380000e+002
      vertex -1.105244e+002 -3.368572e+000  3.230000e+002
    endloop
  endfacet
  facet normal  9.569400e-001 -2.902859e-001  0.000000e+000
    outer loop
      vertex -1.105244e+002 -3.368572e+000  3.230000e+002
      vertex -1.105244e+002 -3.368572e+000  3.380000e+002
      vertex -1.106183e+002 -3.678101e+000  3.380000e+002
    endloop
  endfacet
  facet normal  9.569400e-001 -2.902859e-001  0.000000e+000
    outer loop
      vertex -1.105244e+002 -3.368572e+000  3.230000e+002
      vertex -1.106183e+002 -3.678101e+000  3.380000e+002
      vertex -1.106183e+002 -3.678101e+000  3.230000e+002
    endloop
  endfacet
  facet normal  9.951836e-001 -9.802780e-002  0.000000e+000
    outer loop
      vertex -1.106183e+002 -3.678101e+000  3.230000e+002
      vertex -1.106183e+002 -3.678101e+000  3.380000e+002
      vertex -1.106500e+002 -4.000000e+000  3.380000e+002
    endloop
  endfacet
  facet normal  9.951836e-001 -9.802780e-002  0.000000e+000
    outer loop
      vertex -1.106183e+002 -3.678101e+000  3.230000e+002
      vertex -1.106500e+002 -4.000000e+000  3.380000e+002
      vertex -1.106500e+002 -4.000000e+000  3.230000e+002
    endloop
  endfacet
  facet normal  9.801745e-002 -9.951847e-001  0.000000e+000
    outer loop
      vertex -1.093219e+002 -2.381704e+000  3.380000e+002
      vertex -1.090000e+002 -2.350000e+000  3.230000e+002
      vertex -1.090000e+002 -2.350000e+000  3.380000e+002
    endloop
  endfacet
  facet normal -9.801745e-002 -9.951847e-001  -0.000000e+000
    outer loop
      vertex -1.090000e+002 -2.350000e+000  3.380000e+002
      vertex -1.090000e+002 -2.350000e+000  3.230000e+002
      vertex -1.086781e+002 -2.381704e+000  3.230000e+002
    endloop
  endfacet
  facet normal -9.801745e-002 -9.951847e-001  0.000000e+000
    outer loop
      vertex -1.090000e+002 -2.350000e+000  3.380000e+002
      vertex -1.086781e+002 -2.381704e+000  3.230000e+002
      vertex -1.086781e+002 -2.381704e+000  3.380000e+002
    endloop
  endfacet
  facet normal -2.902882e-001 -9.569393e-001  -0.000000e+000
    outer loop
      vertex -1.086781e+002 -2.381704e+000  3.380000e+002
      vertex -1.086781e+002 -2.381704e+000  3.230000e+002
      vertex -1.083686e+002 -2.475599e+000  3.230000e+002
    endloop
  endfacet
  facet normal -2.902882e-001 -9.569393e-001  0.000000e+000
    outer loop
      vertex -1.086781e+002 -2.381704e+000  3.380000e+002
      vertex -1.083686e+002 -2.475599e+000  3.230000e+002
      vertex -1.083686e+002 -2.475599e+000  3.380000e+002
    endloop
  endfacet
  facet normal -4.713870e-001 -8.819265e-001  -0.000000e+000
    outer loop
      vertex -1.083686e+002 -2.475599e+000  3.380000e+002
      vertex -1.083686e+002 -2.475599e+000  3.230000e+002
      vertex -1.080833e+002 -2.628075e+000  3.230000e+002
    endloop
  endfacet
  facet normal -4.713870e-001 -8.819265e-001  0.000000e+000
    outer loop
      vertex -1.083686e+002 -2.475599e+000  3.380000e+002
      vertex -1.080833e+002 -2.628075e+000  3.230000e+002
      vertex -1.080833e+002 -2.628075e+000  3.380000e+002
    endloop
  endfacet
  facet normal -6.344007e-001 -7.730044e-001  -0.000000e+000
    outer loop
      vertex -1.080833e+002 -2.628075e+000  3.380000e+002
      vertex -1.080833e+002 -2.628075e+000  3.230000e+002
      vertex -1.078333e+002 -2.833274e+000  3.230000e+002
    endloop
  endfacet
  facet normal -6.344007e-001 -7.730044e-001  0.000000e+000
    outer loop
      vertex -1.080833e+002 -2.628075e+000  3.380000e+002
      vertex -1.078333e+002 -2.833274e+000  3.230000e+002
      vertex -1.078333e+002 -2.833274e+000  3.380000e+002
    endloop
  endfacet
  facet normal -7.730080e-001 -6.343961e-001  -0.000000e+000
    outer loop
      vertex -1.078333e+002 -2.833274e+000  3.380000e+002
      vertex -1.078333e+002 -2.833274e+000  3.230000e+002
      vertex -1.076281e+002 -3.083309e+000  3.230000e+002
    endloop
  endfacet
  facet normal -7.730080e-001 -6.343961e-001  0.000000e+000
    outer loop
      vertex -1.078333e+002 -2.833274e+000  3.380000e+002
      vertex -1.076281e+002 -3.083309e+000  3.230000e+002
      vertex -1.076281e+002 -3.083309e+000  3.380000e+002
    endloop
  endfacet
  facet normal -8.819249e-001 -4.713899e-001  -0.000000e+000
    outer loop
      vertex -1.076281e+002 -3.083309e+000  3.380000e+002
      vertex -1.076281e+002 -3.083309e+000  3.230000e+002
      vertex -1.074756e+002 -3.368572e+000  3.230000e+002
    endloop
  endfacet
  facet normal -8.819249e-001 -4.713899e-001  0.000000e+000
    outer loop
      vertex -1.076281e+002 -3.083309e+000  3.380000e+002
      vertex -1.074756e+002 -3.368572e+000  3.230000e+002
      vertex -1.074756e+002 -3.368572e+000  3.380000e+002
    endloop
  endfacet
  facet normal -9.569400e-001 -2.902859e-001  -0.000000e+000
    outer loop
      vertex -1.074756e+002 -3.368572e+000  3.380000e+002
      vertex -1.074756e+002 -3.368572e+000  3.230000e+002
      vertex -1.073817e+002 -3.678101e+000  3.230000e+002
    endloop
  endfacet
  facet normal -9.569400e-001 -2.902859e-001  0.000000e+000
    outer loop
      vertex -1.074756e+002 -3.368572e+000  3.380000e+002
      vertex -1.073817e+002 -3.678101e+000  3.230000e+002
      vertex -1.073817e+002 -3.678101e+000  3.380000e+002
    endloop
  endfacet
  facet normal -9.951836e-001 -9.802780e-002  -0.000000e+000
    outer loop
      vertex -1.073817e+002 -3.678101e+000  3.380000e+002
      vertex -1.073817e+002 -3.678101e+000  3.230000e+002
      vertex -1.073500e+002 -4.000000e+000  3.230000e+002
    endloop
  endfacet
  facet normal -9.951836e-001 -9.802780e-002  0.000000e+000
    outer loop
      vertex -1.073817e+002 -3.678101e+000  3.380000e+002
      vertex -1.073500e+002 -4.000000e+000  3.230000e+002
      vertex -1.073500e+002 -4.000000e+000  3.380000e+002
    endloop
  endfacet
  facet normal -9.801745e-002  9.951847e-001  0.000000e+000
    outer loop
      vertex -1.090000e+002 -5.650000e+000  3.230000e+002
      vertex -1.086781e+002 -5.618296e+000  3.380000e+002
      vertex -1.086781e+002 -5.618296e+000  3.230000e+002
    endloop
  endfacet
  facet normal -2.902882e-001  9.569393e-001  0.000000e+000
    outer loop
      vertex -1.086781e+002 -5.618296e+000  3.230000e+002
      vertex -1.086781e+002 -5.618296e+000  3.380000e+002
      vertex -1.083686e+002 -5.524401e+000  3.380000e+002
    endloop
  endfacet
  facet normal -2.902882e-001  9.569393e-001  0.000000e+000
    outer loop
      vertex -1.086781e+002 -5.618296e+000  3.230000e+002
      vertex -1.083686e+002 -5.524401e+000  3.380000e+002
      vertex -1.083686e+002 -5.524401e+000  3.230000e+002
    endloop
  endfacet
  facet normal -4.713870e-001  8.819265e-001  0.000000e+000
    outer loop
      vertex -1.083686e+002 -5.524401e+000  3.230000e+002
      vertex -1.083686e+002 -5.524401e+000  3.380000e+002
      vertex -1.080833e+002 -5.371925e+000  3.380000e+002
    endloop
  endfacet
  facet normal -4.713870e-001  8.819265e-001  0.000000e+000
    outer loop
      vertex -1.083686e+002 -5.524401e+000  3.230000e+002
      vertex -1.080833e+002 -5.371925e+000  3.380000e+002
      vertex -1.080833e+002 -5.371925e+000  3.230000e+002
    endloop
  endfacet
  facet normal -6.344007e-001  7.730044e-001  0.000000e+000
    outer loop
      vertex -1.080833e+002 -5.371925e+000  3.230000e+002
      vertex -1.080833e+002 -5.371925e+000  3.380000e+002
      vertex -1.078333e+002 -5.166726e+000  3.380000e+002
    endloop
  endfacet
  facet normal -6.344007e-001  7.730044e-001  0.000000e+000
    outer loop
      vertex -1.080833e+002 -5.371925e+000  3.230000e+002
      vertex -1.078333e+002 -5.166726e+000  3.380000e+002
      vertex -1.078333e+002 -5.166726e+000  3.230000e+002
    endloop
  endfacet
  facet normal -7.730080e-001  6.343961e-001  0.000000e+000
    outer loop
      vertex -1.078333e+002 -5.166726e+000  3.230000e+002
      vertex -1.078333e+002 -5.166726e+000  3.380000e+002
      vertex -1.076281e+002 -4.916691e+000  3.380000e+002
    endloop
  endfacet
  facet normal -7.730080e-001  6.343961e-001  0.000000e+000
    outer loop
      vertex -1.078333e+002 -5.166726e+000  3.230000e+002
      vertex -1.076281e+002 -4.916691e+000  3.380000e+002
      vertex -1.076281e+002 -4.916691e+000  3.230000e+002
    endloop
  endfacet
  facet normal -8.819249e-001  4.713899e-001  0.000000e+000
    outer loop
      vertex -1.076281e+002 -4.916691e+000  3.230000e+002
      vertex -1.076281e+002 -4.916691e+000  3.380000e+002
      vertex -1.074756e+002 -4.631428e+000  3.380000e+002
    endloop
  endfacet
  facet normal -8.819249e-001  4.713899e-001  0.000000e+000
    outer loop
      vertex -1.076281e+002 -4.916691e+000  3.230000e+002
      vertex -1.074756e+002 -4.631428e+000  3.380000e+002
      vertex -1.074756e+002 -4.631428e+000  3.230000e+002
    endloop
  endfacet
  facet normal -9.569400e-001  2.902859e-001  0.000000e+000
    outer loop
      vertex -1.074756e+002 -4.631428e+000  3.230000e+002
      vertex -1.074756e+002 -4.631428e+000  3.380000e+002
      vertex -1.073817e+002 -4.321899e+000  3.380000e+002
    endloop
  endfacet
  facet normal -9.569400e-001  2.902859e-001  0.000000e+000
    outer loop
      vertex -1.074756e+002 -4.631428e+000  3.230000e+002
      vertex -1.073817e+002 -4.321899e+000  3.380000e+002
      vertex -1.073817e+002 -4.321899e+000  3.230000e+002
    endloop
  endfacet
  facet normal -9.951836e-001  9.802780e-002  0.000000e+000
    outer loop
      vertex -1.073817e+002 -4.321899e+000  3.230000e+002
      vertex -1.073817e+002 -4.321899e+000  3.380000e+002
      vertex -1.073500e+002 -4.000000e+000  3.380000e+002
    endloop
  endfacet
  facet normal -9.951836e-001  9.802780e-002  0.000000e+000
    outer loop
      vertex -1.073817e+002 -4.321899e+000  3.230000e+002
      vertex -1.073500e+002 -4.000000e+000  3.380000e+002
      vertex -1.073500e+002 -4.000000e+000  3.230000e+002
    endloop
  endfacet
  facet normal -9.801745e-002  9.951847e-001  0.000000e+000
    outer loop
      vertex -1.086781e+002 -5.618296e+000  3.380000e+002
      vertex -1.090000e+002 -5.650000e+000  3.230000e+002
      vertex -1.090000e+002 -5.650000e+000  3.380000e+002
    endloop
  endfacet
  facet normal  9.801745e-002  9.951847e-001  0.000000e+000
    outer loop
      vertex -1.090000e+002 -5.650000e+000  3.380000e+002
      vertex -1.090000e+002 -5.650000e+000  3.230000e+002
      vertex -1.093219e+002 -5.618296e+000  3.230000e+002
    endloop
  endfacet
  facet normal  9.801745e-002  9.951847e-001  -0.000000e+000
    outer loop
      vertex -1.090000e+002 -5.650000e+000  3.380000e+002
      vertex -1.093219e+002 -5.618296e+000  3.230000e+002
      vertex -1.093219e+002 -5.618296e+000  3.380000e+002
    endloop
  endfacet
  facet normal  2.902882e-001  9.569393e-001  0.000000e+000
    outer loop
      vertex -1.093219e+002 -5.618296e+000  3.380000e+002
      vertex -1.093219e+002 -5.618296e+000  3.230000e+002
      vertex -1.096314e+002 -5.524401e+000  3.230000e+002
    endloop
  endfacet
  facet normal  2.902882e-001  9.569393e-001  -0.000000e+000
    outer loop
      vertex -1.093219e+002 -5.618296e+000  3.380000e+002
      vertex -1.096314e+002 -5.524401e+000  3.230000e+002
      vertex -1.096314e+002 -5.524401e+000  3.380000e+002
    endloop
  endfacet
  facet normal  4.713870e-001  8.819265e-001  0.000000e+000
    outer loop
      vertex -1.096314e+002 -5.524401e+000  3.380000e+002
      vertex -1.096314e+002 -5.524401e+000  3.230000e+002
      vertex -1.099167e+002 -5.371925e+000  3.230000e+002
    endloop
  endfacet
  facet normal  4.713870e-001  8.819265e-001  -0.000000e+000
    outer loop
      vertex -1.096314e+002 -5.524401e+000  3.380000e+002
      vertex -1.099167e+002 -5.371925e+000  3.230000e+002
      vertex -1.099167e+002 -5.371925e+000  3.380000e+002
    endloop
  endfacet
  facet normal  6.344007e-001  7.730044e-001  0.000000e+000
    outer loop
      vertex -1.099167e+002 -5.371925e+000  3.380000e+002
      vertex -1.099167e+002 -5.371925e+000  3.230000e+002
      vertex -1.101667e+002 -5.166726e+000  3.230000e+002
    endloop
  endfacet
  facet normal  6.344007e-001  7.730044e-001  -0.000000e+000
    outer loop
      vertex -1.099167e+002 -5.371925e+000  3.380000e+002
      vertex -1.101667e+002 -5.166726e+000  3.230000e+002
      vertex -1.101667e+002 -5.166726e+000  3.380000e+002
    endloop
  endfacet
  facet normal  7.730080e-001  6.343961e-001  0.000000e+000
    outer loop
      vertex -1.101667e+002 -5.166726e+000  3.380000e+002
      vertex -1.101667e+002 -5.166726e+000  3.230000e+002
      vertex -1.103719e+002 -4.916691e+000  3.230000e+002
    endloop
  endfacet
  facet normal  7.730080e-001  6.343961e-001  -0.000000e+000
    outer loop
      vertex -1.101667e+002 -5.166726e+000  3.380000e+002
      vertex -1.103719e+002 -4.916691e+000  3.230000e+002
      vertex -1.103719e+002 -4.916691e+000  3.380000e+002
    endloop
  endfacet
  facet normal  8.819249e-001  4.713899e-001  0.000000e+000
    outer loop
      vertex -1.103719e+002 -4.916691e+000  3.380000e+002
      vertex -1.103719e+002 -4.916691e+000  3.230000e+002
      vertex -1.105244e+002 -4.631428e+000  3.230000e+002
    endloop
  endfacet
  facet normal  8.819249e-001  4.713899e-001  -0.000000e+000
    outer loop
      vertex -1.103719e+002 -4.916691e+000  3.380000e+002
      vertex -1.105244e+002 -4.631428e+000  3.230000e+002
      vertex -1.105244e+002 -4.631428e+000  3.380000e+002
    endloop
  endfacet
  facet normal  9.569400e-001  2.902859e-001  0.000000e+000
    outer loop
      vertex -1.105244e+002 -4.631428e+000  3.380000e+002
      vertex -1.105244e+002 -4.631428e+000  3.230000e+002
      vertex -1.106183e+002 -4.321899e+000  3.230000e+002
    endloop
  endfacet
  facet normal  9.569400e-001  2.902859e-001  -0.000000e+000
    outer loop
      vertex -1.105244e+002 -4.631428e+000  3.380000e+002
      vertex -1.106183e+002 -4.321899e+000  3.230000e+002
      vertex -1.106183e+002 -4.321899e+000  3.380000e+002
    endloop
  endfacet
  facet normal  9.951836e-001  9.802780e-002  0.000000e+000
    outer loop
      vertex -1.106183e+002 -4.321899e+000  3.380000e+002
      vertex -1.106183e+002 -4.321899e+000  3.230000e+002
      vertex -1.106500e+002 -4.000000e+000  3.230000e+002
    endloop
  endfacet
  facet normal  9.951836e-001  9.802780e-002  -0.000000e+000
    outer loop
      vertex -1.106183e+002 -4.321899e+000  3.380000e+002
      vertex -1.106500e+002 -4.000000e+000  3.230000e+002
      vertex -1.106500e+002 -4.000000e+000  3.380000e+002
    endloop
  endfacet
  facet normal  0.000000e+000 -1.000000e+000  -0.000000e+000
    outer loop
      vertex -1.040000e+002 -1.275000e+001  3.230000e+002
      vertex -1.040000e+002 -1.275000e+001  3.267000e+002
      vertex -1.127000e+002 -1.275000e+001  3.230000e+002
    endloop
  endfacet
  facet normal  0.000000e+000 -1.000000e+000  0.000000e+000
    outer loop
      vertex -1.127000e+002 -1.275000e+001  3.230000e+002
      vertex -1.040000e+002 -1.275000e+001  3.267000e+002
      vertex -1.127000e+002 -1.275000e+001  3.267000e+002
    endloop
  endfacet
  facet normal  1.000000e+000  0.000000e+000  0.000000e+000
    outer loop
      vertex -1.040000e+002 -1.275000e+001  3.230000e+002
      vertex -1.040000e+002  0.000000e+000  3.230000e+002
      vertex -1.040000e+002 -1.275000e+001  3.267000e+002
    endloop
  endfacet
  facet normal  1.000000e+000  -0.000000e+000  0.000000e+000
    outer loop
      vertex -1.040000e+002 -1.275000e+001  3.267000e+002
      vertex -1.040000e+002  0.000000e+000  3.230000e+002
      vertex -1.040000e+002 -7.250000e+000  3.267000e+002
    endloop
  endfacet
  facet normal  1.000000e+000  0.000000e+000  0.000000e+000
    outer loop
      vertex -1.040000e+002  0.000000e+000  3.230000e+002
      vertex -1.040000e+002  0.000000e+000  3.380000e+002
      vertex -1.040000e+002 -7.250000e+000  3.267000e+002
    endloop
  endfacet
  facet normal  1.000000e+000  0.000000e+000  0.000000e+000
    outer loop
      vertex -1.040000e+002 -7.250000e+000  3.267000e+002
      vertex -1.040000e+002  0.000000e+000  3.380000e+002
      vertex -1.040000e+002 -7.250000e+000  3.380000e+002
    endloop
  endfacet
  facet normal  0.000000e+000  1.000000e+000  0.000000e+000
    outer loop
      vertex -1.127000e+002 -2.725000e+001  3.230000e+002
      vertex -1.127000e+002 -2.725000e+001  3.267000e+002
      vertex -1.040000e+002 -2.725000e+001  3.230000e+002
    endloop
  endfacet
  facet normal  0.000000e+000  1.000000e+000  -0.000000e+000
    outer loop
      vertex -1.040000e+002 -2.725000e+001  3.230000e+002
      vertex -1.127000e+002 -2.725000e+001  3.267000e+002
      vertex -1.040000e+002 -2.725000e+001  3.267000e+002
    endloop
  endfacet
  facet normal  1.000000e+000  0.000000e+000  -0.000000e+000
    outer loop
      vertex -1.040000e+002 -4.000000e+001  3.230000e+002
      vertex -1.040000e+002 -2.725000e+001  3.230000e+002
      vertex -1.040000e+002 -2.725000e+001  3.267000e+002
    endloop
  endfacet
  facet normal  1.000000e+000  0.000000e+000  0.000000e+000
    outer loop
      vertex -1.040000e+002 -4.000000e+001  3.230000e+002
      vertex -1.040000e+002 -2.725000e+001  3.267000e+002
      vertex -1.040000e+002 -3.275000e+001  3.267000e+002
    endloop
  endfacet
  facet normal  1.000000e+000  0.000000e+000  -0.000000e+000
    outer loop
      vertex -1.040000e+002 -4.000000e+001  3.230000e+002
      vertex -1.040000e+002 -3.275000e+001  3.267000e+002
      vertex -1.040000e+002 -3.275000e+001  3.380000e+002
    endloop
  endfacet
  facet normal  1.000000e+000  0.000000e+000  0.000000e+000
    outer loop
      vertex -1.040000e+002 -4.000000e+001  3.230000e+002
      vertex -1.040000e+002 -3.275000e+001  3.380000e+002
      vertex -1.040000e+002 -4.000000e+001  3.380000e+002
    endloop
  endfacet
  facet normal -1.000000e+000  0.000000e+000  0.000000e+000
    outer loop
      vertex -1.140000e+002  0.000000e+000  3.230000e+002
      vertex -1.140000e+002 -7.250000e+000  3.380000e+002
      vertex -1.140000e+002  0.000000e+000  3.380000e+002
    endloop
  endfacet
  facet normal -1.000000e+000  0.000000e+000  0.000000e+000
    outer loop
      vertex -1.140000e+002 -7.250000e+000  3.380000e+002
      vertex -1.140000e+002  0.000000e+000  3.230000e+002
      vertex -1.140000e+002 -7.250000e+000  3.267000e+002
    endloop
  endfacet
  facet normal -1.000000e+000  0.000000e+000  -0.000000e+000
    outer loop
      vertex -1.140000e+002 -7.250000e+000  3.267000e+002
      vertex -1.140000e+002  0.000000e+000  3.230000e+002
      vertex -1.140000e+002 -4.000000e+001  3.230000e+002
    endloop
  endfacet
  facet normal -1.000000e+000  0.000000e+000  0.000000e+000
    outer loop
      vertex -1.140000e+002 -7.250000e+000  3.267000e+002
      vertex -1.140000e+002 -4.000000e+001  3.230000e+002
      vertex -1.140000e+002 -3.275000e+001  3.267000e+002
    endloop
  endfacet
  facet normal -1.000000e+000  -0.000000e+000  0.000000e+000
    outer loop
      vertex -1.140000e+002 -3.275000e+001  3.267000e+002
      vertex -1.140000e+002 -4.000000e+001  3.230000e+002
      vertex -1.140000e+002 -4.000000e+001  3.380000e+002
    endloop
  endfacet
  facet normal -1.000000e+000  0.000000e+000  0.000000e+000
    outer loop
      vertex -1.140000e+002 -3.275000e+001  3.267000e+002
      vertex -1.140000e+002 -4.000000e+001  3.380000e+002
      vertex -1.140000e+002 -3.275000e+001  3.380000e+002
    endloop
  endfacet
  facet normal  1.000000e+000  0.000000e+000  0.000000e+000
    outer loop
      vertex -1.127000e+002 -1.275000e+001  3.230000e+002
      vertex -1.127000e+002 -1.275000e+001  3.267000e+002
      vertex -1.127000e+002 -2.725000e+001  3.230000e+002
    endloop
  endfacet
  facet normal  1.000000e+000  0.000000e+000  0.000000e+000
    outer loop
      vertex -1.127000e+002 -2.725000e+001  3.230000e+002
      vertex -1.127000e+002 -1.275000e+001  3.267000e+002
      vertex -1.127000e+002 -2.725000e+001  3.267000e+002
    endloop
  endfacet
  facet normal  0.000000e+000  9.999999e-001  0.000000e+000
    outer loop
      vertex -1.040000e+002 -3.275000e+001  3.267000e+002
      vertex -1.140000e+002 -3.275000e+001  3.267000e+002
      vertex -1.040000e+002 -3.275000e+001  3.380000e+002
    endloop
  endfacet
  facet normal  0.000000e+000  9.999999e-001  0.000000e+000
    outer loop
      vertex -1.040000e+002 -3.275000e+001  3.380000e+002
      vertex -1.140000e+002 -3.275000e+001  3.267000e+002
      vertex -1.140000e+002 -3.275000e+001  3.380000e+002
    endloop
  endfacet
  facet normal  0.000000e+000  -0.000000e+000  9.999999e-001
    outer loop
      vertex -1.140000e+002 -7.250000e+000  3.267000e+002
      vertex -1.040000e+002 -1.275000e+001  3.267000e+002
      vertex -1.040000e+002 -7.250000e+000  3.267000e+002
    endloop
  endfacet
  facet normal  0.000000e+000  0.000000e+000  1.000000e+000
    outer loop
      vertex -1.040000e+002 -1.275000e+001  3.267000e+002
      vertex -1.140000e+002 -7.250000e+000  3.267000e+002
      vertex -1.127000e+002 -1.275000e+001  3.267000e+002
    endloop
  endfacet
  facet normal  0.000000e+000  0.000000e+000  1.000000e+000
    outer loop
      vertex -1.127000e+002 -1.275000e+001  3.267000e+002
      vertex -1.140000e+002 -7.250000e+000  3.267000e+002
      vertex -1.140000e+002 -3.275000e+001  3.267000e+002
    endloop
  endfacet
  facet normal  0.000000e+000  0.000000e+000  1.000000e+000
    outer loop
      vertex -1.127000e+002 -1.275000e+001  3.267000e+002
      vertex -1.140000e+002 -3.275000e+001  3.267000e+002
      vertex -1.127000e+002 -2.725000e+001  3.267000e+002
    endloop
  endfacet
  facet normal  0.000000e+000  0.000000e+000  9.999999e-001
    outer loop
      vertex -1.127000e+002 -2.725000e+001  3.267000e+002
      vertex -1.140000e+002 -3.275000e+001  3.267000e+002
      vertex -1.040000e+002 -3.275000e+001  3.267000e+002
    endloop
  endfacet
  facet normal  0.000000e+000  -0.000000e+000  1.000000e+000
    outer loop
      vertex -1.127000e+002 -2.725000e+001  3.267000e+002
      vertex -1.040000e+002 -3.275000e+001  3.267000e+002
      vertex -1.040000e+002 -2.725000e+001  3.267000e+002
    endloop
  endfacet
  facet normal  0.000000e+000 -9.999999e-001  0.000000e+000
    outer loop
      vertex -1.040000e+002 -7.250000e+000  3.380000e+002
      vertex -1.140000e+002 -7.250000e+000  3.380000e+002
      vertex -1.040000e+002 -7.250000e+000  3.267000e+002
    endloop
  endfacet
  facet normal  0.000000e+000 -9.999999e-001  0.000000e+000
    outer loop
      vertex -1.040000e+002 -7.250000e+000  3.267000e+002
      vertex -1.140000e+002 -7.250000e+000  3.380000e+002
      vertex -1.140000e+002 -7.250000e+000  3.267000e+002
    endloop
  endfacet
  facet normal  0.000000e+000 -1.000000e+000  0.000000e+000
    outer loop
      vertex -1.140000e+002 -4.000000e+001  3.380000e+002
      vertex -1.140000e+002 -4.000000e+001  3.230000e+002
      vertex -1.040000e+002 -4.000000e+001  3.380000e+002
    endloop
  endfacet
  facet normal  0.000000e+000 -1.000000e+000  -0.000000e+000
    outer loop
      vertex -1.040000e+002 -4.000000e+001  3.380000e+002
      vertex -1.140000e+002 -4.000000e+001  3.230000e+002
      vertex -1.040000e+002 -4.000000e+001  3.230000e+002
    endloop
  endfacet
  facet normal  0.000000e+000  1.000000e+000  -0.000000e+000
    outer loop
      vertex -1.040000e+002  0.000000e+000  3.380000e+002
      vertex -1.040000e+002  0.000000e+000  3.230000e+002
      vertex -1.140000e+002  0.000000e+000  3.380000e+002
    endloop
  endfacet
  facet normal  0.000000e+000  1.000000e+000  0.000000e+000
    outer loop
      vertex -1.140000e+002  0.000000e+000  3.380000e+002
      vertex -1.040000e+002  0.000000e+000  3.230000e+002
      vertex -1.140000e+002  0.000000e+000  3.230000e+002
    endloop
  endfacet
endsolid CATIA STL
