%TF.GenerationSoftware,KiCad,Pcbnew,7.0.8*%
%TF.CreationDate,2023-11-15T00:13:47+01:00*%
%TF.ProjectId,main_board_v2,6d61696e-5f62-46f6-9172-645f76322e6b,rev?*%
%TF.SameCoordinates,Original*%
%TF.FileFunction,Soldermask,Bot*%
%TF.FilePolarity,Negative*%
%FSLAX46Y46*%
G04 Gerber Fmt 4.6, Leading zero omitted, Abs format (unit mm)*
G04 Created by KiCad (PCBNEW 7.0.8) date 2023-11-15 00:13:47*
%MOMM*%
%LPD*%
G01*
G04 APERTURE LIST*
G04 Aperture macros list*
%AMRoundRect*
0 Rectangle with rounded corners*
0 $1 Rounding radius*
0 $2 $3 $4 $5 $6 $7 $8 $9 X,Y pos of 4 corners*
0 Add a 4 corners polygon primitive as box body*
4,1,4,$2,$3,$4,$5,$6,$7,$8,$9,$2,$3,0*
0 Add four circle primitives for the rounded corners*
1,1,$1+$1,$2,$3*
1,1,$1+$1,$4,$5*
1,1,$1+$1,$6,$7*
1,1,$1+$1,$8,$9*
0 Add four rect primitives between the rounded corners*
20,1,$1+$1,$2,$3,$4,$5,0*
20,1,$1+$1,$4,$5,$6,$7,0*
20,1,$1+$1,$6,$7,$8,$9,0*
20,1,$1+$1,$8,$9,$2,$3,0*%
G04 Aperture macros list end*
%ADD10C,2.750000*%
%ADD11R,1.750000X1.750000*%
%ADD12C,1.750000*%
%ADD13C,1.440000*%
%ADD14RoundRect,0.200000X-0.200000X-0.275000X0.200000X-0.275000X0.200000X0.275000X-0.200000X0.275000X0*%
%ADD15R,1.700000X1.700000*%
%ADD16O,1.700000X1.700000*%
%ADD17RoundRect,0.250000X0.625000X-0.350000X0.625000X0.350000X-0.625000X0.350000X-0.625000X-0.350000X0*%
%ADD18O,1.750000X1.200000*%
%ADD19C,1.600000*%
%ADD20O,1.600000X1.600000*%
%ADD21R,1.600000X1.600000*%
%ADD22RoundRect,0.243750X-0.243750X-0.456250X0.243750X-0.456250X0.243750X0.456250X-0.243750X0.456250X0*%
%ADD23RoundRect,0.102000X1.102500X-1.102500X1.102500X1.102500X-1.102500X1.102500X-1.102500X-1.102500X0*%
%ADD24C,2.409000*%
%ADD25C,3.234000*%
%ADD26RoundRect,0.250000X-0.350000X-0.625000X0.350000X-0.625000X0.350000X0.625000X-0.350000X0.625000X0*%
%ADD27O,1.200000X1.750000*%
%ADD28C,2.400000*%
%ADD29C,3.500000*%
%ADD30RoundRect,0.249630X-0.535370X0.895370X-0.535370X-0.895370X0.535370X-0.895370X0.535370X0.895370X0*%
%ADD31O,1.570000X2.290000*%
%ADD32RoundRect,0.250000X-0.625000X0.350000X-0.625000X-0.350000X0.625000X-0.350000X0.625000X0.350000X0*%
%ADD33RoundRect,1.500000X1.500000X1.500000X-1.500000X1.500000X-1.500000X-1.500000X1.500000X-1.500000X0*%
%ADD34C,6.000000*%
%ADD35RoundRect,1.500000X-1.500000X-1.500000X1.500000X-1.500000X1.500000X1.500000X-1.500000X1.500000X0*%
%ADD36RoundRect,0.102000X-1.375000X1.375000X-1.375000X-1.375000X1.375000X-1.375000X1.375000X1.375000X0*%
%ADD37C,2.954000*%
%ADD38C,1.524000*%
G04 APERTURE END LIST*
D10*
%TO.C,J1*%
X271125200Y-132782600D03*
X320125200Y-132782600D03*
X271125200Y-74782600D03*
X320125200Y-74782600D03*
D11*
X272395200Y-127912600D03*
D12*
X269855200Y-127912600D03*
X272395200Y-125372600D03*
X269855200Y-125372600D03*
X272395200Y-122832600D03*
X269855200Y-122832600D03*
X272395200Y-120292600D03*
X269855200Y-120292600D03*
X272395200Y-117752600D03*
X269855200Y-117752600D03*
X272395200Y-115212600D03*
X269855200Y-115212600D03*
X272395200Y-112672600D03*
X269855200Y-112672600D03*
X272395200Y-110132600D03*
X269855200Y-110132600D03*
X272395200Y-107592600D03*
X269855200Y-107592600D03*
X272395200Y-105052600D03*
X269855200Y-105052600D03*
X272395200Y-102512600D03*
X269855200Y-102512600D03*
X272395200Y-99972600D03*
X269855200Y-99972600D03*
X272395200Y-97432600D03*
X269855200Y-97432600D03*
X272395200Y-94892600D03*
X269855200Y-94892600D03*
X272395200Y-92352600D03*
X269855200Y-92352600D03*
X272395200Y-89812600D03*
X269855200Y-89812600D03*
X272395200Y-87272600D03*
X269855200Y-87272600D03*
X272395200Y-84732600D03*
X269855200Y-84732600D03*
X272395200Y-82192600D03*
X269855200Y-82192600D03*
X272395200Y-79652600D03*
X269855200Y-79652600D03*
%TD*%
D13*
%TO.C,R7*%
X288381600Y-268020800D03*
X285841600Y-268020800D03*
X283301600Y-268020800D03*
%TD*%
%TO.C,R6*%
X299974000Y-267970000D03*
X302514000Y-267970000D03*
X305054000Y-267970000D03*
%TD*%
D14*
%TO.C,R4*%
X257111000Y-106172000D03*
X255461000Y-106172000D03*
%TD*%
%TO.C,R3*%
X257111000Y-101769333D03*
X255461000Y-101769333D03*
%TD*%
%TO.C,R2*%
X257111000Y-97536000D03*
X255461000Y-97536000D03*
%TD*%
%TO.C,R1*%
X257111000Y-110236000D03*
X255461000Y-110236000D03*
%TD*%
D15*
%TO.C,Servo4*%
X340360000Y-217912000D03*
D16*
X337820000Y-217912000D03*
X335280000Y-217912000D03*
%TD*%
D15*
%TO.C,Servo2*%
X340360000Y-208612000D03*
D16*
X337820000Y-208612000D03*
X335280000Y-208612000D03*
%TD*%
D15*
%TO.C,Servo8*%
X340360000Y-239382200D03*
D16*
X337820000Y-239382200D03*
X335280000Y-239382200D03*
%TD*%
D17*
%TO.C,Tirette1*%
X250444000Y-67754000D03*
D18*
X250444000Y-65754000D03*
X250444000Y-63754000D03*
X250444000Y-61754000D03*
%TD*%
D19*
%TO.C,C6*%
X316444000Y-203454000D03*
X313944000Y-203454000D03*
%TD*%
D20*
%TO.C,A3*%
X258064000Y-216170000D03*
X260604000Y-216170000D03*
X263144000Y-216170000D03*
X265684000Y-216170000D03*
X268224000Y-216170000D03*
X270764000Y-216170000D03*
X273304000Y-216170000D03*
X275844000Y-216170000D03*
X275844000Y-228870000D03*
X273304000Y-228870000D03*
X270764000Y-228870000D03*
X268224000Y-228870000D03*
X265684000Y-228870000D03*
X263144000Y-228870000D03*
X260604000Y-228870000D03*
D21*
X258064000Y-228870000D03*
%TD*%
D15*
%TO.C,Servo10*%
X340360000Y-248682200D03*
D16*
X337820000Y-248682200D03*
X335280000Y-248682200D03*
%TD*%
D17*
%TO.C,RPI_serial1*%
X249936000Y-121920000D03*
D18*
X249936000Y-119920000D03*
X249936000Y-117920000D03*
%TD*%
D22*
%TO.C,TiretteOK1*%
X260993500Y-110236000D03*
X259118500Y-110236000D03*
%TD*%
D19*
%TO.C,C11*%
X275778600Y-222910400D03*
X273278600Y-222910400D03*
%TD*%
D23*
%TO.C,PS2*%
X273344000Y-288174000D03*
D24*
X280944000Y-288174000D03*
X288544000Y-288174000D03*
D25*
X288544000Y-274574000D03*
D24*
X280944000Y-274574000D03*
X277144000Y-274574000D03*
D25*
X273344000Y-274574000D03*
%TD*%
D21*
%TO.C,A2*%
X258064000Y-245660000D03*
D20*
X260604000Y-245660000D03*
X263144000Y-245660000D03*
X265684000Y-245660000D03*
X268224000Y-245660000D03*
X270764000Y-245660000D03*
X273304000Y-245660000D03*
X275844000Y-245660000D03*
X275844000Y-232960000D03*
X273304000Y-232960000D03*
X270764000Y-232960000D03*
X268224000Y-232960000D03*
X265684000Y-232960000D03*
X263144000Y-232960000D03*
X260604000Y-232960000D03*
X258064000Y-232960000D03*
%TD*%
D22*
%TO.C,ERR2*%
X259158500Y-101854000D03*
X261033500Y-101854000D03*
%TD*%
D18*
%TO.C,Stepper4*%
X250757600Y-202740000D03*
X250757600Y-204740000D03*
X250757600Y-206740000D03*
D17*
X250757600Y-208740000D03*
%TD*%
D16*
%TO.C,U3*%
X314756800Y-144119600D03*
X314756800Y-146659600D03*
D15*
X314756800Y-149199600D03*
D16*
X314756800Y-151739600D03*
X314756800Y-154279600D03*
X314756800Y-156819600D03*
X314756800Y-159359600D03*
D15*
X314756800Y-161899600D03*
D16*
X314756800Y-164439600D03*
X314756800Y-166979600D03*
X314756800Y-169519600D03*
X314756800Y-172059600D03*
D15*
X314756800Y-174599600D03*
D16*
X314756800Y-177139600D03*
X314756800Y-179679600D03*
X314756800Y-182219600D03*
X314756800Y-184759600D03*
D15*
X314756800Y-187299600D03*
D16*
X314756800Y-189839600D03*
X314756800Y-192379600D03*
X332536800Y-192379600D03*
X332536800Y-189839600D03*
D15*
X332536800Y-187299600D03*
D16*
X332536800Y-184759600D03*
X332536800Y-182219600D03*
X332536800Y-179679600D03*
X332536800Y-177139600D03*
D15*
X332536800Y-174599600D03*
D16*
X332536800Y-172059600D03*
X332536800Y-169519600D03*
X332536800Y-166979600D03*
X332536800Y-164439600D03*
D15*
X332536800Y-161899600D03*
D16*
X332536800Y-159359600D03*
X332536800Y-156819600D03*
X332536800Y-154279600D03*
X332536800Y-151739600D03*
D15*
X332536800Y-149199600D03*
D16*
X332536800Y-146659600D03*
X332536800Y-144119600D03*
X321106800Y-192149600D03*
D15*
X323646800Y-192149600D03*
D16*
X326186800Y-192149600D03*
%TD*%
D19*
%TO.C,C9*%
X276032600Y-255905000D03*
X273532600Y-255905000D03*
%TD*%
%TO.C,C8*%
X283718000Y-263398000D03*
X281950233Y-261630233D03*
%TD*%
D26*
%TO.C,PICO2_swd1*%
X327946000Y-54102000D03*
D27*
X329946000Y-54102000D03*
X331946000Y-54102000D03*
%TD*%
D19*
%TO.C,C3*%
X299212000Y-295402000D03*
X301712000Y-295402000D03*
%TD*%
D17*
%TO.C,PICO1_UART1*%
X249936000Y-134556000D03*
D18*
X249936000Y-132556000D03*
X249936000Y-130556000D03*
%TD*%
D21*
%TO.C,A4*%
X258064000Y-212080000D03*
D20*
X260604000Y-212080000D03*
X263144000Y-212080000D03*
X265684000Y-212080000D03*
X268224000Y-212080000D03*
X270764000Y-212080000D03*
X273304000Y-212080000D03*
X275844000Y-212080000D03*
X275844000Y-199380000D03*
X273304000Y-199380000D03*
X270764000Y-199380000D03*
X268224000Y-199380000D03*
X265684000Y-199380000D03*
X263144000Y-199380000D03*
X260604000Y-199380000D03*
X258064000Y-199380000D03*
%TD*%
D19*
%TO.C,C5*%
X313517600Y-264998200D03*
X311017600Y-264998200D03*
%TD*%
D22*
%TO.C,ERR3*%
X259158500Y-106172000D03*
X261033500Y-106172000D03*
%TD*%
D18*
%TO.C,Stepper2*%
X250757600Y-236320000D03*
X250757600Y-238320000D03*
X250757600Y-240320000D03*
D17*
X250757600Y-242320000D03*
%TD*%
D15*
%TO.C,Servo3*%
X340360000Y-213262000D03*
D16*
X337820000Y-213262000D03*
X335280000Y-213262000D03*
%TD*%
D28*
%TO.C,F1*%
X271752000Y-303981000D03*
D29*
X276352000Y-305181000D03*
X267152000Y-305181000D03*
%TD*%
D30*
%TO.C,U1*%
X256794000Y-63500000D03*
D31*
X260604000Y-63500000D03*
X259964000Y-73660000D03*
X257434000Y-73660000D03*
%TD*%
D32*
%TO.C,PICO2_I2C1*%
X338836000Y-127826000D03*
D18*
X338836000Y-129826000D03*
X338836000Y-131826000D03*
%TD*%
D15*
%TO.C,Servo5*%
X340360000Y-222562000D03*
D16*
X337820000Y-222562000D03*
X335280000Y-222562000D03*
%TD*%
D23*
%TO.C,PS1*%
X299796200Y-288163000D03*
D24*
X307396200Y-288163000D03*
X314996200Y-288163000D03*
D25*
X314996200Y-274563000D03*
D24*
X307396200Y-274563000D03*
X303596200Y-274563000D03*
D25*
X299796200Y-274563000D03*
%TD*%
D33*
%TO.C,Battery1*%
X306310400Y-312775600D03*
D34*
X299110400Y-312775600D03*
%TD*%
D26*
%TO.C,PICO1_swd1*%
X259270000Y-54102000D03*
D27*
X261270000Y-54102000D03*
X263270000Y-54102000D03*
%TD*%
D17*
%TO.C,RPI_SPI1*%
X249682000Y-84010000D03*
D18*
X249682000Y-82010000D03*
X249682000Y-80010000D03*
X249682000Y-78010000D03*
%TD*%
D17*
%TO.C,LEDStrip1*%
X249682000Y-95440000D03*
D18*
X249682000Y-93440000D03*
X249682000Y-91440000D03*
%TD*%
D35*
%TO.C,BAU1*%
X281496400Y-312775600D03*
D34*
X288696400Y-312775600D03*
%TD*%
D19*
%TO.C,R5*%
X256794000Y-77470000D03*
D20*
X266954000Y-77470000D03*
%TD*%
D15*
%TO.C,Servo9*%
X340360000Y-244032200D03*
D16*
X337820000Y-244032200D03*
X335280000Y-244032200D03*
%TD*%
D22*
%TO.C,ERR1*%
X259158500Y-97536000D03*
X261033500Y-97536000D03*
%TD*%
D15*
%TO.C,Servo6*%
X340360000Y-227212000D03*
D16*
X337820000Y-227212000D03*
X335280000Y-227212000D03*
%TD*%
%TO.C,U2*%
X257251200Y-144170400D03*
X257251200Y-146710400D03*
D15*
X257251200Y-149250400D03*
D16*
X257251200Y-151790400D03*
X257251200Y-154330400D03*
X257251200Y-156870400D03*
X257251200Y-159410400D03*
D15*
X257251200Y-161950400D03*
D16*
X257251200Y-164490400D03*
X257251200Y-167030400D03*
X257251200Y-169570400D03*
X257251200Y-172110400D03*
D15*
X257251200Y-174650400D03*
D16*
X257251200Y-177190400D03*
X257251200Y-179730400D03*
X257251200Y-182270400D03*
X257251200Y-184810400D03*
D15*
X257251200Y-187350400D03*
D16*
X257251200Y-189890400D03*
X257251200Y-192430400D03*
X275031200Y-192430400D03*
X275031200Y-189890400D03*
D15*
X275031200Y-187350400D03*
D16*
X275031200Y-184810400D03*
X275031200Y-182270400D03*
X275031200Y-179730400D03*
X275031200Y-177190400D03*
D15*
X275031200Y-174650400D03*
D16*
X275031200Y-172110400D03*
X275031200Y-169570400D03*
X275031200Y-167030400D03*
X275031200Y-164490400D03*
D15*
X275031200Y-161950400D03*
D16*
X275031200Y-159410400D03*
X275031200Y-156870400D03*
X275031200Y-154330400D03*
X275031200Y-151790400D03*
D15*
X275031200Y-149250400D03*
D16*
X275031200Y-146710400D03*
X275031200Y-144170400D03*
X263601200Y-192200400D03*
D15*
X266141200Y-192200400D03*
D16*
X268681200Y-192200400D03*
%TD*%
D19*
%TO.C,C10*%
X273191600Y-239852200D03*
X275691600Y-239852200D03*
%TD*%
%TO.C,C1*%
X264535883Y-131693883D03*
X262768116Y-129926116D03*
%TD*%
D15*
%TO.C,Servo7*%
X340360000Y-234732200D03*
D16*
X337820000Y-234732200D03*
X335280000Y-234732200D03*
%TD*%
D19*
%TO.C,C4*%
X273344000Y-296418000D03*
X275844000Y-296418000D03*
%TD*%
%TO.C,C7*%
X319024000Y-263144000D03*
X320791767Y-264911767D03*
%TD*%
%TO.C,C12*%
X275626200Y-205867000D03*
X273126200Y-205867000D03*
%TD*%
D18*
%TO.C,Stepper1*%
X250757600Y-252872000D03*
X250757600Y-254872000D03*
X250757600Y-256872000D03*
D17*
X250757600Y-258872000D03*
%TD*%
D21*
%TO.C,A1*%
X258368800Y-262212000D03*
D20*
X260908800Y-262212000D03*
X263448800Y-262212000D03*
X265988800Y-262212000D03*
X268528800Y-262212000D03*
X271068800Y-262212000D03*
X273608800Y-262212000D03*
X276148800Y-262212000D03*
X276148800Y-249512000D03*
X273608800Y-249512000D03*
X271068800Y-249512000D03*
X268528800Y-249512000D03*
X265988800Y-249512000D03*
X263448800Y-249512000D03*
X260908800Y-249512000D03*
X258368800Y-249512000D03*
%TD*%
D17*
%TO.C,RPI_PWMs1*%
X260604000Y-88900000D03*
D18*
X260604000Y-86900000D03*
X260604000Y-84900000D03*
%TD*%
D36*
%TO.C,PS3*%
X314762200Y-257045200D03*
D37*
X309682200Y-257045200D03*
X299522200Y-257045200D03*
X317302200Y-211325200D03*
X307142200Y-211325200D03*
X296982200Y-211325200D03*
%TD*%
D15*
%TO.C,Servo1*%
X340360000Y-203962000D03*
D16*
X337820000Y-203962000D03*
X335280000Y-203962000D03*
%TD*%
D15*
%TO.C,Servo11*%
X340360000Y-253332200D03*
D16*
X337820000Y-253332200D03*
X335280000Y-253332200D03*
%TD*%
D15*
%TO.C,Servo12*%
X340360000Y-258013200D03*
D16*
X337820000Y-258013200D03*
X335280000Y-258013200D03*
%TD*%
D38*
%TO.C,IMU1*%
X283972000Y-164795200D03*
X306832000Y-174955200D03*
X283972000Y-167335200D03*
X283972000Y-169875200D03*
X283972000Y-172415200D03*
X283972000Y-174955200D03*
X306832000Y-172415200D03*
X306832000Y-169875200D03*
X306832000Y-167335200D03*
X306832000Y-164795200D03*
X283972000Y-162255200D03*
X306832000Y-162255200D03*
%TD*%
D18*
%TO.C,Stepper3*%
X250757600Y-219530000D03*
X250757600Y-221530000D03*
X250757600Y-223530000D03*
D17*
X250757600Y-225530000D03*
%TD*%
M02*
