M48
; DRILL file {KiCad 7.0.8} date Thu Nov 23 20:50:45 2023
; FORMAT={-:-/ absolute / inch / decimal}
; #@! TF.CreationDate,2023-11-23T20:50:45+01:00
; #@! TF.GenerationSoftware,Kicad,Pcbnew,7.0.8
; #@! TF.FileFunction,Plated,1,2,PTH
FMAT,2
INCH
; #@! TA.AperFunction,Plated,PTH,ViaDrill
T1C0.0157
; #@! TA.AperFunction,Plated,PTH,ComponentDrill
T2C0.0295
; #@! TA.AperFunction,Plated,PTH,ComponentDrill
T3C0.0300
; #@! TA.AperFunction,Plated,PTH,ComponentDrill
T4C0.0315
; #@! TA.AperFunction,Plated,PTH,ComponentDrill
T5C0.0394
; #@! TA.AperFunction,Plated,PTH,ComponentDrill
T6C0.0400
; #@! TA.AperFunction,Plated,PTH,ComponentDrill
T7C0.0402
; #@! TA.AperFunction,Plated,PTH,ComponentDrill
T8C0.0579
; #@! TA.AperFunction,Plated,PTH,ComponentDrill
T9C0.0787
; #@! TA.AperFunction,Plated,PTH,ComponentDrill
T10C0.0795
; #@! TA.AperFunction,Plated,PTH,ComponentDrill
T11C0.1772
%
G90
G05
T1
X9.738Y-6.118
X9.83Y-8.296
X9.838Y-7.888
X9.84Y-9.65
X9.84Y-9.732
X9.84Y-9.806
X9.846Y-8.988
X9.848Y-9.212
X9.854Y-8.562
X9.876Y-8.338
X9.896Y-7.888
X9.896Y-9.652
X9.914Y-9.218
X9.926Y-8.562
X9.94Y-8.39
X9.946Y-9.706
X9.952Y-3.644
X9.962Y-8.872
X9.964Y-7.888
X9.964Y-8.23
X9.966Y-9.538
X9.978Y-8.192
X9.978Y-10.192
X9.99Y-8.564
X9.996Y-8.91
X10.004Y-9.218
X10.018Y-8.87
X10.034Y-9.526
X10.034Y-9.596
X10.05Y-10.258
X10.074Y-10.188
X10.104Y-4.804
X10.106Y-4.638
X10.106Y-10.448
X10.144Y-8.222
X10.146Y-8.27
X10.146Y-10.204
X10.148Y-9.542
X10.148Y-10.244
X10.15Y-9.598
X10.154Y-10.448
X10.19Y-8.27
X10.198Y-10.448
X10.202Y-10.238
X10.206Y-9.598
X10.32Y-4.74
X10.326Y-10.922
X10.328Y-4.34
X10.336Y-4.036
X10.342Y-6.49
X10.362Y-4.236
X10.374Y-6.46
X10.376Y-6.6
X10.396Y-3.738
X10.4145Y-6.5919
X10.54Y-4.08
X10.79Y-4.08
X10.796Y-3.818
X10.8Y-4.966
X10.848Y-5.128
X10.862Y-3.898
X10.886Y-3.756
X11.038Y-3.094
X11.04Y-5.202
X11.09Y-3.0546
X11.1266Y-3.1005
X12.706Y-9.528
X12.732Y-9.216
X12.772Y-7.24
X12.772Y-9.254
X12.834Y-8.49
X12.842Y-7.308
X12.864Y-8.446
X12.912Y-8.444
X12.958Y-8.442
T2
X9.83Y-3.0713
X9.83Y-3.15
X9.83Y-3.2287
X9.83Y-3.3075
X9.83Y-3.6
X9.83Y-3.6787
X9.83Y-3.7575
X9.84Y-4.6425
X9.84Y-4.7213
X9.84Y-4.8
X9.84Y-5.14
X9.84Y-5.2187
X9.84Y-5.2975
X9.86Y-2.4313
X9.86Y-2.51
X9.86Y-2.5887
X9.86Y-2.6675
X9.8723Y-7.9819
X9.8723Y-8.0606
X9.8723Y-8.1394
X9.8723Y-8.2181
X9.8723Y-8.6429
X9.8723Y-8.7217
X9.8723Y-8.8004
X9.8723Y-8.8791
X9.8723Y-9.3039
X9.8723Y-9.3827
X9.8723Y-9.4614
X9.8723Y-9.5402
X9.8723Y-9.9556
X9.8723Y-10.0343
X9.8723Y-10.1131
X9.8723Y-10.1918
X10.2075Y-2.13
X10.26Y-3.3425
X10.26Y-3.4213
X10.26Y-3.5
X10.2862Y-2.13
X10.365Y-2.13
X12.9113Y-2.13
X12.99Y-2.13
X13.0687Y-2.13
X13.34Y-5.0325
X13.34Y-5.1113
X13.34Y-5.19
X13.422Y-2.4143
X13.422Y-2.493
X13.422Y-2.5718
X13.422Y-2.6505
X13.422Y-2.7293
X13.422Y-2.808
T3
X11.18Y-6.388
X11.18Y-6.488
X11.18Y-6.588
X11.18Y-6.688
X11.18Y-6.788
X11.18Y-6.888
X12.08Y-6.388
X12.08Y-6.488
X12.08Y-6.588
X12.08Y-6.688
X12.08Y-6.788
X12.08Y-6.888
T4
X10.1004Y-2.4986
X10.1004Y-2.5986
X10.1004Y-2.6986
X10.16Y-7.8496
X10.16Y-8.3496
X10.16Y-8.5106
X10.16Y-9.0106
X10.16Y-9.1717
X10.16Y-9.6717
X10.172Y-9.8233
X10.172Y-10.3233
X10.26Y-7.8496
X10.26Y-8.3496
X10.26Y-8.5106
X10.26Y-9.0106
X10.26Y-9.1717
X10.26Y-9.6717
X10.272Y-9.8233
X10.272Y-10.3233
X10.3452Y-5.1152
X10.36Y-7.8496
X10.36Y-8.3496
X10.36Y-8.5106
X10.36Y-9.0106
X10.36Y-9.1717
X10.36Y-9.6717
X10.372Y-9.8233
X10.372Y-10.3233
X10.4004Y-2.4986
X10.4004Y-2.5986
X10.4004Y-2.6986
X10.4148Y-5.1848
X10.46Y-7.8496
X10.46Y-8.3496
X10.46Y-8.5106
X10.46Y-9.0106
X10.46Y-9.1717
X10.46Y-9.6717
X10.472Y-9.8233
X10.472Y-10.3233
X10.56Y-7.8496
X10.56Y-8.3496
X10.56Y-8.5106
X10.56Y-9.0106
X10.56Y-9.1717
X10.56Y-9.6717
X10.572Y-9.8233
X10.572Y-10.3233
X10.66Y-7.8496
X10.66Y-8.3496
X10.66Y-8.5106
X10.66Y-9.0106
X10.66Y-9.1717
X10.66Y-9.6717
X10.672Y-9.8233
X10.672Y-10.3233
X10.753Y-8.105
X10.7556Y-9.443
X10.759Y-8.776
X10.76Y-7.8496
X10.76Y-8.3496
X10.76Y-8.5106
X10.76Y-9.0106
X10.76Y-9.1717
X10.76Y-9.6717
X10.7616Y-11.67
X10.769Y-10.075
X10.772Y-9.8233
X10.772Y-10.3233
X10.8514Y-8.105
X10.854Y-9.443
X10.8574Y-8.776
X10.86Y-7.8496
X10.86Y-8.3496
X10.86Y-8.5106
X10.86Y-9.0106
X10.86Y-9.1717
X10.86Y-9.6717
X10.86Y-11.67
X10.8674Y-10.075
X10.872Y-9.8233
X10.872Y-10.3233
X11.1004Y-10.3004
X11.1536Y-10.552
X11.17Y-10.37
X11.2536Y-10.552
X11.3536Y-10.552
X11.78Y-11.63
X11.81Y-10.55
X11.8784Y-11.63
X11.91Y-10.55
X12.01Y-10.55
X12.2448Y-10.433
X12.3432Y-10.433
X12.36Y-8.01
X12.4584Y-8.01
X12.56Y-10.36
X12.6296Y-10.4296
T5
X13.2Y-8.03
X13.2Y-8.2131
X13.2Y-8.3961
X13.2Y-8.5792
X13.2Y-8.7623
X13.2Y-8.9454
X13.2Y-9.2414
X13.2Y-9.4245
X13.2Y-9.6076
X13.2Y-9.7906
X13.2Y-9.9737
X13.2Y-10.158
X13.3Y-8.03
X13.3Y-8.2131
X13.3Y-8.3961
X13.3Y-8.5792
X13.3Y-8.7623
X13.3Y-8.9454
X13.3Y-9.2414
X13.3Y-9.4245
X13.3Y-9.6076
X13.3Y-9.7906
X13.3Y-9.9737
X13.3Y-10.158
X13.4Y-8.03
X13.4Y-8.2131
X13.4Y-8.3961
X13.4Y-8.5792
X13.4Y-8.7623
X13.4Y-8.9454
X13.4Y-9.2414
X13.4Y-9.4245
X13.4Y-9.6076
X13.4Y-9.7906
X13.4Y-9.9737
X13.4Y-10.158
X13.442Y-3.086
X13.442Y-3.186
X13.442Y-3.286
X13.442Y-3.386
X13.442Y-3.486
X13.442Y-3.586
X13.442Y-3.686
X13.442Y-3.786
X13.442Y-3.886
X13.442Y-3.986
X13.442Y-4.086
X13.442Y-4.186
X13.442Y-4.286
X13.442Y-4.386
X13.442Y-4.486
X13.442Y-4.586
X13.442Y-4.686
T6
X10.6242Y-3.1359
X10.6242Y-3.2359
X10.6242Y-3.3359
X10.6242Y-3.4359
X10.6242Y-3.5359
X10.6242Y-3.6359
X10.6242Y-3.7359
X10.6242Y-3.8359
X10.6242Y-3.9359
X10.6242Y-4.0359
X10.6242Y-4.1359
X10.6242Y-4.2359
X10.6242Y-4.3359
X10.6242Y-4.4359
X10.6242Y-4.5359
X10.6242Y-4.6359
X10.6242Y-4.7359
X10.6242Y-4.8359
X10.6242Y-4.9359
X10.6242Y-5.0359
X10.7242Y-3.1359
X10.7242Y-3.2359
X10.7242Y-3.3359
X10.7242Y-3.4359
X10.7242Y-3.5359
X10.7242Y-3.6359
X10.7242Y-3.7359
X10.7242Y-3.8359
X10.7242Y-3.9359
X10.7242Y-4.0359
X10.7242Y-4.1359
X10.7242Y-4.2359
X10.7242Y-4.3359
X10.7242Y-4.4359
X10.7242Y-4.5359
X10.7242Y-4.6359
X10.7242Y-4.7359
X10.7242Y-4.8359
X10.7242Y-4.9359
X10.7242Y-5.0359
T7
X10.128Y-5.676
X10.128Y-5.776
X10.128Y-5.876
X10.128Y-5.976
X10.128Y-6.076
X10.128Y-6.176
X10.128Y-6.276
X10.128Y-6.376
X10.128Y-6.476
X10.128Y-6.576
X10.128Y-6.676
X10.128Y-6.776
X10.128Y-6.876
X10.128Y-6.976
X10.128Y-7.076
X10.128Y-7.176
X10.128Y-7.276
X10.128Y-7.376
X10.128Y-7.476
X10.128Y-7.576
X10.378Y-7.5669
X10.478Y-7.5669
X10.578Y-7.5669
X10.828Y-5.676
X10.828Y-5.776
X10.828Y-5.876
X10.828Y-5.976
X10.828Y-6.076
X10.828Y-6.176
X10.828Y-6.276
X10.828Y-6.376
X10.828Y-6.476
X10.828Y-6.576
X10.828Y-6.676
X10.828Y-6.776
X10.828Y-6.876
X10.828Y-6.976
X10.828Y-7.076
X10.828Y-7.176
X10.828Y-7.276
X10.828Y-7.376
X10.828Y-7.476
X10.828Y-7.576
X12.392Y-5.674
X12.392Y-5.774
X12.392Y-5.874
X12.392Y-5.974
X12.392Y-6.074
X12.392Y-6.174
X12.392Y-6.274
X12.392Y-6.374
X12.392Y-6.474
X12.392Y-6.574
X12.392Y-6.674
X12.392Y-6.774
X12.392Y-6.874
X12.392Y-6.974
X12.392Y-7.074
X12.392Y-7.174
X12.392Y-7.274
X12.392Y-7.374
X12.392Y-7.474
X12.392Y-7.574
X12.642Y-7.5649
X12.742Y-7.5649
X12.842Y-7.5649
X13.092Y-5.674
X13.092Y-5.774
X13.092Y-5.874
X13.092Y-5.974
X13.092Y-6.074
X13.092Y-6.174
X13.092Y-6.274
X13.092Y-6.374
X13.092Y-6.474
X13.092Y-6.574
X13.092Y-6.674
X13.092Y-6.774
X13.092Y-6.874
X13.092Y-6.974
X13.092Y-7.074
X13.092Y-7.174
X13.092Y-7.274
X13.092Y-7.374
X13.092Y-7.474
X13.092Y-7.574
T8
X10.7616Y-11.3454
X10.9112Y-10.81
X11.0608Y-10.81
X11.0608Y-11.3454
X11.36Y-11.3454
X11.803Y-11.345
X11.9526Y-10.8096
X12.1022Y-10.8096
X12.1022Y-11.345
X12.4014Y-11.345
T9
X10.5178Y-12.015
X10.88Y-12.015
X11.6922Y-8.3199
X11.7922Y-10.1199
X12.0922Y-8.3199
X12.1922Y-10.1199
X12.3922Y-10.1199
X12.4922Y-8.3199
T10
X10.7616Y-10.81
X11.36Y-10.81
X11.803Y-10.8096
X12.4014Y-10.8096
T11
X11.0825Y-12.314
X11.366Y-12.314
X11.776Y-12.314
X12.0595Y-12.314
T0
M30
