%TF.GenerationSoftware,KiCad,Pcbnew,7.0.8*%
%TF.CreationDate,2023-11-15T00:13:47+01:00*%
%TF.ProjectId,main_board_v2,6d61696e-5f62-46f6-9172-645f76322e6b,rev?*%
%TF.SameCoordinates,Original*%
%TF.FileFunction,Legend,Bot*%
%TF.FilePolarity,Positive*%
%FSLAX46Y46*%
G04 Gerber Fmt 4.6, Leading zero omitted, Abs format (unit mm)*
G04 Created by KiCad (PCBNEW 7.0.8) date 2023-11-15 00:13:47*
%MOMM*%
%LPD*%
G01*
G04 APERTURE LIST*
%ADD10C,0.150000*%
%ADD11C,0.120000*%
G04 APERTURE END LIST*
D10*
X286008266Y-264815619D02*
X286341599Y-264339428D01*
X286579694Y-264815619D02*
X286579694Y-263815619D01*
X286579694Y-263815619D02*
X286198742Y-263815619D01*
X286198742Y-263815619D02*
X286103504Y-263863238D01*
X286103504Y-263863238D02*
X286055885Y-263910857D01*
X286055885Y-263910857D02*
X286008266Y-264006095D01*
X286008266Y-264006095D02*
X286008266Y-264148952D01*
X286008266Y-264148952D02*
X286055885Y-264244190D01*
X286055885Y-264244190D02*
X286103504Y-264291809D01*
X286103504Y-264291809D02*
X286198742Y-264339428D01*
X286198742Y-264339428D02*
X286579694Y-264339428D01*
X285674932Y-263815619D02*
X285008266Y-263815619D01*
X285008266Y-263815619D02*
X285436837Y-264815619D01*
X303188666Y-264868819D02*
X303521999Y-264392628D01*
X303760094Y-264868819D02*
X303760094Y-263868819D01*
X303760094Y-263868819D02*
X303379142Y-263868819D01*
X303379142Y-263868819D02*
X303283904Y-263916438D01*
X303283904Y-263916438D02*
X303236285Y-263964057D01*
X303236285Y-263964057D02*
X303188666Y-264059295D01*
X303188666Y-264059295D02*
X303188666Y-264202152D01*
X303188666Y-264202152D02*
X303236285Y-264297390D01*
X303236285Y-264297390D02*
X303283904Y-264345009D01*
X303283904Y-264345009D02*
X303379142Y-264392628D01*
X303379142Y-264392628D02*
X303760094Y-264392628D01*
X302331523Y-263868819D02*
X302521999Y-263868819D01*
X302521999Y-263868819D02*
X302617237Y-263916438D01*
X302617237Y-263916438D02*
X302664856Y-263964057D01*
X302664856Y-263964057D02*
X302760094Y-264106914D01*
X302760094Y-264106914D02*
X302807713Y-264297390D01*
X302807713Y-264297390D02*
X302807713Y-264678342D01*
X302807713Y-264678342D02*
X302760094Y-264773580D01*
X302760094Y-264773580D02*
X302712475Y-264821200D01*
X302712475Y-264821200D02*
X302617237Y-264868819D01*
X302617237Y-264868819D02*
X302426761Y-264868819D01*
X302426761Y-264868819D02*
X302331523Y-264821200D01*
X302331523Y-264821200D02*
X302283904Y-264773580D01*
X302283904Y-264773580D02*
X302236285Y-264678342D01*
X302236285Y-264678342D02*
X302236285Y-264440247D01*
X302236285Y-264440247D02*
X302283904Y-264345009D01*
X302283904Y-264345009D02*
X302331523Y-264297390D01*
X302331523Y-264297390D02*
X302426761Y-264249771D01*
X302426761Y-264249771D02*
X302617237Y-264249771D01*
X302617237Y-264249771D02*
X302712475Y-264297390D01*
X302712475Y-264297390D02*
X302760094Y-264345009D01*
X302760094Y-264345009D02*
X302807713Y-264440247D01*
X253658666Y-106626819D02*
X253991999Y-106150628D01*
X254230094Y-106626819D02*
X254230094Y-105626819D01*
X254230094Y-105626819D02*
X253849142Y-105626819D01*
X253849142Y-105626819D02*
X253753904Y-105674438D01*
X253753904Y-105674438D02*
X253706285Y-105722057D01*
X253706285Y-105722057D02*
X253658666Y-105817295D01*
X253658666Y-105817295D02*
X253658666Y-105960152D01*
X253658666Y-105960152D02*
X253706285Y-106055390D01*
X253706285Y-106055390D02*
X253753904Y-106103009D01*
X253753904Y-106103009D02*
X253849142Y-106150628D01*
X253849142Y-106150628D02*
X254230094Y-106150628D01*
X252801523Y-105960152D02*
X252801523Y-106626819D01*
X253039618Y-105579200D02*
X253277713Y-106293485D01*
X253277713Y-106293485D02*
X252658666Y-106293485D01*
X253658666Y-102308819D02*
X253991999Y-101832628D01*
X254230094Y-102308819D02*
X254230094Y-101308819D01*
X254230094Y-101308819D02*
X253849142Y-101308819D01*
X253849142Y-101308819D02*
X253753904Y-101356438D01*
X253753904Y-101356438D02*
X253706285Y-101404057D01*
X253706285Y-101404057D02*
X253658666Y-101499295D01*
X253658666Y-101499295D02*
X253658666Y-101642152D01*
X253658666Y-101642152D02*
X253706285Y-101737390D01*
X253706285Y-101737390D02*
X253753904Y-101785009D01*
X253753904Y-101785009D02*
X253849142Y-101832628D01*
X253849142Y-101832628D02*
X254230094Y-101832628D01*
X253325332Y-101308819D02*
X252706285Y-101308819D01*
X252706285Y-101308819D02*
X253039618Y-101689771D01*
X253039618Y-101689771D02*
X252896761Y-101689771D01*
X252896761Y-101689771D02*
X252801523Y-101737390D01*
X252801523Y-101737390D02*
X252753904Y-101785009D01*
X252753904Y-101785009D02*
X252706285Y-101880247D01*
X252706285Y-101880247D02*
X252706285Y-102118342D01*
X252706285Y-102118342D02*
X252753904Y-102213580D01*
X252753904Y-102213580D02*
X252801523Y-102261200D01*
X252801523Y-102261200D02*
X252896761Y-102308819D01*
X252896761Y-102308819D02*
X253182475Y-102308819D01*
X253182475Y-102308819D02*
X253277713Y-102261200D01*
X253277713Y-102261200D02*
X253325332Y-102213580D01*
X253658666Y-97990819D02*
X253991999Y-97514628D01*
X254230094Y-97990819D02*
X254230094Y-96990819D01*
X254230094Y-96990819D02*
X253849142Y-96990819D01*
X253849142Y-96990819D02*
X253753904Y-97038438D01*
X253753904Y-97038438D02*
X253706285Y-97086057D01*
X253706285Y-97086057D02*
X253658666Y-97181295D01*
X253658666Y-97181295D02*
X253658666Y-97324152D01*
X253658666Y-97324152D02*
X253706285Y-97419390D01*
X253706285Y-97419390D02*
X253753904Y-97467009D01*
X253753904Y-97467009D02*
X253849142Y-97514628D01*
X253849142Y-97514628D02*
X254230094Y-97514628D01*
X253277713Y-97086057D02*
X253230094Y-97038438D01*
X253230094Y-97038438D02*
X253134856Y-96990819D01*
X253134856Y-96990819D02*
X252896761Y-96990819D01*
X252896761Y-96990819D02*
X252801523Y-97038438D01*
X252801523Y-97038438D02*
X252753904Y-97086057D01*
X252753904Y-97086057D02*
X252706285Y-97181295D01*
X252706285Y-97181295D02*
X252706285Y-97276533D01*
X252706285Y-97276533D02*
X252753904Y-97419390D01*
X252753904Y-97419390D02*
X253325332Y-97990819D01*
X253325332Y-97990819D02*
X252706285Y-97990819D01*
X253658666Y-110690819D02*
X253991999Y-110214628D01*
X254230094Y-110690819D02*
X254230094Y-109690819D01*
X254230094Y-109690819D02*
X253849142Y-109690819D01*
X253849142Y-109690819D02*
X253753904Y-109738438D01*
X253753904Y-109738438D02*
X253706285Y-109786057D01*
X253706285Y-109786057D02*
X253658666Y-109881295D01*
X253658666Y-109881295D02*
X253658666Y-110024152D01*
X253658666Y-110024152D02*
X253706285Y-110119390D01*
X253706285Y-110119390D02*
X253753904Y-110167009D01*
X253753904Y-110167009D02*
X253849142Y-110214628D01*
X253849142Y-110214628D02*
X254230094Y-110214628D01*
X252706285Y-110690819D02*
X253277713Y-110690819D01*
X252991999Y-110690819D02*
X252991999Y-109690819D01*
X252991999Y-109690819D02*
X253087237Y-109833676D01*
X253087237Y-109833676D02*
X253182475Y-109928914D01*
X253182475Y-109928914D02*
X253277713Y-109976533D01*
X263857904Y-107912819D02*
X263286476Y-107912819D01*
X263572190Y-108912819D02*
X263572190Y-107912819D01*
X262953142Y-108912819D02*
X262953142Y-108246152D01*
X262953142Y-107912819D02*
X263000761Y-107960438D01*
X263000761Y-107960438D02*
X262953142Y-108008057D01*
X262953142Y-108008057D02*
X262905523Y-107960438D01*
X262905523Y-107960438D02*
X262953142Y-107912819D01*
X262953142Y-107912819D02*
X262953142Y-108008057D01*
X262476952Y-108912819D02*
X262476952Y-108246152D01*
X262476952Y-108436628D02*
X262429333Y-108341390D01*
X262429333Y-108341390D02*
X262381714Y-108293771D01*
X262381714Y-108293771D02*
X262286476Y-108246152D01*
X262286476Y-108246152D02*
X262191238Y-108246152D01*
X261476952Y-108865200D02*
X261572190Y-108912819D01*
X261572190Y-108912819D02*
X261762666Y-108912819D01*
X261762666Y-108912819D02*
X261857904Y-108865200D01*
X261857904Y-108865200D02*
X261905523Y-108769961D01*
X261905523Y-108769961D02*
X261905523Y-108389009D01*
X261905523Y-108389009D02*
X261857904Y-108293771D01*
X261857904Y-108293771D02*
X261762666Y-108246152D01*
X261762666Y-108246152D02*
X261572190Y-108246152D01*
X261572190Y-108246152D02*
X261476952Y-108293771D01*
X261476952Y-108293771D02*
X261429333Y-108389009D01*
X261429333Y-108389009D02*
X261429333Y-108484247D01*
X261429333Y-108484247D02*
X261905523Y-108579485D01*
X261143618Y-108246152D02*
X260762666Y-108246152D01*
X261000761Y-107912819D02*
X261000761Y-108769961D01*
X261000761Y-108769961D02*
X260953142Y-108865200D01*
X260953142Y-108865200D02*
X260857904Y-108912819D01*
X260857904Y-108912819D02*
X260762666Y-108912819D01*
X260572189Y-108246152D02*
X260191237Y-108246152D01*
X260429332Y-107912819D02*
X260429332Y-108769961D01*
X260429332Y-108769961D02*
X260381713Y-108865200D01*
X260381713Y-108865200D02*
X260286475Y-108912819D01*
X260286475Y-108912819D02*
X260191237Y-108912819D01*
X259476951Y-108865200D02*
X259572189Y-108912819D01*
X259572189Y-108912819D02*
X259762665Y-108912819D01*
X259762665Y-108912819D02*
X259857903Y-108865200D01*
X259857903Y-108865200D02*
X259905522Y-108769961D01*
X259905522Y-108769961D02*
X259905522Y-108389009D01*
X259905522Y-108389009D02*
X259857903Y-108293771D01*
X259857903Y-108293771D02*
X259762665Y-108246152D01*
X259762665Y-108246152D02*
X259572189Y-108246152D01*
X259572189Y-108246152D02*
X259476951Y-108293771D01*
X259476951Y-108293771D02*
X259429332Y-108389009D01*
X259429332Y-108389009D02*
X259429332Y-108484247D01*
X259429332Y-108484247D02*
X259905522Y-108579485D01*
X258810284Y-107912819D02*
X258619808Y-107912819D01*
X258619808Y-107912819D02*
X258524570Y-107960438D01*
X258524570Y-107960438D02*
X258429332Y-108055676D01*
X258429332Y-108055676D02*
X258381713Y-108246152D01*
X258381713Y-108246152D02*
X258381713Y-108579485D01*
X258381713Y-108579485D02*
X258429332Y-108769961D01*
X258429332Y-108769961D02*
X258524570Y-108865200D01*
X258524570Y-108865200D02*
X258619808Y-108912819D01*
X258619808Y-108912819D02*
X258810284Y-108912819D01*
X258810284Y-108912819D02*
X258905522Y-108865200D01*
X258905522Y-108865200D02*
X259000760Y-108769961D01*
X259000760Y-108769961D02*
X259048379Y-108579485D01*
X259048379Y-108579485D02*
X259048379Y-108246152D01*
X259048379Y-108246152D02*
X259000760Y-108055676D01*
X259000760Y-108055676D02*
X258905522Y-107960438D01*
X258905522Y-107960438D02*
X258810284Y-107912819D01*
X257953141Y-108912819D02*
X257953141Y-107912819D01*
X257381713Y-108912819D02*
X257810284Y-108341390D01*
X257381713Y-107912819D02*
X257953141Y-108484247D01*
X256429332Y-108912819D02*
X257000760Y-108912819D01*
X256715046Y-108912819D02*
X256715046Y-107912819D01*
X256715046Y-107912819D02*
X256810284Y-108055676D01*
X256810284Y-108055676D02*
X256905522Y-108150914D01*
X256905522Y-108150914D02*
X257000760Y-108198533D01*
X275171457Y-218869980D02*
X275219076Y-218917600D01*
X275219076Y-218917600D02*
X275361933Y-218965219D01*
X275361933Y-218965219D02*
X275457171Y-218965219D01*
X275457171Y-218965219D02*
X275600028Y-218917600D01*
X275600028Y-218917600D02*
X275695266Y-218822361D01*
X275695266Y-218822361D02*
X275742885Y-218727123D01*
X275742885Y-218727123D02*
X275790504Y-218536647D01*
X275790504Y-218536647D02*
X275790504Y-218393790D01*
X275790504Y-218393790D02*
X275742885Y-218203314D01*
X275742885Y-218203314D02*
X275695266Y-218108076D01*
X275695266Y-218108076D02*
X275600028Y-218012838D01*
X275600028Y-218012838D02*
X275457171Y-217965219D01*
X275457171Y-217965219D02*
X275361933Y-217965219D01*
X275361933Y-217965219D02*
X275219076Y-218012838D01*
X275219076Y-218012838D02*
X275171457Y-218060457D01*
X274219076Y-218965219D02*
X274790504Y-218965219D01*
X274504790Y-218965219D02*
X274504790Y-217965219D01*
X274504790Y-217965219D02*
X274600028Y-218108076D01*
X274600028Y-218108076D02*
X274695266Y-218203314D01*
X274695266Y-218203314D02*
X274790504Y-218250933D01*
X273266695Y-218965219D02*
X273838123Y-218965219D01*
X273552409Y-218965219D02*
X273552409Y-217965219D01*
X273552409Y-217965219D02*
X273647647Y-218108076D01*
X273647647Y-218108076D02*
X273742885Y-218203314D01*
X273742885Y-218203314D02*
X273838123Y-218250933D01*
X261786475Y-100007009D02*
X261453142Y-100007009D01*
X261310285Y-100530819D02*
X261786475Y-100530819D01*
X261786475Y-100530819D02*
X261786475Y-99530819D01*
X261786475Y-99530819D02*
X261310285Y-99530819D01*
X260310285Y-100530819D02*
X260643618Y-100054628D01*
X260881713Y-100530819D02*
X260881713Y-99530819D01*
X260881713Y-99530819D02*
X260500761Y-99530819D01*
X260500761Y-99530819D02*
X260405523Y-99578438D01*
X260405523Y-99578438D02*
X260357904Y-99626057D01*
X260357904Y-99626057D02*
X260310285Y-99721295D01*
X260310285Y-99721295D02*
X260310285Y-99864152D01*
X260310285Y-99864152D02*
X260357904Y-99959390D01*
X260357904Y-99959390D02*
X260405523Y-100007009D01*
X260405523Y-100007009D02*
X260500761Y-100054628D01*
X260500761Y-100054628D02*
X260881713Y-100054628D01*
X259310285Y-100530819D02*
X259643618Y-100054628D01*
X259881713Y-100530819D02*
X259881713Y-99530819D01*
X259881713Y-99530819D02*
X259500761Y-99530819D01*
X259500761Y-99530819D02*
X259405523Y-99578438D01*
X259405523Y-99578438D02*
X259357904Y-99626057D01*
X259357904Y-99626057D02*
X259310285Y-99721295D01*
X259310285Y-99721295D02*
X259310285Y-99864152D01*
X259310285Y-99864152D02*
X259357904Y-99959390D01*
X259357904Y-99959390D02*
X259405523Y-100007009D01*
X259405523Y-100007009D02*
X259500761Y-100054628D01*
X259500761Y-100054628D02*
X259881713Y-100054628D01*
X258929332Y-99626057D02*
X258881713Y-99578438D01*
X258881713Y-99578438D02*
X258786475Y-99530819D01*
X258786475Y-99530819D02*
X258548380Y-99530819D01*
X258548380Y-99530819D02*
X258453142Y-99578438D01*
X258453142Y-99578438D02*
X258405523Y-99626057D01*
X258405523Y-99626057D02*
X258357904Y-99721295D01*
X258357904Y-99721295D02*
X258357904Y-99816533D01*
X258357904Y-99816533D02*
X258405523Y-99959390D01*
X258405523Y-99959390D02*
X258976951Y-100530819D01*
X258976951Y-100530819D02*
X258357904Y-100530819D01*
X274949266Y-251864580D02*
X274996885Y-251912200D01*
X274996885Y-251912200D02*
X275139742Y-251959819D01*
X275139742Y-251959819D02*
X275234980Y-251959819D01*
X275234980Y-251959819D02*
X275377837Y-251912200D01*
X275377837Y-251912200D02*
X275473075Y-251816961D01*
X275473075Y-251816961D02*
X275520694Y-251721723D01*
X275520694Y-251721723D02*
X275568313Y-251531247D01*
X275568313Y-251531247D02*
X275568313Y-251388390D01*
X275568313Y-251388390D02*
X275520694Y-251197914D01*
X275520694Y-251197914D02*
X275473075Y-251102676D01*
X275473075Y-251102676D02*
X275377837Y-251007438D01*
X275377837Y-251007438D02*
X275234980Y-250959819D01*
X275234980Y-250959819D02*
X275139742Y-250959819D01*
X275139742Y-250959819D02*
X274996885Y-251007438D01*
X274996885Y-251007438D02*
X274949266Y-251055057D01*
X274473075Y-251959819D02*
X274282599Y-251959819D01*
X274282599Y-251959819D02*
X274187361Y-251912200D01*
X274187361Y-251912200D02*
X274139742Y-251864580D01*
X274139742Y-251864580D02*
X274044504Y-251721723D01*
X274044504Y-251721723D02*
X273996885Y-251531247D01*
X273996885Y-251531247D02*
X273996885Y-251150295D01*
X273996885Y-251150295D02*
X274044504Y-251055057D01*
X274044504Y-251055057D02*
X274092123Y-251007438D01*
X274092123Y-251007438D02*
X274187361Y-250959819D01*
X274187361Y-250959819D02*
X274377837Y-250959819D01*
X274377837Y-250959819D02*
X274473075Y-251007438D01*
X274473075Y-251007438D02*
X274520694Y-251055057D01*
X274520694Y-251055057D02*
X274568313Y-251150295D01*
X274568313Y-251150295D02*
X274568313Y-251388390D01*
X274568313Y-251388390D02*
X274520694Y-251483628D01*
X274520694Y-251483628D02*
X274473075Y-251531247D01*
X274473075Y-251531247D02*
X274377837Y-251578866D01*
X274377837Y-251578866D02*
X274187361Y-251578866D01*
X274187361Y-251578866D02*
X274092123Y-251531247D01*
X274092123Y-251531247D02*
X274044504Y-251483628D01*
X274044504Y-251483628D02*
X273996885Y-251388390D01*
X261786475Y-104325009D02*
X261453142Y-104325009D01*
X261310285Y-104848819D02*
X261786475Y-104848819D01*
X261786475Y-104848819D02*
X261786475Y-103848819D01*
X261786475Y-103848819D02*
X261310285Y-103848819D01*
X260310285Y-104848819D02*
X260643618Y-104372628D01*
X260881713Y-104848819D02*
X260881713Y-103848819D01*
X260881713Y-103848819D02*
X260500761Y-103848819D01*
X260500761Y-103848819D02*
X260405523Y-103896438D01*
X260405523Y-103896438D02*
X260357904Y-103944057D01*
X260357904Y-103944057D02*
X260310285Y-104039295D01*
X260310285Y-104039295D02*
X260310285Y-104182152D01*
X260310285Y-104182152D02*
X260357904Y-104277390D01*
X260357904Y-104277390D02*
X260405523Y-104325009D01*
X260405523Y-104325009D02*
X260500761Y-104372628D01*
X260500761Y-104372628D02*
X260881713Y-104372628D01*
X259310285Y-104848819D02*
X259643618Y-104372628D01*
X259881713Y-104848819D02*
X259881713Y-103848819D01*
X259881713Y-103848819D02*
X259500761Y-103848819D01*
X259500761Y-103848819D02*
X259405523Y-103896438D01*
X259405523Y-103896438D02*
X259357904Y-103944057D01*
X259357904Y-103944057D02*
X259310285Y-104039295D01*
X259310285Y-104039295D02*
X259310285Y-104182152D01*
X259310285Y-104182152D02*
X259357904Y-104277390D01*
X259357904Y-104277390D02*
X259405523Y-104325009D01*
X259405523Y-104325009D02*
X259500761Y-104372628D01*
X259500761Y-104372628D02*
X259881713Y-104372628D01*
X258976951Y-103848819D02*
X258357904Y-103848819D01*
X258357904Y-103848819D02*
X258691237Y-104229771D01*
X258691237Y-104229771D02*
X258548380Y-104229771D01*
X258548380Y-104229771D02*
X258453142Y-104277390D01*
X258453142Y-104277390D02*
X258405523Y-104325009D01*
X258405523Y-104325009D02*
X258357904Y-104420247D01*
X258357904Y-104420247D02*
X258357904Y-104658342D01*
X258357904Y-104658342D02*
X258405523Y-104753580D01*
X258405523Y-104753580D02*
X258453142Y-104801200D01*
X258453142Y-104801200D02*
X258548380Y-104848819D01*
X258548380Y-104848819D02*
X258834094Y-104848819D01*
X258834094Y-104848819D02*
X258929332Y-104801200D01*
X258929332Y-104801200D02*
X258976951Y-104753580D01*
X261786475Y-95689009D02*
X261453142Y-95689009D01*
X261310285Y-96212819D02*
X261786475Y-96212819D01*
X261786475Y-96212819D02*
X261786475Y-95212819D01*
X261786475Y-95212819D02*
X261310285Y-95212819D01*
X260310285Y-96212819D02*
X260643618Y-95736628D01*
X260881713Y-96212819D02*
X260881713Y-95212819D01*
X260881713Y-95212819D02*
X260500761Y-95212819D01*
X260500761Y-95212819D02*
X260405523Y-95260438D01*
X260405523Y-95260438D02*
X260357904Y-95308057D01*
X260357904Y-95308057D02*
X260310285Y-95403295D01*
X260310285Y-95403295D02*
X260310285Y-95546152D01*
X260310285Y-95546152D02*
X260357904Y-95641390D01*
X260357904Y-95641390D02*
X260405523Y-95689009D01*
X260405523Y-95689009D02*
X260500761Y-95736628D01*
X260500761Y-95736628D02*
X260881713Y-95736628D01*
X259310285Y-96212819D02*
X259643618Y-95736628D01*
X259881713Y-96212819D02*
X259881713Y-95212819D01*
X259881713Y-95212819D02*
X259500761Y-95212819D01*
X259500761Y-95212819D02*
X259405523Y-95260438D01*
X259405523Y-95260438D02*
X259357904Y-95308057D01*
X259357904Y-95308057D02*
X259310285Y-95403295D01*
X259310285Y-95403295D02*
X259310285Y-95546152D01*
X259310285Y-95546152D02*
X259357904Y-95641390D01*
X259357904Y-95641390D02*
X259405523Y-95689009D01*
X259405523Y-95689009D02*
X259500761Y-95736628D01*
X259500761Y-95736628D02*
X259881713Y-95736628D01*
X258357904Y-96212819D02*
X258929332Y-96212819D01*
X258643618Y-96212819D02*
X258643618Y-95212819D01*
X258643618Y-95212819D02*
X258738856Y-95355676D01*
X258738856Y-95355676D02*
X258834094Y-95450914D01*
X258834094Y-95450914D02*
X258929332Y-95498533D01*
X275084457Y-235811780D02*
X275132076Y-235859400D01*
X275132076Y-235859400D02*
X275274933Y-235907019D01*
X275274933Y-235907019D02*
X275370171Y-235907019D01*
X275370171Y-235907019D02*
X275513028Y-235859400D01*
X275513028Y-235859400D02*
X275608266Y-235764161D01*
X275608266Y-235764161D02*
X275655885Y-235668923D01*
X275655885Y-235668923D02*
X275703504Y-235478447D01*
X275703504Y-235478447D02*
X275703504Y-235335590D01*
X275703504Y-235335590D02*
X275655885Y-235145114D01*
X275655885Y-235145114D02*
X275608266Y-235049876D01*
X275608266Y-235049876D02*
X275513028Y-234954638D01*
X275513028Y-234954638D02*
X275370171Y-234907019D01*
X275370171Y-234907019D02*
X275274933Y-234907019D01*
X275274933Y-234907019D02*
X275132076Y-234954638D01*
X275132076Y-234954638D02*
X275084457Y-235002257D01*
X274132076Y-235907019D02*
X274703504Y-235907019D01*
X274417790Y-235907019D02*
X274417790Y-234907019D01*
X274417790Y-234907019D02*
X274513028Y-235049876D01*
X274513028Y-235049876D02*
X274608266Y-235145114D01*
X274608266Y-235145114D02*
X274703504Y-235192733D01*
X273513028Y-234907019D02*
X273417790Y-234907019D01*
X273417790Y-234907019D02*
X273322552Y-234954638D01*
X273322552Y-234954638D02*
X273274933Y-235002257D01*
X273274933Y-235002257D02*
X273227314Y-235097495D01*
X273227314Y-235097495D02*
X273179695Y-235287971D01*
X273179695Y-235287971D02*
X273179695Y-235526066D01*
X273179695Y-235526066D02*
X273227314Y-235716542D01*
X273227314Y-235716542D02*
X273274933Y-235811780D01*
X273274933Y-235811780D02*
X273322552Y-235859400D01*
X273322552Y-235859400D02*
X273417790Y-235907019D01*
X273417790Y-235907019D02*
X273513028Y-235907019D01*
X273513028Y-235907019D02*
X273608266Y-235859400D01*
X273608266Y-235859400D02*
X273655885Y-235811780D01*
X273655885Y-235811780D02*
X273703504Y-235716542D01*
X273703504Y-235716542D02*
X273751123Y-235526066D01*
X273751123Y-235526066D02*
X273751123Y-235287971D01*
X273751123Y-235287971D02*
X273703504Y-235097495D01*
X273703504Y-235097495D02*
X273655885Y-235002257D01*
X273655885Y-235002257D02*
X273608266Y-234954638D01*
X273608266Y-234954638D02*
X273513028Y-234907019D01*
X260984967Y-127907266D02*
X261052311Y-127907266D01*
X261052311Y-127907266D02*
X261186998Y-127839922D01*
X261186998Y-127839922D02*
X261254341Y-127772579D01*
X261254341Y-127772579D02*
X261321685Y-127637892D01*
X261321685Y-127637892D02*
X261321685Y-127503205D01*
X261321685Y-127503205D02*
X261288013Y-127402190D01*
X261288013Y-127402190D02*
X261186998Y-127233831D01*
X261186998Y-127233831D02*
X261085983Y-127132816D01*
X261085983Y-127132816D02*
X260917624Y-127031800D01*
X260917624Y-127031800D02*
X260816609Y-126998129D01*
X260816609Y-126998129D02*
X260681922Y-126998129D01*
X260681922Y-126998129D02*
X260547235Y-127065472D01*
X260547235Y-127065472D02*
X260479891Y-127132816D01*
X260479891Y-127132816D02*
X260412548Y-127267503D01*
X260412548Y-127267503D02*
X260412548Y-127334846D01*
X260378876Y-128648044D02*
X260782937Y-128243983D01*
X260580906Y-128446014D02*
X259873800Y-127738907D01*
X259873800Y-127738907D02*
X260042158Y-127772579D01*
X260042158Y-127772579D02*
X260176845Y-127772579D01*
X260176845Y-127772579D02*
X260277861Y-127738907D01*
X275019057Y-201826580D02*
X275066676Y-201874200D01*
X275066676Y-201874200D02*
X275209533Y-201921819D01*
X275209533Y-201921819D02*
X275304771Y-201921819D01*
X275304771Y-201921819D02*
X275447628Y-201874200D01*
X275447628Y-201874200D02*
X275542866Y-201778961D01*
X275542866Y-201778961D02*
X275590485Y-201683723D01*
X275590485Y-201683723D02*
X275638104Y-201493247D01*
X275638104Y-201493247D02*
X275638104Y-201350390D01*
X275638104Y-201350390D02*
X275590485Y-201159914D01*
X275590485Y-201159914D02*
X275542866Y-201064676D01*
X275542866Y-201064676D02*
X275447628Y-200969438D01*
X275447628Y-200969438D02*
X275304771Y-200921819D01*
X275304771Y-200921819D02*
X275209533Y-200921819D01*
X275209533Y-200921819D02*
X275066676Y-200969438D01*
X275066676Y-200969438D02*
X275019057Y-201017057D01*
X274066676Y-201921819D02*
X274638104Y-201921819D01*
X274352390Y-201921819D02*
X274352390Y-200921819D01*
X274352390Y-200921819D02*
X274447628Y-201064676D01*
X274447628Y-201064676D02*
X274542866Y-201159914D01*
X274542866Y-201159914D02*
X274638104Y-201207533D01*
X273685723Y-201017057D02*
X273638104Y-200969438D01*
X273638104Y-200969438D02*
X273542866Y-200921819D01*
X273542866Y-200921819D02*
X273304771Y-200921819D01*
X273304771Y-200921819D02*
X273209533Y-200969438D01*
X273209533Y-200969438D02*
X273161914Y-201017057D01*
X273161914Y-201017057D02*
X273114295Y-201112295D01*
X273114295Y-201112295D02*
X273114295Y-201207533D01*
X273114295Y-201207533D02*
X273161914Y-201350390D01*
X273161914Y-201350390D02*
X273733342Y-201921819D01*
X273733342Y-201921819D02*
X273114295Y-201921819D01*
D11*
%TO.C,R7*%
X290726600Y-270560800D02*
X280956600Y-270560800D01*
X290726600Y-265490800D02*
X290726600Y-270560800D01*
X280956600Y-265490800D02*
X280956600Y-270560800D01*
X290726600Y-265490800D02*
X280956600Y-265490800D01*
%TO.C,R6*%
X297629000Y-265430000D02*
X307399000Y-265430000D01*
X297629000Y-270500000D02*
X297629000Y-265430000D01*
X307399000Y-270500000D02*
X307399000Y-265430000D01*
X297629000Y-270500000D02*
X307399000Y-270500000D01*
%TO.C,R4*%
X256048742Y-106694500D02*
X256523258Y-106694500D01*
X256048742Y-105649500D02*
X256523258Y-105649500D01*
%TO.C,R3*%
X256048742Y-102291833D02*
X256523258Y-102291833D01*
X256048742Y-101246833D02*
X256523258Y-101246833D01*
%TO.C,R2*%
X256048742Y-98058500D02*
X256523258Y-98058500D01*
X256048742Y-97013500D02*
X256523258Y-97013500D01*
%TO.C,R1*%
X256048742Y-110758500D02*
X256523258Y-110758500D01*
X256048742Y-109713500D02*
X256523258Y-109713500D01*
%TO.C,TiretteOK1*%
X261056000Y-111196000D02*
X258371000Y-111196000D01*
X258371000Y-109276000D02*
X261056000Y-109276000D01*
X258371000Y-111196000D02*
X258371000Y-109276000D01*
%TO.C,C11*%
X277798600Y-222910400D02*
G75*
G03*
X277798600Y-222910400I-3270000J0D01*
G01*
%TO.C,ERR2*%
X258411000Y-102814000D02*
X258411000Y-100894000D01*
X258411000Y-100894000D02*
X261096000Y-100894000D01*
X261096000Y-102814000D02*
X258411000Y-102814000D01*
%TO.C,C9*%
X278052600Y-255905000D02*
G75*
G03*
X278052600Y-255905000I-3270000J0D01*
G01*
%TO.C,ERR3*%
X258411000Y-107132000D02*
X258411000Y-105212000D01*
X258411000Y-105212000D02*
X261096000Y-105212000D01*
X261096000Y-107132000D02*
X258411000Y-107132000D01*
%TO.C,ERR1*%
X258411000Y-98496000D02*
X258411000Y-96576000D01*
X258411000Y-96576000D02*
X261096000Y-96576000D01*
X261096000Y-98496000D02*
X258411000Y-98496000D01*
%TO.C,C10*%
X277711600Y-239852200D02*
G75*
G03*
X277711600Y-239852200I-3270000J0D01*
G01*
%TO.C,C1*%
X266922001Y-130810000D02*
G75*
G03*
X266922001Y-130810000I-3270001J0D01*
G01*
%TO.C,C12*%
X277646200Y-205867000D02*
G75*
G03*
X277646200Y-205867000I-3270000J0D01*
G01*
%TD*%
M02*
