%TF.GenerationSoftware,KiCad,Pcbnew,7.0.8*%
%TF.CreationDate,2023-11-15T00:13:47+01:00*%
%TF.ProjectId,main_board_v2,6d61696e-5f62-46f6-9172-645f76322e6b,rev?*%
%TF.SameCoordinates,Original*%
%TF.FileFunction,Profile,NP*%
%FSLAX46Y46*%
G04 Gerber Fmt 4.6, Leading zero omitted, Abs format (unit mm)*
G04 Created by KiCad (PCBNEW 7.0.8) date 2023-11-15 00:13:47*
%MOMM*%
%LPD*%
G01*
G04 APERTURE LIST*
%TA.AperFunction,Profile*%
%ADD10C,0.350000*%
%TD*%
G04 APERTURE END LIST*
D10*
X259957615Y-276019185D02*
G75*
G03*
X254957600Y-271019185I-5000015J-15D01*
G01*
X251557600Y-52019200D02*
G75*
G03*
X251557600Y-52019200I-1600000J0D01*
G01*
X264957600Y-47019200D02*
X249957600Y-47019200D01*
X312457600Y-122019200D02*
X312457600Y-82019200D01*
X244957615Y-266019185D02*
G75*
G03*
X249957600Y-271019185I4999985J-15D01*
G01*
X269957600Y-72019200D02*
X319957600Y-72019200D01*
X309957600Y-79519200D02*
X279957600Y-79519200D01*
X279957600Y-79519200D02*
G75*
G03*
X277457600Y-82019200I0J-2500000D01*
G01*
X344957600Y-266019185D02*
X344957600Y-52019200D01*
X339957600Y-271019200D02*
G75*
G03*
X344957600Y-266019185I100J4999900D01*
G01*
X249957600Y-47019200D02*
G75*
G03*
X244957600Y-52019200I0J-5000000D01*
G01*
X339957600Y-271019185D02*
X334957600Y-271019185D01*
X329957600Y-276019185D02*
X329957600Y-316019185D01*
X267457600Y-49519200D02*
X267457600Y-69519200D01*
X341557600Y-266019185D02*
G75*
G03*
X341557600Y-266019185I-1600000J0D01*
G01*
X344957600Y-52019200D02*
G75*
G03*
X339957600Y-47019200I-5000000J0D01*
G01*
X259957600Y-276019185D02*
X259957600Y-316019185D01*
X334957600Y-271019200D02*
G75*
G03*
X329957600Y-276019185I100J-5000100D01*
G01*
X324957600Y-321019200D02*
G75*
G03*
X329957600Y-316019185I100J4999900D01*
G01*
X322457600Y-49519200D02*
X322457600Y-69519200D01*
X312457600Y-82019200D02*
G75*
G03*
X309957600Y-79519200I-2500000J0D01*
G01*
X259957615Y-316019185D02*
G75*
G03*
X264957600Y-321019185I4999985J-15D01*
G01*
X309957600Y-124519200D02*
G75*
G03*
X312457600Y-122019200I0J2500000D01*
G01*
X319957600Y-72019200D02*
G75*
G03*
X322457600Y-69519200I0J2500000D01*
G01*
X251557600Y-159019185D02*
G75*
G03*
X251557600Y-159019185I-1600000J0D01*
G01*
X244957600Y-52019200D02*
X244957600Y-266019185D01*
X324957600Y-47019200D02*
G75*
G03*
X322457600Y-49519200I0J-2500000D01*
G01*
X324957600Y-321019185D02*
X294957600Y-321019185D01*
X249957600Y-271019185D02*
X254957600Y-271019185D01*
X279957600Y-124519200D02*
X309957600Y-124519200D01*
X341557600Y-159019185D02*
G75*
G03*
X341557600Y-159019185I-1600000J0D01*
G01*
X251557600Y-266019185D02*
G75*
G03*
X251557600Y-266019185I-1600000J0D01*
G01*
X277457600Y-82019200D02*
X277457600Y-122019200D01*
X267457600Y-69519200D02*
G75*
G03*
X269957600Y-72019200I2500000J0D01*
G01*
X267457600Y-49519200D02*
G75*
G03*
X264957600Y-47019200I-2500000J0D01*
G01*
X277457600Y-122019200D02*
G75*
G03*
X279957600Y-124519200I2500000J0D01*
G01*
X264957600Y-321019185D02*
X294957600Y-321019185D01*
X341557600Y-52019200D02*
G75*
G03*
X341557600Y-52019200I-1600000J0D01*
G01*
X339957600Y-47019200D02*
X324957600Y-47019200D01*
M02*
