solid CATIA STL
  facet normal  0.000000e+000  0.000000e+000 -1.000000e+000
    outer loop
      vertex -2.220000e+002 -1.280000e+003  4.800000e+001
      vertex -9.566988e+001 -1.722500e+003  4.800000e+001
      vertex -9.750000e+001 -1.720670e+003  4.800000e+001
    endloop
  endfacet
  facet normal  0.000000e+000  0.000000e+000 -1.000000e+000
    outer loop
      vertex -2.220000e+002 -1.280000e+003  4.800000e+001
      vertex -9.750000e+001 -1.720670e+003  4.800000e+001
      vertex -1.000000e+002 -1.720000e+003  4.800000e+001
    endloop
  endfacet
  facet normal  0.000000e+000  0.000000e+000 -1.000000e+000
    outer loop
      vertex -2.220000e+002 -1.280000e+003  4.800000e+001
      vertex -1.000000e+002 -1.720000e+003  4.800000e+001
      vertex -2.220000e+002 -1.720000e+003  4.800000e+001
    endloop
  endfacet
  facet normal  0.000000e+000  0.000000e+000 -1.000000e+000
    outer loop
      vertex -2.200000e+001 -1.950000e+003  4.800000e+001
      vertex -2.220000e+002 -1.950000e+003  4.800000e+001
      vertex -2.220000e+002 -1.730000e+003  4.800000e+001
    endloop
  endfacet
  facet normal  0.000000e+000  0.000000e+000 -1.000000e+000
    outer loop
      vertex -2.200000e+001 -1.950000e+003  4.800000e+001
      vertex -2.220000e+002 -1.730000e+003  4.800000e+001
      vertex -1.000000e+002 -1.730000e+003  4.800000e+001
    endloop
  endfacet
  facet normal  0.000000e+000  0.000000e+000 -1.000000e+000
    outer loop
      vertex -2.200000e+001 -1.950000e+003  4.800000e+001
      vertex -1.000000e+002 -1.730000e+003  4.800000e+001
      vertex -9.750000e+001 -1.729330e+003  4.800000e+001
    endloop
  endfacet
  facet normal  0.000000e+000  0.000000e+000 -1.000000e+000
    outer loop
      vertex -2.200000e+001 -1.950000e+003  4.800000e+001
      vertex -9.750000e+001 -1.729330e+003  4.800000e+001
      vertex -9.566988e+001 -1.727500e+003  4.800000e+001
    endloop
  endfacet
  facet normal  0.000000e+000  0.000000e+000 -1.000000e+000
    outer loop
      vertex -2.200000e+001 -1.950000e+003  4.800000e+001
      vertex -9.566988e+001 -1.727500e+003  4.800000e+001
      vertex -9.500000e+001 -1.725000e+003  4.800000e+001
    endloop
  endfacet
  facet normal  0.000000e+000  0.000000e+000 -1.000000e+000
    outer loop
      vertex -2.200000e+001 -1.950000e+003  4.800000e+001
      vertex -9.500000e+001 -1.725000e+003  4.800000e+001
      vertex -9.566988e+001 -1.722500e+003  4.800000e+001
    endloop
  endfacet
  facet normal  0.000000e+000  0.000000e+000 -1.000000e+000
    outer loop
      vertex -2.200000e+001 -1.950000e+003  4.800000e+001
      vertex -9.566988e+001 -1.722500e+003  4.800000e+001
      vertex -2.220000e+002 -1.280000e+003  4.800000e+001
    endloop
  endfacet
  facet normal  0.000000e+000  0.000000e+000 -1.000000e+000
    outer loop
      vertex -2.200000e+001 -1.950000e+003  4.800000e+001
      vertex -2.220000e+002 -1.280000e+003  4.800000e+001
      vertex -1.000000e+002 -1.280000e+003  4.800000e+001
    endloop
  endfacet
  facet normal  0.000000e+000  0.000000e+000 -9.999999e-001
    outer loop
      vertex -2.200000e+001 -1.950000e+003  4.800000e+001
      vertex -1.000000e+002 -1.280000e+003  4.800000e+001
      vertex -9.750000e+001 -1.279330e+003  4.800000e+001
    endloop
  endfacet
  facet normal  0.000000e+000  0.000000e+000 -1.000000e+000
    outer loop
      vertex -2.200000e+001 -1.950000e+003  4.800000e+001
      vertex -9.750000e+001 -1.279330e+003  4.800000e+001
      vertex -9.566988e+001 -1.277500e+003  4.800000e+001
    endloop
  endfacet
  facet normal  0.000000e+000  0.000000e+000 -1.000000e+000
    outer loop
      vertex -2.200000e+001 -1.950000e+003  4.800000e+001
      vertex -9.566988e+001 -1.277500e+003  4.800000e+001
      vertex -9.500000e+001 -1.275000e+003  4.800000e+001
    endloop
  endfacet
  facet normal  0.000000e+000  0.000000e+000 -1.000000e+000
    outer loop
      vertex -2.200000e+001 -1.050000e+003  4.800000e+001
      vertex -2.200000e+001 -1.950000e+003  4.800000e+001
      vertex -9.500000e+001 -1.275000e+003  4.800000e+001
    endloop
  endfacet
  facet normal  0.000000e+000  0.000000e+000 -1.000000e+000
    outer loop
      vertex -2.200000e+001 -1.050000e+003  4.800000e+001
      vertex -9.500000e+001 -1.275000e+003  4.800000e+001
      vertex -9.566988e+001 -1.272500e+003  4.800000e+001
    endloop
  endfacet
  facet normal  0.000000e+000  0.000000e+000 -1.000000e+000
    outer loop
      vertex -2.200000e+001 -1.050000e+003  4.800000e+001
      vertex -9.566988e+001 -1.272500e+003  4.800000e+001
      vertex -9.750000e+001 -1.270670e+003  4.800000e+001
    endloop
  endfacet
  facet normal  0.000000e+000  0.000000e+000 -1.000000e+000
    outer loop
      vertex -2.200000e+001 -1.050000e+003  4.800000e+001
      vertex -9.750000e+001 -1.270670e+003  4.800000e+001
      vertex -1.000000e+002 -1.270000e+003  4.800000e+001
    endloop
  endfacet
  facet normal  0.000000e+000  0.000000e+000 -1.000000e+000
    outer loop
      vertex -2.200000e+001 -1.050000e+003  4.800000e+001
      vertex -1.000000e+002 -1.270000e+003  4.800000e+001
      vertex -2.220000e+002 -1.270000e+003  4.800000e+001
    endloop
  endfacet
  facet normal  0.000000e+000  0.000000e+000 -1.000000e+000
    outer loop
      vertex -2.200000e+001 -1.050000e+003  4.800000e+001
      vertex -2.220000e+002 -1.270000e+003  4.800000e+001
      vertex -2.220000e+002 -1.050000e+003  4.800000e+001
    endloop
  endfacet
  facet normal  0.000000e+000 -1.000000e+000  0.000000e+000
    outer loop
      vertex -2.220000e+002 -1.720000e+003  4.800000e+001
      vertex -1.000000e+002 -1.720000e+003  4.800000e+001
      vertex -2.220000e+002 -1.720000e+003  7.000000e+001
    endloop
  endfacet
  facet normal  0.000000e+000 -1.000000e+000  0.000000e+000
    outer loop
      vertex -2.220000e+002 -1.720000e+003  7.000000e+001
      vertex -1.000000e+002 -1.720000e+003  4.800000e+001
      vertex -1.000000e+002 -1.720000e+003  7.000000e+001
    endloop
  endfacet
  facet normal  0.000000e+000  0.000000e+000  1.000000e+000
    outer loop
      vertex -2.220000e+002 -1.280000e+003  7.000000e+001
      vertex -2.220000e+002 -1.720000e+003  7.000000e+001
      vertex -1.000000e+002 -1.720000e+003  7.000000e+001
    endloop
  endfacet
  facet normal  -0.000000e+000  -0.000000e+000  1.000000e+000
    outer loop
      vertex -2.220000e+002 -1.280000e+003  7.000000e+001
      vertex -1.000000e+002 -1.720000e+003  7.000000e+001
      vertex -9.750000e+001 -1.720670e+003  7.000000e+001
    endloop
  endfacet
  facet normal  -0.000000e+000  -0.000000e+000  1.000000e+000
    outer loop
      vertex -2.220000e+002 -1.280000e+003  7.000000e+001
      vertex -9.750000e+001 -1.720670e+003  7.000000e+001
      vertex -9.566988e+001 -1.722500e+003  7.000000e+001
    endloop
  endfacet
  facet normal  0.000000e+000  0.000000e+000  1.000000e+000
    outer loop
      vertex -2.220000e+002 -1.050000e+003  7.000000e+001
      vertex -2.220000e+002 -1.270000e+003  7.000000e+001
      vertex -1.000000e+002 -1.270000e+003  7.000000e+001
    endloop
  endfacet
  facet normal  -0.000000e+000  -0.000000e+000  1.000000e+000
    outer loop
      vertex -2.220000e+002 -1.050000e+003  7.000000e+001
      vertex -1.000000e+002 -1.270000e+003  7.000000e+001
      vertex -9.750000e+001 -1.270670e+003  7.000000e+001
    endloop
  endfacet
  facet normal  -0.000000e+000  -0.000000e+000  1.000000e+000
    outer loop
      vertex -2.220000e+002 -1.050000e+003  7.000000e+001
      vertex -9.750000e+001 -1.270670e+003  7.000000e+001
      vertex -9.566988e+001 -1.272500e+003  7.000000e+001
    endloop
  endfacet
  facet normal  0.000000e+000  -0.000000e+000  1.000000e+000
    outer loop
      vertex -2.220000e+002 -1.050000e+003  7.000000e+001
      vertex -9.566988e+001 -1.272500e+003  7.000000e+001
      vertex -2.200000e+001 -1.050000e+003  7.000000e+001
    endloop
  endfacet
  facet normal  -0.000000e+000  0.000000e+000  1.000000e+000
    outer loop
      vertex -2.200000e+001 -1.050000e+003  7.000000e+001
      vertex -9.566988e+001 -1.272500e+003  7.000000e+001
      vertex -9.500000e+001 -1.275000e+003  7.000000e+001
    endloop
  endfacet
  facet normal  -0.000000e+000  0.000000e+000  1.000000e+000
    outer loop
      vertex -2.200000e+001 -1.050000e+003  7.000000e+001
      vertex -9.500000e+001 -1.275000e+003  7.000000e+001
      vertex -2.200000e+001 -1.950000e+003  7.000000e+001
    endloop
  endfacet
  facet normal  -0.000000e+000  0.000000e+000  1.000000e+000
    outer loop
      vertex -2.200000e+001 -1.050000e+003  7.000000e+001
      vertex -2.200000e+001 -1.950000e+003  7.000000e+001
      vertex  0.000000e+000 -3.000000e+003  7.000000e+001
    endloop
  endfacet
  facet normal  0.000000e+000  -0.000000e+000  1.000000e+000
    outer loop
      vertex -2.200000e+001 -1.050000e+003  7.000000e+001
      vertex  0.000000e+000 -3.000000e+003  7.000000e+001
      vertex  0.000000e+000  0.000000e+000  7.000000e+001
    endloop
  endfacet
  facet normal  0.000000e+000  0.000000e+000  1.000000e+000
    outer loop
      vertex -2.200000e+001 -1.050000e+003  7.000000e+001
      vertex  0.000000e+000  0.000000e+000  7.000000e+001
      vertex -2.200000e+001  2.200000e+001  7.000000e+001
    endloop
  endfacet
  facet normal  0.000000e+000  0.000000e+000  1.000000e+000
    outer loop
      vertex -2.200000e+001 -1.950000e+003  7.000000e+001
      vertex -9.500000e+001 -1.275000e+003  7.000000e+001
      vertex -9.566988e+001 -1.277500e+003  7.000000e+001
    endloop
  endfacet
  facet normal  0.000000e+000  0.000000e+000  1.000000e+000
    outer loop
      vertex -2.200000e+001 -1.950000e+003  7.000000e+001
      vertex -9.566988e+001 -1.277500e+003  7.000000e+001
      vertex -9.750000e+001 -1.279330e+003  7.000000e+001
    endloop
  endfacet
  facet normal  0.000000e+000  0.000000e+000  9.999999e-001
    outer loop
      vertex -2.200000e+001 -1.950000e+003  7.000000e+001
      vertex -9.750000e+001 -1.279330e+003  7.000000e+001
      vertex -1.000000e+002 -1.280000e+003  7.000000e+001
    endloop
  endfacet
  facet normal  0.000000e+000  0.000000e+000  1.000000e+000
    outer loop
      vertex -2.200000e+001 -1.950000e+003  7.000000e+001
      vertex -1.000000e+002 -1.280000e+003  7.000000e+001
      vertex -2.220000e+002 -1.280000e+003  7.000000e+001
    endloop
  endfacet
  facet normal  0.000000e+000  0.000000e+000  1.000000e+000
    outer loop
      vertex -2.200000e+001 -1.950000e+003  7.000000e+001
      vertex -2.220000e+002 -1.280000e+003  7.000000e+001
      vertex -9.566988e+001 -1.722500e+003  7.000000e+001
    endloop
  endfacet
  facet normal  0.000000e+000  0.000000e+000  1.000000e+000
    outer loop
      vertex -2.200000e+001 -1.950000e+003  7.000000e+001
      vertex -9.566988e+001 -1.722500e+003  7.000000e+001
      vertex -9.500000e+001 -1.725000e+003  7.000000e+001
    endloop
  endfacet
  facet normal  0.000000e+000  0.000000e+000  1.000000e+000
    outer loop
      vertex -2.200000e+001 -1.950000e+003  7.000000e+001
      vertex -9.500000e+001 -1.725000e+003  7.000000e+001
      vertex -9.566988e+001 -1.727500e+003  7.000000e+001
    endloop
  endfacet
  facet normal  0.000000e+000  0.000000e+000  1.000000e+000
    outer loop
      vertex -2.200000e+001 -1.950000e+003  7.000000e+001
      vertex -9.566988e+001 -1.727500e+003  7.000000e+001
      vertex -9.750000e+001 -1.729330e+003  7.000000e+001
    endloop
  endfacet
  facet normal  0.000000e+000  0.000000e+000  1.000000e+000
    outer loop
      vertex -2.200000e+001 -1.950000e+003  7.000000e+001
      vertex -9.750000e+001 -1.729330e+003  7.000000e+001
      vertex -1.000000e+002 -1.730000e+003  7.000000e+001
    endloop
  endfacet
  facet normal  0.000000e+000  0.000000e+000  1.000000e+000
    outer loop
      vertex -2.200000e+001 -1.950000e+003  7.000000e+001
      vertex -1.000000e+002 -1.730000e+003  7.000000e+001
      vertex -2.220000e+002 -1.730000e+003  7.000000e+001
    endloop
  endfacet
  facet normal  0.000000e+000  0.000000e+000  1.000000e+000
    outer loop
      vertex -2.200000e+001 -1.950000e+003  7.000000e+001
      vertex -2.220000e+002 -1.730000e+003  7.000000e+001
      vertex -2.220000e+002 -1.950000e+003  7.000000e+001
    endloop
  endfacet
  facet normal  0.000000e+000  -0.000000e+000  1.000000e+000
    outer loop
      vertex -2.200000e+001  2.200000e+001  7.000000e+001
      vertex  0.000000e+000  0.000000e+000  7.000000e+001
      vertex  2.022000e+003  2.200000e+001  7.000000e+001
    endloop
  endfacet
  facet normal  0.000000e+000  0.000000e+000  1.000000e+000
    outer loop
      vertex  2.022000e+003  2.200000e+001  7.000000e+001
      vertex  0.000000e+000  0.000000e+000  7.000000e+001
      vertex  2.000000e+003  0.000000e+000  7.000000e+001
    endloop
  endfacet
  facet normal  -0.000000e+000  0.000000e+000  1.000000e+000
    outer loop
      vertex  2.022000e+003  2.200000e+001  7.000000e+001
      vertex  2.000000e+003  0.000000e+000  7.000000e+001
      vertex  2.022000e+003 -3.022000e+003  7.000000e+001
    endloop
  endfacet
  facet normal  0.000000e+000  0.000000e+000  1.000000e+000
    outer loop
      vertex  2.022000e+003 -3.022000e+003  7.000000e+001
      vertex  2.000000e+003  0.000000e+000  7.000000e+001
      vertex  2.000000e+003 -3.000000e+003  7.000000e+001
    endloop
  endfacet
  facet normal  0.000000e+000  0.000000e+000  1.000000e+000
    outer loop
      vertex  2.022000e+003 -3.022000e+003  7.000000e+001
      vertex  2.000000e+003 -3.000000e+003  7.000000e+001
      vertex -2.200000e+001 -3.022000e+003  7.000000e+001
    endloop
  endfacet
  facet normal  0.000000e+000  0.000000e+000  1.000000e+000
    outer loop
      vertex -2.200000e+001 -3.022000e+003  7.000000e+001
      vertex  2.000000e+003 -3.000000e+003  7.000000e+001
      vertex  0.000000e+000 -3.000000e+003  7.000000e+001
    endloop
  endfacet
  facet normal  0.000000e+000  0.000000e+000  1.000000e+000
    outer loop
      vertex -2.200000e+001 -3.022000e+003  7.000000e+001
      vertex  0.000000e+000 -3.000000e+003  7.000000e+001
      vertex -2.200000e+001 -1.950000e+003  7.000000e+001
    endloop
  endfacet
  facet normal -1.000000e+000  0.000000e+000  0.000000e+000
    outer loop
      vertex -2.220000e+002 -1.720000e+003  4.800000e+001
      vertex -2.220000e+002 -1.720000e+003  7.000000e+001
      vertex -2.220000e+002 -1.280000e+003  4.800000e+001
    endloop
  endfacet
  facet normal -1.000000e+000  0.000000e+000  0.000000e+000
    outer loop
      vertex -2.220000e+002 -1.280000e+003  4.800000e+001
      vertex -2.220000e+002 -1.720000e+003  7.000000e+001
      vertex -2.220000e+002 -1.280000e+003  7.000000e+001
    endloop
  endfacet
  facet normal  0.000000e+000  1.000000e+000  0.000000e+000
    outer loop
      vertex -2.220000e+002 -1.280000e+003  4.800000e+001
      vertex -2.220000e+002 -1.280000e+003  7.000000e+001
      vertex -1.000000e+002 -1.280000e+003  4.800000e+001
    endloop
  endfacet
  facet normal  0.000000e+000  1.000000e+000  -0.000000e+000
    outer loop
      vertex -1.000000e+002 -1.280000e+003  4.800000e+001
      vertex -2.220000e+002 -1.280000e+003  7.000000e+001
      vertex -1.000000e+002 -1.280000e+003  7.000000e+001
    endloop
  endfacet
  facet normal  0.000000e+000 -1.000000e+000  0.000000e+000
    outer loop
      vertex -2.200000e+001 -3.022000e+003  7.000000e+001
      vertex -2.200000e+001 -3.022000e+003 -2.200000e+001
      vertex  4.280000e+002 -3.022000e+003 -2.200000e+001
    endloop
  endfacet
  facet normal  0.000000e+000 -9.999999e-001  0.000000e+000
    outer loop
      vertex -2.200000e+001 -3.022000e+003  7.000000e+001
      vertex  4.280000e+002 -3.022000e+003 -2.200000e+001
      vertex  4.280000e+002 -3.022000e+003  6.990000e+001
    endloop
  endfacet
  facet normal  0.000000e+000 -1.000000e+000  0.000000e+000
    outer loop
      vertex -2.200000e+001 -3.022000e+003  7.000000e+001
      vertex  4.280000e+002 -3.022000e+003  6.990000e+001
      vertex  4.500000e+002 -3.022000e+003  6.990000e+001
    endloop
  endfacet
  facet normal  0.000000e+000 -1.000000e+000  0.000000e+000
    outer loop
      vertex -2.200000e+001 -3.022000e+003  7.000000e+001
      vertex  4.500000e+002 -3.022000e+003  6.990000e+001
      vertex  7.750000e+002 -3.022000e+003  6.990000e+001
    endloop
  endfacet
  facet normal  0.000000e+000 -1.000000e+000  0.000000e+000
    outer loop
      vertex -2.200000e+001 -3.022000e+003  7.000000e+001
      vertex  7.750000e+002 -3.022000e+003  6.990000e+001
      vertex  7.970000e+002 -3.022000e+003  6.990000e+001
    endloop
  endfacet
  facet normal  0.000000e+000 -1.000000e+000  0.000000e+000
    outer loop
      vertex -2.200000e+001 -3.022000e+003  7.000000e+001
      vertex  7.970000e+002 -3.022000e+003  6.990000e+001
      vertex  1.203000e+003 -3.022000e+003  6.990000e+001
    endloop
  endfacet
  facet normal  0.000000e+000 -1.000000e+000  0.000000e+000
    outer loop
      vertex -2.200000e+001 -3.022000e+003  7.000000e+001
      vertex  1.203000e+003 -3.022000e+003  6.990000e+001
      vertex  1.225000e+003 -3.022000e+003  6.990000e+001
    endloop
  endfacet
  facet normal  0.000000e+000 -1.000000e+000  0.000000e+000
    outer loop
      vertex -2.200000e+001 -3.022000e+003  7.000000e+001
      vertex  1.225000e+003 -3.022000e+003  6.990000e+001
      vertex  1.550000e+003 -3.022000e+003  6.990000e+001
    endloop
  endfacet
  facet normal  0.000000e+000 -9.999999e-001  0.000000e+000
    outer loop
      vertex -2.200000e+001 -3.022000e+003  7.000000e+001
      vertex  1.550000e+003 -3.022000e+003  6.990000e+001
      vertex  2.022000e+003 -3.022000e+003  7.000000e+001
    endloop
  endfacet
  facet normal  0.000000e+000 -9.999999e-001  0.000000e+000
    outer loop
      vertex  1.225000e+003 -3.022000e+003 -1.000000e-001
      vertex  1.550000e+003 -3.022000e+003 -1.000000e-001
      vertex  1.225000e+003 -3.022000e+003  6.990000e+001
    endloop
  endfacet
  facet normal  0.000000e+000 -9.999999e-001  0.000000e+000
    outer loop
      vertex  1.225000e+003 -3.022000e+003  6.990000e+001
      vertex  1.550000e+003 -3.022000e+003 -1.000000e-001
      vertex  1.550000e+003 -3.022000e+003  6.990000e+001
    endloop
  endfacet
  facet normal  0.000000e+000 -1.000000e+000  0.000000e+000
    outer loop
      vertex  7.970000e+002 -3.022000e+003 -2.200000e+001
      vertex  1.203000e+003 -3.022000e+003 -2.200000e+001
      vertex  7.970000e+002 -3.022000e+003  6.990000e+001
    endloop
  endfacet
  facet normal  0.000000e+000 -1.000000e+000  0.000000e+000
    outer loop
      vertex  7.970000e+002 -3.022000e+003  6.990000e+001
      vertex  1.203000e+003 -3.022000e+003 -2.200000e+001
      vertex  1.203000e+003 -3.022000e+003  6.990000e+001
    endloop
  endfacet
  facet normal  0.000000e+000 -9.999999e-001  0.000000e+000
    outer loop
      vertex  4.500000e+002 -3.022000e+003 -1.000000e-001
      vertex  7.750000e+002 -3.022000e+003 -1.000000e-001
      vertex  4.500000e+002 -3.022000e+003  6.990000e+001
    endloop
  endfacet
  facet normal  0.000000e+000 -9.999999e-001  0.000000e+000
    outer loop
      vertex  4.500000e+002 -3.022000e+003  6.990000e+001
      vertex  7.750000e+002 -3.022000e+003 -1.000000e-001
      vertex  7.750000e+002 -3.022000e+003  6.990000e+001
    endloop
  endfacet
  facet normal  0.000000e+000 -9.999999e-001  0.000000e+000
    outer loop
      vertex  1.572000e+003 -3.022000e+003 -2.200000e+001
      vertex  2.022000e+003 -3.022000e+003 -2.200000e+001
      vertex  1.572000e+003 -3.022000e+003  6.990000e+001
    endloop
  endfacet
  facet normal  0.000000e+000 -1.000000e+000  0.000000e+000
    outer loop
      vertex  1.572000e+003 -3.022000e+003  6.990000e+001
      vertex  2.022000e+003 -3.022000e+003 -2.200000e+001
      vertex  2.022000e+003 -3.022000e+003  7.000000e+001
    endloop
  endfacet
  facet normal  0.000000e+000 -1.000000e+000  0.000000e+000
    outer loop
      vertex  1.572000e+003 -3.022000e+003  6.990000e+001
      vertex  2.022000e+003 -3.022000e+003  7.000000e+001
      vertex  1.550000e+003 -3.022000e+003  6.990000e+001
    endloop
  endfacet
  facet normal -1.000000e+000  -0.000000e+000  0.000000e+000
    outer loop
      vertex -2.200000e+001 -1.950000e+003  7.000000e+001
      vertex -2.200000e+001 -1.950000e+003  4.800000e+001
      vertex -2.200000e+001 -2.053000e+003 -2.200000e+001
    endloop
  endfacet
  facet normal -1.000000e+000  0.000000e+000  0.000000e+000
    outer loop
      vertex -2.200000e+001 -1.950000e+003  7.000000e+001
      vertex -2.200000e+001 -2.053000e+003 -2.200000e+001
      vertex -2.200000e+001 -2.053000e+003  6.990000e+001
    endloop
  endfacet
  facet normal -1.000000e+000  0.000000e+000  0.000000e+000
    outer loop
      vertex -2.200000e+001 -1.950000e+003  7.000000e+001
      vertex -2.200000e+001 -2.053000e+003  6.990000e+001
      vertex -2.200000e+001 -2.075000e+003  6.990000e+001
    endloop
  endfacet
  facet normal -1.000000e+000  0.000000e+000  0.000000e+000
    outer loop
      vertex -2.200000e+001 -1.950000e+003  7.000000e+001
      vertex -2.200000e+001 -2.075000e+003  6.990000e+001
      vertex -2.200000e+001 -3.022000e+003  7.000000e+001
    endloop
  endfacet
  facet normal -1.000000e+000  0.000000e+000  0.000000e+000
    outer loop
      vertex -2.200000e+001 -3.022000e+003  7.000000e+001
      vertex -2.200000e+001 -2.075000e+003  6.990000e+001
      vertex -2.200000e+001 -2.400000e+003  6.990000e+001
    endloop
  endfacet
  facet normal -1.000000e+000  0.000000e+000  0.000000e+000
    outer loop
      vertex -2.200000e+001 -3.022000e+003  7.000000e+001
      vertex -2.200000e+001 -2.400000e+003  6.990000e+001
      vertex -2.200000e+001 -2.422000e+003  6.990000e+001
    endloop
  endfacet
  facet normal -1.000000e+000  -0.000000e+000  -0.000000e+000
    outer loop
      vertex -2.200000e+001 -3.022000e+003  7.000000e+001
      vertex -2.200000e+001 -2.422000e+003  6.990000e+001
      vertex -2.200000e+001 -2.422000e+003 -2.200000e+001
    endloop
  endfacet
  facet normal -9.999999e-001  0.000000e+000  0.000000e+000
    outer loop
      vertex -2.200000e+001 -3.022000e+003  7.000000e+001
      vertex -2.200000e+001 -2.422000e+003 -2.200000e+001
      vertex -2.200000e+001 -3.022000e+003 -2.200000e+001
    endloop
  endfacet
  facet normal -1.000000e+000  -0.000000e+000  0.000000e+000
    outer loop
      vertex -2.200000e+001 -1.050000e+003  7.000000e+001
      vertex -2.200000e+001  2.200000e+001  7.000000e+001
      vertex -2.200000e+001 -5.780000e+002  6.990000e+001
    endloop
  endfacet
  facet normal -1.000000e+000  0.000000e+000  0.000000e+000
    outer loop
      vertex -2.200000e+001 -1.050000e+003  7.000000e+001
      vertex -2.200000e+001 -5.780000e+002  6.990000e+001
      vertex -2.200000e+001 -6.000000e+002  6.990000e+001
    endloop
  endfacet
  facet normal -1.000000e+000  0.000000e+000  0.000000e+000
    outer loop
      vertex -2.200000e+001 -1.050000e+003  7.000000e+001
      vertex -2.200000e+001 -6.000000e+002  6.990000e+001
      vertex -2.200000e+001 -9.250000e+002  6.990000e+001
    endloop
  endfacet
  facet normal -1.000000e+000  0.000000e+000  0.000000e+000
    outer loop
      vertex -2.200000e+001 -1.050000e+003  7.000000e+001
      vertex -2.200000e+001 -9.250000e+002  6.990000e+001
      vertex -2.200000e+001 -9.470000e+002  6.990000e+001
    endloop
  endfacet
  facet normal -1.000000e+000  -0.000000e+000  -0.000000e+000
    outer loop
      vertex -2.200000e+001 -1.050000e+003  7.000000e+001
      vertex -2.200000e+001 -9.470000e+002  6.990000e+001
      vertex -2.200000e+001 -9.470000e+002 -2.200000e+001
    endloop
  endfacet
  facet normal -1.000000e+000  0.000000e+000  0.000000e+000
    outer loop
      vertex -2.200000e+001 -1.050000e+003  7.000000e+001
      vertex -2.200000e+001 -9.470000e+002 -2.200000e+001
      vertex -2.200000e+001 -1.050000e+003  4.800000e+001
    endloop
  endfacet
  facet normal -9.999999e-001  0.000000e+000  0.000000e+000
    outer loop
      vertex -2.200000e+001 -2.400000e+003 -1.000000e-001
      vertex -2.200000e+001 -2.400000e+003  6.990000e+001
      vertex -2.200000e+001 -2.075000e+003 -1.000000e-001
    endloop
  endfacet
  facet normal -9.999999e-001  0.000000e+000  0.000000e+000
    outer loop
      vertex -2.200000e+001 -2.075000e+003 -1.000000e-001
      vertex -2.200000e+001 -2.400000e+003  6.990000e+001
      vertex -2.200000e+001 -2.075000e+003  6.990000e+001
    endloop
  endfacet
  facet normal -1.000000e+000  0.000000e+000  0.000000e+000
    outer loop
      vertex -2.200000e+001 -9.470000e+002 -2.200000e+001
      vertex -2.200000e+001 -2.053000e+003 -2.200000e+001
      vertex -2.200000e+001 -1.050000e+003  4.800000e+001
    endloop
  endfacet
  facet normal -1.000000e+000  -0.000000e+000  0.000000e+000
    outer loop
      vertex -2.200000e+001 -1.050000e+003  4.800000e+001
      vertex -2.200000e+001 -2.053000e+003 -2.200000e+001
      vertex -2.200000e+001 -1.950000e+003  4.800000e+001
    endloop
  endfacet
  facet normal -1.000000e+000  0.000000e+000  0.000000e+000
    outer loop
      vertex -2.200000e+001 -5.780000e+002 -2.200000e+001
      vertex -2.200000e+001 -5.780000e+002  6.990000e+001
      vertex -2.200000e+001  2.200000e+001 -2.200000e+001
    endloop
  endfacet
  facet normal -9.999999e-001  0.000000e+000  0.000000e+000
    outer loop
      vertex -2.200000e+001  2.200000e+001 -2.200000e+001
      vertex -2.200000e+001 -5.780000e+002  6.990000e+001
      vertex -2.200000e+001  2.200000e+001  7.000000e+001
    endloop
  endfacet
  facet normal -9.999999e-001  0.000000e+000  0.000000e+000
    outer loop
      vertex -2.200000e+001 -9.250000e+002 -1.000000e-001
      vertex -2.200000e+001 -9.250000e+002  6.990000e+001
      vertex -2.200000e+001 -6.000000e+002 -1.000000e-001
    endloop
  endfacet
  facet normal -9.999999e-001  0.000000e+000  0.000000e+000
    outer loop
      vertex -2.200000e+001 -6.000000e+002 -1.000000e-001
      vertex -2.200000e+001 -9.250000e+002  6.990000e+001
      vertex -2.200000e+001 -6.000000e+002  6.990000e+001
    endloop
  endfacet
  facet normal  0.000000e+000  1.000000e+000  0.000000e+000
    outer loop
      vertex -2.200000e+001 -9.250000e+002 -1.000000e-001
      vertex -1.720000e+002 -9.250000e+002 -1.000000e-001
      vertex -2.200000e+001 -9.250000e+002  6.990000e+001
    endloop
  endfacet
  facet normal  0.000000e+000  1.000000e+000  0.000000e+000
    outer loop
      vertex -2.200000e+001 -9.250000e+002  6.990000e+001
      vertex -1.720000e+002 -9.250000e+002 -1.000000e-001
      vertex -1.720000e+002 -9.250000e+002  6.990000e+001
    endloop
  endfacet
  facet normal  0.000000e+000  0.000000e+000  9.999999e-001
    outer loop
      vertex -1.720000e+002 -9.250000e+002 -1.000000e-001
      vertex -2.200000e+001 -9.250000e+002 -1.000000e-001
      vertex -1.720000e+002 -6.000000e+002 -1.000000e-001
    endloop
  endfacet
  facet normal  -0.000000e+000  0.000000e+000  9.999999e-001
    outer loop
      vertex -1.720000e+002 -6.000000e+002 -1.000000e-001
      vertex -2.200000e+001 -9.250000e+002 -1.000000e-001
      vertex -2.200000e+001 -6.000000e+002 -1.000000e-001
    endloop
  endfacet
  facet normal  0.000000e+000 -1.000000e+000  0.000000e+000
    outer loop
      vertex -1.720000e+002 -6.000000e+002 -1.000000e-001
      vertex -2.200000e+001 -6.000000e+002 -1.000000e-001
      vertex -1.720000e+002 -6.000000e+002  6.990000e+001
    endloop
  endfacet
  facet normal  0.000000e+000 -1.000000e+000  0.000000e+000
    outer loop
      vertex -1.720000e+002 -6.000000e+002  6.990000e+001
      vertex -2.200000e+001 -6.000000e+002 -1.000000e-001
      vertex -2.200000e+001 -6.000000e+002  6.990000e+001
    endloop
  endfacet
  facet normal  0.000000e+000  -0.000000e+000  1.000000e+000
    outer loop
      vertex -1.940000e+002 -5.780000e+002  6.990000e+001
      vertex -2.200000e+001 -6.000000e+002  6.990000e+001
      vertex -2.200000e+001 -5.780000e+002  6.990000e+001
    endloop
  endfacet
  facet normal  0.000000e+000  0.000000e+000  1.000000e+000
    outer loop
      vertex -2.200000e+001 -6.000000e+002  6.990000e+001
      vertex -1.940000e+002 -5.780000e+002  6.990000e+001
      vertex -1.720000e+002 -6.000000e+002  6.990000e+001
    endloop
  endfacet
  facet normal  0.000000e+000  0.000000e+000  1.000000e+000
    outer loop
      vertex -1.720000e+002 -6.000000e+002  6.990000e+001
      vertex -1.940000e+002 -5.780000e+002  6.990000e+001
      vertex -1.940000e+002 -9.470000e+002  6.990000e+001
    endloop
  endfacet
  facet normal  0.000000e+000  0.000000e+000  1.000000e+000
    outer loop
      vertex -1.720000e+002 -6.000000e+002  6.990000e+001
      vertex -1.940000e+002 -9.470000e+002  6.990000e+001
      vertex -1.720000e+002 -9.250000e+002  6.990000e+001
    endloop
  endfacet
  facet normal  0.000000e+000  0.000000e+000  1.000000e+000
    outer loop
      vertex -1.720000e+002 -9.250000e+002  6.990000e+001
      vertex -1.940000e+002 -9.470000e+002  6.990000e+001
      vertex -2.200000e+001 -9.470000e+002  6.990000e+001
    endloop
  endfacet
  facet normal  0.000000e+000  -0.000000e+000  1.000000e+000
    outer loop
      vertex -1.720000e+002 -9.250000e+002  6.990000e+001
      vertex -2.200000e+001 -9.470000e+002  6.990000e+001
      vertex -2.200000e+001 -9.250000e+002  6.990000e+001
    endloop
  endfacet
  facet normal  0.000000e+000  0.000000e+000  1.000000e+000
    outer loop
      vertex  1.136868e-013 -3.000000e+003  0.000000e+000
      vertex  2.000000e+003 -3.000000e+003  0.000000e+000
      vertex  0.000000e+000  0.000000e+000  0.000000e+000
    endloop
  endfacet
  facet normal  -0.000000e+000  0.000000e+000  1.000000e+000
    outer loop
      vertex  0.000000e+000  0.000000e+000  0.000000e+000
      vertex  2.000000e+003 -3.000000e+003  0.000000e+000
      vertex  2.000000e+003  0.000000e+000  0.000000e+000
    endloop
  endfacet
  facet normal  0.000000e+000  1.000000e+000  -0.000000e+000
    outer loop
      vertex  2.000000e+003 -3.000000e+003  7.000000e+001
      vertex  2.000000e+003 -3.000000e+003  0.000000e+000
      vertex  0.000000e+000 -3.000000e+003  7.000000e+001
    endloop
  endfacet
  facet normal  0.000000e+000  1.000000e+000  0.000000e+000
    outer loop
      vertex  0.000000e+000 -3.000000e+003  7.000000e+001
      vertex  2.000000e+003 -3.000000e+003  0.000000e+000
      vertex  1.136868e-013 -3.000000e+003  0.000000e+000
    endloop
  endfacet
  facet normal -9.999999e-001  -0.000000e+000  0.000000e+000
    outer loop
      vertex  2.000000e+003 -3.000000e+003  7.000000e+001
      vertex  2.000000e+003  0.000000e+000  7.000000e+001
      vertex  2.000000e+003 -3.000000e+003  0.000000e+000
    endloop
  endfacet
  facet normal -9.999999e-001  0.000000e+000  0.000000e+000
    outer loop
      vertex  2.000000e+003 -3.000000e+003  0.000000e+000
      vertex  2.000000e+003  0.000000e+000  7.000000e+001
      vertex  2.000000e+003  0.000000e+000  0.000000e+000
    endloop
  endfacet
  facet normal  0.000000e+000 -1.000000e+000  0.000000e+000
    outer loop
      vertex  0.000000e+000  0.000000e+000  7.000000e+001
      vertex  0.000000e+000  0.000000e+000  0.000000e+000
      vertex  2.000000e+003  0.000000e+000  7.000000e+001
    endloop
  endfacet
  facet normal  0.000000e+000 -1.000000e+000  -0.000000e+000
    outer loop
      vertex  2.000000e+003  0.000000e+000  7.000000e+001
      vertex  0.000000e+000  0.000000e+000  0.000000e+000
      vertex  2.000000e+003  0.000000e+000  0.000000e+000
    endloop
  endfacet
  facet normal  9.999999e-001  -0.000000e+000  0.000000e+000
    outer loop
      vertex  0.000000e+000  0.000000e+000  7.000000e+001
      vertex  0.000000e+000 -3.000000e+003  7.000000e+001
      vertex  0.000000e+000  0.000000e+000  0.000000e+000
    endloop
  endfacet
  facet normal  9.999999e-001  3.789561e-017  1.624098e-015
    outer loop
      vertex  0.000000e+000  0.000000e+000  0.000000e+000
      vertex  0.000000e+000 -3.000000e+003  7.000000e+001
      vertex  1.136868e-013 -3.000000e+003  0.000000e+000
    endloop
  endfacet
  facet normal  0.000000e+000 -1.000000e+000  -0.000000e+000
    outer loop
      vertex -2.200000e+001 -1.950000e+003  4.800000e+001
      vertex -2.200000e+001 -1.950000e+003  7.000000e+001
      vertex -2.220000e+002 -1.950000e+003  4.800000e+001
    endloop
  endfacet
  facet normal  0.000000e+000 -1.000000e+000  0.000000e+000
    outer loop
      vertex -2.220000e+002 -1.950000e+003  4.800000e+001
      vertex -2.200000e+001 -1.950000e+003  7.000000e+001
      vertex -2.220000e+002 -1.950000e+003  7.000000e+001
    endloop
  endfacet
  facet normal  0.000000e+000 -9.999999e-001  0.000000e+000
    outer loop
      vertex  4.280000e+002  2.200000e+001 -2.210000e+001
      vertex  7.970000e+002  2.200000e+001 -2.210000e+001
      vertex  4.280000e+002  2.200000e+001 -2.200000e+001
    endloop
  endfacet
  facet normal  0.000000e+000 -9.999999e-001  0.000000e+000
    outer loop
      vertex  4.280000e+002  2.200000e+001 -2.200000e+001
      vertex  7.970000e+002  2.200000e+001 -2.210000e+001
      vertex  7.970000e+002  2.200000e+001 -2.200000e+001
    endloop
  endfacet
  facet normal  1.000000e+000  0.000000e+000  0.000000e+000
    outer loop
      vertex  1.225000e+003  1.720000e+002 -1.000000e-001
      vertex  1.225000e+003  1.720000e+002  6.990000e+001
      vertex  1.225000e+003  2.200000e+001 -1.000000e-001
    endloop
  endfacet
  facet normal  1.000000e+000  0.000000e+000  0.000000e+000
    outer loop
      vertex  1.225000e+003  2.200000e+001 -1.000000e-001
      vertex  1.225000e+003  1.720000e+002  6.990000e+001
      vertex  1.225000e+003  2.200000e+001  6.990000e+001
    endloop
  endfacet
  facet normal  0.000000e+000  0.000000e+000  9.999999e-001
    outer loop
      vertex  1.225000e+003  2.200000e+001 -1.000000e-001
      vertex  1.550000e+003  2.200000e+001 -1.000000e-001
      vertex  1.225000e+003  1.720000e+002 -1.000000e-001
    endloop
  endfacet
  facet normal  -0.000000e+000  0.000000e+000  9.999999e-001
    outer loop
      vertex  1.225000e+003  1.720000e+002 -1.000000e-001
      vertex  1.550000e+003  2.200000e+001 -1.000000e-001
      vertex  1.550000e+003  1.720000e+002 -1.000000e-001
    endloop
  endfacet
  facet normal -1.000000e+000  0.000000e+000  0.000000e+000
    outer loop
      vertex  1.550000e+003  2.200000e+001 -1.000000e-001
      vertex  1.550000e+003  2.200000e+001  6.990000e+001
      vertex  1.550000e+003  1.720000e+002 -1.000000e-001
    endloop
  endfacet
  facet normal -1.000000e+000  0.000000e+000  0.000000e+000
    outer loop
      vertex  1.550000e+003  1.720000e+002 -1.000000e-001
      vertex  1.550000e+003  2.200000e+001  6.990000e+001
      vertex  1.550000e+003  1.720000e+002  6.990000e+001
    endloop
  endfacet
  facet normal  1.000000e+000  0.000000e+000  0.000000e+000
    outer loop
      vertex  2.022000e+003 -3.022000e+003 -2.200000e+001
      vertex  2.022000e+003  2.200000e+001 -2.200000e+001
      vertex  2.022000e+003 -3.022000e+003  7.000000e+001
    endloop
  endfacet
  facet normal  1.000000e+000  -0.000000e+000  0.000000e+000
    outer loop
      vertex  2.022000e+003 -3.022000e+003  7.000000e+001
      vertex  2.022000e+003  2.200000e+001 -2.200000e+001
      vertex  2.022000e+003  2.200000e+001  7.000000e+001
    endloop
  endfacet
  facet normal -1.000000e+000  0.000000e+000  0.000000e+000
    outer loop
      vertex  4.280000e+002  1.940000e+002 -2.210000e+001
      vertex  4.280000e+002  2.200000e+001 -2.210000e+001
      vertex  4.280000e+002  1.940000e+002  6.990000e+001
    endloop
  endfacet
  facet normal -1.000000e+000  0.000000e+000  0.000000e+000
    outer loop
      vertex  4.280000e+002  1.940000e+002  6.990000e+001
      vertex  4.280000e+002  2.200000e+001 -2.210000e+001
      vertex  4.280000e+002  2.200000e+001 -2.200000e+001
    endloop
  endfacet
  facet normal -1.000000e+000  0.000000e+000  0.000000e+000
    outer loop
      vertex  4.280000e+002  1.940000e+002  6.990000e+001
      vertex  4.280000e+002  2.200000e+001 -2.200000e+001
      vertex  4.280000e+002  2.200000e+001  6.990000e+001
    endloop
  endfacet
  facet normal  1.000000e+000  0.000000e+000  0.000000e+000
    outer loop
      vertex  4.500000e+002  2.200000e+001 -1.000000e-001
      vertex  4.500000e+002  1.720000e+002 -1.000000e-001
      vertex  4.500000e+002  2.200000e+001  6.990000e+001
    endloop
  endfacet
  facet normal  1.000000e+000  -0.000000e+000  0.000000e+000
    outer loop
      vertex  4.500000e+002  2.200000e+001  6.990000e+001
      vertex  4.500000e+002  1.720000e+002 -1.000000e-001
      vertex  4.500000e+002  1.720000e+002  6.990000e+001
    endloop
  endfacet
  facet normal  0.000000e+000  0.000000e+000  9.999999e-001
    outer loop
      vertex  4.500000e+002  2.200000e+001 -1.000000e-001
      vertex  7.750000e+002  2.200000e+001 -1.000000e-001
      vertex  4.500000e+002  1.720000e+002 -1.000000e-001
    endloop
  endfacet
  facet normal  -0.000000e+000  0.000000e+000  9.999999e-001
    outer loop
      vertex  4.500000e+002  1.720000e+002 -1.000000e-001
      vertex  7.750000e+002  2.200000e+001 -1.000000e-001
      vertex  7.750000e+002  1.720000e+002 -1.000000e-001
    endloop
  endfacet
  facet normal -1.000000e+000  0.000000e+000  0.000000e+000
    outer loop
      vertex  7.750000e+002  1.720000e+002 -1.000000e-001
      vertex  7.750000e+002  2.200000e+001 -1.000000e-001
      vertex  7.750000e+002  1.720000e+002  6.990000e+001
    endloop
  endfacet
  facet normal -1.000000e+000  -0.000000e+000  0.000000e+000
    outer loop
      vertex  7.750000e+002  1.720000e+002  6.990000e+001
      vertex  7.750000e+002  2.200000e+001 -1.000000e-001
      vertex  7.750000e+002  2.200000e+001  6.990000e+001
    endloop
  endfacet
  facet normal  0.000000e+000  0.000000e+000  1.000000e+000
    outer loop
      vertex  7.970000e+002  1.940000e+002  6.990000e+001
      vertex  7.750000e+002  2.200000e+001  6.990000e+001
      vertex  7.970000e+002  2.200000e+001  6.990000e+001
    endloop
  endfacet
  facet normal  0.000000e+000  0.000000e+000  1.000000e+000
    outer loop
      vertex  7.750000e+002  2.200000e+001  6.990000e+001
      vertex  7.970000e+002  1.940000e+002  6.990000e+001
      vertex  7.750000e+002  1.720000e+002  6.990000e+001
    endloop
  endfacet
  facet normal  0.000000e+000  -0.000000e+000  1.000000e+000
    outer loop
      vertex  7.750000e+002  1.720000e+002  6.990000e+001
      vertex  7.970000e+002  1.940000e+002  6.990000e+001
      vertex  4.280000e+002  1.940000e+002  6.990000e+001
    endloop
  endfacet
  facet normal  0.000000e+000  0.000000e+000  1.000000e+000
    outer loop
      vertex  7.750000e+002  1.720000e+002  6.990000e+001
      vertex  4.280000e+002  1.940000e+002  6.990000e+001
      vertex  4.500000e+002  1.720000e+002  6.990000e+001
    endloop
  endfacet
  facet normal  0.000000e+000  0.000000e+000  1.000000e+000
    outer loop
      vertex  4.500000e+002  1.720000e+002  6.990000e+001
      vertex  4.280000e+002  1.940000e+002  6.990000e+001
      vertex  4.280000e+002  2.200000e+001  6.990000e+001
    endloop
  endfacet
  facet normal  0.000000e+000  0.000000e+000  1.000000e+000
    outer loop
      vertex  4.500000e+002  1.720000e+002  6.990000e+001
      vertex  4.280000e+002  2.200000e+001  6.990000e+001
      vertex  4.500000e+002  2.200000e+001  6.990000e+001
    endloop
  endfacet
  facet normal  1.000000e+000  -0.000000e+000  0.000000e+000
    outer loop
      vertex  7.970000e+002  1.940000e+002  6.990000e+001
      vertex  7.970000e+002  2.200000e+001  6.990000e+001
      vertex  7.970000e+002  1.940000e+002 -2.210000e+001
    endloop
  endfacet
  facet normal  1.000000e+000  0.000000e+000  0.000000e+000
    outer loop
      vertex  7.970000e+002  1.940000e+002 -2.210000e+001
      vertex  7.970000e+002  2.200000e+001  6.990000e+001
      vertex  7.970000e+002  2.200000e+001 -2.200000e+001
    endloop
  endfacet
  facet normal  1.000000e+000  0.000000e+000  0.000000e+000
    outer loop
      vertex  7.970000e+002  1.940000e+002 -2.210000e+001
      vertex  7.970000e+002  2.200000e+001 -2.200000e+001
      vertex  7.970000e+002  2.200000e+001 -2.210000e+001
    endloop
  endfacet
  facet normal  0.000000e+000  0.000000e+000 -9.999999e-001
    outer loop
      vertex -2.200000e+001 -2.422000e+003 -2.200000e+001
      vertex  1.572000e+003 -3.022000e+003 -2.200000e+001
      vertex  1.203000e+003 -3.022000e+003 -2.200000e+001
    endloop
  endfacet
  facet normal  0.000000e+000  0.000000e+000 -1.000000e+000
    outer loop
      vertex -2.200000e+001 -2.422000e+003 -2.200000e+001
      vertex  1.203000e+003 -3.022000e+003 -2.200000e+001
      vertex  7.970000e+002 -3.022000e+003 -2.200000e+001
    endloop
  endfacet
  facet normal  0.000000e+000  0.000000e+000 -9.999999e-001
    outer loop
      vertex -2.200000e+001 -2.422000e+003 -2.200000e+001
      vertex  7.970000e+002 -3.022000e+003 -2.200000e+001
      vertex  4.280000e+002 -3.022000e+003 -2.200000e+001
    endloop
  endfacet
  facet normal  0.000000e+000  0.000000e+000 -1.000000e+000
    outer loop
      vertex -2.200000e+001 -2.422000e+003 -2.200000e+001
      vertex  4.280000e+002 -3.022000e+003 -2.200000e+001
      vertex -2.200000e+001 -3.022000e+003 -2.200000e+001
    endloop
  endfacet
  facet normal  0.000000e+000  0.000000e+000 -1.000000e+000
    outer loop
      vertex  2.022000e+003 -3.022000e+003 -2.200000e+001
      vertex  1.572000e+003 -3.022000e+003 -2.200000e+001
      vertex -2.200000e+001 -2.422000e+003 -2.200000e+001
    endloop
  endfacet
  facet normal  0.000000e+000  0.000000e+000 -1.000000e+000
    outer loop
      vertex  2.022000e+003 -3.022000e+003 -2.200000e+001
      vertex -2.200000e+001 -2.422000e+003 -2.200000e+001
      vertex -2.200000e+001 -2.053000e+003 -2.200000e+001
    endloop
  endfacet
  facet normal  0.000000e+000  0.000000e+000 -1.000000e+000
    outer loop
      vertex  2.022000e+003 -3.022000e+003 -2.200000e+001
      vertex -2.200000e+001 -2.053000e+003 -2.200000e+001
      vertex -2.200000e+001 -9.470000e+002 -2.200000e+001
    endloop
  endfacet
  facet normal  0.000000e+000  0.000000e+000 -1.000000e+000
    outer loop
      vertex  2.022000e+003 -3.022000e+003 -2.200000e+001
      vertex -2.200000e+001 -9.470000e+002 -2.200000e+001
      vertex -2.200000e+001 -5.780000e+002 -2.200000e+001
    endloop
  endfacet
  facet normal  0.000000e+000  0.000000e+000 -1.000000e+000
    outer loop
      vertex  2.022000e+003 -3.022000e+003 -2.200000e+001
      vertex -2.200000e+001 -5.780000e+002 -2.200000e+001
      vertex  2.022000e+003  2.200000e+001 -2.200000e+001
    endloop
  endfacet
  facet normal  0.000000e+000  0.000000e+000 -1.000000e+000
    outer loop
      vertex -2.200000e+001 -5.780000e+002 -2.200000e+001
      vertex -2.200000e+001  2.200000e+001 -2.200000e+001
      vertex  4.280000e+002  2.200000e+001 -2.200000e+001
    endloop
  endfacet
  facet normal  0.000000e+000  -0.000000e+000 -9.999999e-001
    outer loop
      vertex -2.200000e+001 -5.780000e+002 -2.200000e+001
      vertex  4.280000e+002  2.200000e+001 -2.200000e+001
      vertex  7.970000e+002  2.200000e+001 -2.200000e+001
    endloop
  endfacet
  facet normal  0.000000e+000  -0.000000e+000 -1.000000e+000
    outer loop
      vertex -2.200000e+001 -5.780000e+002 -2.200000e+001
      vertex  7.970000e+002  2.200000e+001 -2.200000e+001
      vertex  1.203000e+003  2.200000e+001 -2.200000e+001
    endloop
  endfacet
  facet normal  0.000000e+000  -0.000000e+000 -9.999999e-001
    outer loop
      vertex -2.200000e+001 -5.780000e+002 -2.200000e+001
      vertex  1.203000e+003  2.200000e+001 -2.200000e+001
      vertex  1.572000e+003  2.200000e+001 -2.200000e+001
    endloop
  endfacet
  facet normal  0.000000e+000  -0.000000e+000 -1.000000e+000
    outer loop
      vertex -2.200000e+001 -5.780000e+002 -2.200000e+001
      vertex  1.572000e+003  2.200000e+001 -2.200000e+001
      vertex  2.022000e+003  2.200000e+001 -2.200000e+001
    endloop
  endfacet
  facet normal -1.000000e+000  0.000000e+000  0.000000e+000
    outer loop
      vertex  1.203000e+003  2.200000e+001 -2.210000e+001
      vertex  1.203000e+003  2.200000e+001 -2.200000e+001
      vertex  1.203000e+003  1.940000e+002 -2.210000e+001
    endloop
  endfacet
  facet normal -1.000000e+000  0.000000e+000  0.000000e+000
    outer loop
      vertex  1.203000e+003  1.940000e+002 -2.210000e+001
      vertex  1.203000e+003  2.200000e+001 -2.200000e+001
      vertex  1.203000e+003  2.200000e+001  6.990000e+001
    endloop
  endfacet
  facet normal -1.000000e+000  0.000000e+000  0.000000e+000
    outer loop
      vertex  1.203000e+003  1.940000e+002 -2.210000e+001
      vertex  1.203000e+003  2.200000e+001  6.990000e+001
      vertex  1.203000e+003  1.940000e+002  6.990000e+001
    endloop
  endfacet
  facet normal  0.000000e+000  0.000000e+000  1.000000e+000
    outer loop
      vertex  1.572000e+003  1.940000e+002  6.990000e+001
      vertex  1.550000e+003  2.200000e+001  6.990000e+001
      vertex  1.572000e+003  2.200000e+001  6.990000e+001
    endloop
  endfacet
  facet normal  0.000000e+000  0.000000e+000  1.000000e+000
    outer loop
      vertex  1.550000e+003  2.200000e+001  6.990000e+001
      vertex  1.572000e+003  1.940000e+002  6.990000e+001
      vertex  1.550000e+003  1.720000e+002  6.990000e+001
    endloop
  endfacet
  facet normal  0.000000e+000  -0.000000e+000  1.000000e+000
    outer loop
      vertex  1.550000e+003  1.720000e+002  6.990000e+001
      vertex  1.572000e+003  1.940000e+002  6.990000e+001
      vertex  1.203000e+003  1.940000e+002  6.990000e+001
    endloop
  endfacet
  facet normal  0.000000e+000  0.000000e+000  1.000000e+000
    outer loop
      vertex  1.550000e+003  1.720000e+002  6.990000e+001
      vertex  1.203000e+003  1.940000e+002  6.990000e+001
      vertex  1.225000e+003  1.720000e+002  6.990000e+001
    endloop
  endfacet
  facet normal  0.000000e+000  0.000000e+000  1.000000e+000
    outer loop
      vertex  1.225000e+003  1.720000e+002  6.990000e+001
      vertex  1.203000e+003  1.940000e+002  6.990000e+001
      vertex  1.203000e+003  2.200000e+001  6.990000e+001
    endloop
  endfacet
  facet normal  0.000000e+000  0.000000e+000  1.000000e+000
    outer loop
      vertex  1.225000e+003  1.720000e+002  6.990000e+001
      vertex  1.203000e+003  2.200000e+001  6.990000e+001
      vertex  1.225000e+003  2.200000e+001  6.990000e+001
    endloop
  endfacet
  facet normal  0.000000e+000  1.000000e+000  -0.000000e+000
    outer loop
      vertex  2.022000e+003  2.200000e+001  7.000000e+001
      vertex  2.022000e+003  2.200000e+001 -2.200000e+001
      vertex  1.572000e+003  2.200000e+001 -2.200000e+001
    endloop
  endfacet
  facet normal  0.000000e+000  9.999999e-001  0.000000e+000
    outer loop
      vertex  2.022000e+003  2.200000e+001  7.000000e+001
      vertex  1.572000e+003  2.200000e+001 -2.200000e+001
      vertex  1.572000e+003  2.200000e+001  6.990000e+001
    endloop
  endfacet
  facet normal  0.000000e+000  1.000000e+000  -0.000000e+000
    outer loop
      vertex  2.022000e+003  2.200000e+001  7.000000e+001
      vertex  1.572000e+003  2.200000e+001  6.990000e+001
      vertex  1.550000e+003  2.200000e+001  6.990000e+001
    endloop
  endfacet
  facet normal  0.000000e+000  1.000000e+000  -0.000000e+000
    outer loop
      vertex  2.022000e+003  2.200000e+001  7.000000e+001
      vertex  1.550000e+003  2.200000e+001  6.990000e+001
      vertex  1.225000e+003  2.200000e+001  6.990000e+001
    endloop
  endfacet
  facet normal  0.000000e+000  1.000000e+000  -0.000000e+000
    outer loop
      vertex  2.022000e+003  2.200000e+001  7.000000e+001
      vertex  1.225000e+003  2.200000e+001  6.990000e+001
      vertex  1.203000e+003  2.200000e+001  6.990000e+001
    endloop
  endfacet
  facet normal  0.000000e+000  1.000000e+000  -0.000000e+000
    outer loop
      vertex  2.022000e+003  2.200000e+001  7.000000e+001
      vertex  1.203000e+003  2.200000e+001  6.990000e+001
      vertex  7.970000e+002  2.200000e+001  6.990000e+001
    endloop
  endfacet
  facet normal  0.000000e+000  1.000000e+000  -0.000000e+000
    outer loop
      vertex  2.022000e+003  2.200000e+001  7.000000e+001
      vertex  7.970000e+002  2.200000e+001  6.990000e+001
      vertex  7.750000e+002  2.200000e+001  6.990000e+001
    endloop
  endfacet
  facet normal  0.000000e+000  1.000000e+000  -0.000000e+000
    outer loop
      vertex  2.022000e+003  2.200000e+001  7.000000e+001
      vertex  7.750000e+002  2.200000e+001  6.990000e+001
      vertex  4.500000e+002  2.200000e+001  6.990000e+001
    endloop
  endfacet
  facet normal  0.000000e+000  9.999999e-001  -0.000000e+000
    outer loop
      vertex  2.022000e+003  2.200000e+001  7.000000e+001
      vertex  4.500000e+002  2.200000e+001  6.990000e+001
      vertex -2.200000e+001  2.200000e+001  7.000000e+001
    endloop
  endfacet
  facet normal  0.000000e+000  9.999999e-001  0.000000e+000
    outer loop
      vertex  7.750000e+002  2.200000e+001 -1.000000e-001
      vertex  4.500000e+002  2.200000e+001 -1.000000e-001
      vertex  7.750000e+002  2.200000e+001  6.990000e+001
    endloop
  endfacet
  facet normal  0.000000e+000  9.999999e-001  0.000000e+000
    outer loop
      vertex  7.750000e+002  2.200000e+001  6.990000e+001
      vertex  4.500000e+002  2.200000e+001 -1.000000e-001
      vertex  4.500000e+002  2.200000e+001  6.990000e+001
    endloop
  endfacet
  facet normal  0.000000e+000  1.000000e+000  0.000000e+000
    outer loop
      vertex  1.203000e+003  2.200000e+001 -2.200000e+001
      vertex  7.970000e+002  2.200000e+001 -2.200000e+001
      vertex  1.203000e+003  2.200000e+001  6.990000e+001
    endloop
  endfacet
  facet normal  0.000000e+000  1.000000e+000  0.000000e+000
    outer loop
      vertex  1.203000e+003  2.200000e+001  6.990000e+001
      vertex  7.970000e+002  2.200000e+001 -2.200000e+001
      vertex  7.970000e+002  2.200000e+001  6.990000e+001
    endloop
  endfacet
  facet normal  0.000000e+000  9.999999e-001  0.000000e+000
    outer loop
      vertex  1.550000e+003  2.200000e+001 -1.000000e-001
      vertex  1.225000e+003  2.200000e+001 -1.000000e-001
      vertex  1.550000e+003  2.200000e+001  6.990000e+001
    endloop
  endfacet
  facet normal  0.000000e+000  9.999999e-001  0.000000e+000
    outer loop
      vertex  1.550000e+003  2.200000e+001  6.990000e+001
      vertex  1.225000e+003  2.200000e+001 -1.000000e-001
      vertex  1.225000e+003  2.200000e+001  6.990000e+001
    endloop
  endfacet
  facet normal  0.000000e+000  9.999999e-001  0.000000e+000
    outer loop
      vertex  4.280000e+002  2.200000e+001 -2.200000e+001
      vertex -2.200000e+001  2.200000e+001 -2.200000e+001
      vertex  4.280000e+002  2.200000e+001  6.990000e+001
    endloop
  endfacet
  facet normal  0.000000e+000  1.000000e+000  0.000000e+000
    outer loop
      vertex  4.280000e+002  2.200000e+001  6.990000e+001
      vertex -2.200000e+001  2.200000e+001 -2.200000e+001
      vertex -2.200000e+001  2.200000e+001  7.000000e+001
    endloop
  endfacet
  facet normal  0.000000e+000  1.000000e+000  0.000000e+000
    outer loop
      vertex  4.280000e+002  2.200000e+001  6.990000e+001
      vertex -2.200000e+001  2.200000e+001  7.000000e+001
      vertex  4.500000e+002  2.200000e+001  6.990000e+001
    endloop
  endfacet
  facet normal  0.000000e+000 -9.999999e-001  0.000000e+000
    outer loop
      vertex  1.203000e+003  2.200000e+001 -2.210000e+001
      vertex  1.572000e+003  2.200000e+001 -2.210000e+001
      vertex  1.203000e+003  2.200000e+001 -2.200000e+001
    endloop
  endfacet
  facet normal  0.000000e+000 -9.999999e-001  0.000000e+000
    outer loop
      vertex  1.203000e+003  2.200000e+001 -2.200000e+001
      vertex  1.572000e+003  2.200000e+001 -2.210000e+001
      vertex  1.572000e+003  2.200000e+001 -2.200000e+001
    endloop
  endfacet
  facet normal  1.000000e+000  0.000000e+000  0.000000e+000
    outer loop
      vertex  1.572000e+003  2.200000e+001  6.990000e+001
      vertex  1.572000e+003  2.200000e+001 -2.200000e+001
      vertex  1.572000e+003  1.940000e+002  6.990000e+001
    endloop
  endfacet
  facet normal  1.000000e+000  0.000000e+000  0.000000e+000
    outer loop
      vertex  1.572000e+003  1.940000e+002  6.990000e+001
      vertex  1.572000e+003  2.200000e+001 -2.200000e+001
      vertex  1.572000e+003  2.200000e+001 -2.210000e+001
    endloop
  endfacet
  facet normal  1.000000e+000  0.000000e+000  0.000000e+000
    outer loop
      vertex  1.572000e+003  1.940000e+002  6.990000e+001
      vertex  1.572000e+003  2.200000e+001 -2.210000e+001
      vertex  1.572000e+003  1.940000e+002 -2.210000e+001
    endloop
  endfacet
  facet normal  0.000000e+000  1.000000e+000  -0.000000e+000
    outer loop
      vertex -2.200000e+001 -5.780000e+002  6.990000e+001
      vertex -2.200000e+001 -5.780000e+002 -2.200000e+001
      vertex -1.940000e+002 -5.780000e+002  6.990000e+001
    endloop
  endfacet
  facet normal  0.000000e+000  1.000000e+000  0.000000e+000
    outer loop
      vertex -1.940000e+002 -5.780000e+002  6.990000e+001
      vertex -2.200000e+001 -5.780000e+002 -2.200000e+001
      vertex -2.200000e+001 -5.780000e+002 -2.210000e+001
    endloop
  endfacet
  facet normal  0.000000e+000  1.000000e+000  0.000000e+000
    outer loop
      vertex -1.940000e+002 -5.780000e+002  6.990000e+001
      vertex -2.200000e+001 -5.780000e+002 -2.210000e+001
      vertex -1.940000e+002 -5.780000e+002 -2.210000e+001
    endloop
  endfacet
  facet normal  9.999999e-001  0.000000e+000  0.000000e+000
    outer loop
      vertex -2.200000e+001 -5.780000e+002 -2.210000e+001
      vertex -2.200000e+001 -5.780000e+002 -2.200000e+001
      vertex -2.200000e+001 -9.470000e+002 -2.210000e+001
    endloop
  endfacet
  facet normal  9.999999e-001  0.000000e+000  0.000000e+000
    outer loop
      vertex -2.200000e+001 -9.470000e+002 -2.210000e+001
      vertex -2.200000e+001 -5.780000e+002 -2.200000e+001
      vertex -2.200000e+001 -9.470000e+002 -2.200000e+001
    endloop
  endfacet
  facet normal  0.000000e+000 -1.000000e+000  -0.000000e+000
    outer loop
      vertex -2.200000e+001 -9.470000e+002 -2.210000e+001
      vertex -2.200000e+001 -9.470000e+002 -2.200000e+001
      vertex -1.940000e+002 -9.470000e+002 -2.210000e+001
    endloop
  endfacet
  facet normal  0.000000e+000 -1.000000e+000  0.000000e+000
    outer loop
      vertex -1.940000e+002 -9.470000e+002 -2.210000e+001
      vertex -2.200000e+001 -9.470000e+002 -2.200000e+001
      vertex -2.200000e+001 -9.470000e+002  6.990000e+001
    endloop
  endfacet
  facet normal  -0.000000e+000 -1.000000e+000  0.000000e+000
    outer loop
      vertex -1.940000e+002 -9.470000e+002 -2.210000e+001
      vertex -2.200000e+001 -9.470000e+002  6.990000e+001
      vertex -1.940000e+002 -9.470000e+002  6.990000e+001
    endloop
  endfacet
  facet normal  0.000000e+000 -1.000000e+000  -0.000000e+000
    outer loop
      vertex -2.200000e+001 -2.075000e+003 -1.000000e-001
      vertex -2.200000e+001 -2.075000e+003  6.990000e+001
      vertex -1.720000e+002 -2.075000e+003 -1.000000e-001
    endloop
  endfacet
  facet normal  0.000000e+000 -1.000000e+000  0.000000e+000
    outer loop
      vertex -1.720000e+002 -2.075000e+003 -1.000000e-001
      vertex -2.200000e+001 -2.075000e+003  6.990000e+001
      vertex -1.720000e+002 -2.075000e+003  6.990000e+001
    endloop
  endfacet
  facet normal  0.000000e+000  0.000000e+000  9.999999e-001
    outer loop
      vertex -1.720000e+002 -2.400000e+003 -1.000000e-001
      vertex -2.200000e+001 -2.400000e+003 -1.000000e-001
      vertex -1.720000e+002 -2.075000e+003 -1.000000e-001
    endloop
  endfacet
  facet normal  -0.000000e+000  0.000000e+000  9.999999e-001
    outer loop
      vertex -1.720000e+002 -2.075000e+003 -1.000000e-001
      vertex -2.200000e+001 -2.400000e+003 -1.000000e-001
      vertex -2.200000e+001 -2.075000e+003 -1.000000e-001
    endloop
  endfacet
  facet normal  0.000000e+000  1.000000e+000  0.000000e+000
    outer loop
      vertex -1.720000e+002 -2.400000e+003 -1.000000e-001
      vertex -1.720000e+002 -2.400000e+003  6.990000e+001
      vertex -2.200000e+001 -2.400000e+003 -1.000000e-001
    endloop
  endfacet
  facet normal  0.000000e+000  1.000000e+000  -0.000000e+000
    outer loop
      vertex -2.200000e+001 -2.400000e+003 -1.000000e-001
      vertex -1.720000e+002 -2.400000e+003  6.990000e+001
      vertex -2.200000e+001 -2.400000e+003  6.990000e+001
    endloop
  endfacet
  facet normal  0.000000e+000  -0.000000e+000  1.000000e+000
    outer loop
      vertex -1.940000e+002 -2.053000e+003  6.990000e+001
      vertex -2.200000e+001 -2.075000e+003  6.990000e+001
      vertex -2.200000e+001 -2.053000e+003  6.990000e+001
    endloop
  endfacet
  facet normal  0.000000e+000  0.000000e+000  1.000000e+000
    outer loop
      vertex -2.200000e+001 -2.075000e+003  6.990000e+001
      vertex -1.940000e+002 -2.053000e+003  6.990000e+001
      vertex -1.720000e+002 -2.075000e+003  6.990000e+001
    endloop
  endfacet
  facet normal  0.000000e+000  0.000000e+000  1.000000e+000
    outer loop
      vertex -1.720000e+002 -2.075000e+003  6.990000e+001
      vertex -1.940000e+002 -2.053000e+003  6.990000e+001
      vertex -1.940000e+002 -2.422000e+003  6.990000e+001
    endloop
  endfacet
  facet normal  0.000000e+000  0.000000e+000  1.000000e+000
    outer loop
      vertex -1.720000e+002 -2.075000e+003  6.990000e+001
      vertex -1.940000e+002 -2.422000e+003  6.990000e+001
      vertex -1.720000e+002 -2.400000e+003  6.990000e+001
    endloop
  endfacet
  facet normal  0.000000e+000  0.000000e+000  1.000000e+000
    outer loop
      vertex -1.720000e+002 -2.400000e+003  6.990000e+001
      vertex -1.940000e+002 -2.422000e+003  6.990000e+001
      vertex -2.200000e+001 -2.422000e+003  6.990000e+001
    endloop
  endfacet
  facet normal  0.000000e+000  -0.000000e+000  1.000000e+000
    outer loop
      vertex -1.720000e+002 -2.400000e+003  6.990000e+001
      vertex -2.200000e+001 -2.422000e+003  6.990000e+001
      vertex -2.200000e+001 -2.400000e+003  6.990000e+001
    endloop
  endfacet
  facet normal  0.000000e+000  1.000000e+000  0.000000e+000
    outer loop
      vertex -2.200000e+001 -1.050000e+003  4.800000e+001
      vertex -2.220000e+002 -1.050000e+003  4.800000e+001
      vertex -2.200000e+001 -1.050000e+003  7.000000e+001
    endloop
  endfacet
  facet normal  0.000000e+000  1.000000e+000  0.000000e+000
    outer loop
      vertex -2.200000e+001 -1.050000e+003  7.000000e+001
      vertex -2.220000e+002 -1.050000e+003  4.800000e+001
      vertex -2.220000e+002 -1.050000e+003  7.000000e+001
    endloop
  endfacet
  facet normal  0.000000e+000  9.999999e-001  0.000000e+000
    outer loop
      vertex  4.280000e+002 -3.022000e+003 -2.210000e+001
      vertex  4.280000e+002 -3.022000e+003 -2.200000e+001
      vertex  7.970000e+002 -3.022000e+003 -2.210000e+001
    endloop
  endfacet
  facet normal  0.000000e+000  9.999999e-001  -0.000000e+000
    outer loop
      vertex  7.970000e+002 -3.022000e+003 -2.210000e+001
      vertex  4.280000e+002 -3.022000e+003 -2.200000e+001
      vertex  7.970000e+002 -3.022000e+003 -2.200000e+001
    endloop
  endfacet
  facet normal  1.000000e+000  0.000000e+000  0.000000e+000
    outer loop
      vertex  1.225000e+003 -3.022000e+003 -1.000000e-001
      vertex  1.225000e+003 -3.022000e+003  6.990000e+001
      vertex  1.225000e+003 -3.172000e+003 -1.000000e-001
    endloop
  endfacet
  facet normal  1.000000e+000  0.000000e+000  0.000000e+000
    outer loop
      vertex  1.225000e+003 -3.172000e+003 -1.000000e-001
      vertex  1.225000e+003 -3.022000e+003  6.990000e+001
      vertex  1.225000e+003 -3.172000e+003  6.990000e+001
    endloop
  endfacet
  facet normal  0.000000e+000  0.000000e+000  9.999999e-001
    outer loop
      vertex  1.225000e+003 -3.172000e+003 -1.000000e-001
      vertex  1.550000e+003 -3.172000e+003 -1.000000e-001
      vertex  1.225000e+003 -3.022000e+003 -1.000000e-001
    endloop
  endfacet
  facet normal  -0.000000e+000  0.000000e+000  9.999999e-001
    outer loop
      vertex  1.225000e+003 -3.022000e+003 -1.000000e-001
      vertex  1.550000e+003 -3.172000e+003 -1.000000e-001
      vertex  1.550000e+003 -3.022000e+003 -1.000000e-001
    endloop
  endfacet
  facet normal -1.000000e+000  0.000000e+000  0.000000e+000
    outer loop
      vertex  1.550000e+003 -3.172000e+003 -1.000000e-001
      vertex  1.550000e+003 -3.172000e+003  6.990000e+001
      vertex  1.550000e+003 -3.022000e+003 -1.000000e-001
    endloop
  endfacet
  facet normal -1.000000e+000  0.000000e+000  0.000000e+000
    outer loop
      vertex  1.550000e+003 -3.022000e+003 -1.000000e-001
      vertex  1.550000e+003 -3.172000e+003  6.990000e+001
      vertex  1.550000e+003 -3.022000e+003  6.990000e+001
    endloop
  endfacet
  facet normal -1.000000e+000  -0.000000e+000  0.000000e+000
    outer loop
      vertex  4.280000e+002 -3.194000e+003  6.990000e+001
      vertex  4.280000e+002 -3.022000e+003  6.990000e+001
      vertex  4.280000e+002 -3.194000e+003 -2.210000e+001
    endloop
  endfacet
  facet normal -1.000000e+000  0.000000e+000  0.000000e+000
    outer loop
      vertex  4.280000e+002 -3.194000e+003 -2.210000e+001
      vertex  4.280000e+002 -3.022000e+003  6.990000e+001
      vertex  4.280000e+002 -3.022000e+003 -2.200000e+001
    endloop
  endfacet
  facet normal -1.000000e+000  0.000000e+000  -0.000000e+000
    outer loop
      vertex  4.280000e+002 -3.194000e+003 -2.210000e+001
      vertex  4.280000e+002 -3.022000e+003 -2.200000e+001
      vertex  4.280000e+002 -3.022000e+003 -2.210000e+001
    endloop
  endfacet
  facet normal  1.000000e+000  0.000000e+000  0.000000e+000
    outer loop
      vertex  4.500000e+002 -3.172000e+003 -1.000000e-001
      vertex  4.500000e+002 -3.022000e+003 -1.000000e-001
      vertex  4.500000e+002 -3.172000e+003  6.990000e+001
    endloop
  endfacet
  facet normal  1.000000e+000  -0.000000e+000  0.000000e+000
    outer loop
      vertex  4.500000e+002 -3.172000e+003  6.990000e+001
      vertex  4.500000e+002 -3.022000e+003 -1.000000e-001
      vertex  4.500000e+002 -3.022000e+003  6.990000e+001
    endloop
  endfacet
  facet normal  0.000000e+000  0.000000e+000  9.999999e-001
    outer loop
      vertex  4.500000e+002 -3.172000e+003 -1.000000e-001
      vertex  7.750000e+002 -3.172000e+003 -1.000000e-001
      vertex  4.500000e+002 -3.022000e+003 -1.000000e-001
    endloop
  endfacet
  facet normal  -0.000000e+000  0.000000e+000  9.999999e-001
    outer loop
      vertex  4.500000e+002 -3.022000e+003 -1.000000e-001
      vertex  7.750000e+002 -3.172000e+003 -1.000000e-001
      vertex  7.750000e+002 -3.022000e+003 -1.000000e-001
    endloop
  endfacet
  facet normal -1.000000e+000  0.000000e+000  0.000000e+000
    outer loop
      vertex  7.750000e+002 -3.022000e+003 -1.000000e-001
      vertex  7.750000e+002 -3.172000e+003 -1.000000e-001
      vertex  7.750000e+002 -3.022000e+003  6.990000e+001
    endloop
  endfacet
  facet normal -1.000000e+000  -0.000000e+000  0.000000e+000
    outer loop
      vertex  7.750000e+002 -3.022000e+003  6.990000e+001
      vertex  7.750000e+002 -3.172000e+003 -1.000000e-001
      vertex  7.750000e+002 -3.172000e+003  6.990000e+001
    endloop
  endfacet
  facet normal  0.000000e+000  0.000000e+000  1.000000e+000
    outer loop
      vertex  4.280000e+002 -3.194000e+003  6.990000e+001
      vertex  4.500000e+002 -3.022000e+003  6.990000e+001
      vertex  4.280000e+002 -3.022000e+003  6.990000e+001
    endloop
  endfacet
  facet normal  0.000000e+000  0.000000e+000  1.000000e+000
    outer loop
      vertex  4.500000e+002 -3.022000e+003  6.990000e+001
      vertex  4.280000e+002 -3.194000e+003  6.990000e+001
      vertex  4.500000e+002 -3.172000e+003  6.990000e+001
    endloop
  endfacet
  facet normal  0.000000e+000  0.000000e+000  1.000000e+000
    outer loop
      vertex  4.500000e+002 -3.172000e+003  6.990000e+001
      vertex  4.280000e+002 -3.194000e+003  6.990000e+001
      vertex  7.970000e+002 -3.194000e+003  6.990000e+001
    endloop
  endfacet
  facet normal  0.000000e+000  0.000000e+000  1.000000e+000
    outer loop
      vertex  4.500000e+002 -3.172000e+003  6.990000e+001
      vertex  7.970000e+002 -3.194000e+003  6.990000e+001
      vertex  7.750000e+002 -3.172000e+003  6.990000e+001
    endloop
  endfacet
  facet normal  -0.000000e+000  0.000000e+000  1.000000e+000
    outer loop
      vertex  7.750000e+002 -3.172000e+003  6.990000e+001
      vertex  7.970000e+002 -3.194000e+003  6.990000e+001
      vertex  7.970000e+002 -3.022000e+003  6.990000e+001
    endloop
  endfacet
  facet normal  0.000000e+000  0.000000e+000  1.000000e+000
    outer loop
      vertex  7.750000e+002 -3.172000e+003  6.990000e+001
      vertex  7.970000e+002 -3.022000e+003  6.990000e+001
      vertex  7.750000e+002 -3.022000e+003  6.990000e+001
    endloop
  endfacet
  facet normal  1.000000e+000  0.000000e+000  0.000000e+000
    outer loop
      vertex  7.970000e+002 -3.194000e+003 -2.210000e+001
      vertex  7.970000e+002 -3.022000e+003 -2.210000e+001
      vertex  7.970000e+002 -3.194000e+003  6.990000e+001
    endloop
  endfacet
  facet normal  1.000000e+000  0.000000e+000  0.000000e+000
    outer loop
      vertex  7.970000e+002 -3.194000e+003  6.990000e+001
      vertex  7.970000e+002 -3.022000e+003 -2.210000e+001
      vertex  7.970000e+002 -3.022000e+003 -2.200000e+001
    endloop
  endfacet
  facet normal  1.000000e+000  0.000000e+000  -0.000000e+000
    outer loop
      vertex  7.970000e+002 -3.194000e+003  6.990000e+001
      vertex  7.970000e+002 -3.022000e+003 -2.200000e+001
      vertex  7.970000e+002 -3.022000e+003  6.990000e+001
    endloop
  endfacet
  facet normal -1.000000e+000  0.000000e+000  0.000000e+000
    outer loop
      vertex  1.203000e+003 -3.022000e+003  6.990000e+001
      vertex  1.203000e+003 -3.022000e+003 -2.200000e+001
      vertex  1.203000e+003 -3.194000e+003  6.990000e+001
    endloop
  endfacet
  facet normal -1.000000e+000  0.000000e+000  0.000000e+000
    outer loop
      vertex  1.203000e+003 -3.194000e+003  6.990000e+001
      vertex  1.203000e+003 -3.022000e+003 -2.200000e+001
      vertex  1.203000e+003 -3.022000e+003 -2.210000e+001
    endloop
  endfacet
  facet normal -1.000000e+000  0.000000e+000  0.000000e+000
    outer loop
      vertex  1.203000e+003 -3.194000e+003  6.990000e+001
      vertex  1.203000e+003 -3.022000e+003 -2.210000e+001
      vertex  1.203000e+003 -3.194000e+003 -2.210000e+001
    endloop
  endfacet
  facet normal  0.000000e+000  0.000000e+000  1.000000e+000
    outer loop
      vertex  1.203000e+003 -3.194000e+003  6.990000e+001
      vertex  1.225000e+003 -3.022000e+003  6.990000e+001
      vertex  1.203000e+003 -3.022000e+003  6.990000e+001
    endloop
  endfacet
  facet normal  0.000000e+000  0.000000e+000  1.000000e+000
    outer loop
      vertex  1.225000e+003 -3.022000e+003  6.990000e+001
      vertex  1.203000e+003 -3.194000e+003  6.990000e+001
      vertex  1.225000e+003 -3.172000e+003  6.990000e+001
    endloop
  endfacet
  facet normal  0.000000e+000  0.000000e+000  1.000000e+000
    outer loop
      vertex  1.225000e+003 -3.172000e+003  6.990000e+001
      vertex  1.203000e+003 -3.194000e+003  6.990000e+001
      vertex  1.572000e+003 -3.194000e+003  6.990000e+001
    endloop
  endfacet
  facet normal  0.000000e+000  0.000000e+000  1.000000e+000
    outer loop
      vertex  1.225000e+003 -3.172000e+003  6.990000e+001
      vertex  1.572000e+003 -3.194000e+003  6.990000e+001
      vertex  1.550000e+003 -3.172000e+003  6.990000e+001
    endloop
  endfacet
  facet normal  -0.000000e+000  0.000000e+000  1.000000e+000
    outer loop
      vertex  1.550000e+003 -3.172000e+003  6.990000e+001
      vertex  1.572000e+003 -3.194000e+003  6.990000e+001
      vertex  1.572000e+003 -3.022000e+003  6.990000e+001
    endloop
  endfacet
  facet normal  0.000000e+000  0.000000e+000  1.000000e+000
    outer loop
      vertex  1.550000e+003 -3.172000e+003  6.990000e+001
      vertex  1.572000e+003 -3.022000e+003  6.990000e+001
      vertex  1.550000e+003 -3.022000e+003  6.990000e+001
    endloop
  endfacet
  facet normal  0.000000e+000  9.999999e-001  0.000000e+000
    outer loop
      vertex  1.203000e+003 -3.022000e+003 -2.210000e+001
      vertex  1.203000e+003 -3.022000e+003 -2.200000e+001
      vertex  1.572000e+003 -3.022000e+003 -2.210000e+001
    endloop
  endfacet
  facet normal  0.000000e+000  9.999999e-001  -0.000000e+000
    outer loop
      vertex  1.572000e+003 -3.022000e+003 -2.210000e+001
      vertex  1.203000e+003 -3.022000e+003 -2.200000e+001
      vertex  1.572000e+003 -3.022000e+003 -2.200000e+001
    endloop
  endfacet
  facet normal  1.000000e+000  0.000000e+000  0.000000e+000
    outer loop
      vertex  1.572000e+003 -3.022000e+003 -2.210000e+001
      vertex  1.572000e+003 -3.022000e+003 -2.200000e+001
      vertex  1.572000e+003 -3.194000e+003 -2.210000e+001
    endloop
  endfacet
  facet normal  1.000000e+000  0.000000e+000  0.000000e+000
    outer loop
      vertex  1.572000e+003 -3.194000e+003 -2.210000e+001
      vertex  1.572000e+003 -3.022000e+003 -2.200000e+001
      vertex  1.572000e+003 -3.022000e+003  6.990000e+001
    endloop
  endfacet
  facet normal  1.000000e+000  0.000000e+000  0.000000e+000
    outer loop
      vertex  1.572000e+003 -3.194000e+003 -2.210000e+001
      vertex  1.572000e+003 -3.022000e+003  6.990000e+001
      vertex  1.572000e+003 -3.194000e+003  6.990000e+001
    endloop
  endfacet
  facet normal  0.000000e+000 -1.000000e+000  0.000000e+000
    outer loop
      vertex -1.940000e+002 -2.422000e+003 -2.210000e+001
      vertex -2.200000e+001 -2.422000e+003 -2.210000e+001
      vertex -1.940000e+002 -2.422000e+003  6.990000e+001
    endloop
  endfacet
  facet normal  0.000000e+000 -1.000000e+000  0.000000e+000
    outer loop
      vertex -1.940000e+002 -2.422000e+003  6.990000e+001
      vertex -2.200000e+001 -2.422000e+003 -2.210000e+001
      vertex -2.200000e+001 -2.422000e+003 -2.200000e+001
    endloop
  endfacet
  facet normal  0.000000e+000 -1.000000e+000  0.000000e+000
    outer loop
      vertex -1.940000e+002 -2.422000e+003  6.990000e+001
      vertex -2.200000e+001 -2.422000e+003 -2.200000e+001
      vertex -2.200000e+001 -2.422000e+003  6.990000e+001
    endloop
  endfacet
  facet normal  9.999999e-001  0.000000e+000  0.000000e+000
    outer loop
      vertex -2.200000e+001 -2.053000e+003 -2.210000e+001
      vertex -2.200000e+001 -2.053000e+003 -2.200000e+001
      vertex -2.200000e+001 -2.422000e+003 -2.210000e+001
    endloop
  endfacet
  facet normal  9.999999e-001  0.000000e+000  0.000000e+000
    outer loop
      vertex -2.200000e+001 -2.422000e+003 -2.210000e+001
      vertex -2.200000e+001 -2.053000e+003 -2.200000e+001
      vertex -2.200000e+001 -2.422000e+003 -2.200000e+001
    endloop
  endfacet
  facet normal  0.000000e+000  1.000000e+000  0.000000e+000
    outer loop
      vertex -1.940000e+002 -2.053000e+003  6.990000e+001
      vertex -2.200000e+001 -2.053000e+003  6.990000e+001
      vertex -1.940000e+002 -2.053000e+003 -2.210000e+001
    endloop
  endfacet
  facet normal  0.000000e+000  1.000000e+000  0.000000e+000
    outer loop
      vertex -1.940000e+002 -2.053000e+003 -2.210000e+001
      vertex -2.200000e+001 -2.053000e+003  6.990000e+001
      vertex -2.200000e+001 -2.053000e+003 -2.200000e+001
    endloop
  endfacet
  facet normal  0.000000e+000  1.000000e+000  0.000000e+000
    outer loop
      vertex -1.940000e+002 -2.053000e+003 -2.210000e+001
      vertex -2.200000e+001 -2.053000e+003 -2.200000e+001
      vertex -2.200000e+001 -2.053000e+003 -2.210000e+001
    endloop
  endfacet
  facet normal  9.999999e-001  0.000000e+000  0.000000e+000
    outer loop
      vertex -1.720000e+002 -2.400000e+003 -1.000000e-001
      vertex -1.720000e+002 -2.075000e+003 -1.000000e-001
      vertex -1.720000e+002 -2.400000e+003  6.990000e+001
    endloop
  endfacet
  facet normal  9.999999e-001  -0.000000e+000  0.000000e+000
    outer loop
      vertex -1.720000e+002 -2.400000e+003  6.990000e+001
      vertex -1.720000e+002 -2.075000e+003 -1.000000e-001
      vertex -1.720000e+002 -2.075000e+003  6.990000e+001
    endloop
  endfacet
  facet normal  0.000000e+000 -1.000000e+000  -0.000000e+000
    outer loop
      vertex -1.000000e+002 -1.270000e+003  4.800000e+001
      vertex -1.000000e+002 -1.270000e+003  7.000000e+001
      vertex -2.220000e+002 -1.270000e+003  4.800000e+001
    endloop
  endfacet
  facet normal  0.000000e+000 -1.000000e+000  0.000000e+000
    outer loop
      vertex -2.220000e+002 -1.270000e+003  4.800000e+001
      vertex -1.000000e+002 -1.270000e+003  7.000000e+001
      vertex -2.220000e+002 -1.270000e+003  7.000000e+001
    endloop
  endfacet
  facet normal -9.659255e-001  2.588201e-001  0.000000e+000
    outer loop
      vertex -9.500000e+001 -1.275000e+003  7.000000e+001
      vertex -9.566988e+001 -1.277500e+003  4.800000e+001
      vertex -9.566988e+001 -1.277500e+003  7.000000e+001
    endloop
  endfacet
  facet normal -7.070979e-001  7.071156e-001  0.000000e+000
    outer loop
      vertex -9.566988e+001 -1.277500e+003  7.000000e+001
      vertex -9.566988e+001 -1.277500e+003  4.800000e+001
      vertex -9.750000e+001 -1.279330e+003  4.800000e+001
    endloop
  endfacet
  facet normal -7.070979e-001  7.071156e-001  0.000000e+000
    outer loop
      vertex -9.566988e+001 -1.277500e+003  7.000000e+001
      vertex -9.750000e+001 -1.279330e+003  4.800000e+001
      vertex -9.750000e+001 -1.279330e+003  7.000000e+001
    endloop
  endfacet
  facet normal -2.588367e-001  9.659210e-001  0.000000e+000
    outer loop
      vertex -9.750000e+001 -1.279330e+003  7.000000e+001
      vertex -9.750000e+001 -1.279330e+003  4.800000e+001
      vertex -1.000000e+002 -1.280000e+003  4.800000e+001
    endloop
  endfacet
  facet normal -2.588367e-001  9.659210e-001  0.000000e+000
    outer loop
      vertex -9.750000e+001 -1.279330e+003  7.000000e+001
      vertex -1.000000e+002 -1.280000e+003  4.800000e+001
      vertex -1.000000e+002 -1.280000e+003  7.000000e+001
    endloop
  endfacet
  facet normal -9.659255e-001  2.588201e-001  0.000000e+000
    outer loop
      vertex -9.566988e+001 -1.277500e+003  4.800000e+001
      vertex -9.500000e+001 -1.275000e+003  7.000000e+001
      vertex -9.500000e+001 -1.275000e+003  4.800000e+001
    endloop
  endfacet
  facet normal -9.659255e-001 -2.588201e-001  0.000000e+000
    outer loop
      vertex -9.500000e+001 -1.275000e+003  4.800000e+001
      vertex -9.500000e+001 -1.275000e+003  7.000000e+001
      vertex -9.566988e+001 -1.272500e+003  7.000000e+001
    endloop
  endfacet
  facet normal -9.659255e-001 -2.588201e-001  -0.000000e+000
    outer loop
      vertex -9.500000e+001 -1.275000e+003  4.800000e+001
      vertex -9.566988e+001 -1.272500e+003  7.000000e+001
      vertex -9.566988e+001 -1.272500e+003  4.800000e+001
    endloop
  endfacet
  facet normal -7.070979e-001 -7.071156e-001  0.000000e+000
    outer loop
      vertex -9.566988e+001 -1.272500e+003  4.800000e+001
      vertex -9.566988e+001 -1.272500e+003  7.000000e+001
      vertex -9.750000e+001 -1.270670e+003  7.000000e+001
    endloop
  endfacet
  facet normal -7.070979e-001 -7.071156e-001  -0.000000e+000
    outer loop
      vertex -9.566988e+001 -1.272500e+003  4.800000e+001
      vertex -9.750000e+001 -1.270670e+003  7.000000e+001
      vertex -9.750000e+001 -1.270670e+003  4.800000e+001
    endloop
  endfacet
  facet normal -2.588367e-001 -9.659210e-001  0.000000e+000
    outer loop
      vertex -9.750000e+001 -1.270670e+003  4.800000e+001
      vertex -9.750000e+001 -1.270670e+003  7.000000e+001
      vertex -1.000000e+002 -1.270000e+003  7.000000e+001
    endloop
  endfacet
  facet normal -2.588367e-001 -9.659210e-001  -0.000000e+000
    outer loop
      vertex -9.750000e+001 -1.270670e+003  4.800000e+001
      vertex -1.000000e+002 -1.270000e+003  7.000000e+001
      vertex -1.000000e+002 -1.270000e+003  4.800000e+001
    endloop
  endfacet
  facet normal -1.000000e+000  0.000000e+000  0.000000e+000
    outer loop
      vertex -2.220000e+002 -1.270000e+003  4.800000e+001
      vertex -2.220000e+002 -1.270000e+003  7.000000e+001
      vertex -2.220000e+002 -1.050000e+003  4.800000e+001
    endloop
  endfacet
  facet normal -1.000000e+000  0.000000e+000  0.000000e+000
    outer loop
      vertex -2.220000e+002 -1.050000e+003  4.800000e+001
      vertex -2.220000e+002 -1.270000e+003  7.000000e+001
      vertex -2.220000e+002 -1.050000e+003  7.000000e+001
    endloop
  endfacet
  facet normal  0.000000e+000  9.999999e-001  0.000000e+000
    outer loop
      vertex  4.500000e+002 -3.172000e+003 -1.000000e-001
      vertex  4.500000e+002 -3.172000e+003  6.990000e+001
      vertex  7.750000e+002 -3.172000e+003 -1.000000e-001
    endloop
  endfacet
  facet normal  0.000000e+000  9.999999e-001  -0.000000e+000
    outer loop
      vertex  7.750000e+002 -3.172000e+003 -1.000000e-001
      vertex  4.500000e+002 -3.172000e+003  6.990000e+001
      vertex  7.750000e+002 -3.172000e+003  6.990000e+001
    endloop
  endfacet
  facet normal  -0.000000e+000  0.000000e+000 -1.000000e+000
    outer loop
      vertex  4.280000e+002 -3.022000e+003 -2.210000e+001
      vertex  7.970000e+002 -3.022000e+003 -2.210000e+001
      vertex  4.280000e+002 -3.194000e+003 -2.210000e+001
    endloop
  endfacet
  facet normal  0.000000e+000  0.000000e+000 -1.000000e+000
    outer loop
      vertex  4.280000e+002 -3.194000e+003 -2.210000e+001
      vertex  7.970000e+002 -3.022000e+003 -2.210000e+001
      vertex  7.970000e+002 -3.194000e+003 -2.210000e+001
    endloop
  endfacet
  facet normal  0.000000e+000 -1.000000e+000  -0.000000e+000
    outer loop
      vertex  7.970000e+002 -3.194000e+003 -2.210000e+001
      vertex  7.970000e+002 -3.194000e+003  6.990000e+001
      vertex  4.280000e+002 -3.194000e+003 -2.210000e+001
    endloop
  endfacet
  facet normal  0.000000e+000 -1.000000e+000  0.000000e+000
    outer loop
      vertex  4.280000e+002 -3.194000e+003 -2.210000e+001
      vertex  7.970000e+002 -3.194000e+003  6.990000e+001
      vertex  4.280000e+002 -3.194000e+003  6.990000e+001
    endloop
  endfacet
  facet normal  0.000000e+000  9.999999e-001  0.000000e+000
    outer loop
      vertex  1.225000e+003 -3.172000e+003 -1.000000e-001
      vertex  1.225000e+003 -3.172000e+003  6.990000e+001
      vertex  1.550000e+003 -3.172000e+003 -1.000000e-001
    endloop
  endfacet
  facet normal  0.000000e+000  9.999999e-001  -0.000000e+000
    outer loop
      vertex  1.550000e+003 -3.172000e+003 -1.000000e-001
      vertex  1.225000e+003 -3.172000e+003  6.990000e+001
      vertex  1.550000e+003 -3.172000e+003  6.990000e+001
    endloop
  endfacet
  facet normal  -0.000000e+000  0.000000e+000 -1.000000e+000
    outer loop
      vertex  1.203000e+003 -3.022000e+003 -2.210000e+001
      vertex  1.572000e+003 -3.022000e+003 -2.210000e+001
      vertex  1.203000e+003 -3.194000e+003 -2.210000e+001
    endloop
  endfacet
  facet normal  0.000000e+000  0.000000e+000 -1.000000e+000
    outer loop
      vertex  1.203000e+003 -3.194000e+003 -2.210000e+001
      vertex  1.572000e+003 -3.022000e+003 -2.210000e+001
      vertex  1.572000e+003 -3.194000e+003 -2.210000e+001
    endloop
  endfacet
  facet normal  0.000000e+000 -1.000000e+000  -0.000000e+000
    outer loop
      vertex  1.572000e+003 -3.194000e+003 -2.210000e+001
      vertex  1.572000e+003 -3.194000e+003  6.990000e+001
      vertex  1.203000e+003 -3.194000e+003 -2.210000e+001
    endloop
  endfacet
  facet normal  0.000000e+000 -1.000000e+000  0.000000e+000
    outer loop
      vertex  1.203000e+003 -3.194000e+003 -2.210000e+001
      vertex  1.572000e+003 -3.194000e+003  6.990000e+001
      vertex  1.203000e+003 -3.194000e+003  6.990000e+001
    endloop
  endfacet
  facet normal -1.000000e+000  0.000000e+000  0.000000e+000
    outer loop
      vertex -1.940000e+002 -2.053000e+003 -2.210000e+001
      vertex -1.940000e+002 -2.422000e+003 -2.210000e+001
      vertex -1.940000e+002 -2.053000e+003  6.990000e+001
    endloop
  endfacet
  facet normal -1.000000e+000  -0.000000e+000  0.000000e+000
    outer loop
      vertex -1.940000e+002 -2.053000e+003  6.990000e+001
      vertex -1.940000e+002 -2.422000e+003 -2.210000e+001
      vertex -1.940000e+002 -2.422000e+003  6.990000e+001
    endloop
  endfacet
  facet normal  -0.000000e+000  0.000000e+000 -1.000000e+000
    outer loop
      vertex -1.940000e+002 -2.053000e+003 -2.210000e+001
      vertex -2.200000e+001 -2.053000e+003 -2.210000e+001
      vertex -1.940000e+002 -2.422000e+003 -2.210000e+001
    endloop
  endfacet
  facet normal  0.000000e+000  0.000000e+000 -1.000000e+000
    outer loop
      vertex -1.940000e+002 -2.422000e+003 -2.210000e+001
      vertex -2.200000e+001 -2.053000e+003 -2.210000e+001
      vertex -2.200000e+001 -2.422000e+003 -2.210000e+001
    endloop
  endfacet
  facet normal  9.999999e-001  0.000000e+000  0.000000e+000
    outer loop
      vertex -1.720000e+002 -9.250000e+002 -1.000000e-001
      vertex -1.720000e+002 -6.000000e+002 -1.000000e-001
      vertex -1.720000e+002 -9.250000e+002  6.990000e+001
    endloop
  endfacet
  facet normal  9.999999e-001  -0.000000e+000  0.000000e+000
    outer loop
      vertex -1.720000e+002 -9.250000e+002  6.990000e+001
      vertex -1.720000e+002 -6.000000e+002 -1.000000e-001
      vertex -1.720000e+002 -6.000000e+002  6.990000e+001
    endloop
  endfacet
  facet normal  -0.000000e+000  0.000000e+000 -1.000000e+000
    outer loop
      vertex -1.940000e+002 -5.780000e+002 -2.210000e+001
      vertex -2.200000e+001 -5.780000e+002 -2.210000e+001
      vertex -1.940000e+002 -9.470000e+002 -2.210000e+001
    endloop
  endfacet
  facet normal  0.000000e+000  0.000000e+000 -1.000000e+000
    outer loop
      vertex -1.940000e+002 -9.470000e+002 -2.210000e+001
      vertex -2.200000e+001 -5.780000e+002 -2.210000e+001
      vertex -2.200000e+001 -9.470000e+002 -2.210000e+001
    endloop
  endfacet
  facet normal -1.000000e+000  0.000000e+000  0.000000e+000
    outer loop
      vertex -1.940000e+002 -5.780000e+002 -2.210000e+001
      vertex -1.940000e+002 -9.470000e+002 -2.210000e+001
      vertex -1.940000e+002 -5.780000e+002  6.990000e+001
    endloop
  endfacet
  facet normal -1.000000e+000  -0.000000e+000  0.000000e+000
    outer loop
      vertex -1.940000e+002 -5.780000e+002  6.990000e+001
      vertex -1.940000e+002 -9.470000e+002 -2.210000e+001
      vertex -1.940000e+002 -9.470000e+002  6.990000e+001
    endloop
  endfacet
  facet normal  0.000000e+000 -9.999999e-001  0.000000e+000
    outer loop
      vertex  1.225000e+003  1.720000e+002 -1.000000e-001
      vertex  1.550000e+003  1.720000e+002 -1.000000e-001
      vertex  1.225000e+003  1.720000e+002  6.990000e+001
    endloop
  endfacet
  facet normal  0.000000e+000 -9.999999e-001  0.000000e+000
    outer loop
      vertex  1.225000e+003  1.720000e+002  6.990000e+001
      vertex  1.550000e+003  1.720000e+002 -1.000000e-001
      vertex  1.550000e+003  1.720000e+002  6.990000e+001
    endloop
  endfacet
  facet normal  -0.000000e+000  0.000000e+000 -1.000000e+000
    outer loop
      vertex  1.203000e+003  1.940000e+002 -2.210000e+001
      vertex  1.572000e+003  1.940000e+002 -2.210000e+001
      vertex  1.203000e+003  2.200000e+001 -2.210000e+001
    endloop
  endfacet
  facet normal  0.000000e+000  0.000000e+000 -1.000000e+000
    outer loop
      vertex  1.203000e+003  2.200000e+001 -2.210000e+001
      vertex  1.572000e+003  1.940000e+002 -2.210000e+001
      vertex  1.572000e+003  2.200000e+001 -2.210000e+001
    endloop
  endfacet
  facet normal  0.000000e+000  1.000000e+000  0.000000e+000
    outer loop
      vertex  1.572000e+003  1.940000e+002 -2.210000e+001
      vertex  1.203000e+003  1.940000e+002 -2.210000e+001
      vertex  1.572000e+003  1.940000e+002  6.990000e+001
    endloop
  endfacet
  facet normal  0.000000e+000  1.000000e+000  0.000000e+000
    outer loop
      vertex  1.572000e+003  1.940000e+002  6.990000e+001
      vertex  1.203000e+003  1.940000e+002 -2.210000e+001
      vertex  1.203000e+003  1.940000e+002  6.990000e+001
    endloop
  endfacet
  facet normal  0.000000e+000 -9.999999e-001  0.000000e+000
    outer loop
      vertex  4.500000e+002  1.720000e+002 -1.000000e-001
      vertex  7.750000e+002  1.720000e+002 -1.000000e-001
      vertex  4.500000e+002  1.720000e+002  6.990000e+001
    endloop
  endfacet
  facet normal  0.000000e+000 -9.999999e-001  0.000000e+000
    outer loop
      vertex  4.500000e+002  1.720000e+002  6.990000e+001
      vertex  7.750000e+002  1.720000e+002 -1.000000e-001
      vertex  7.750000e+002  1.720000e+002  6.990000e+001
    endloop
  endfacet
  facet normal  -0.000000e+000  0.000000e+000 -1.000000e+000
    outer loop
      vertex  4.280000e+002  1.940000e+002 -2.210000e+001
      vertex  7.970000e+002  1.940000e+002 -2.210000e+001
      vertex  4.280000e+002  2.200000e+001 -2.210000e+001
    endloop
  endfacet
  facet normal  0.000000e+000  0.000000e+000 -1.000000e+000
    outer loop
      vertex  4.280000e+002  2.200000e+001 -2.210000e+001
      vertex  7.970000e+002  1.940000e+002 -2.210000e+001
      vertex  7.970000e+002  2.200000e+001 -2.210000e+001
    endloop
  endfacet
  facet normal  0.000000e+000  1.000000e+000  0.000000e+000
    outer loop
      vertex  7.970000e+002  1.940000e+002 -2.210000e+001
      vertex  4.280000e+002  1.940000e+002 -2.210000e+001
      vertex  7.970000e+002  1.940000e+002  6.990000e+001
    endloop
  endfacet
  facet normal  0.000000e+000  1.000000e+000  0.000000e+000
    outer loop
      vertex  7.970000e+002  1.940000e+002  6.990000e+001
      vertex  4.280000e+002  1.940000e+002 -2.210000e+001
      vertex  4.280000e+002  1.940000e+002  6.990000e+001
    endloop
  endfacet
  facet normal  0.000000e+000  1.000000e+000  0.000000e+000
    outer loop
      vertex -1.000000e+002 -1.730000e+003  4.800000e+001
      vertex -2.220000e+002 -1.730000e+003  4.800000e+001
      vertex -1.000000e+002 -1.730000e+003  7.000000e+001
    endloop
  endfacet
  facet normal  0.000000e+000  1.000000e+000  0.000000e+000
    outer loop
      vertex -1.000000e+002 -1.730000e+003  7.000000e+001
      vertex -2.220000e+002 -1.730000e+003  4.800000e+001
      vertex -2.220000e+002 -1.730000e+003  7.000000e+001
    endloop
  endfacet
  facet normal -1.000000e+000  0.000000e+000  0.000000e+000
    outer loop
      vertex -2.220000e+002 -1.950000e+003  4.800000e+001
      vertex -2.220000e+002 -1.950000e+003  7.000000e+001
      vertex -2.220000e+002 -1.730000e+003  4.800000e+001
    endloop
  endfacet
  facet normal -1.000000e+000  0.000000e+000  0.000000e+000
    outer loop
      vertex -2.220000e+002 -1.730000e+003  4.800000e+001
      vertex -2.220000e+002 -1.950000e+003  7.000000e+001
      vertex -2.220000e+002 -1.730000e+003  7.000000e+001
    endloop
  endfacet
  facet normal -9.659255e-001 -2.588201e-001  -0.000000e+000
    outer loop
      vertex -9.500000e+001 -1.725000e+003  4.800000e+001
      vertex -9.566988e+001 -1.722500e+003  7.000000e+001
      vertex -9.566988e+001 -1.722500e+003  4.800000e+001
    endloop
  endfacet
  facet normal -7.070979e-001 -7.071156e-001  0.000000e+000
    outer loop
      vertex -9.566988e+001 -1.722500e+003  4.800000e+001
      vertex -9.566988e+001 -1.722500e+003  7.000000e+001
      vertex -9.750000e+001 -1.720670e+003  7.000000e+001
    endloop
  endfacet
  facet normal -7.070979e-001 -7.071156e-001  -0.000000e+000
    outer loop
      vertex -9.566988e+001 -1.722500e+003  4.800000e+001
      vertex -9.750000e+001 -1.720670e+003  7.000000e+001
      vertex -9.750000e+001 -1.720670e+003  4.800000e+001
    endloop
  endfacet
  facet normal -2.588367e-001 -9.659210e-001  0.000000e+000
    outer loop
      vertex -9.750000e+001 -1.720670e+003  4.800000e+001
      vertex -9.750000e+001 -1.720670e+003  7.000000e+001
      vertex -1.000000e+002 -1.720000e+003  7.000000e+001
    endloop
  endfacet
  facet normal -2.588367e-001 -9.659210e-001  -0.000000e+000
    outer loop
      vertex -9.750000e+001 -1.720670e+003  4.800000e+001
      vertex -1.000000e+002 -1.720000e+003  7.000000e+001
      vertex -1.000000e+002 -1.720000e+003  4.800000e+001
    endloop
  endfacet
  facet normal -9.659255e-001 -2.588201e-001  0.000000e+000
    outer loop
      vertex -9.566988e+001 -1.722500e+003  7.000000e+001
      vertex -9.500000e+001 -1.725000e+003  4.800000e+001
      vertex -9.500000e+001 -1.725000e+003  7.000000e+001
    endloop
  endfacet
  facet normal -9.659255e-001  2.588201e-001  0.000000e+000
    outer loop
      vertex -9.500000e+001 -1.725000e+003  7.000000e+001
      vertex -9.500000e+001 -1.725000e+003  4.800000e+001
      vertex -9.566988e+001 -1.727500e+003  4.800000e+001
    endloop
  endfacet
  facet normal -9.659255e-001  2.588201e-001  0.000000e+000
    outer loop
      vertex -9.500000e+001 -1.725000e+003  7.000000e+001
      vertex -9.566988e+001 -1.727500e+003  4.800000e+001
      vertex -9.566988e+001 -1.727500e+003  7.000000e+001
    endloop
  endfacet
  facet normal -7.070979e-001  7.071156e-001  0.000000e+000
    outer loop
      vertex -9.566988e+001 -1.727500e+003  7.000000e+001
      vertex -9.566988e+001 -1.727500e+003  4.800000e+001
      vertex -9.750000e+001 -1.729330e+003  4.800000e+001
    endloop
  endfacet
  facet normal -7.070979e-001  7.071156e-001  0.000000e+000
    outer loop
      vertex -9.566988e+001 -1.727500e+003  7.000000e+001
      vertex -9.750000e+001 -1.729330e+003  4.800000e+001
      vertex -9.750000e+001 -1.729330e+003  7.000000e+001
    endloop
  endfacet
  facet normal -2.588367e-001  9.659210e-001  0.000000e+000
    outer loop
      vertex -9.750000e+001 -1.729330e+003  7.000000e+001
      vertex -9.750000e+001 -1.729330e+003  4.800000e+001
      vertex -1.000000e+002 -1.730000e+003  4.800000e+001
    endloop
  endfacet
  facet normal -2.588367e-001  9.659210e-001  0.000000e+000
    outer loop
      vertex -9.750000e+001 -1.729330e+003  7.000000e+001
      vertex -1.000000e+002 -1.730000e+003  4.800000e+001
      vertex -1.000000e+002 -1.730000e+003  7.000000e+001
    endloop
  endfacet
endsolid CATIA STL
