solid CATIA STL
  facet normal  0.000000e+000  0.000000e+000  1.000000e+000
    outer loop
      vertex -5.000000e+001 -3.500000e+001  5.000000e+000
      vertex  5.000000e+001 -3.500000e+001  5.000000e+000
      vertex -5.000000e+001  6.500000e+001  5.000000e+000
    endloop
  endfacet
  facet normal  -0.000000e+000  0.000000e+000  1.000000e+000
    outer loop
      vertex -5.000000e+001  6.500000e+001  5.000000e+000
      vertex  5.000000e+001 -3.500000e+001  5.000000e+000
      vertex  5.000000e+001  6.500000e+001  5.000000e+000
    endloop
  endfacet
  facet normal  2.588190e-001  9.659259e-001  -0.000000e+000
    outer loop
      vertex -5.970153e-016 -3.250000e+000 -1.500000e+001
      vertex -1.625000e+000 -2.814583e+000 -2.900000e+001
      vertex -1.625000e+000 -2.814583e+000 -1.500000e+001
    endloop
  endfacet
  facet normal  7.071068e-001  7.071068e-001  0.000000e+000
    outer loop
      vertex -1.625000e+000 -2.814583e+000 -1.500000e+001
      vertex -1.625000e+000 -2.814583e+000 -2.900000e+001
      vertex -2.814583e+000 -1.625000e+000 -2.900000e+001
    endloop
  endfacet
  facet normal  7.071068e-001  7.071068e-001  -0.000000e+000
    outer loop
      vertex -1.625000e+000 -2.814583e+000 -1.500000e+001
      vertex -2.814583e+000 -1.625000e+000 -2.900000e+001
      vertex -2.814583e+000 -1.625000e+000 -1.500000e+001
    endloop
  endfacet
  facet normal  9.659259e-001  2.588190e-001  0.000000e+000
    outer loop
      vertex -2.814583e+000 -1.625000e+000 -1.500000e+001
      vertex -2.814583e+000 -1.625000e+000 -2.900000e+001
      vertex -3.250000e+000  0.000000e+000 -2.900000e+001
    endloop
  endfacet
  facet normal  9.659259e-001  2.588190e-001 -1.932416e-017
    outer loop
      vertex -2.814583e+000 -1.625000e+000 -1.500000e+001
      vertex -3.250000e+000  0.000000e+000 -2.900000e+001
      vertex -3.250000e+000  1.045280e-015 -1.500000e+001
    endloop
  endfacet
  facet normal  2.588190e-001  9.659259e-001  1.103707e-017
    outer loop
      vertex -1.625000e+000 -2.814583e+000 -2.900000e+001
      vertex -5.970153e-016 -3.250000e+000 -1.500000e+001
      vertex  0.000000e+000 -3.250000e+000 -2.900000e+001
    endloop
  endfacet
  facet normal -2.588190e-001  9.659259e-001 -1.103707e-017
    outer loop
      vertex  0.000000e+000 -3.250000e+000 -2.900000e+001
      vertex -5.970153e-016 -3.250000e+000 -1.500000e+001
      vertex  1.625000e+000 -2.814583e+000 -1.500000e+001
    endloop
  endfacet
  facet normal -2.588190e-001  9.659259e-001  0.000000e+000
    outer loop
      vertex  0.000000e+000 -3.250000e+000 -2.900000e+001
      vertex  1.625000e+000 -2.814583e+000 -1.500000e+001
      vertex  1.625000e+000 -2.814583e+000 -2.900000e+001
    endloop
  endfacet
  facet normal -7.071068e-001  7.071068e-001  0.000000e+000
    outer loop
      vertex  1.625000e+000 -2.814583e+000 -2.900000e+001
      vertex  1.625000e+000 -2.814583e+000 -1.500000e+001
      vertex  2.814583e+000 -1.625000e+000 -1.500000e+001
    endloop
  endfacet
  facet normal -7.071068e-001  7.071068e-001  0.000000e+000
    outer loop
      vertex  1.625000e+000 -2.814583e+000 -2.900000e+001
      vertex  2.814583e+000 -1.625000e+000 -1.500000e+001
      vertex  2.814583e+000 -1.625000e+000 -2.900000e+001
    endloop
  endfacet
  facet normal -9.659259e-001  2.588190e-001  0.000000e+000
    outer loop
      vertex  2.814583e+000 -1.625000e+000 -2.900000e+001
      vertex  2.814583e+000 -1.625000e+000 -1.500000e+001
      vertex  3.250000e+000  0.000000e+000 -1.500000e+001
    endloop
  endfacet
  facet normal -9.659259e-001  2.588190e-001  0.000000e+000
    outer loop
      vertex  2.814583e+000 -1.625000e+000 -2.900000e+001
      vertex  3.250000e+000  0.000000e+000 -1.500000e+001
      vertex  3.250000e+000  0.000000e+000 -2.900000e+001
    endloop
  endfacet
  facet normal -2.588190e-001 -9.659259e-001  0.000000e+000
    outer loop
      vertex  1.990051e-016  3.250000e+000 -1.500000e+001
      vertex  1.625000e+000  2.814583e+000 -2.900000e+001
      vertex  1.625000e+000  2.814583e+000 -1.500000e+001
    endloop
  endfacet
  facet normal -7.071068e-001 -7.071068e-001  -0.000000e+000
    outer loop
      vertex  1.625000e+000  2.814583e+000 -1.500000e+001
      vertex  1.625000e+000  2.814583e+000 -2.900000e+001
      vertex  2.814583e+000  1.625000e+000 -2.900000e+001
    endloop
  endfacet
  facet normal -7.071068e-001 -7.071068e-001  0.000000e+000
    outer loop
      vertex  1.625000e+000  2.814583e+000 -1.500000e+001
      vertex  2.814583e+000  1.625000e+000 -2.900000e+001
      vertex  2.814583e+000  1.625000e+000 -1.500000e+001
    endloop
  endfacet
  facet normal -9.659259e-001 -2.588190e-001  -0.000000e+000
    outer loop
      vertex  2.814583e+000  1.625000e+000 -1.500000e+001
      vertex  2.814583e+000  1.625000e+000 -2.900000e+001
      vertex  3.250000e+000  0.000000e+000 -2.900000e+001
    endloop
  endfacet
  facet normal -9.659259e-001 -2.588190e-001  0.000000e+000
    outer loop
      vertex  2.814583e+000  1.625000e+000 -1.500000e+001
      vertex  3.250000e+000  0.000000e+000 -2.900000e+001
      vertex  3.250000e+000  0.000000e+000 -1.500000e+001
    endloop
  endfacet
  facet normal -2.588190e-001 -9.659259e-001  3.679022e-018
    outer loop
      vertex  1.625000e+000  2.814583e+000 -2.900000e+001
      vertex  1.990051e-016  3.250000e+000 -1.500000e+001
      vertex  0.000000e+000  3.250000e+000 -2.900000e+001
    endloop
  endfacet
  facet normal  2.588190e-001 -9.659259e-001 -3.679022e-018
    outer loop
      vertex  0.000000e+000  3.250000e+000 -2.900000e+001
      vertex  1.990051e-016  3.250000e+000 -1.500000e+001
      vertex -1.625000e+000  2.814583e+000 -1.500000e+001
    endloop
  endfacet
  facet normal  2.588190e-001 -9.659259e-001  0.000000e+000
    outer loop
      vertex  0.000000e+000  3.250000e+000 -2.900000e+001
      vertex -1.625000e+000  2.814583e+000 -1.500000e+001
      vertex -1.625000e+000  2.814583e+000 -2.900000e+001
    endloop
  endfacet
  facet normal  7.071068e-001 -7.071068e-001  0.000000e+000
    outer loop
      vertex -1.625000e+000  2.814583e+000 -2.900000e+001
      vertex -1.625000e+000  2.814583e+000 -1.500000e+001
      vertex -2.814583e+000  1.625000e+000 -1.500000e+001
    endloop
  endfacet
  facet normal  7.071068e-001 -7.071068e-001  0.000000e+000
    outer loop
      vertex -1.625000e+000  2.814583e+000 -2.900000e+001
      vertex -2.814583e+000  1.625000e+000 -1.500000e+001
      vertex -2.814583e+000  1.625000e+000 -2.900000e+001
    endloop
  endfacet
  facet normal  9.659259e-001 -2.588190e-001  0.000000e+000
    outer loop
      vertex -2.814583e+000  1.625000e+000 -2.900000e+001
      vertex -2.814583e+000  1.625000e+000 -1.500000e+001
      vertex -3.250000e+000  1.045280e-015 -1.500000e+001
    endloop
  endfacet
  facet normal  9.659259e-001 -2.588190e-001  1.932416e-017
    outer loop
      vertex -2.814583e+000  1.625000e+000 -2.900000e+001
      vertex -3.250000e+000  1.045280e-015 -1.500000e+001
      vertex -3.250000e+000  0.000000e+000 -2.900000e+001
    endloop
  endfacet
  facet normal  0.000000e+000  0.000000e+000 -1.000000e+000
    outer loop
      vertex  1.990051e-016  3.250000e+000 -1.500000e+001
      vertex  1.625000e+000  2.814583e+000 -1.500000e+001
      vertex -1.625000e+000  2.814583e+000 -1.500000e+001
    endloop
  endfacet
  facet normal  0.000000e+000  0.000000e+000 -1.000000e+000
    outer loop
      vertex -5.970153e-016 -3.250000e+000 -1.500000e+001
      vertex -1.625000e+000 -2.814583e+000 -1.500000e+001
      vertex  1.625000e+000 -2.814583e+000 -1.500000e+001
    endloop
  endfacet
  facet normal  0.000000e+000  0.000000e+000 -1.000000e+000
    outer loop
      vertex  1.625000e+000 -2.814583e+000 -1.500000e+001
      vertex -1.625000e+000 -2.814583e+000 -1.500000e+001
      vertex -2.814583e+000 -1.625000e+000 -1.500000e+001
    endloop
  endfacet
  facet normal  0.000000e+000  0.000000e+000 -1.000000e+000
    outer loop
      vertex  1.625000e+000 -2.814583e+000 -1.500000e+001
      vertex -2.814583e+000 -1.625000e+000 -1.500000e+001
      vertex  2.814583e+000 -1.625000e+000 -1.500000e+001
    endloop
  endfacet
  facet normal  0.000000e+000  0.000000e+000 -1.000000e+000
    outer loop
      vertex  2.814583e+000 -1.625000e+000 -1.500000e+001
      vertex -2.814583e+000 -1.625000e+000 -1.500000e+001
      vertex -3.250000e+000  1.045280e-015 -1.500000e+001
    endloop
  endfacet
  facet normal  0.000000e+000  0.000000e+000 -1.000000e+000
    outer loop
      vertex  2.814583e+000 -1.625000e+000 -1.500000e+001
      vertex -3.250000e+000  1.045280e-015 -1.500000e+001
      vertex  3.250000e+000  0.000000e+000 -1.500000e+001
    endloop
  endfacet
  facet normal  0.000000e+000  0.000000e+000 -1.000000e+000
    outer loop
      vertex  3.250000e+000  0.000000e+000 -1.500000e+001
      vertex -3.250000e+000  1.045280e-015 -1.500000e+001
      vertex -2.814583e+000  1.625000e+000 -1.500000e+001
    endloop
  endfacet
  facet normal  0.000000e+000  0.000000e+000 -1.000000e+000
    outer loop
      vertex  3.250000e+000  0.000000e+000 -1.500000e+001
      vertex -2.814583e+000  1.625000e+000 -1.500000e+001
      vertex  2.814583e+000  1.625000e+000 -1.500000e+001
    endloop
  endfacet
  facet normal  0.000000e+000  0.000000e+000 -1.000000e+000
    outer loop
      vertex  2.814583e+000  1.625000e+000 -1.500000e+001
      vertex -2.814583e+000  1.625000e+000 -1.500000e+001
      vertex -1.625000e+000  2.814583e+000 -1.500000e+001
    endloop
  endfacet
  facet normal  0.000000e+000  0.000000e+000 -1.000000e+000
    outer loop
      vertex  2.814583e+000  1.625000e+000 -1.500000e+001
      vertex -1.625000e+000  2.814583e+000 -1.500000e+001
      vertex  1.625000e+000  2.814583e+000 -1.500000e+001
    endloop
  endfacet
  facet normal  0.000000e+000  0.000000e+000 -1.000000e+000
    outer loop
      vertex -5.000000e+001 -3.500000e+001  0.000000e+000
      vertex -5.000000e+001  6.500000e+001  0.000000e+000
      vertex -1.500000e+001  6.000000e+001  0.000000e+000
    endloop
  endfacet
  facet normal  0.000000e+000  -0.000000e+000 -1.000000e+000
    outer loop
      vertex -5.000000e+001 -3.500000e+001  0.000000e+000
      vertex -1.500000e+001  6.000000e+001  0.000000e+000
      vertex -1.500000e+001 -1.217213e-014  0.000000e+000
    endloop
  endfacet
  facet normal  0.000000e+000  -0.000000e+000 -1.000000e+000
    outer loop
      vertex -5.000000e+001 -3.500000e+001  0.000000e+000
      vertex -1.500000e+001 -1.217213e-014  0.000000e+000
      vertex -1.448889e+001 -3.882286e+000  0.000000e+000
    endloop
  endfacet
  facet normal  0.000000e+000  -0.000000e+000 -9.999999e-001
    outer loop
      vertex -5.000000e+001 -3.500000e+001  0.000000e+000
      vertex -1.448889e+001 -3.882286e+000  0.000000e+000
      vertex -1.299038e+001 -7.500000e+000  0.000000e+000
    endloop
  endfacet
  facet normal  0.000000e+000  -0.000000e+000 -1.000000e+000
    outer loop
      vertex -5.000000e+001 -3.500000e+001  0.000000e+000
      vertex -1.299038e+001 -7.500000e+000  0.000000e+000
      vertex -1.060660e+001 -1.060660e+001  0.000000e+000
    endloop
  endfacet
  facet normal  0.000000e+000  -0.000000e+000 -9.999999e-001
    outer loop
      vertex -5.000000e+001 -3.500000e+001  0.000000e+000
      vertex -1.060660e+001 -1.060660e+001  0.000000e+000
      vertex -7.500000e+000 -1.299038e+001  0.000000e+000
    endloop
  endfacet
  facet normal  0.000000e+000  -0.000000e+000 -1.000000e+000
    outer loop
      vertex -5.000000e+001 -3.500000e+001  0.000000e+000
      vertex -7.500000e+000 -1.299038e+001  0.000000e+000
      vertex -3.882286e+000 -1.448889e+001  0.000000e+000
    endloop
  endfacet
  facet normal  0.000000e+000  -0.000000e+000 -1.000000e+000
    outer loop
      vertex -5.000000e+001 -3.500000e+001  0.000000e+000
      vertex -3.882286e+000 -1.448889e+001  0.000000e+000
      vertex -1.019891e-013 -1.500000e+001  0.000000e+000
    endloop
  endfacet
  facet normal  0.000000e+000  -0.000000e+000 -1.000000e+000
    outer loop
      vertex -5.000000e+001 -3.500000e+001  0.000000e+000
      vertex -1.019891e-013 -1.500000e+001  0.000000e+000
      vertex  5.000000e+001 -3.500000e+001  0.000000e+000
    endloop
  endfacet
  facet normal  0.000000e+000  0.000000e+000 -1.000000e+000
    outer loop
      vertex  5.000000e+001 -3.500000e+001  0.000000e+000
      vertex -1.019891e-013 -1.500000e+001  0.000000e+000
      vertex  3.882286e+000 -1.448889e+001  0.000000e+000
    endloop
  endfacet
  facet normal  0.000000e+000  0.000000e+000 -1.000000e+000
    outer loop
      vertex  5.000000e+001 -3.500000e+001  0.000000e+000
      vertex  3.882286e+000 -1.448889e+001  0.000000e+000
      vertex  7.500000e+000 -1.299038e+001  0.000000e+000
    endloop
  endfacet
  facet normal  0.000000e+000  0.000000e+000 -1.000000e+000
    outer loop
      vertex  5.000000e+001 -3.500000e+001  0.000000e+000
      vertex  7.500000e+000 -1.299038e+001  0.000000e+000
      vertex  1.060660e+001 -1.060660e+001  0.000000e+000
    endloop
  endfacet
  facet normal  0.000000e+000  0.000000e+000 -1.000000e+000
    outer loop
      vertex  5.000000e+001 -3.500000e+001  0.000000e+000
      vertex  1.060660e+001 -1.060660e+001  0.000000e+000
      vertex  1.299038e+001 -7.500000e+000  0.000000e+000
    endloop
  endfacet
  facet normal  0.000000e+000  0.000000e+000 -1.000000e+000
    outer loop
      vertex  5.000000e+001 -3.500000e+001  0.000000e+000
      vertex  1.299038e+001 -7.500000e+000  0.000000e+000
      vertex  1.448889e+001 -3.882286e+000  0.000000e+000
    endloop
  endfacet
  facet normal  0.000000e+000  0.000000e+000 -1.000000e+000
    outer loop
      vertex  5.000000e+001 -3.500000e+001  0.000000e+000
      vertex  1.448889e+001 -3.882286e+000  0.000000e+000
      vertex  1.500000e+001  0.000000e+000  0.000000e+000
    endloop
  endfacet
  facet normal  0.000000e+000  0.000000e+000 -1.000000e+000
    outer loop
      vertex  5.000000e+001 -3.500000e+001  0.000000e+000
      vertex  1.500000e+001  0.000000e+000  0.000000e+000
      vertex  1.500000e+001  6.000000e+001  0.000000e+000
    endloop
  endfacet
  facet normal  0.000000e+000  0.000000e+000 -1.000000e+000
    outer loop
      vertex  5.000000e+001 -3.500000e+001  0.000000e+000
      vertex  1.500000e+001  6.000000e+001  0.000000e+000
      vertex  5.000000e+001  6.500000e+001  0.000000e+000
    endloop
  endfacet
  facet normal  -0.000000e+000  0.000000e+000 -1.000000e+000
    outer loop
      vertex -5.000000e+001  6.500000e+001  0.000000e+000
      vertex  5.000000e+001  6.500000e+001  0.000000e+000
      vertex -1.500000e+001  6.000000e+001  0.000000e+000
    endloop
  endfacet
  facet normal  0.000000e+000  0.000000e+000 -1.000000e+000
    outer loop
      vertex -1.500000e+001  6.000000e+001  0.000000e+000
      vertex  5.000000e+001  6.500000e+001  0.000000e+000
      vertex  1.500000e+001  6.000000e+001  0.000000e+000
    endloop
  endfacet
  facet normal -1.000000e+000  -0.000000e+000  0.000000e+000
    outer loop
      vertex -1.500000e+001 -1.217213e-014  0.000000e+000
      vertex -1.500000e+001  6.000000e+001  0.000000e+000
      vertex -1.500000e+001 -3.552714e-015 -2.900000e+001
    endloop
  endfacet
  facet normal -1.000000e+000  0.000000e+000  0.000000e+000
    outer loop
      vertex -1.500000e+001 -3.552714e-015 -2.900000e+001
      vertex -1.500000e+001  6.000000e+001  0.000000e+000
      vertex -1.500000e+001  1.650000e+001 -2.900000e+001
    endloop
  endfacet
  facet normal -9.914448e-001 -1.305261e-001 -3.879512e-017
    outer loop
      vertex -1.500000e+001 -1.217213e-014  0.000000e+000
      vertex -1.500000e+001 -3.552714e-015 -2.900000e+001
      vertex -1.448889e+001 -3.882286e+000  0.000000e+000
    endloop
  endfacet
  facet normal -9.914448e-001 -1.305261e-001  -0.000000e+000
    outer loop
      vertex -1.448889e+001 -3.882286e+000  0.000000e+000
      vertex -1.500000e+001 -3.552714e-015 -2.900000e+001
      vertex -1.448889e+001 -3.882286e+000 -2.900000e+001
    endloop
  endfacet
  facet normal -9.238796e-001 -3.826835e-001  0.000000e+000
    outer loop
      vertex -1.448889e+001 -3.882286e+000  0.000000e+000
      vertex -1.448889e+001 -3.882286e+000 -2.900000e+001
      vertex -1.299038e+001 -7.500000e+000  0.000000e+000
    endloop
  endfacet
  facet normal -9.238796e-001 -3.826835e-001  -0.000000e+000
    outer loop
      vertex -1.299038e+001 -7.500000e+000  0.000000e+000
      vertex -1.448889e+001 -3.882286e+000 -2.900000e+001
      vertex -1.299038e+001 -7.500000e+000 -2.900000e+001
    endloop
  endfacet
  facet normal -7.933533e-001 -6.087615e-001  0.000000e+000
    outer loop
      vertex -1.299038e+001 -7.500000e+000  0.000000e+000
      vertex -1.299038e+001 -7.500000e+000 -2.900000e+001
      vertex -1.060660e+001 -1.060660e+001  0.000000e+000
    endloop
  endfacet
  facet normal -7.933533e-001 -6.087615e-001  -0.000000e+000
    outer loop
      vertex -1.060660e+001 -1.060660e+001  0.000000e+000
      vertex -1.299038e+001 -7.500000e+000 -2.900000e+001
      vertex -1.060660e+001 -1.060660e+001 -2.900000e+001
    endloop
  endfacet
  facet normal -6.087615e-001 -7.933533e-001  0.000000e+000
    outer loop
      vertex -1.060660e+001 -1.060660e+001  0.000000e+000
      vertex -1.060660e+001 -1.060660e+001 -2.900000e+001
      vertex -7.500000e+000 -1.299038e+001  0.000000e+000
    endloop
  endfacet
  facet normal -6.087615e-001 -7.933533e-001  -0.000000e+000
    outer loop
      vertex -7.500000e+000 -1.299038e+001  0.000000e+000
      vertex -1.060660e+001 -1.060660e+001 -2.900000e+001
      vertex -7.500000e+000 -1.299038e+001 -2.900000e+001
    endloop
  endfacet
  facet normal -3.826835e-001 -9.238796e-001  0.000000e+000
    outer loop
      vertex -7.500000e+000 -1.299038e+001  0.000000e+000
      vertex -7.500000e+000 -1.299038e+001 -2.900000e+001
      vertex -3.882286e+000 -1.448889e+001  0.000000e+000
    endloop
  endfacet
  facet normal -3.826835e-001 -9.238796e-001  -0.000000e+000
    outer loop
      vertex -3.882286e+000 -1.448889e+001  0.000000e+000
      vertex -7.500000e+000 -1.299038e+001 -2.900000e+001
      vertex -3.882286e+000 -1.448889e+001 -2.900000e+001
    endloop
  endfacet
  facet normal -1.305261e-001 -9.914448e-001  0.000000e+000
    outer loop
      vertex -3.882286e+000 -1.448889e+001  0.000000e+000
      vertex -3.882286e+000 -1.448889e+001 -2.900000e+001
      vertex -1.019891e-013 -1.500000e+001  0.000000e+000
    endloop
  endfacet
  facet normal -1.305261e-001 -9.914448e-001 -5.230044e-016
    outer loop
      vertex -1.019891e-013 -1.500000e+001  0.000000e+000
      vertex -3.882286e+000 -1.448889e+001 -2.900000e+001
      vertex  1.421085e-014 -1.500000e+001 -2.900000e+001
    endloop
  endfacet
  facet normal  1.305261e-001 -9.914448e-001  5.230044e-016
    outer loop
      vertex -1.019891e-013 -1.500000e+001  0.000000e+000
      vertex  1.421085e-014 -1.500000e+001 -2.900000e+001
      vertex  3.882286e+000 -1.448889e+001  0.000000e+000
    endloop
  endfacet
  facet normal  1.305261e-001 -9.914448e-001  0.000000e+000
    outer loop
      vertex  3.882286e+000 -1.448889e+001  0.000000e+000
      vertex  1.421085e-014 -1.500000e+001 -2.900000e+001
      vertex  3.882286e+000 -1.448889e+001 -2.900000e+001
    endloop
  endfacet
  facet normal  3.826835e-001 -9.238796e-001  0.000000e+000
    outer loop
      vertex  3.882286e+000 -1.448889e+001  0.000000e+000
      vertex  3.882286e+000 -1.448889e+001 -2.900000e+001
      vertex  7.500000e+000 -1.299038e+001  0.000000e+000
    endloop
  endfacet
  facet normal  3.826835e-001 -9.238796e-001  0.000000e+000
    outer loop
      vertex  7.500000e+000 -1.299038e+001  0.000000e+000
      vertex  3.882286e+000 -1.448889e+001 -2.900000e+001
      vertex  7.500000e+000 -1.299038e+001 -2.900000e+001
    endloop
  endfacet
  facet normal  6.087615e-001 -7.933533e-001  0.000000e+000
    outer loop
      vertex  7.500000e+000 -1.299038e+001  0.000000e+000
      vertex  7.500000e+000 -1.299038e+001 -2.900000e+001
      vertex  1.060660e+001 -1.060660e+001  0.000000e+000
    endloop
  endfacet
  facet normal  6.087615e-001 -7.933533e-001  0.000000e+000
    outer loop
      vertex  1.060660e+001 -1.060660e+001  0.000000e+000
      vertex  7.500000e+000 -1.299038e+001 -2.900000e+001
      vertex  1.060660e+001 -1.060660e+001 -2.900000e+001
    endloop
  endfacet
  facet normal  7.933533e-001 -6.087615e-001  0.000000e+000
    outer loop
      vertex  1.060660e+001 -1.060660e+001  0.000000e+000
      vertex  1.060660e+001 -1.060660e+001 -2.900000e+001
      vertex  1.299038e+001 -7.500000e+000  0.000000e+000
    endloop
  endfacet
  facet normal  7.933533e-001 -6.087615e-001  0.000000e+000
    outer loop
      vertex  1.299038e+001 -7.500000e+000  0.000000e+000
      vertex  1.060660e+001 -1.060660e+001 -2.900000e+001
      vertex  1.299038e+001 -7.500000e+000 -2.900000e+001
    endloop
  endfacet
  facet normal  9.238796e-001 -3.826835e-001  0.000000e+000
    outer loop
      vertex  1.299038e+001 -7.500000e+000  0.000000e+000
      vertex  1.299038e+001 -7.500000e+000 -2.900000e+001
      vertex  1.448889e+001 -3.882286e+000  0.000000e+000
    endloop
  endfacet
  facet normal  9.238796e-001 -3.826835e-001  0.000000e+000
    outer loop
      vertex  1.448889e+001 -3.882286e+000  0.000000e+000
      vertex  1.299038e+001 -7.500000e+000 -2.900000e+001
      vertex  1.448889e+001 -3.882286e+000 -2.900000e+001
    endloop
  endfacet
  facet normal  9.914448e-001 -1.305261e-001  0.000000e+000
    outer loop
      vertex  1.448889e+001 -3.882286e+000  0.000000e+000
      vertex  1.448889e+001 -3.882286e+000 -2.900000e+001
      vertex  1.500000e+001  0.000000e+000  0.000000e+000
    endloop
  endfacet
  facet normal  9.914448e-001 -1.305261e-001  0.000000e+000
    outer loop
      vertex  1.500000e+001  0.000000e+000  0.000000e+000
      vertex  1.448889e+001 -3.882286e+000 -2.900000e+001
      vertex  1.500000e+001  0.000000e+000 -2.900000e+001
    endloop
  endfacet
  facet normal  0.000000e+000  0.000000e+000 -1.000000e+000
    outer loop
      vertex  3.882286e+000 -1.448889e+001 -2.900000e+001
      vertex  1.625000e+000 -2.814583e+000 -2.900000e+001
      vertex  2.814583e+000 -1.625000e+000 -2.900000e+001
    endloop
  endfacet
  facet normal  0.000000e+000  0.000000e+000 -9.999999e-001
    outer loop
      vertex  3.250000e+000  0.000000e+000 -2.900000e+001
      vertex  3.882286e+000 -1.448889e+001 -2.900000e+001
      vertex  2.814583e+000 -1.625000e+000 -2.900000e+001
    endloop
  endfacet
  facet normal  0.000000e+000  0.000000e+000 -9.999999e-001
    outer loop
      vertex  1.500000e+001  1.650000e+001 -2.900000e+001
      vertex  1.500000e+001  0.000000e+000 -2.900000e+001
      vertex  3.250000e+000  0.000000e+000 -2.900000e+001
    endloop
  endfacet
  facet normal  0.000000e+000  0.000000e+000 -1.000000e+000
    outer loop
      vertex  1.500000e+001  1.650000e+001 -2.900000e+001
      vertex  3.250000e+000  0.000000e+000 -2.900000e+001
      vertex  2.814583e+000  1.625000e+000 -2.900000e+001
    endloop
  endfacet
  facet normal  0.000000e+000  0.000000e+000 -1.000000e+000
    outer loop
      vertex  1.500000e+001  1.650000e+001 -2.900000e+001
      vertex  2.814583e+000  1.625000e+000 -2.900000e+001
      vertex  1.625000e+000  2.814583e+000 -2.900000e+001
    endloop
  endfacet
  facet normal  0.000000e+000  0.000000e+000 -1.000000e+000
    outer loop
      vertex  1.500000e+001  1.650000e+001 -2.900000e+001
      vertex  1.625000e+000  2.814583e+000 -2.900000e+001
      vertex  0.000000e+000  3.250000e+000 -2.900000e+001
    endloop
  endfacet
  facet normal  -0.000000e+000  0.000000e+000 -9.999999e-001
    outer loop
      vertex  1.500000e+001  1.650000e+001 -2.900000e+001
      vertex  0.000000e+000  3.250000e+000 -2.900000e+001
      vertex -1.625000e+000  2.814583e+000 -2.900000e+001
    endloop
  endfacet
  facet normal  -0.000000e+000  0.000000e+000 -1.000000e+000
    outer loop
      vertex -1.500000e+001  1.650000e+001 -2.900000e+001
      vertex  1.500000e+001  1.650000e+001 -2.900000e+001
      vertex -1.625000e+000  2.814583e+000 -2.900000e+001
    endloop
  endfacet
  facet normal  -0.000000e+000  0.000000e+000 -1.000000e+000
    outer loop
      vertex -1.500000e+001  1.650000e+001 -2.900000e+001
      vertex -1.625000e+000  2.814583e+000 -2.900000e+001
      vertex -2.814583e+000  1.625000e+000 -2.900000e+001
    endloop
  endfacet
  facet normal  -0.000000e+000  0.000000e+000 -1.000000e+000
    outer loop
      vertex -1.500000e+001  1.650000e+001 -2.900000e+001
      vertex -2.814583e+000  1.625000e+000 -2.900000e+001
      vertex -3.250000e+000  0.000000e+000 -2.900000e+001
    endloop
  endfacet
  facet normal  -0.000000e+000  0.000000e+000 -9.999999e-001
    outer loop
      vertex -1.500000e+001  1.650000e+001 -2.900000e+001
      vertex -3.250000e+000  0.000000e+000 -2.900000e+001
      vertex -1.500000e+001 -3.552714e-015 -2.900000e+001
    endloop
  endfacet
  facet normal  0.000000e+000  0.000000e+000 -9.999999e-001
    outer loop
      vertex -3.250000e+000  0.000000e+000 -2.900000e+001
      vertex  1.421085e-014 -1.500000e+001 -2.900000e+001
      vertex -3.882286e+000 -1.448889e+001 -2.900000e+001
    endloop
  endfacet
  facet normal  0.000000e+000  0.000000e+000 -9.999999e-001
    outer loop
      vertex -3.250000e+000  0.000000e+000 -2.900000e+001
      vertex -3.882286e+000 -1.448889e+001 -2.900000e+001
      vertex -7.500000e+000 -1.299038e+001 -2.900000e+001
    endloop
  endfacet
  facet normal  0.000000e+000  0.000000e+000 -1.000000e+000
    outer loop
      vertex -3.250000e+000  0.000000e+000 -2.900000e+001
      vertex -7.500000e+000 -1.299038e+001 -2.900000e+001
      vertex -1.060660e+001 -1.060660e+001 -2.900000e+001
    endloop
  endfacet
  facet normal  0.000000e+000  0.000000e+000 -1.000000e+000
    outer loop
      vertex -3.250000e+000  0.000000e+000 -2.900000e+001
      vertex -1.060660e+001 -1.060660e+001 -2.900000e+001
      vertex -1.299038e+001 -7.500000e+000 -2.900000e+001
    endloop
  endfacet
  facet normal  0.000000e+000  0.000000e+000 -9.999999e-001
    outer loop
      vertex -3.250000e+000  0.000000e+000 -2.900000e+001
      vertex -1.299038e+001 -7.500000e+000 -2.900000e+001
      vertex -1.448889e+001 -3.882286e+000 -2.900000e+001
    endloop
  endfacet
  facet normal  0.000000e+000  0.000000e+000 -1.000000e+000
    outer loop
      vertex -3.250000e+000  0.000000e+000 -2.900000e+001
      vertex -1.448889e+001 -3.882286e+000 -2.900000e+001
      vertex -1.500000e+001 -3.552714e-015 -2.900000e+001
    endloop
  endfacet
  facet normal  0.000000e+000  0.000000e+000 -1.000000e+000
    outer loop
      vertex  1.421085e-014 -1.500000e+001 -2.900000e+001
      vertex -3.250000e+000  0.000000e+000 -2.900000e+001
      vertex -2.814583e+000 -1.625000e+000 -2.900000e+001
    endloop
  endfacet
  facet normal  0.000000e+000  0.000000e+000 -1.000000e+000
    outer loop
      vertex  1.421085e-014 -1.500000e+001 -2.900000e+001
      vertex -2.814583e+000 -1.625000e+000 -2.900000e+001
      vertex -1.625000e+000 -2.814583e+000 -2.900000e+001
    endloop
  endfacet
  facet normal  0.000000e+000  0.000000e+000 -1.000000e+000
    outer loop
      vertex  1.421085e-014 -1.500000e+001 -2.900000e+001
      vertex -1.625000e+000 -2.814583e+000 -2.900000e+001
      vertex  0.000000e+000 -3.250000e+000 -2.900000e+001
    endloop
  endfacet
  facet normal  0.000000e+000  0.000000e+000 -1.000000e+000
    outer loop
      vertex  1.421085e-014 -1.500000e+001 -2.900000e+001
      vertex  0.000000e+000 -3.250000e+000 -2.900000e+001
      vertex  1.625000e+000 -2.814583e+000 -2.900000e+001
    endloop
  endfacet
  facet normal  0.000000e+000  -0.000000e+000 -1.000000e+000
    outer loop
      vertex  1.421085e-014 -1.500000e+001 -2.900000e+001
      vertex  1.625000e+000 -2.814583e+000 -2.900000e+001
      vertex  3.882286e+000 -1.448889e+001 -2.900000e+001
    endloop
  endfacet
  facet normal  -0.000000e+000  0.000000e+000 -1.000000e+000
    outer loop
      vertex  1.500000e+001  0.000000e+000 -2.900000e+001
      vertex  1.448889e+001 -3.882286e+000 -2.900000e+001
      vertex  1.299038e+001 -7.500000e+000 -2.900000e+001
    endloop
  endfacet
  facet normal  -0.000000e+000  0.000000e+000 -9.999999e-001
    outer loop
      vertex  1.500000e+001  0.000000e+000 -2.900000e+001
      vertex  1.299038e+001 -7.500000e+000 -2.900000e+001
      vertex  1.060660e+001 -1.060660e+001 -2.900000e+001
    endloop
  endfacet
  facet normal  -0.000000e+000  0.000000e+000 -1.000000e+000
    outer loop
      vertex  1.500000e+001  0.000000e+000 -2.900000e+001
      vertex  1.060660e+001 -1.060660e+001 -2.900000e+001
      vertex  7.500000e+000 -1.299038e+001 -2.900000e+001
    endloop
  endfacet
  facet normal  -0.000000e+000  0.000000e+000 -1.000000e+000
    outer loop
      vertex  1.500000e+001  0.000000e+000 -2.900000e+001
      vertex  7.500000e+000 -1.299038e+001 -2.900000e+001
      vertex  3.882286e+000 -1.448889e+001 -2.900000e+001
    endloop
  endfacet
  facet normal  0.000000e+000  0.000000e+000 -1.000000e+000
    outer loop
      vertex  1.500000e+001  0.000000e+000 -2.900000e+001
      vertex  3.882286e+000 -1.448889e+001 -2.900000e+001
      vertex  3.250000e+000  0.000000e+000 -2.900000e+001
    endloop
  endfacet
  facet normal  0.000000e+000  5.547002e-001 -8.320503e-001
    outer loop
      vertex  1.500000e+001  6.000000e+001  0.000000e+000
      vertex  1.500000e+001  1.650000e+001 -2.900000e+001
      vertex -1.500000e+001  6.000000e+001  0.000000e+000
    endloop
  endfacet
  facet normal  0.000000e+000  5.547002e-001 -8.320503e-001
    outer loop
      vertex -1.500000e+001  6.000000e+001  0.000000e+000
      vertex  1.500000e+001  1.650000e+001 -2.900000e+001
      vertex -1.500000e+001  1.650000e+001 -2.900000e+001
    endloop
  endfacet
  facet normal -1.000000e+000  0.000000e+000  0.000000e+000
    outer loop
      vertex -5.000000e+001  6.500000e+001  0.000000e+000
      vertex -5.000000e+001 -3.500000e+001  0.000000e+000
      vertex -5.000000e+001  6.500000e+001  5.000000e+000
    endloop
  endfacet
  facet normal -1.000000e+000  -0.000000e+000  0.000000e+000
    outer loop
      vertex -5.000000e+001  6.500000e+001  5.000000e+000
      vertex -5.000000e+001 -3.500000e+001  0.000000e+000
      vertex -5.000000e+001 -3.500000e+001  5.000000e+000
    endloop
  endfacet
  facet normal  0.000000e+000 -1.000000e+000  -0.000000e+000
    outer loop
      vertex  5.000000e+001 -3.500000e+001  0.000000e+000
      vertex  5.000000e+001 -3.500000e+001  5.000000e+000
      vertex -5.000000e+001 -3.500000e+001  0.000000e+000
    endloop
  endfacet
  facet normal  0.000000e+000 -1.000000e+000  0.000000e+000
    outer loop
      vertex -5.000000e+001 -3.500000e+001  0.000000e+000
      vertex  5.000000e+001 -3.500000e+001  5.000000e+000
      vertex -5.000000e+001 -3.500000e+001  5.000000e+000
    endloop
  endfacet
  facet normal  1.000000e+000  0.000000e+000  0.000000e+000
    outer loop
      vertex  5.000000e+001 -3.500000e+001  0.000000e+000
      vertex  5.000000e+001  6.500000e+001  0.000000e+000
      vertex  5.000000e+001 -3.500000e+001  5.000000e+000
    endloop
  endfacet
  facet normal  1.000000e+000  -0.000000e+000  0.000000e+000
    outer loop
      vertex  5.000000e+001 -3.500000e+001  5.000000e+000
      vertex  5.000000e+001  6.500000e+001  0.000000e+000
      vertex  5.000000e+001  6.500000e+001  5.000000e+000
    endloop
  endfacet
  facet normal  0.000000e+000  1.000000e+000  0.000000e+000
    outer loop
      vertex -5.000000e+001  6.500000e+001  0.000000e+000
      vertex -5.000000e+001  6.500000e+001  5.000000e+000
      vertex  5.000000e+001  6.500000e+001  0.000000e+000
    endloop
  endfacet
  facet normal  0.000000e+000  1.000000e+000  -0.000000e+000
    outer loop
      vertex  5.000000e+001  6.500000e+001  0.000000e+000
      vertex -5.000000e+001  6.500000e+001  5.000000e+000
      vertex  5.000000e+001  6.500000e+001  5.000000e+000
    endloop
  endfacet
  facet normal  1.000000e+000  0.000000e+000  0.000000e+000
    outer loop
      vertex  1.500000e+001  0.000000e+000  0.000000e+000
      vertex  1.500000e+001  0.000000e+000 -2.900000e+001
      vertex  1.500000e+001  6.000000e+001  0.000000e+000
    endloop
  endfacet
  facet normal  1.000000e+000  0.000000e+000  0.000000e+000
    outer loop
      vertex  1.500000e+001  6.000000e+001  0.000000e+000
      vertex  1.500000e+001  0.000000e+000 -2.900000e+001
      vertex  1.500000e+001  1.650000e+001 -2.900000e+001
    endloop
  endfacet
endsolid CATIA STL
