solid CATIA STL
  facet normal  1.000000e+000  -0.000000e+000  0.000000e+000
    outer loop
      vertex  7.200000e+001 -2.000000e+000  6.000000e+001
      vertex  7.200000e+001 -2.200000e+001  6.000000e+001
      vertex  7.200000e+001  1.000000e+002 -2.000000e+000
    endloop
  endfacet
  facet normal  1.000000e+000  0.000000e+000  0.000000e+000
    outer loop
      vertex  7.200000e+001  9.800000e+001 -2.200000e+001
      vertex  7.200000e+001  1.000000e+002 -2.000000e+001
      vertex  7.200000e+001 -2.200000e+001 -2.200000e+001
    endloop
  endfacet
  facet normal  1.000000e+000  0.000000e+000  0.000000e+000
    outer loop
      vertex  7.200000e+001 -2.200000e+001 -2.200000e+001
      vertex  7.200000e+001  1.000000e+002 -2.000000e+001
      vertex  7.200000e+001  1.000000e+002 -2.000000e+000
    endloop
  endfacet
  facet normal  1.000000e+000  0.000000e+000  0.000000e+000
    outer loop
      vertex  7.200000e+001 -2.200000e+001 -2.200000e+001
      vertex  7.200000e+001  1.000000e+002 -2.000000e+000
      vertex  7.200000e+001 -2.200000e+001  6.000000e+001
    endloop
  endfacet
  facet normal  0.000000e+000  1.000000e+000  -0.000000e+000
    outer loop
      vertex  7.200000e+001  1.000000e+002 -2.000000e+000
      vertex  7.200000e+001  1.000000e+002 -2.000000e+001
      vertex  5.000000e+000  1.000000e+002 -2.000000e+000
    endloop
  endfacet
  facet normal  0.000000e+000  1.000000e+000  0.000000e+000
    outer loop
      vertex  5.000000e+000  1.000000e+002 -2.000000e+000
      vertex  7.200000e+001  1.000000e+002 -2.000000e+001
      vertex  5.000000e+000  1.000000e+002 -2.000000e+001
    endloop
  endfacet
  facet normal -1.000000e+000  0.000000e+000  0.000000e+000
    outer loop
      vertex  5.000000e+000  9.800000e+001 -2.200000e+001
      vertex  5.000000e+000  5.000000e+001 -2.200000e+001
      vertex  5.000000e+000  1.000000e+002 -2.000000e+001
    endloop
  endfacet
  facet normal -1.000000e+000  0.000000e+000  0.000000e+000
    outer loop
      vertex  5.000000e+000  9.670968e+001 -1.986180e-010
      vertex  5.000000e+000  1.000000e+002 -2.000000e+000
      vertex  5.000000e+000  5.000000e+001  0.000000e+000
    endloop
  endfacet
  facet normal -1.000000e+000  0.000000e+000  0.000000e+000
    outer loop
      vertex  5.000000e+000  5.000000e+001  0.000000e+000
      vertex  5.000000e+000  1.000000e+002 -2.000000e+000
      vertex  5.000000e+000  1.000000e+002 -2.000000e+001
    endloop
  endfacet
  facet normal -1.000000e+000  -0.000000e+000  0.000000e+000
    outer loop
      vertex  5.000000e+000  5.000000e+001  0.000000e+000
      vertex  5.000000e+000  1.000000e+002 -2.000000e+001
      vertex  5.000000e+000  5.000000e+001 -2.200000e+001
    endloop
  endfacet
  facet normal  0.000000e+000 -9.999999e-001  -0.000000e+000
    outer loop
      vertex  5.200000e+001 -2.200000e+001 -2.200000e+001
      vertex  3.250000e+001 -2.200000e+001  3.000000e+001
      vertex  3.176777e+001 -2.200000e+001  2.823223e+001
    endloop
  endfacet
  facet normal  0.000000e+000 -1.000000e+000  -0.000000e+000
    outer loop
      vertex  5.200000e+001 -2.200000e+001 -2.200000e+001
      vertex  3.176777e+001 -2.200000e+001  2.823223e+001
      vertex  3.000000e+001 -2.200000e+001  2.750000e+001
    endloop
  endfacet
  facet normal  -0.000000e+000 -9.999999e-001  -0.000000e+000
    outer loop
      vertex  5.200000e+001 -2.200000e+001 -2.200000e+001
      vertex  3.000000e+001 -2.200000e+001  2.750000e+001
      vertex -3.000000e+001 -2.200000e+001  2.750000e+001
    endloop
  endfacet
  facet normal  0.000000e+000 -1.000000e+000  -0.000000e+000
    outer loop
      vertex  5.200000e+001 -2.200000e+001 -2.200000e+001
      vertex -3.000000e+001 -2.200000e+001  2.750000e+001
      vertex -7.200000e+001 -2.200000e+001 -2.200000e+001
    endloop
  endfacet
  facet normal  0.000000e+000 -9.999999e-001  0.000000e+000
    outer loop
      vertex -7.200000e+001 -2.200000e+001  6.000000e+001
      vertex -7.200000e+001 -2.200000e+001 -2.200000e+001
      vertex -3.176777e+001 -2.200000e+001  3.176777e+001
    endloop
  endfacet
  facet normal  0.000000e+000 -1.000000e+000  0.000000e+000
    outer loop
      vertex -7.200000e+001 -2.200000e+001  6.000000e+001
      vertex -3.176777e+001 -2.200000e+001  3.176777e+001
      vertex -3.000000e+001 -2.200000e+001  3.250000e+001
    endloop
  endfacet
  facet normal  0.000000e+000 -1.000000e+000  0.000000e+000
    outer loop
      vertex -7.200000e+001 -2.200000e+001  6.000000e+001
      vertex -3.000000e+001 -2.200000e+001  3.250000e+001
      vertex  3.000000e+001 -2.200000e+001  3.250000e+001
    endloop
  endfacet
  facet normal  0.000000e+000 -1.000000e+000  0.000000e+000
    outer loop
      vertex -7.200000e+001 -2.200000e+001  6.000000e+001
      vertex  3.000000e+001 -2.200000e+001  3.250000e+001
      vertex  5.200000e+001 -2.200000e+001  6.000000e+001
    endloop
  endfacet
  facet normal  -0.000000e+000 -9.999999e-001  0.000000e+000
    outer loop
      vertex -7.200000e+001 -2.200000e+001 -2.200000e+001
      vertex -3.000000e+001 -2.200000e+001  2.750000e+001
      vertex -3.176777e+001 -2.200000e+001  2.823223e+001
    endloop
  endfacet
  facet normal  -0.000000e+000 -1.000000e+000  0.000000e+000
    outer loop
      vertex -7.200000e+001 -2.200000e+001 -2.200000e+001
      vertex -3.176777e+001 -2.200000e+001  2.823223e+001
      vertex -3.250000e+001 -2.200000e+001  3.000000e+001
    endloop
  endfacet
  facet normal  -0.000000e+000 -1.000000e+000  0.000000e+000
    outer loop
      vertex -7.200000e+001 -2.200000e+001 -2.200000e+001
      vertex -3.250000e+001 -2.200000e+001  3.000000e+001
      vertex -3.176777e+001 -2.200000e+001  3.176777e+001
    endloop
  endfacet
  facet normal  0.000000e+000 -1.000000e+000  0.000000e+000
    outer loop
      vertex  5.200000e+001 -2.200000e+001  6.000000e+001
      vertex  3.000000e+001 -2.200000e+001  3.250000e+001
      vertex  3.176777e+001 -2.200000e+001  3.176777e+001
    endloop
  endfacet
  facet normal  0.000000e+000 -9.999999e-001  0.000000e+000
    outer loop
      vertex  5.200000e+001 -2.200000e+001  6.000000e+001
      vertex  3.176777e+001 -2.200000e+001  3.176777e+001
      vertex  3.250000e+001 -2.200000e+001  3.000000e+001
    endloop
  endfacet
  facet normal  0.000000e+000 -9.999999e-001  0.000000e+000
    outer loop
      vertex  5.200000e+001 -2.200000e+001  6.000000e+001
      vertex  3.250000e+001 -2.200000e+001  3.000000e+001
      vertex  5.200000e+001 -2.200000e+001 -2.200000e+001
    endloop
  endfacet
  facet normal  0.000000e+000 -1.000000e+000  0.000000e+000
    outer loop
      vertex  3.000000e+001 -2.200000e+001  3.250000e+001
      vertex -3.000000e+001 -2.200000e+001  3.250000e+001
      vertex  2.823223e+001 -2.200000e+001  3.176777e+001
    endloop
  endfacet
  facet normal  0.000000e+000 -1.000000e+000  0.000000e+000
    outer loop
      vertex  2.823223e+001 -2.200000e+001  3.176777e+001
      vertex -3.000000e+001 -2.200000e+001  3.250000e+001
      vertex -2.823223e+001 -2.200000e+001  3.176777e+001
    endloop
  endfacet
  facet normal  0.000000e+000 -1.000000e+000  0.000000e+000
    outer loop
      vertex  2.823223e+001 -2.200000e+001  3.176777e+001
      vertex -2.823223e+001 -2.200000e+001  3.176777e+001
      vertex  2.750000e+001 -2.200000e+001  3.000000e+001
    endloop
  endfacet
  facet normal  0.000000e+000 -9.999999e-001  0.000000e+000
    outer loop
      vertex  2.750000e+001 -2.200000e+001  3.000000e+001
      vertex -2.823223e+001 -2.200000e+001  3.176777e+001
      vertex -2.750000e+001 -2.200000e+001  3.000000e+001
    endloop
  endfacet
  facet normal  0.000000e+000 -9.999999e-001  0.000000e+000
    outer loop
      vertex  2.750000e+001 -2.200000e+001  3.000000e+001
      vertex -2.750000e+001 -2.200000e+001  3.000000e+001
      vertex  2.823223e+001 -2.200000e+001  2.823223e+001
    endloop
  endfacet
  facet normal  0.000000e+000 -1.000000e+000  0.000000e+000
    outer loop
      vertex  2.823223e+001 -2.200000e+001  2.823223e+001
      vertex -2.750000e+001 -2.200000e+001  3.000000e+001
      vertex -2.823223e+001 -2.200000e+001  2.823223e+001
    endloop
  endfacet
  facet normal  0.000000e+000 -1.000000e+000  0.000000e+000
    outer loop
      vertex  2.823223e+001 -2.200000e+001  2.823223e+001
      vertex -2.823223e+001 -2.200000e+001  2.823223e+001
      vertex  3.000000e+001 -2.200000e+001  2.750000e+001
    endloop
  endfacet
  facet normal  0.000000e+000 -1.000000e+000  0.000000e+000
    outer loop
      vertex  3.000000e+001 -2.200000e+001  2.750000e+001
      vertex -2.823223e+001 -2.200000e+001  2.823223e+001
      vertex -3.000000e+001 -2.200000e+001  2.750000e+001
    endloop
  endfacet
  facet normal  0.000000e+000  7.071068e-001 -7.071068e-001
    outer loop
      vertex  5.000000e+000  9.800000e+001 -2.200000e+001
      vertex  5.000000e+000  1.000000e+002 -2.000000e+001
      vertex  7.200000e+001  9.800000e+001 -2.200000e+001
    endloop
  endfacet
  facet normal  0.000000e+000  7.071068e-001 -7.071068e-001
    outer loop
      vertex  7.200000e+001  9.800000e+001 -2.200000e+001
      vertex  5.000000e+000  1.000000e+002 -2.000000e+001
      vertex  7.200000e+001  1.000000e+002 -2.000000e+001
    endloop
  endfacet
  facet normal  3.826835e-001  0.000000e+000  9.238796e-001
    outer loop
      vertex -3.000000e+001 -2.200000e+001  2.750000e+001
      vertex -3.176777e+001 -3.000000e+000  2.823223e+001
      vertex -3.176777e+001 -2.200000e+001  2.823223e+001
    endloop
  endfacet
  facet normal  9.238796e-001  -0.000000e+000  3.826835e-001
    outer loop
      vertex -3.176777e+001 -2.200000e+001  2.823223e+001
      vertex -3.176777e+001 -3.000000e+000  2.823223e+001
      vertex -3.250000e+001 -3.000000e+000  3.000000e+001
    endloop
  endfacet
  facet normal  9.238796e-001  0.000000e+000  3.826835e-001
    outer loop
      vertex -3.176777e+001 -2.200000e+001  2.823223e+001
      vertex -3.250000e+001 -3.000000e+000  3.000000e+001
      vertex -3.250000e+001 -2.200000e+001  3.000000e+001
    endloop
  endfacet
  facet normal  3.826835e-001  -0.000000e+000  9.238796e-001
    outer loop
      vertex -3.176777e+001 -3.000000e+000  2.823223e+001
      vertex -3.000000e+001 -2.200000e+001  2.750000e+001
      vertex -3.000000e+001 -3.000000e+000  2.750000e+001
    endloop
  endfacet
  facet normal -3.826835e-001  0.000000e+000  9.238796e-001
    outer loop
      vertex -3.000000e+001 -3.000000e+000  2.750000e+001
      vertex -3.000000e+001 -2.200000e+001  2.750000e+001
      vertex -2.823223e+001 -2.200000e+001  2.823223e+001
    endloop
  endfacet
  facet normal -3.826835e-001  0.000000e+000  9.238796e-001
    outer loop
      vertex -3.000000e+001 -3.000000e+000  2.750000e+001
      vertex -2.823223e+001 -2.200000e+001  2.823223e+001
      vertex -2.823223e+001 -3.000000e+000  2.823223e+001
    endloop
  endfacet
  facet normal -9.238796e-001  0.000000e+000  3.826835e-001
    outer loop
      vertex -2.823223e+001 -3.000000e+000  2.823223e+001
      vertex -2.823223e+001 -2.200000e+001  2.823223e+001
      vertex -2.750000e+001 -2.200000e+001  3.000000e+001
    endloop
  endfacet
  facet normal -9.238796e-001  0.000000e+000  3.826835e-001
    outer loop
      vertex -2.823223e+001 -3.000000e+000  2.823223e+001
      vertex -2.750000e+001 -2.200000e+001  3.000000e+001
      vertex -2.750000e+001 -3.000000e+000  3.000000e+001
    endloop
  endfacet
  facet normal -3.826763e-001  6.134000e-003 -9.238622e-001
    outer loop
      vertex -2.851463e+001 -3.000000e+000  3.201089e+001
      vertex -2.823223e+001 -2.200000e+001  3.176777e+001
      vertex -3.000000e+001 -2.200000e+001  3.250000e+001
    endloop
  endfacet
  facet normal -2.651591e-001 -4.091468e-003 -9.641960e-001
    outer loop
      vertex -3.000000e+001 -2.200000e+001  3.250000e+001
      vertex -3.024825e+001 -3.000000e+000  3.248764e+001
      vertex -2.851463e+001 -3.000000e+000  3.201089e+001
    endloop
  endfacet
  facet normal  3.826798e-001  4.399119e-003 -9.238706e-001
    outer loop
      vertex -3.024825e+001 -3.000000e+000  3.248764e+001
      vertex -3.000000e+001 -2.200000e+001  3.250000e+001
      vertex -3.176777e+001 -2.200000e+001  3.176777e+001
    endloop
  endfacet
  facet normal -8.436331e-001 -5.668928e-003 -5.368900e-001
    outer loop
      vertex -2.851463e+001 -3.000000e+000  3.201089e+001
      vertex -2.754930e+001 -3.000000e+000  3.049404e+001
      vertex -2.823223e+001 -2.200000e+001  3.176777e+001
    endloop
  endfacet
  facet normal -9.946363e-001  2.909693e-002 -9.925744e-002
    outer loop
      vertex -2.823223e+001 -2.200000e+001  3.176777e+001
      vertex -2.754930e+001 -3.000000e+000  3.049404e+001
      vertex -2.750000e+001 -3.000000e+000  3.000000e+001
    endloop
  endfacet
  facet normal -9.238796e-001  -0.000000e+000 -3.826835e-001
    outer loop
      vertex -2.823223e+001 -2.200000e+001  3.176777e+001
      vertex -2.750000e+001 -3.000000e+000  3.000000e+001
      vertex -2.750000e+001 -2.200000e+001  3.000000e+001
    endloop
  endfacet
  facet normal  4.504718e-001 -2.200208e-003 -8.927879e-001
    outer loop
      vertex -3.024825e+001 -3.000000e+000  3.248764e+001
      vertex -3.176777e+001 -2.200000e+001  3.176777e+001
      vertex -3.185346e+001 -3.000000e+000  3.167771e+001
    endloop
  endfacet
  facet normal  9.238769e-001  2.352818e-003 -3.826824e-001
    outer loop
      vertex -3.185346e+001 -3.000000e+000  3.167771e+001
      vertex -3.176777e+001 -2.200000e+001  3.176777e+001
      vertex -3.250000e+001 -2.200000e+001  3.000000e+001
    endloop
  endfacet
  facet normal  9.331087e-001  0.000000e+000 -3.595944e-001
    outer loop
      vertex -3.185346e+001 -3.000000e+000  3.167771e+001
      vertex -3.250000e+001 -2.200000e+001  3.000000e+001
      vertex -3.250000e+001 -3.000000e+000  3.000000e+001
    endloop
  endfacet
  facet normal -3.826835e-001  -0.000000e+000 -9.238796e-001
    outer loop
      vertex  3.000000e+001 -2.200000e+001  3.250000e+001
      vertex  3.176777e+001 -3.000000e+000  3.176777e+001
      vertex  3.176777e+001 -2.200000e+001  3.176777e+001
    endloop
  endfacet
  facet normal -9.238796e-001  0.000000e+000 -3.826835e-001
    outer loop
      vertex  3.176777e+001 -2.200000e+001  3.176777e+001
      vertex  3.176777e+001 -3.000000e+000  3.176777e+001
      vertex  3.250000e+001 -3.000000e+000  3.000000e+001
    endloop
  endfacet
  facet normal -9.238796e-001  -0.000000e+000 -3.826835e-001
    outer loop
      vertex  3.176777e+001 -2.200000e+001  3.176777e+001
      vertex  3.250000e+001 -3.000000e+000  3.000000e+001
      vertex  3.250000e+001 -2.200000e+001  3.000000e+001
    endloop
  endfacet
  facet normal -3.826835e-001  0.000000e+000 -9.238796e-001
    outer loop
      vertex  3.176777e+001 -3.000000e+000  3.176777e+001
      vertex  3.000000e+001 -2.200000e+001  3.250000e+001
      vertex  3.000000e+001 -3.000000e+000  3.250000e+001
    endloop
  endfacet
  facet normal  3.826835e-001  0.000000e+000 -9.238796e-001
    outer loop
      vertex  3.000000e+001 -3.000000e+000  3.250000e+001
      vertex  3.000000e+001 -2.200000e+001  3.250000e+001
      vertex  2.823223e+001 -2.200000e+001  3.176777e+001
    endloop
  endfacet
  facet normal  3.826835e-001  0.000000e+000 -9.238796e-001
    outer loop
      vertex  3.000000e+001 -3.000000e+000  3.250000e+001
      vertex  2.823223e+001 -2.200000e+001  3.176777e+001
      vertex  2.823223e+001 -3.000000e+000  3.176777e+001
    endloop
  endfacet
  facet normal  9.238796e-001  0.000000e+000 -3.826835e-001
    outer loop
      vertex  2.823223e+001 -3.000000e+000  3.176777e+001
      vertex  2.823223e+001 -2.200000e+001  3.176777e+001
      vertex  2.750000e+001 -2.200000e+001  3.000000e+001
    endloop
  endfacet
  facet normal  9.238796e-001  0.000000e+000 -3.826835e-001
    outer loop
      vertex  2.823223e+001 -3.000000e+000  3.176777e+001
      vertex  2.750000e+001 -2.200000e+001  3.000000e+001
      vertex  2.750000e+001 -3.000000e+000  3.000000e+001
    endloop
  endfacet
  facet normal  3.826763e-001  6.134000e-003  9.238622e-001
    outer loop
      vertex  2.851463e+001 -3.000000e+000  2.798911e+001
      vertex  2.823223e+001 -2.200000e+001  2.823223e+001
      vertex  3.000000e+001 -2.200000e+001  2.750000e+001
    endloop
  endfacet
  facet normal  2.651591e-001 -4.091468e-003  9.641960e-001
    outer loop
      vertex  3.000000e+001 -2.200000e+001  2.750000e+001
      vertex  3.024825e+001 -3.000000e+000  2.751236e+001
      vertex  2.851463e+001 -3.000000e+000  2.798911e+001
    endloop
  endfacet
  facet normal -3.826798e-001  4.399119e-003  9.238706e-001
    outer loop
      vertex  3.024825e+001 -3.000000e+000  2.751236e+001
      vertex  3.000000e+001 -2.200000e+001  2.750000e+001
      vertex  3.176777e+001 -2.200000e+001  2.823223e+001
    endloop
  endfacet
  facet normal  8.436331e-001 -5.668928e-003  5.368900e-001
    outer loop
      vertex  2.851463e+001 -3.000000e+000  2.798911e+001
      vertex  2.754930e+001 -3.000000e+000  2.950596e+001
      vertex  2.823223e+001 -2.200000e+001  2.823223e+001
    endloop
  endfacet
  facet normal  9.946363e-001  2.909693e-002  9.925744e-002
    outer loop
      vertex  2.823223e+001 -2.200000e+001  2.823223e+001
      vertex  2.754930e+001 -3.000000e+000  2.950596e+001
      vertex  2.750000e+001 -3.000000e+000  3.000000e+001
    endloop
  endfacet
  facet normal  9.238796e-001  0.000000e+000  3.826835e-001
    outer loop
      vertex  2.823223e+001 -2.200000e+001  2.823223e+001
      vertex  2.750000e+001 -3.000000e+000  3.000000e+001
      vertex  2.750000e+001 -2.200000e+001  3.000000e+001
    endloop
  endfacet
  facet normal -4.504718e-001 -2.200208e-003  8.927879e-001
    outer loop
      vertex  3.024825e+001 -3.000000e+000  2.751236e+001
      vertex  3.176777e+001 -2.200000e+001  2.823223e+001
      vertex  3.185346e+001 -3.000000e+000  2.832229e+001
    endloop
  endfacet
  facet normal -9.238769e-001  2.352818e-003  3.826824e-001
    outer loop
      vertex  3.185346e+001 -3.000000e+000  2.832229e+001
      vertex  3.176777e+001 -2.200000e+001  2.823223e+001
      vertex  3.250000e+001 -2.200000e+001  3.000000e+001
    endloop
  endfacet
  facet normal -9.331087e-001  0.000000e+000  3.595944e-001
    outer loop
      vertex  3.185346e+001 -3.000000e+000  2.832229e+001
      vertex  3.250000e+001 -2.200000e+001  3.000000e+001
      vertex  3.250000e+001 -3.000000e+000  3.000000e+001
    endloop
  endfacet
  facet normal  0.000000e+000  0.000000e+000 -1.000000e+000
    outer loop
      vertex  7.200000e+001 -2.200000e+001 -2.200000e+001
      vertex  5.200000e+001 -2.200000e+001 -2.200000e+001
      vertex  1.917379e-016  4.500000e+001 -2.200000e+001
    endloop
  endfacet
  facet normal  0.000000e+000  0.000000e+000 -1.000000e+000
    outer loop
      vertex  7.200000e+001 -2.200000e+001 -2.200000e+001
      vertex  1.917379e-016  4.500000e+001 -2.200000e+001
      vertex  2.500000e+000  4.566987e+001 -2.200000e+001
    endloop
  endfacet
  facet normal  0.000000e+000  0.000000e+000 -9.999999e-001
    outer loop
      vertex  7.200000e+001 -2.200000e+001 -2.200000e+001
      vertex  2.500000e+000  4.566987e+001 -2.200000e+001
      vertex  4.330127e+000  4.750000e+001 -2.200000e+001
    endloop
  endfacet
  facet normal  0.000000e+000  0.000000e+000 -1.000000e+000
    outer loop
      vertex  7.200000e+001 -2.200000e+001 -2.200000e+001
      vertex  4.330127e+000  4.750000e+001 -2.200000e+001
      vertex  5.000000e+000  5.000000e+001 -2.200000e+001
    endloop
  endfacet
  facet normal  0.000000e+000  0.000000e+000 -1.000000e+000
    outer loop
      vertex  7.200000e+001 -2.200000e+001 -2.200000e+001
      vertex  5.000000e+000  5.000000e+001 -2.200000e+001
      vertex  5.000000e+000  9.800000e+001 -2.200000e+001
    endloop
  endfacet
  facet normal  0.000000e+000  0.000000e+000 -1.000000e+000
    outer loop
      vertex  7.200000e+001 -2.200000e+001 -2.200000e+001
      vertex  5.000000e+000  9.800000e+001 -2.200000e+001
      vertex  7.200000e+001  9.800000e+001 -2.200000e+001
    endloop
  endfacet
  facet normal  0.000000e+000  0.000000e+000 -1.000000e+000
    outer loop
      vertex -7.200000e+001 -2.200000e+001 -2.200000e+001
      vertex -7.200000e+001  9.800000e+001 -2.200000e+001
      vertex -5.000000e+000  9.800000e+001 -2.200000e+001
    endloop
  endfacet
  facet normal  0.000000e+000  -0.000000e+000 -1.000000e+000
    outer loop
      vertex -7.200000e+001 -2.200000e+001 -2.200000e+001
      vertex -5.000000e+000  9.800000e+001 -2.200000e+001
      vertex -5.000000e+000  5.000000e+001 -2.200000e+001
    endloop
  endfacet
  facet normal  0.000000e+000  -0.000000e+000 -1.000000e+000
    outer loop
      vertex -7.200000e+001 -2.200000e+001 -2.200000e+001
      vertex -5.000000e+000  5.000000e+001 -2.200000e+001
      vertex -4.330127e+000  4.750000e+001 -2.200000e+001
    endloop
  endfacet
  facet normal  0.000000e+000  -0.000000e+000 -9.999999e-001
    outer loop
      vertex -7.200000e+001 -2.200000e+001 -2.200000e+001
      vertex -4.330127e+000  4.750000e+001 -2.200000e+001
      vertex -2.500000e+000  4.566987e+001 -2.200000e+001
    endloop
  endfacet
  facet normal  0.000000e+000  -0.000000e+000 -1.000000e+000
    outer loop
      vertex -7.200000e+001 -2.200000e+001 -2.200000e+001
      vertex -2.500000e+000  4.566987e+001 -2.200000e+001
      vertex  1.917379e-016  4.500000e+001 -2.200000e+001
    endloop
  endfacet
  facet normal  0.000000e+000  -0.000000e+000 -1.000000e+000
    outer loop
      vertex -7.200000e+001 -2.200000e+001 -2.200000e+001
      vertex  1.917379e-016  4.500000e+001 -2.200000e+001
      vertex  5.200000e+001 -2.200000e+001 -2.200000e+001
    endloop
  endfacet
  facet normal -6.947465e-001  6.947465e-001  1.861568e-001
    outer loop
      vertex -2.450000e+001  2.448708e-012  3.000000e+001
      vertex -2.523686e+001  0.000000e+000  2.725000e+001
      vertex -2.750000e+001 -3.000000e+000  3.000000e+001
    endloop
  endfacet
  facet normal -6.378749e-001  7.233984e-001  2.642165e-001
    outer loop
      vertex -2.523686e+001  0.000000e+000  2.725000e+001
      vertex -2.823223e+001 -3.000000e+000  2.823223e+001
      vertex -2.750000e+001 -3.000000e+000  3.000000e+001
    endloop
  endfacet
  facet normal  1.861568e-001  6.947466e-001  6.947466e-001
    outer loop
      vertex -3.275000e+001  0.000000e+000  2.523686e+001
      vertex -3.000000e+001 -3.000000e+000  2.750000e+001
      vertex -3.000000e+001  0.000000e+000  2.450000e+001
    endloop
  endfacet
  facet normal  2.642165e-001  7.233984e-001  6.378749e-001
    outer loop
      vertex -3.000000e+001 -3.000000e+000  2.750000e+001
      vertex -3.275000e+001  0.000000e+000  2.523686e+001
      vertex -3.176777e+001 -3.000000e+000  2.823223e+001
    endloop
  endfacet
  facet normal  5.158532e-001  6.839530e-001  5.158527e-001
    outer loop
      vertex -3.275000e+001  0.000000e+000  2.523686e+001
      vertex -3.476314e+001  0.000000e+000  2.725000e+001
      vertex -3.176777e+001 -3.000000e+000  2.823223e+001
    endloop
  endfacet
  facet normal  6.664299e-001  7.238674e-001  1.785698e-001
    outer loop
      vertex -3.176777e+001 -3.000000e+000  2.823223e+001
      vertex -3.476314e+001  0.000000e+000  2.725000e+001
      vertex -3.550000e+001  0.000000e+000  3.000000e+001
    endloop
  endfacet
  facet normal  6.785983e-001  6.785983e-001  2.810846e-001
    outer loop
      vertex -3.176777e+001 -3.000000e+000  2.823223e+001
      vertex -3.550000e+001  0.000000e+000  3.000000e+001
      vertex -3.250000e+001 -3.000000e+000  3.000000e+001
    endloop
  endfacet
  facet normal -5.158528e-001  6.839530e-001  5.158528e-001
    outer loop
      vertex -2.523686e+001  0.000000e+000  2.725000e+001
      vertex -2.725000e+001  0.000000e+000  2.523686e+001
      vertex -2.823223e+001 -3.000000e+000  2.823223e+001
    endloop
  endfacet
  facet normal -1.785693e-001  7.238675e-001  6.664298e-001
    outer loop
      vertex -2.823223e+001 -3.000000e+000  2.823223e+001
      vertex -2.725000e+001  0.000000e+000  2.523686e+001
      vertex -3.000000e+001  0.000000e+000  2.450000e+001
    endloop
  endfacet
  facet normal -2.810846e-001  6.785983e-001  6.785983e-001
    outer loop
      vertex -2.823223e+001 -3.000000e+000  2.823223e+001
      vertex -3.000000e+001  0.000000e+000  2.450000e+001
      vertex -3.000000e+001 -3.000000e+000  2.750000e+001
    endloop
  endfacet
  facet normal  6.962888e-001  6.962888e-001 -1.742521e-001
    outer loop
      vertex -3.550000e+001  0.000000e+000  3.000000e+001
      vertex -3.485168e+001  0.000000e+000  3.259060e+001
      vertex -3.250000e+001 -3.000000e+000  3.000000e+001
    endloop
  endfacet
  facet normal  6.461064e-001  7.214912e-001 -2.489916e-001
    outer loop
      vertex -3.485168e+001  0.000000e+000  3.259060e+001
      vertex -3.185346e+001 -3.000000e+000  3.167771e+001
      vertex -3.250000e+001 -3.000000e+000  3.000000e+001
    endloop
  endfacet
  facet normal -1.042510e-001  6.962887e-001 -7.101505e-001
    outer loop
      vertex -2.790396e+001  0.000000e+000  3.508494e+001
      vertex -3.024825e+001 -3.000000e+000  3.248764e+001
      vertex -3.054614e+001  0.000000e+000  3.547282e+001
    endloop
  endfacet
  facet normal -4.318003e-001  6.868955e-001 -5.845709e-001
    outer loop
      vertex -2.790396e+001  0.000000e+000  3.508494e+001
      vertex -2.575594e+001  0.000000e+000  3.349828e+001
      vertex -2.851463e+001 -3.000000e+000  3.201089e+001
    endloop
  endfacet
  facet normal -1.836040e-001  7.214910e-001 -6.676378e-001
    outer loop
      vertex -3.024825e+001 -3.000000e+000  3.248764e+001
      vertex -2.790396e+001  0.000000e+000  3.508494e+001
      vertex -2.851463e+001 -3.000000e+000  3.201089e+001
    endloop
  endfacet
  facet normal -5.841609e-001  7.214910e-001 -3.717614e-001
    outer loop
      vertex -2.754930e+001 -3.000000e+000  3.049404e+001
      vertex -2.851463e+001 -3.000000e+000  3.201089e+001
      vertex -2.575594e+001  0.000000e+000  3.349828e+001
    endloop
  endfacet
  facet normal -6.481230e-001  6.962889e-001 -3.084129e-001
    outer loop
      vertex -2.754930e+001 -3.000000e+000  3.049404e+001
      vertex -2.575594e+001  0.000000e+000  3.349828e+001
      vertex -2.460846e+001  0.000000e+000  3.108688e+001
    endloop
  endfacet
  facet normal -7.053528e-001  7.053529e-001 -7.038823e-002
    outer loop
      vertex -2.754930e+001 -3.000000e+000  3.049404e+001
      vertex -2.460846e+001  0.000000e+000  3.108688e+001
      vertex -2.450000e+001  2.448708e-012  3.000000e+001
    endloop
  endfacet
  facet normal -7.053528e-001  7.053528e-001 -7.038905e-002
    outer loop
      vertex -2.754930e+001 -3.000000e+000  3.049404e+001
      vertex -2.450000e+001  2.448708e-012  3.000000e+001
      vertex -2.750000e+001 -3.000000e+000  3.000000e+001
    endloop
  endfacet
  facet normal  5.388046e-001  6.868954e-001 -4.877134e-001
    outer loop
      vertex -3.485168e+001  0.000000e+000  3.259060e+001
      vertex -3.305956e+001  0.000000e+000  3.457046e+001
      vertex -3.185346e+001 -3.000000e+000  3.167771e+001
    endloop
  endfacet
  facet normal  2.338059e-001  7.219564e-001 -6.512401e-001
    outer loop
      vertex -3.185346e+001 -3.000000e+000  3.167771e+001
      vertex -3.305956e+001  0.000000e+000  3.457046e+001
      vertex -3.054614e+001  0.000000e+000  3.547282e+001
    endloop
  endfacet
  facet normal  3.293575e-001  6.822304e-001 -6.527522e-001
    outer loop
      vertex -3.185346e+001 -3.000000e+000  3.167771e+001
      vertex -3.054614e+001  0.000000e+000  3.547282e+001
      vertex -3.024825e+001 -3.000000e+000  3.248764e+001
    endloop
  endfacet
  facet normal  6.947465e-001  6.947465e-001 -1.861568e-001
    outer loop
      vertex  2.450000e+001  2.452261e-012  3.000000e+001
      vertex  2.523686e+001  0.000000e+000  3.275000e+001
      vertex  2.750000e+001 -3.000000e+000  3.000000e+001
    endloop
  endfacet
  facet normal  6.378749e-001  7.233984e-001 -2.642165e-001
    outer loop
      vertex  2.523686e+001  0.000000e+000  3.275000e+001
      vertex  2.823223e+001 -3.000000e+000  3.176777e+001
      vertex  2.750000e+001 -3.000000e+000  3.000000e+001
    endloop
  endfacet
  facet normal -1.861563e-001  6.947467e-001 -6.947467e-001
    outer loop
      vertex  3.275000e+001  0.000000e+000  3.476314e+001
      vertex  3.000000e+001 -3.000000e+000  3.250000e+001
      vertex  3.000000e+001  0.000000e+000  3.550000e+001
    endloop
  endfacet
  facet normal -2.642164e-001  7.233986e-001 -6.378748e-001
    outer loop
      vertex  3.000000e+001 -3.000000e+000  3.250000e+001
      vertex  3.275000e+001  0.000000e+000  3.476314e+001
      vertex  3.176777e+001 -3.000000e+000  3.176777e+001
    endloop
  endfacet
  facet normal -5.158533e-001  6.839530e-001 -5.158523e-001
    outer loop
      vertex  3.275000e+001  0.000000e+000  3.476314e+001
      vertex  3.476314e+001  0.000000e+000  3.275000e+001
      vertex  3.176777e+001 -3.000000e+000  3.176777e+001
    endloop
  endfacet
  facet normal -6.664299e-001  7.238674e-001 -1.785698e-001
    outer loop
      vertex  3.176777e+001 -3.000000e+000  3.176777e+001
      vertex  3.476314e+001  0.000000e+000  3.275000e+001
      vertex  3.550000e+001  0.000000e+000  3.000000e+001
    endloop
  endfacet
  facet normal -6.785983e-001  6.785983e-001 -2.810846e-001
    outer loop
      vertex  3.176777e+001 -3.000000e+000  3.176777e+001
      vertex  3.550000e+001  0.000000e+000  3.000000e+001
      vertex  3.250000e+001 -3.000000e+000  3.000000e+001
    endloop
  endfacet
  facet normal  5.158527e-001  6.839530e-001 -5.158532e-001
    outer loop
      vertex  2.523686e+001  0.000000e+000  3.275000e+001
      vertex  2.725000e+001  0.000000e+000  3.476314e+001
      vertex  2.823223e+001 -3.000000e+000  3.176777e+001
    endloop
  endfacet
  facet normal  1.785698e-001  7.238673e-001 -6.664299e-001
    outer loop
      vertex  2.823223e+001 -3.000000e+000  3.176777e+001
      vertex  2.725000e+001  0.000000e+000  3.476314e+001
      vertex  3.000000e+001  0.000000e+000  3.550000e+001
    endloop
  endfacet
  facet normal  2.810846e-001  6.785983e-001 -6.785983e-001
    outer loop
      vertex  2.823223e+001 -3.000000e+000  3.176777e+001
      vertex  3.000000e+001  0.000000e+000  3.550000e+001
      vertex  3.000000e+001 -3.000000e+000  3.250000e+001
    endloop
  endfacet
  facet normal -6.962888e-001  6.962888e-001  1.742520e-001
    outer loop
      vertex  3.550000e+001  0.000000e+000  3.000000e+001
      vertex  3.485168e+001  0.000000e+000  2.740940e+001
      vertex  3.250000e+001 -3.000000e+000  3.000000e+001
    endloop
  endfacet
  facet normal -6.461064e-001  7.214913e-001  2.489916e-001
    outer loop
      vertex  3.485168e+001  0.000000e+000  2.740940e+001
      vertex  3.185346e+001 -3.000000e+000  2.832229e+001
      vertex  3.250000e+001 -3.000000e+000  3.000000e+001
    endloop
  endfacet
  facet normal  1.042515e-001  6.962889e-001  7.101503e-001
    outer loop
      vertex  2.790396e+001  0.000000e+000  2.491506e+001
      vertex  3.024825e+001 -3.000000e+000  2.751236e+001
      vertex  3.054614e+001  0.000000e+000  2.452718e+001
    endloop
  endfacet
  facet normal  4.318003e-001  6.868955e-001  5.845709e-001
    outer loop
      vertex  2.790396e+001  0.000000e+000  2.491506e+001
      vertex  2.575594e+001  0.000000e+000  2.650172e+001
      vertex  2.851463e+001 -3.000000e+000  2.798911e+001
    endloop
  endfacet
  facet normal  1.836040e-001  7.214910e-001  6.676378e-001
    outer loop
      vertex  3.024825e+001 -3.000000e+000  2.751236e+001
      vertex  2.790396e+001  0.000000e+000  2.491506e+001
      vertex  2.851463e+001 -3.000000e+000  2.798911e+001
    endloop
  endfacet
  facet normal  5.841609e-001  7.214910e-001  3.717614e-001
    outer loop
      vertex  2.754930e+001 -3.000000e+000  2.950596e+001
      vertex  2.851463e+001 -3.000000e+000  2.798911e+001
      vertex  2.575594e+001  0.000000e+000  2.650172e+001
    endloop
  endfacet
  facet normal  6.481230e-001  6.962889e-001  3.084129e-001
    outer loop
      vertex  2.754930e+001 -3.000000e+000  2.950596e+001
      vertex  2.575594e+001  0.000000e+000  2.650172e+001
      vertex  2.460846e+001  0.000000e+000  2.891312e+001
    endloop
  endfacet
  facet normal  7.053528e-001  7.053529e-001  7.038823e-002
    outer loop
      vertex  2.754930e+001 -3.000000e+000  2.950596e+001
      vertex  2.460846e+001  0.000000e+000  2.891312e+001
      vertex  2.450000e+001  2.452261e-012  3.000000e+001
    endloop
  endfacet
  facet normal  7.053528e-001  7.053528e-001  7.038905e-002
    outer loop
      vertex  2.754930e+001 -3.000000e+000  2.950596e+001
      vertex  2.450000e+001  2.452261e-012  3.000000e+001
      vertex  2.750000e+001 -3.000000e+000  3.000000e+001
    endloop
  endfacet
  facet normal -5.388045e-001  6.868955e-001  4.877133e-001
    outer loop
      vertex  3.485168e+001  0.000000e+000  2.740940e+001
      vertex  3.305956e+001  0.000000e+000  2.542954e+001
      vertex  3.185346e+001 -3.000000e+000  2.832229e+001
    endloop
  endfacet
  facet normal -2.338058e-001  7.219566e-001  6.512399e-001
    outer loop
      vertex  3.185346e+001 -3.000000e+000  2.832229e+001
      vertex  3.305956e+001  0.000000e+000  2.542954e+001
      vertex  3.054614e+001  0.000000e+000  2.452718e+001
    endloop
  endfacet
  facet normal -3.293574e-001  6.822305e-001  6.527519e-001
    outer loop
      vertex  3.185346e+001 -3.000000e+000  2.832229e+001
      vertex  3.054614e+001  0.000000e+000  2.452718e+001
      vertex  3.024825e+001 -3.000000e+000  2.751236e+001
    endloop
  endfacet
  facet normal  4.782161e-012  1.000000e+000 -3.024934e-012
    outer loop
      vertex -5.200000e+001  0.000000e+000  0.000000e+000
      vertex -5.200000e+001  1.778186e-010  5.878431e+001
      vertex -3.476314e+001  0.000000e+000  2.725000e+001
    endloop
  endfacet
  facet normal  0.000000e+000  1.000000e+000  0.000000e+000
    outer loop
      vertex -5.200000e+001  0.000000e+000  0.000000e+000
      vertex -3.476314e+001  0.000000e+000  2.725000e+001
      vertex -3.275000e+001  0.000000e+000  2.523686e+001
    endloop
  endfacet
  facet normal  0.000000e+000  1.000000e+000  0.000000e+000
    outer loop
      vertex -5.200000e+001  0.000000e+000  0.000000e+000
      vertex -3.275000e+001  0.000000e+000  2.523686e+001
      vertex -3.000000e+001  0.000000e+000  2.450000e+001
    endloop
  endfacet
  facet normal  0.000000e+000  1.000000e+000  0.000000e+000
    outer loop
      vertex -5.200000e+001  0.000000e+000  0.000000e+000
      vertex -3.000000e+001  0.000000e+000  2.450000e+001
      vertex  0.000000e+000  0.000000e+000  0.000000e+000
    endloop
  endfacet
  facet normal  0.000000e+000  1.000000e+000 -7.503095e-012
    outer loop
      vertex -5.200000e+001  1.778186e-010  5.878431e+001
      vertex  0.000000e+000  1.778186e-010  5.878431e+001
      vertex -2.790396e+001  0.000000e+000  3.508494e+001
    endloop
  endfacet
  facet normal -1.294711e-012  9.999999e-001 -8.819476e-012
    outer loop
      vertex -5.200000e+001  1.778186e-010  5.878431e+001
      vertex -2.790396e+001  0.000000e+000  3.508494e+001
      vertex -3.054614e+001  0.000000e+000  3.547282e+001
    endloop
  endfacet
  facet normal  2.058434e-012  1.000000e+000 -5.733536e-012
    outer loop
      vertex -5.200000e+001  1.778186e-010  5.878431e+001
      vertex -3.054614e+001  0.000000e+000  3.547282e+001
      vertex -3.305956e+001  0.000000e+000  3.457046e+001
    endloop
  endfacet
  facet normal  4.352086e-012  1.000000e+000 -3.939407e-012
    outer loop
      vertex -5.200000e+001  1.778186e-010  5.878431e+001
      vertex -3.305956e+001  0.000000e+000  3.457046e+001
      vertex -3.485168e+001  0.000000e+000  3.259060e+001
    endloop
  endfacet
  facet normal  7.501783e-012  9.999999e-001 -1.877384e-012
    outer loop
      vertex -5.200000e+001  1.778186e-010  5.878431e+001
      vertex -3.485168e+001  0.000000e+000  3.259060e+001
      vertex -3.550000e+001  0.000000e+000  3.000000e+001
    endloop
  endfacet
  facet normal  2.023599e-011  1.000000e+000  5.422232e-012
    outer loop
      vertex -5.200000e+001  1.778186e-010  5.878431e+001
      vertex -3.550000e+001  0.000000e+000  3.000000e+001
      vertex -3.476314e+001  0.000000e+000  2.725000e+001
    endloop
  endfacet
  facet normal -8.919811e-012  1.000000e+000  1.499617e-012
    outer loop
      vertex  0.000000e+000  1.778186e-010  5.878431e+001
      vertex -2.523686e+001  0.000000e+000  2.725000e+001
      vertex -2.450000e+001  2.448708e-012  3.000000e+001
    endloop
  endfacet
  facet normal -8.775989e-012  1.000000e+000  1.377201e-012
    outer loop
      vertex  0.000000e+000  1.778186e-010  5.878431e+001
      vertex -2.450000e+001  2.448708e-012  3.000000e+001
      vertex -2.460846e+001  0.000000e+000  3.108688e+001
    endloop
  endfacet
  facet normal -4.705636e-012  1.000000e+000 -2.239203e-012
    outer loop
      vertex  0.000000e+000  1.778186e-010  5.878431e+001
      vertex -2.460846e+001  0.000000e+000  3.108688e+001
      vertex -2.575594e+001  0.000000e+000  3.349828e+001
    endloop
  endfacet
  facet normal -2.964229e-012  9.999999e-001 -4.012971e-012
    outer loop
      vertex  0.000000e+000  1.778186e-010  5.878431e+001
      vertex -2.575594e+001  0.000000e+000  3.349828e+001
      vertex -2.790396e+001  0.000000e+000  3.508494e+001
    endloop
  endfacet
  facet normal  -0.000000e+000  1.000000e+000  0.000000e+000
    outer loop
      vertex  0.000000e+000  0.000000e+000  0.000000e+000
      vertex -3.000000e+001  0.000000e+000  2.450000e+001
      vertex -2.725000e+001  0.000000e+000  2.523686e+001
    endloop
  endfacet
  facet normal  -0.000000e+000  1.000000e+000  0.000000e+000
    outer loop
      vertex  0.000000e+000  0.000000e+000  0.000000e+000
      vertex -2.725000e+001  0.000000e+000  2.523686e+001
      vertex -2.523686e+001  0.000000e+000  2.725000e+001
    endloop
  endfacet
  facet normal -3.266232e-012  1.000000e+000 -3.024934e-012
    outer loop
      vertex  0.000000e+000  0.000000e+000  0.000000e+000
      vertex -2.523686e+001  0.000000e+000  2.725000e+001
      vertex  0.000000e+000  1.778186e-010  5.878431e+001
    endloop
  endfacet
  facet normal  3.112523e-012  1.000000e+000 -3.024934e-012
    outer loop
      vertex  0.000000e+000  0.000000e+000  0.000000e+000
      vertex  0.000000e+000  1.778186e-010  5.878431e+001
      vertex  2.575594e+001  0.000000e+000  2.650172e+001
    endloop
  endfacet
  facet normal  0.000000e+000  1.000000e+000  0.000000e+000
    outer loop
      vertex  0.000000e+000  0.000000e+000  0.000000e+000
      vertex  2.575594e+001  0.000000e+000  2.650172e+001
      vertex  2.790396e+001  0.000000e+000  2.491506e+001
    endloop
  endfacet
  facet normal  0.000000e+000  1.000000e+000  0.000000e+000
    outer loop
      vertex  0.000000e+000  0.000000e+000  0.000000e+000
      vertex  2.790396e+001  0.000000e+000  2.491506e+001
      vertex  3.054614e+001  0.000000e+000  2.452718e+001
    endloop
  endfacet
  facet normal  0.000000e+000  1.000000e+000  0.000000e+000
    outer loop
      vertex  0.000000e+000  0.000000e+000  0.000000e+000
      vertex  3.054614e+001  0.000000e+000  2.452718e+001
      vertex  5.200000e+001  0.000000e+000  0.000000e+000
    endloop
  endfacet
  facet normal  0.000000e+000  1.000000e+000 -7.636843e-012
    outer loop
      vertex  0.000000e+000  1.778186e-010  5.878431e+001
      vertex  5.200000e+001  1.778186e-010  5.878431e+001
      vertex  3.000000e+001  0.000000e+000  3.550000e+001
    endloop
  endfacet
  facet normal  1.521143e-012  1.000000e+000 -5.676970e-012
    outer loop
      vertex  0.000000e+000  1.778186e-010  5.878431e+001
      vertex  3.000000e+001  0.000000e+000  3.550000e+001
      vertex  2.725000e+001  0.000000e+000  3.476314e+001
    endloop
  endfacet
  facet normal  3.468198e-012  9.999999e-001 -3.468201e-012
    outer loop
      vertex  0.000000e+000  1.778186e-010  5.878431e+001
      vertex  2.725000e+001  0.000000e+000  3.476314e+001
      vertex  2.523686e+001  0.000000e+000  3.275000e+001
    endloop
  endfacet
  facet normal  6.240832e-012  1.000000e+000 -7.804946e-013
    outer loop
      vertex  0.000000e+000  1.778186e-010  5.878431e+001
      vertex  2.523686e+001  0.000000e+000  3.275000e+001
      vertex  2.450000e+001  2.452261e-012  3.000000e+001
    endloop
  endfacet
  facet normal  5.105617e-012  1.000000e+000 -1.746742e-012
    outer loop
      vertex  0.000000e+000  1.778186e-010  5.878431e+001
      vertex  2.450000e+001  2.452261e-012  3.000000e+001
      vertex  2.460846e+001  0.000000e+000  2.891312e+001
    endloop
  endfacet
  facet normal  1.710767e-011  1.000000e+000  8.140780e-012
    outer loop
      vertex  0.000000e+000  1.778186e-010  5.878431e+001
      vertex  2.460846e+001  0.000000e+000  2.891312e+001
      vertex  2.575594e+001  0.000000e+000  2.650172e+001
    endloop
  endfacet
  facet normal -1.912751e-011  9.999999e-001  4.786816e-012
    outer loop
      vertex  5.200000e+001  1.778186e-010  5.878431e+001
      vertex  3.485168e+001  0.000000e+000  2.740940e+001
      vertex  3.550000e+001  0.000000e+000  3.000000e+001
    endloop
  endfacet
  facet normal -7.344008e-012  1.000000e+000 -1.967826e-012
    outer loop
      vertex  5.200000e+001  1.778186e-010  5.878431e+001
      vertex  3.550000e+001  0.000000e+000  3.000000e+001
      vertex  3.476314e+001  0.000000e+000  3.275000e+001
    endloop
  endfacet
  facet normal -4.109407e-012  1.000000e+000 -4.109399e-012
    outer loop
      vertex  5.200000e+001  1.778186e-010  5.878431e+001
      vertex  3.476314e+001  0.000000e+000  3.275000e+001
      vertex  3.275000e+001  0.000000e+000  3.476314e+001
    endloop
  endfacet
  facet normal -1.632885e-012  1.000000e+000 -6.094025e-012
    outer loop
      vertex  5.200000e+001  1.778186e-010  5.878431e+001
      vertex  3.275000e+001  0.000000e+000  3.476314e+001
      vertex  3.000000e+001  0.000000e+000  3.550000e+001
    endloop
  endfacet
  facet normal  -0.000000e+000  1.000000e+000  0.000000e+000
    outer loop
      vertex  5.200000e+001  0.000000e+000  0.000000e+000
      vertex  3.054614e+001  0.000000e+000  2.452718e+001
      vertex  3.305956e+001  0.000000e+000  2.542954e+001
    endloop
  endfacet
  facet normal  -0.000000e+000  1.000000e+000  0.000000e+000
    outer loop
      vertex  5.200000e+001  0.000000e+000  0.000000e+000
      vertex  3.305956e+001  0.000000e+000  2.542954e+001
      vertex  3.485168e+001  0.000000e+000  2.740940e+001
    endloop
  endfacet
  facet normal -4.834971e-012  1.000000e+000 -3.024934e-012
    outer loop
      vertex  5.200000e+001  0.000000e+000  0.000000e+000
      vertex  3.485168e+001  0.000000e+000  2.740940e+001
      vertex  5.200000e+001  1.778186e-010  5.878431e+001
    endloop
  endfacet
  facet normal  0.000000e+000  7.071068e-001 -7.071068e-001
    outer loop
      vertex -7.200000e+001  9.800000e+001 -2.200000e+001
      vertex -7.200000e+001  1.000000e+002 -2.000000e+001
      vertex -5.000000e+000  9.800000e+001 -2.200000e+001
    endloop
  endfacet
  facet normal  0.000000e+000  7.071068e-001 -7.071068e-001
    outer loop
      vertex -5.000000e+000  9.800000e+001 -2.200000e+001
      vertex -7.200000e+001  1.000000e+002 -2.000000e+001
      vertex -5.000000e+000  1.000000e+002 -2.000000e+001
    endloop
  endfacet
  facet normal  1.000000e+000  0.000000e+000  0.000000e+000
    outer loop
      vertex -5.000000e+000  9.670968e+001 -1.986180e-010
      vertex -5.000000e+000  5.000000e+001  0.000000e+000
      vertex -5.000000e+000  1.000000e+002 -2.000000e+000
    endloop
  endfacet
  facet normal  1.000000e+000  0.000000e+000  0.000000e+000
    outer loop
      vertex -5.000000e+000  9.800000e+001 -2.200000e+001
      vertex -5.000000e+000  1.000000e+002 -2.000000e+001
      vertex -5.000000e+000  5.000000e+001 -2.200000e+001
    endloop
  endfacet
  facet normal  1.000000e+000  0.000000e+000  0.000000e+000
    outer loop
      vertex -5.000000e+000  5.000000e+001 -2.200000e+001
      vertex -5.000000e+000  1.000000e+002 -2.000000e+001
      vertex -5.000000e+000  1.000000e+002 -2.000000e+000
    endloop
  endfacet
  facet normal  1.000000e+000  0.000000e+000  0.000000e+000
    outer loop
      vertex -5.000000e+000  5.000000e+001 -2.200000e+001
      vertex -5.000000e+000  1.000000e+002 -2.000000e+000
      vertex -5.000000e+000  5.000000e+001  0.000000e+000
    endloop
  endfacet
  facet normal -1.000000e+000  0.000000e+000  0.000000e+000
    outer loop
      vertex -7.200000e+001  1.000000e+002 -2.000000e+000
      vertex -7.200000e+001 -2.200000e+001  6.000000e+001
      vertex -7.200000e+001 -2.000000e+000  6.000000e+001
    endloop
  endfacet
  facet normal -1.000000e+000  -0.000000e+000  0.000000e+000
    outer loop
      vertex -7.200000e+001 -2.200000e+001  6.000000e+001
      vertex -7.200000e+001  1.000000e+002 -2.000000e+000
      vertex -7.200000e+001 -2.200000e+001 -2.200000e+001
    endloop
  endfacet
  facet normal -1.000000e+000  0.000000e+000  0.000000e+000
    outer loop
      vertex -7.200000e+001 -2.200000e+001 -2.200000e+001
      vertex -7.200000e+001  1.000000e+002 -2.000000e+000
      vertex -7.200000e+001  1.000000e+002 -2.000000e+001
    endloop
  endfacet
  facet normal -1.000000e+000  0.000000e+000  0.000000e+000
    outer loop
      vertex -7.200000e+001 -2.200000e+001 -2.200000e+001
      vertex -7.200000e+001  1.000000e+002 -2.000000e+001
      vertex -7.200000e+001  9.800000e+001 -2.200000e+001
    endloop
  endfacet
  facet normal  0.000000e+000  1.000000e+000  -0.000000e+000
    outer loop
      vertex -5.000000e+000  1.000000e+002 -2.000000e+000
      vertex -5.000000e+000  1.000000e+002 -2.000000e+001
      vertex -7.200000e+001  1.000000e+002 -2.000000e+000
    endloop
  endfacet
  facet normal  0.000000e+000  1.000000e+000  0.000000e+000
    outer loop
      vertex -7.200000e+001  1.000000e+002 -2.000000e+000
      vertex -5.000000e+000  1.000000e+002 -2.000000e+001
      vertex -7.200000e+001  1.000000e+002 -2.000000e+001
    endloop
  endfacet
  facet normal -1.000000e+000  0.000000e+000  0.000000e+000
    outer loop
      vertex  5.200000e+001  9.670968e+001 -1.986180e-010
      vertex  5.200000e+001  0.000000e+000  0.000000e+000
      vertex  5.200000e+001  1.778186e-010  5.878431e+001
    endloop
  endfacet
  facet normal  0.000000e+000  0.000000e+000  1.000000e+000
    outer loop
      vertex -7.200000e+001 -2.000000e+000  6.000000e+001
      vertex -7.200000e+001 -2.200000e+001  6.000000e+001
      vertex  7.200000e+001 -2.000000e+000  6.000000e+001
    endloop
  endfacet
  facet normal  0.000000e+000  0.000000e+000  1.000000e+000
    outer loop
      vertex  7.200000e+001 -2.000000e+000  6.000000e+001
      vertex -7.200000e+001 -2.200000e+001  6.000000e+001
      vertex  5.200000e+001 -2.200000e+001  6.000000e+001
    endloop
  endfacet
  facet normal  0.000000e+000  0.000000e+000  1.000000e+000
    outer loop
      vertex  7.200000e+001 -2.000000e+000  6.000000e+001
      vertex  5.200000e+001 -2.200000e+001  6.000000e+001
      vertex  7.200000e+001 -2.200000e+001  6.000000e+001
    endloop
  endfacet
  facet normal  0.000000e+000 -1.000000e+000  0.000000e+000
    outer loop
      vertex  5.200000e+001 -2.200000e+001 -2.200000e+001
      vertex  7.200000e+001 -2.200000e+001 -2.200000e+001
      vertex  5.200000e+001 -2.200000e+001  6.000000e+001
    endloop
  endfacet
  facet normal  0.000000e+000 -1.000000e+000  0.000000e+000
    outer loop
      vertex  5.200000e+001 -2.200000e+001  6.000000e+001
      vertex  7.200000e+001 -2.200000e+001 -2.200000e+001
      vertex  7.200000e+001 -2.200000e+001  6.000000e+001
    endloop
  endfacet
  facet normal -2.588188e-001  9.659259e-001  0.000000e+000
    outer loop
      vertex  1.917379e-016  4.500000e+001 -2.200000e+001
      vertex  2.500000e+000  4.566987e+001  0.000000e+000
      vertex  2.500000e+000  4.566987e+001 -2.200000e+001
    endloop
  endfacet
  facet normal -7.071069e-001  7.071066e-001  0.000000e+000
    outer loop
      vertex  2.500000e+000  4.566987e+001 -2.200000e+001
      vertex  2.500000e+000  4.566987e+001  0.000000e+000
      vertex  4.330127e+000  4.750000e+001  0.000000e+000
    endloop
  endfacet
  facet normal -7.071069e-001  7.071066e-001  0.000000e+000
    outer loop
      vertex  2.500000e+000  4.566987e+001 -2.200000e+001
      vertex  4.330127e+000  4.750000e+001  0.000000e+000
      vertex  4.330127e+000  4.750000e+001 -2.200000e+001
    endloop
  endfacet
  facet normal -9.659259e-001  2.588190e-001  0.000000e+000
    outer loop
      vertex  4.330127e+000  4.750000e+001 -2.200000e+001
      vertex  4.330127e+000  4.750000e+001  0.000000e+000
      vertex  5.000000e+000  5.000000e+001  0.000000e+000
    endloop
  endfacet
  facet normal -9.659259e-001  2.588190e-001  0.000000e+000
    outer loop
      vertex  4.330127e+000  4.750000e+001 -2.200000e+001
      vertex  5.000000e+000  5.000000e+001  0.000000e+000
      vertex  5.000000e+000  5.000000e+001 -2.200000e+001
    endloop
  endfacet
  facet normal -2.588188e-001  9.659259e-001 -2.351018e-017
    outer loop
      vertex  2.500000e+000  4.566987e+001  0.000000e+000
      vertex  1.917379e-016  4.500000e+001 -2.200000e+001
      vertex -1.806663e-015  4.500000e+001  0.000000e+000
    endloop
  endfacet
  facet normal  2.588188e-001  9.659259e-001  2.351018e-017
    outer loop
      vertex -1.806663e-015  4.500000e+001  0.000000e+000
      vertex  1.917379e-016  4.500000e+001 -2.200000e+001
      vertex -2.500000e+000  4.566987e+001 -2.200000e+001
    endloop
  endfacet
  facet normal  2.588188e-001  9.659259e-001  -0.000000e+000
    outer loop
      vertex -1.806663e-015  4.500000e+001  0.000000e+000
      vertex -2.500000e+000  4.566987e+001 -2.200000e+001
      vertex -2.500000e+000  4.566987e+001  0.000000e+000
    endloop
  endfacet
  facet normal  7.071069e-001  7.071066e-001  0.000000e+000
    outer loop
      vertex -2.500000e+000  4.566987e+001  0.000000e+000
      vertex -2.500000e+000  4.566987e+001 -2.200000e+001
      vertex -4.330127e+000  4.750000e+001 -2.200000e+001
    endloop
  endfacet
  facet normal  7.071069e-001  7.071066e-001  -0.000000e+000
    outer loop
      vertex -2.500000e+000  4.566987e+001  0.000000e+000
      vertex -4.330127e+000  4.750000e+001 -2.200000e+001
      vertex -4.330127e+000  4.750000e+001  0.000000e+000
    endloop
  endfacet
  facet normal  9.659259e-001  2.588190e-001  0.000000e+000
    outer loop
      vertex -4.330127e+000  4.750000e+001  0.000000e+000
      vertex -4.330127e+000  4.750000e+001 -2.200000e+001
      vertex -5.000000e+000  5.000000e+001 -2.200000e+001
    endloop
  endfacet
  facet normal  9.659259e-001  2.588190e-001  -0.000000e+000
    outer loop
      vertex -4.330127e+000  4.750000e+001  0.000000e+000
      vertex -5.000000e+000  5.000000e+001 -2.200000e+001
      vertex -5.000000e+000  5.000000e+001  0.000000e+000
    endloop
  endfacet
  facet normal  1.000000e+000  -0.000000e+000  0.000000e+000
    outer loop
      vertex -5.200000e+001  1.778186e-010  5.878431e+001
      vertex -5.200000e+001  0.000000e+000  0.000000e+000
      vertex -5.200000e+001  9.670968e+001 -1.986180e-010
    endloop
  endfacet
  facet normal  0.000000e+000  2.053755e-012  1.000000e+000
    outer loop
      vertex  5.200000e+001  0.000000e+000  0.000000e+000
      vertex  5.200000e+001  9.670968e+001 -1.986180e-010
      vertex  5.000000e+000  9.670968e+001 -1.986180e-010
    endloop
  endfacet
  facet normal  4.523597e-012  4.252181e-012  1.000000e+000
    outer loop
      vertex  5.200000e+001  0.000000e+000  0.000000e+000
      vertex  5.000000e+000  9.670968e+001 -1.986180e-010
      vertex  5.000000e+000  5.000000e+001  0.000000e+000
    endloop
  endfacet
  facet normal  0.000000e+000  0.000000e+000  1.000000e+000
    outer loop
      vertex  5.200000e+001  0.000000e+000  0.000000e+000
      vertex  5.000000e+000  5.000000e+001  0.000000e+000
      vertex  4.330127e+000  4.750000e+001  0.000000e+000
    endloop
  endfacet
  facet normal  0.000000e+000  0.000000e+000  1.000000e+000
    outer loop
      vertex  5.200000e+001  0.000000e+000  0.000000e+000
      vertex  4.330127e+000  4.750000e+001  0.000000e+000
      vertex  2.500000e+000  4.566987e+001  0.000000e+000
    endloop
  endfacet
  facet normal  0.000000e+000  0.000000e+000  1.000000e+000
    outer loop
      vertex  5.200000e+001  0.000000e+000  0.000000e+000
      vertex  2.500000e+000  4.566987e+001  0.000000e+000
      vertex -1.806663e-015  4.500000e+001  0.000000e+000
    endloop
  endfacet
  facet normal  0.000000e+000  0.000000e+000  1.000000e+000
    outer loop
      vertex  5.200000e+001  0.000000e+000  0.000000e+000
      vertex -1.806663e-015  4.500000e+001  0.000000e+000
      vertex  0.000000e+000  0.000000e+000  0.000000e+000
    endloop
  endfacet
  facet normal  0.000000e+000  0.000000e+000  1.000000e+000
    outer loop
      vertex -5.200000e+001  0.000000e+000  0.000000e+000
      vertex  0.000000e+000  0.000000e+000  0.000000e+000
      vertex -1.806663e-015  4.500000e+001  0.000000e+000
    endloop
  endfacet
  facet normal  0.000000e+000  0.000000e+000  1.000000e+000
    outer loop
      vertex -5.200000e+001  0.000000e+000  0.000000e+000
      vertex -1.806663e-015  4.500000e+001  0.000000e+000
      vertex -2.500000e+000  4.566987e+001  0.000000e+000
    endloop
  endfacet
  facet normal  0.000000e+000  0.000000e+000  1.000000e+000
    outer loop
      vertex -5.200000e+001  0.000000e+000  0.000000e+000
      vertex -2.500000e+000  4.566987e+001  0.000000e+000
      vertex -4.330127e+000  4.750000e+001  0.000000e+000
    endloop
  endfacet
  facet normal  0.000000e+000  0.000000e+000  1.000000e+000
    outer loop
      vertex -5.200000e+001  0.000000e+000  0.000000e+000
      vertex -4.330127e+000  4.750000e+001  0.000000e+000
      vertex -5.000000e+000  5.000000e+001  0.000000e+000
    endloop
  endfacet
  facet normal -4.523597e-012  4.252181e-012  1.000000e+000
    outer loop
      vertex -5.200000e+001  0.000000e+000  0.000000e+000
      vertex -5.000000e+000  5.000000e+001  0.000000e+000
      vertex -5.000000e+000  9.670968e+001 -1.986180e-010
    endloop
  endfacet
  facet normal  0.000000e+000  2.053755e-012  1.000000e+000
    outer loop
      vertex -5.200000e+001  0.000000e+000  0.000000e+000
      vertex -5.000000e+000  9.670968e+001 -1.986180e-010
      vertex -5.200000e+001  9.670968e+001 -1.986180e-010
    endloop
  endfacet
  facet normal  3.195826e-008  5.194153e-001  8.545219e-001
    outer loop
      vertex  7.200000e+001 -2.000000e+000  6.000000e+001
      vertex  7.200000e+001  1.000000e+002 -2.000000e+000
      vertex  5.200000e+001  9.670968e+001 -1.986180e-010
    endloop
  endfacet
  facet normal  0.000000e+000  5.194153e-001  8.545220e-001
    outer loop
      vertex  7.200000e+001 -2.000000e+000  6.000000e+001
      vertex  5.200000e+001  9.670968e+001 -1.986180e-010
      vertex  5.200000e+001  1.778186e-010  5.878431e+001
    endloop
  endfacet
  facet normal  0.000000e+000  5.194154e-001  8.545219e-001
    outer loop
      vertex  7.200000e+001 -2.000000e+000  6.000000e+001
      vertex  5.200000e+001  1.778186e-010  5.878431e+001
      vertex  0.000000e+000  1.778186e-010  5.878431e+001
    endloop
  endfacet
  facet normal  0.000000e+000  5.194154e-001  8.545219e-001
    outer loop
      vertex  7.200000e+001 -2.000000e+000  6.000000e+001
      vertex  0.000000e+000  1.778186e-010  5.878431e+001
      vertex -5.200000e+001  1.778186e-010  5.878431e+001
    endloop
  endfacet
  facet normal  0.000000e+000  5.194155e-001  8.545219e-001
    outer loop
      vertex  7.200000e+001 -2.000000e+000  6.000000e+001
      vertex -5.200000e+001  1.778186e-010  5.878431e+001
      vertex -7.200000e+001 -2.000000e+000  6.000000e+001
    endloop
  endfacet
  facet normal  0.000000e+000  5.194154e-001  8.545218e-001
    outer loop
      vertex  5.200000e+001  9.670968e+001 -1.986180e-010
      vertex  7.200000e+001  1.000000e+002 -2.000000e+000
      vertex  5.000000e+000  9.670968e+001 -1.986180e-010
    endloop
  endfacet
  facet normal  0.000000e+000  5.194154e-001  8.545218e-001
    outer loop
      vertex  5.000000e+000  9.670968e+001 -1.986180e-010
      vertex  7.200000e+001  1.000000e+002 -2.000000e+000
      vertex  5.000000e+000  1.000000e+002 -2.000000e+000
    endloop
  endfacet
  facet normal  2.237078e-008  5.194153e-001  8.545219e-001
    outer loop
      vertex -7.200000e+001 -2.000000e+000  6.000000e+001
      vertex -5.200000e+001  1.778186e-010  5.878431e+001
      vertex -7.200000e+001  1.000000e+002 -2.000000e+000
    endloop
  endfacet
  facet normal -3.370648e-008  5.194153e-001  8.545220e-001
    outer loop
      vertex -7.200000e+001  1.000000e+002 -2.000000e+000
      vertex -5.200000e+001  1.778186e-010  5.878431e+001
      vertex -5.200000e+001  9.670968e+001 -1.986180e-010
    endloop
  endfacet
  facet normal  0.000000e+000  5.194154e-001  8.545218e-001
    outer loop
      vertex -7.200000e+001  1.000000e+002 -2.000000e+000
      vertex -5.200000e+001  9.670968e+001 -1.986180e-010
      vertex -5.000000e+000  1.000000e+002 -2.000000e+000
    endloop
  endfacet
  facet normal  0.000000e+000  5.194154e-001  8.545218e-001
    outer loop
      vertex -5.000000e+000  1.000000e+002 -2.000000e+000
      vertex -5.200000e+001  9.670968e+001 -1.986180e-010
      vertex -5.000000e+000  9.670968e+001 -1.986180e-010
    endloop
  endfacet
endsolid CATIA STL
